<?xml version="1.0" encoding="utf-8" standalone="no"?>
<!DOCTYPE svg PUBLIC "-//W3C//DTD SVG 1.1//EN"
  "http://www.w3.org/Graphics/SVG/1.1/DTD/svg11.dtd">
<svg xmlns:xlink="http://www.w3.org/1999/xlink" width="1002.291929pt" height="349.856582pt" viewBox="0 0 1002.291929 349.856582" xmlns="http://www.w3.org/2000/svg" version="1.1">
 <metadata>
  <rdf:RDF xmlns:dc="http://purl.org/dc/elements/1.1/" xmlns:cc="http://creativecommons.org/ns#" xmlns:rdf="http://www.w3.org/1999/02/22-rdf-syntax-ns#">
   <cc:Work>
    <dc:type rdf:resource="http://purl.org/dc/dcmitype/StillImage"/>
    <dc:date>2026-04-15T12:02:20.006643</dc:date>
    <dc:format>image/svg+xml</dc:format>
    <dc:creator>
     <cc:Agent>
      <dc:title>Matplotlib v3.10.6, https://matplotlib.org/</dc:title>
     </cc:Agent>
    </dc:creator>
   </cc:Work>
  </rdf:RDF>
 </metadata>
 <defs>
  <style type="text/css">*{stroke-linejoin: round; stroke-linecap: butt}</style>
 </defs>
 <g id="figure_1">
  <g id="patch_1">
   <path d="M 0 349.856582 
L 1002.291929 349.856582 
L 1002.291929 0 
L 0 0 
z
" style="fill: #ffffff"/>
  </g>
  <g id="axes_1">
   <g id="patch_2">
    <path d="M 282.301992 88.527911 
L 267.415265 88.527911 
L 264.323714 91.593039 
" style="fill: none; stroke: #000000; stroke-linecap: round"/>
   </g>
   <g id="text_1">
    <!-- BEV -->
    <g transform="translate(286.30247 91.287286) scale(0.1 -0.1)">
     <defs>
      <path id="DejaVuSans-42" d="M 1259 2228 
L 1259 519 
L 2272 519 
Q 2781 519 3026 730 
Q 3272 941 3272 1375 
Q 3272 1813 3026 2020 
Q 2781 2228 2272 2228 
L 1259 2228 
z
M 1259 4147 
L 1259 2741 
L 2194 2741 
Q 2656 2741 2882 2914 
Q 3109 3088 3109 3444 
Q 3109 3797 2882 3972 
Q 2656 4147 2194 4147 
L 1259 4147 
z
M 628 4666 
L 2241 4666 
Q 2963 4666 3353 4366 
Q 3744 4066 3744 3513 
Q 3744 3084 3544 2831 
Q 3344 2578 2956 2516 
Q 3422 2416 3680 2098 
Q 3938 1781 3938 1306 
Q 3938 681 3513 340 
Q 3088 0 2303 0 
L 628 0 
L 628 4666 
z
" transform="scale(0.015625)"/>
      <path id="DejaVuSans-45" d="M 628 4666 
L 3578 4666 
L 3578 4134 
L 1259 4134 
L 1259 2753 
L 3481 2753 
L 3481 2222 
L 1259 2222 
L 1259 531 
L 3634 531 
L 3634 0 
L 628 0 
L 628 4666 
z
" transform="scale(0.015625)"/>
      <path id="DejaVuSans-56" d="M 1831 0 
L 50 4666 
L 709 4666 
L 2188 738 
L 3669 4666 
L 4325 4666 
L 2547 0 
L 1831 0 
z
" transform="scale(0.015625)"/>
     </defs>
     <use xlink:href="#DejaVuSans-42"/>
     <use xlink:href="#DejaVuSans-45" transform="translate(68.603516 0)"/>
     <use xlink:href="#DejaVuSans-56" transform="translate(131.787109 0)"/>
    </g>
   </g>
   <g id="patch_3">
    <path d="M 294.410762 241.126509 
L 292.525325 241.126509 
L 288.614635 239.213595 
" style="fill: none; stroke: #000000; stroke-linecap: round"/>
   </g>
   <g id="text_2">
    <!-- Hybrid -->
    <g transform="translate(298.407841 243.885884) scale(0.1 -0.1)">
     <defs>
      <path id="DejaVuSans-48" d="M 628 4666 
L 1259 4666 
L 1259 2753 
L 3553 2753 
L 3553 4666 
L 4184 4666 
L 4184 0 
L 3553 0 
L 3553 2222 
L 1259 2222 
L 1259 0 
L 628 0 
L 628 4666 
z
" transform="scale(0.015625)"/>
      <path id="DejaVuSans-79" d="M 2059 -325 
Q 1816 -950 1584 -1140 
Q 1353 -1331 966 -1331 
L 506 -1331 
L 506 -850 
L 844 -850 
Q 1081 -850 1212 -737 
Q 1344 -625 1503 -206 
L 1606 56 
L 191 3500 
L 800 3500 
L 1894 763 
L 2988 3500 
L 3597 3500 
L 2059 -325 
z
" transform="scale(0.015625)"/>
      <path id="DejaVuSans-62" d="M 3116 1747 
Q 3116 2381 2855 2742 
Q 2594 3103 2138 3103 
Q 1681 3103 1420 2742 
Q 1159 2381 1159 1747 
Q 1159 1113 1420 752 
Q 1681 391 2138 391 
Q 2594 391 2855 752 
Q 3116 1113 3116 1747 
z
M 1159 2969 
Q 1341 3281 1617 3432 
Q 1894 3584 2278 3584 
Q 2916 3584 3314 3078 
Q 3713 2572 3713 1747 
Q 3713 922 3314 415 
Q 2916 -91 2278 -91 
Q 1894 -91 1617 61 
Q 1341 213 1159 525 
L 1159 0 
L 581 0 
L 581 4863 
L 1159 4863 
L 1159 2969 
z
" transform="scale(0.015625)"/>
      <path id="DejaVuSans-72" d="M 2631 2963 
Q 2534 3019 2420 3045 
Q 2306 3072 2169 3072 
Q 1681 3072 1420 2755 
Q 1159 2438 1159 1844 
L 1159 0 
L 581 0 
L 581 3500 
L 1159 3500 
L 1159 2956 
Q 1341 3275 1631 3429 
Q 1922 3584 2338 3584 
Q 2397 3584 2469 3576 
Q 2541 3569 2628 3553 
L 2631 2963 
z
" transform="scale(0.015625)"/>
      <path id="DejaVuSans-69" d="M 603 3500 
L 1178 3500 
L 1178 0 
L 603 0 
L 603 3500 
z
M 603 4863 
L 1178 4863 
L 1178 4134 
L 603 4134 
L 603 4863 
z
" transform="scale(0.015625)"/>
      <path id="DejaVuSans-64" d="M 2906 2969 
L 2906 4863 
L 3481 4863 
L 3481 0 
L 2906 0 
L 2906 525 
Q 2725 213 2448 61 
Q 2172 -91 1784 -91 
Q 1150 -91 751 415 
Q 353 922 353 1747 
Q 353 2572 751 3078 
Q 1150 3584 1784 3584 
Q 2172 3584 2448 3432 
Q 2725 3281 2906 2969 
z
M 947 1747 
Q 947 1113 1208 752 
Q 1469 391 1925 391 
Q 2381 391 2643 752 
Q 2906 1113 2906 1747 
Q 2906 2381 2643 2742 
Q 2381 3103 1925 3103 
Q 1469 3103 1208 2742 
Q 947 2381 947 1747 
z
" transform="scale(0.015625)"/>
     </defs>
     <use xlink:href="#DejaVuSans-48"/>
     <use xlink:href="#DejaVuSans-79" transform="translate(75.195312 0)"/>
     <use xlink:href="#DejaVuSans-62" transform="translate(134.375 0)"/>
     <use xlink:href="#DejaVuSans-72" transform="translate(197.851562 0)"/>
     <use xlink:href="#DejaVuSans-69" transform="translate(238.964844 0)"/>
     <use xlink:href="#DejaVuSans-64" transform="translate(266.748047 0)"/>
    </g>
   </g>
   <g id="patch_4">
    <path d="M 260.780277 288.071397 
L 254.264831 288.071397 
L 251.60227 284.627057 
" style="fill: none; stroke: #000000; stroke-linecap: round"/>
   </g>
   <g id="text_3">
    <!-- Other -->
    <g transform="translate(264.778605 290.830772) scale(0.1 -0.1)">
     <defs>
      <path id="DejaVuSans-4f" d="M 2522 4238 
Q 1834 4238 1429 3725 
Q 1025 3213 1025 2328 
Q 1025 1447 1429 934 
Q 1834 422 2522 422 
Q 3209 422 3611 934 
Q 4013 1447 4013 2328 
Q 4013 3213 3611 3725 
Q 3209 4238 2522 4238 
z
M 2522 4750 
Q 3503 4750 4090 4092 
Q 4678 3434 4678 2328 
Q 4678 1225 4090 567 
Q 3503 -91 2522 -91 
Q 1538 -91 948 565 
Q 359 1222 359 2328 
Q 359 3434 948 4092 
Q 1538 4750 2522 4750 
z
" transform="scale(0.015625)"/>
      <path id="DejaVuSans-74" d="M 1172 4494 
L 1172 3500 
L 2356 3500 
L 2356 3053 
L 1172 3053 
L 1172 1153 
Q 1172 725 1289 603 
Q 1406 481 1766 481 
L 2356 481 
L 2356 0 
L 1766 0 
Q 1100 0 847 248 
Q 594 497 594 1153 
L 594 3053 
L 172 3053 
L 172 3500 
L 594 3500 
L 594 4494 
L 1172 4494 
z
" transform="scale(0.015625)"/>
      <path id="DejaVuSans-68" d="M 3513 2113 
L 3513 0 
L 2938 0 
L 2938 2094 
Q 2938 2591 2744 2837 
Q 2550 3084 2163 3084 
Q 1697 3084 1428 2787 
Q 1159 2491 1159 1978 
L 1159 0 
L 581 0 
L 581 4863 
L 1159 4863 
L 1159 2956 
Q 1366 3272 1645 3428 
Q 1925 3584 2291 3584 
Q 2894 3584 3203 3211 
Q 3513 2838 3513 2113 
z
" transform="scale(0.015625)"/>
      <path id="DejaVuSans-65" d="M 3597 1894 
L 3597 1613 
L 953 1613 
Q 991 1019 1311 708 
Q 1631 397 2203 397 
Q 2534 397 2845 478 
Q 3156 559 3463 722 
L 3463 178 
Q 3153 47 2828 -22 
Q 2503 -91 2169 -91 
Q 1331 -91 842 396 
Q 353 884 353 1716 
Q 353 2575 817 3079 
Q 1281 3584 2069 3584 
Q 2775 3584 3186 3129 
Q 3597 2675 3597 1894 
z
M 3022 2063 
Q 3016 2534 2758 2815 
Q 2500 3097 2075 3097 
Q 1594 3097 1305 2825 
Q 1016 2553 972 2059 
L 3022 2063 
z
" transform="scale(0.015625)"/>
     </defs>
     <use xlink:href="#DejaVuSans-4f"/>
     <use xlink:href="#DejaVuSans-74" transform="translate(78.710938 0)"/>
     <use xlink:href="#DejaVuSans-68" transform="translate(117.919922 0)"/>
     <use xlink:href="#DejaVuSans-65" transform="translate(181.298828 0)"/>
     <use xlink:href="#DejaVuSans-72" transform="translate(242.822266 0)"/>
    </g>
   </g>
   <g id="patch_5">
    <path d="M 27.451803 224.886951 
L 46.10753 224.886951 
L 50.235438 223.503801 
" style="fill: none; stroke: #000000; stroke-linecap: round"/>
   </g>
   <g id="text_4">
    <!-- ICE -->
    <g transform="translate(7.2 227.646326) scale(0.1 -0.1)">
     <defs>
      <path id="DejaVuSans-49" d="M 628 4666 
L 1259 4666 
L 1259 0 
L 628 0 
L 628 4666 
z
" transform="scale(0.015625)"/>
      <path id="DejaVuSans-43" d="M 4122 4306 
L 4122 3641 
Q 3803 3938 3442 4084 
Q 3081 4231 2675 4231 
Q 1875 4231 1450 3742 
Q 1025 3253 1025 2328 
Q 1025 1406 1450 917 
Q 1875 428 2675 428 
Q 3081 428 3442 575 
Q 3803 722 4122 1019 
L 4122 359 
Q 3791 134 3420 21 
Q 3050 -91 2638 -91 
Q 1578 -91 968 557 
Q 359 1206 359 2328 
Q 359 3453 968 4101 
Q 1578 4750 2638 4750 
Q 3056 4750 3426 4639 
Q 3797 4528 4122 4306 
z
" transform="scale(0.015625)"/>
     </defs>
     <use xlink:href="#DejaVuSans-49"/>
     <use xlink:href="#DejaVuSans-43" transform="translate(29.492188 0)"/>
     <use xlink:href="#DejaVuSans-45" transform="translate(99.316406 0)"/>
    </g>
   </g>
   <g id="patch_6">
    <path d="M 295.848384 183.544959 
C 295.988017 167.277164 292.904265 151.141646 286.775506 136.071844 
C 280.646747 121.002042 271.593492 107.294269 260.139473 95.741513 
C 248.685454 84.188758 235.05591 75.018187 220.039265 68.760304 
C 205.022625 62.50242 188.914164 59.280276 172.645771 59.280276 
L 172.645774 124.126142 
C 180.351855 124.126142 187.982178 125.652421 195.095324 128.616682 
C 202.208471 131.580942 208.664571 135.924897 214.090159 141.397255 
C 219.515747 146.869613 223.804131 153.362768 226.707227 160.501095 
C 229.610323 167.639423 231.071048 175.282563 231.004906 182.988361 
z
" style="fill: #2ecc71"/>
   </g>
   <g id="patch_7">
    <path d="M 249.109304 279.096582 
C 263.54242 267.673165 275.233818 253.159224 283.321741 236.624574 
C 291.409664 220.089925 295.690391 201.951053 295.848384 183.544959 
L 231.004906 182.988361 
C 230.930067 191.707036 228.902355 200.299134 225.071233 208.131336 
C 221.240112 215.963538 215.702081 222.838563 208.865342 228.249656 
z
" style="fill: #e74c3c"/>
   </g>
   <g id="patch_8">
    <path d="M 246.878128 280.821335 
C 247.253267 280.538147 247.626776 280.252814 247.998647 279.965344 
C 248.370519 279.677875 248.740745 279.388282 249.109304 279.096582 
L 208.865342 228.249656 
C 208.690761 228.387829 208.515391 228.525005 208.339242 228.661175 
C 208.163092 228.797345 207.986167 228.932502 207.808469 229.066644 
z
" style="fill: #c7c7c7"/>
   </g>
   <g id="patch_9">
    <path d="M 172.645778 59.280276 
C 153.108049 59.280276 133.847661 63.927608 116.459767 72.837375 
C 99.071869 81.747141 84.050117 94.666393 72.638611 110.52516 
C 61.227105 126.383923 53.749826 144.731927 50.826035 164.049646 
C 47.902236 183.367366 49.614946 203.106332 55.822312 221.63176 
C 62.029677 240.157189 72.555465 256.943133 86.527932 270.599379 
C 100.500399 284.255625 117.522829 294.394458 136.185475 300.176197 
C 154.848121 305.957928 174.621113 307.218419 193.866854 303.853263 
C 213.112593 300.488106 231.284705 292.592824 246.878128 280.821335 
L 207.808469 229.066644 
C 200.422111 234.642612 191.814269 238.382483 182.697866 239.976504 
C 173.581462 241.570526 164.215308 240.973451 155.375107 238.234736 
C 146.534906 235.496018 138.47165 230.693413 131.853113 224.224665 
C 125.234576 217.755917 120.248677 209.80468 117.308346 201.029477 
C 114.368014 192.254274 113.556731 182.904238 114.941688 173.753738 
C 116.326642 164.60324 119.868511 155.91208 125.273961 148.400035 
C 130.679411 140.887987 137.794978 134.768341 146.031351 130.547926 
C 154.267722 126.32751 163.391063 124.126142 172.645777 124.126142 
z
" style="fill: #9e9e9e"/>
   </g>
   <g id="matplotlib.axis_1"/>
   <g id="matplotlib.axis_2"/>
   <g id="text_5">
    <!-- 25.1% -->
    <g transform="translate(221.346009 122.513806) scale(0.09 -0.09)">
     <defs>
      <path id="DejaVuSans-32" d="M 1228 531 
L 3431 531 
L 3431 0 
L 469 0 
L 469 531 
Q 828 903 1448 1529 
Q 2069 2156 2228 2338 
Q 2531 2678 2651 2914 
Q 2772 3150 2772 3378 
Q 2772 3750 2511 3984 
Q 2250 4219 1831 4219 
Q 1534 4219 1204 4116 
Q 875 4013 500 3803 
L 500 4441 
Q 881 4594 1212 4672 
Q 1544 4750 1819 4750 
Q 2544 4750 2975 4387 
Q 3406 4025 3406 3419 
Q 3406 3131 3298 2873 
Q 3191 2616 2906 2266 
Q 2828 2175 2409 1742 
Q 1991 1309 1228 531 
z
" transform="scale(0.015625)"/>
      <path id="DejaVuSans-35" d="M 691 4666 
L 3169 4666 
L 3169 4134 
L 1269 4134 
L 1269 2991 
Q 1406 3038 1543 3061 
Q 1681 3084 1819 3084 
Q 2600 3084 3056 2656 
Q 3513 2228 3513 1497 
Q 3513 744 3044 326 
Q 2575 -91 1722 -91 
Q 1428 -91 1123 -41 
Q 819 9 494 109 
L 494 744 
Q 775 591 1075 516 
Q 1375 441 1709 441 
Q 2250 441 2565 725 
Q 2881 1009 2881 1497 
Q 2881 1984 2565 2268 
Q 2250 2553 1709 2553 
Q 1456 2553 1204 2497 
Q 953 2441 691 2322 
L 691 4666 
z
" transform="scale(0.015625)"/>
      <path id="DejaVuSans-2e" d="M 684 794 
L 1344 794 
L 1344 0 
L 684 0 
L 684 794 
z
" transform="scale(0.015625)"/>
      <path id="DejaVuSans-31" d="M 794 531 
L 1825 531 
L 1825 4091 
L 703 3866 
L 703 4441 
L 1819 4666 
L 2450 4666 
L 2450 531 
L 3481 531 
L 3481 0 
L 794 0 
L 794 531 
z
" transform="scale(0.015625)"/>
      <path id="DejaVuSans-25" d="M 4653 2053 
Q 4381 2053 4226 1822 
Q 4072 1591 4072 1178 
Q 4072 772 4226 539 
Q 4381 306 4653 306 
Q 4919 306 5073 539 
Q 5228 772 5228 1178 
Q 5228 1588 5073 1820 
Q 4919 2053 4653 2053 
z
M 4653 2450 
Q 5147 2450 5437 2106 
Q 5728 1763 5728 1178 
Q 5728 594 5436 251 
Q 5144 -91 4653 -91 
Q 4153 -91 3862 251 
Q 3572 594 3572 1178 
Q 3572 1766 3864 2108 
Q 4156 2450 4653 2450 
z
M 1428 4353 
Q 1159 4353 1004 4120 
Q 850 3888 850 3481 
Q 850 3069 1003 2837 
Q 1156 2606 1428 2606 
Q 1700 2606 1854 2837 
Q 2009 3069 2009 3481 
Q 2009 3884 1853 4118 
Q 1697 4353 1428 4353 
z
M 4250 4750 
L 4750 4750 
L 1831 -91 
L 1331 -91 
L 4250 4750 
z
M 1428 4750 
Q 1922 4750 2215 4408 
Q 2509 4066 2509 3481 
Q 2509 2891 2217 2550 
Q 1925 2209 1428 2209 
Q 931 2209 642 2551 
Q 353 2894 353 3481 
Q 353 4063 643 4406 
Q 934 4750 1428 4750 
z
" transform="scale(0.015625)"/>
     </defs>
     <use xlink:href="#DejaVuSans-32"/>
     <use xlink:href="#DejaVuSans-35" transform="translate(63.623047 0)"/>
     <use xlink:href="#DejaVuSans-2e" transform="translate(127.246094 0)"/>
     <use xlink:href="#DejaVuSans-31" transform="translate(159.033203 0)"/>
     <use xlink:href="#DejaVuSans-25" transform="translate(222.65625 0)"/>
    </g>
   </g>
   <g id="text_6">
    <!-- 14.2% -->
    <g transform="translate(238.037237 223.94961) scale(0.09 -0.09)">
     <defs>
      <path id="DejaVuSans-34" d="M 2419 4116 
L 825 1625 
L 2419 1625 
L 2419 4116 
z
M 2253 4666 
L 3047 4666 
L 3047 1625 
L 3713 1625 
L 3713 1100 
L 3047 1100 
L 3047 0 
L 2419 0 
L 2419 1100 
L 313 1100 
L 313 1709 
L 2253 4666 
z
" transform="scale(0.015625)"/>
     </defs>
     <use xlink:href="#DejaVuSans-31"/>
     <use xlink:href="#DejaVuSans-34" transform="translate(63.623047 0)"/>
     <use xlink:href="#DejaVuSans-2e" transform="translate(127.246094 0)"/>
     <use xlink:href="#DejaVuSans-32" transform="translate(159.033203 0)"/>
     <use xlink:href="#DejaVuSans-25" transform="translate(222.65625 0)"/>
    </g>
   </g>
   <g id="text_7">
    <!-- 60.3% -->
    <g transform="translate(74.237648 213.154783) scale(0.09 -0.09)">
     <defs>
      <path id="DejaVuSans-36" d="M 2113 2584 
Q 1688 2584 1439 2293 
Q 1191 2003 1191 1497 
Q 1191 994 1439 701 
Q 1688 409 2113 409 
Q 2538 409 2786 701 
Q 3034 994 3034 1497 
Q 3034 2003 2786 2293 
Q 2538 2584 2113 2584 
z
M 3366 4563 
L 3366 3988 
Q 3128 4100 2886 4159 
Q 2644 4219 2406 4219 
Q 1781 4219 1451 3797 
Q 1122 3375 1075 2522 
Q 1259 2794 1537 2939 
Q 1816 3084 2150 3084 
Q 2853 3084 3261 2657 
Q 3669 2231 3669 1497 
Q 3669 778 3244 343 
Q 2819 -91 2113 -91 
Q 1303 -91 875 529 
Q 447 1150 447 2328 
Q 447 3434 972 4092 
Q 1497 4750 2381 4750 
Q 2619 4750 2861 4703 
Q 3103 4656 3366 4563 
z
" transform="scale(0.015625)"/>
      <path id="DejaVuSans-30" d="M 2034 4250 
Q 1547 4250 1301 3770 
Q 1056 3291 1056 2328 
Q 1056 1369 1301 889 
Q 1547 409 2034 409 
Q 2525 409 2770 889 
Q 3016 1369 3016 2328 
Q 3016 3291 2770 3770 
Q 2525 4250 2034 4250 
z
M 2034 4750 
Q 2819 4750 3233 4129 
Q 3647 3509 3647 2328 
Q 3647 1150 3233 529 
Q 2819 -91 2034 -91 
Q 1250 -91 836 529 
Q 422 1150 422 2328 
Q 422 3509 836 4129 
Q 1250 4750 2034 4750 
z
" transform="scale(0.015625)"/>
      <path id="DejaVuSans-33" d="M 2597 2516 
Q 3050 2419 3304 2112 
Q 3559 1806 3559 1356 
Q 3559 666 3084 287 
Q 2609 -91 1734 -91 
Q 1441 -91 1130 -33 
Q 819 25 488 141 
L 488 750 
Q 750 597 1062 519 
Q 1375 441 1716 441 
Q 2309 441 2620 675 
Q 2931 909 2931 1356 
Q 2931 1769 2642 2001 
Q 2353 2234 1838 2234 
L 1294 2234 
L 1294 2753 
L 1863 2753 
Q 2328 2753 2575 2939 
Q 2822 3125 2822 3475 
Q 2822 3834 2567 4026 
Q 2313 4219 1838 4219 
Q 1578 4219 1281 4162 
Q 984 4106 628 3988 
L 628 4550 
Q 988 4650 1302 4700 
Q 1616 4750 1894 4750 
Q 2613 4750 3031 4423 
Q 3450 4097 3450 3541 
Q 3450 3153 3228 2886 
Q 3006 2619 2597 2516 
z
" transform="scale(0.015625)"/>
     </defs>
     <use xlink:href="#DejaVuSans-36"/>
     <use xlink:href="#DejaVuSans-30" transform="translate(63.623047 0)"/>
     <use xlink:href="#DejaVuSans-2e" transform="translate(127.246094 0)"/>
     <use xlink:href="#DejaVuSans-33" transform="translate(159.033203 0)"/>
     <use xlink:href="#DejaVuSans-25" transform="translate(222.65625 0)"/>
    </g>
   </g>
   <g id="text_8">
    <!-- Kraftomnibusse (February) -->
    <g transform="translate(92.494267 16.318153) scale(0.12 -0.12)">
     <defs>
      <path id="DejaVuSans-4b" d="M 628 4666 
L 1259 4666 
L 1259 2694 
L 3353 4666 
L 4166 4666 
L 1850 2491 
L 4331 0 
L 3500 0 
L 1259 2247 
L 1259 0 
L 628 0 
L 628 4666 
z
" transform="scale(0.015625)"/>
      <path id="DejaVuSans-61" d="M 2194 1759 
Q 1497 1759 1228 1600 
Q 959 1441 959 1056 
Q 959 750 1161 570 
Q 1363 391 1709 391 
Q 2188 391 2477 730 
Q 2766 1069 2766 1631 
L 2766 1759 
L 2194 1759 
z
M 3341 1997 
L 3341 0 
L 2766 0 
L 2766 531 
Q 2569 213 2275 61 
Q 1981 -91 1556 -91 
Q 1019 -91 701 211 
Q 384 513 384 1019 
Q 384 1609 779 1909 
Q 1175 2209 1959 2209 
L 2766 2209 
L 2766 2266 
Q 2766 2663 2505 2880 
Q 2244 3097 1772 3097 
Q 1472 3097 1187 3025 
Q 903 2953 641 2809 
L 641 3341 
Q 956 3463 1253 3523 
Q 1550 3584 1831 3584 
Q 2591 3584 2966 3190 
Q 3341 2797 3341 1997 
z
" transform="scale(0.015625)"/>
      <path id="DejaVuSans-66" d="M 2375 4863 
L 2375 4384 
L 1825 4384 
Q 1516 4384 1395 4259 
Q 1275 4134 1275 3809 
L 1275 3500 
L 2222 3500 
L 2222 3053 
L 1275 3053 
L 1275 0 
L 697 0 
L 697 3053 
L 147 3053 
L 147 3500 
L 697 3500 
L 697 3744 
Q 697 4328 969 4595 
Q 1241 4863 1831 4863 
L 2375 4863 
z
" transform="scale(0.015625)"/>
      <path id="DejaVuSans-6f" d="M 1959 3097 
Q 1497 3097 1228 2736 
Q 959 2375 959 1747 
Q 959 1119 1226 758 
Q 1494 397 1959 397 
Q 2419 397 2687 759 
Q 2956 1122 2956 1747 
Q 2956 2369 2687 2733 
Q 2419 3097 1959 3097 
z
M 1959 3584 
Q 2709 3584 3137 3096 
Q 3566 2609 3566 1747 
Q 3566 888 3137 398 
Q 2709 -91 1959 -91 
Q 1206 -91 779 398 
Q 353 888 353 1747 
Q 353 2609 779 3096 
Q 1206 3584 1959 3584 
z
" transform="scale(0.015625)"/>
      <path id="DejaVuSans-6d" d="M 3328 2828 
Q 3544 3216 3844 3400 
Q 4144 3584 4550 3584 
Q 5097 3584 5394 3201 
Q 5691 2819 5691 2113 
L 5691 0 
L 5113 0 
L 5113 2094 
Q 5113 2597 4934 2840 
Q 4756 3084 4391 3084 
Q 3944 3084 3684 2787 
Q 3425 2491 3425 1978 
L 3425 0 
L 2847 0 
L 2847 2094 
Q 2847 2600 2669 2842 
Q 2491 3084 2119 3084 
Q 1678 3084 1418 2786 
Q 1159 2488 1159 1978 
L 1159 0 
L 581 0 
L 581 3500 
L 1159 3500 
L 1159 2956 
Q 1356 3278 1631 3431 
Q 1906 3584 2284 3584 
Q 2666 3584 2933 3390 
Q 3200 3197 3328 2828 
z
" transform="scale(0.015625)"/>
      <path id="DejaVuSans-6e" d="M 3513 2113 
L 3513 0 
L 2938 0 
L 2938 2094 
Q 2938 2591 2744 2837 
Q 2550 3084 2163 3084 
Q 1697 3084 1428 2787 
Q 1159 2491 1159 1978 
L 1159 0 
L 581 0 
L 581 3500 
L 1159 3500 
L 1159 2956 
Q 1366 3272 1645 3428 
Q 1925 3584 2291 3584 
Q 2894 3584 3203 3211 
Q 3513 2838 3513 2113 
z
" transform="scale(0.015625)"/>
      <path id="DejaVuSans-75" d="M 544 1381 
L 544 3500 
L 1119 3500 
L 1119 1403 
Q 1119 906 1312 657 
Q 1506 409 1894 409 
Q 2359 409 2629 706 
Q 2900 1003 2900 1516 
L 2900 3500 
L 3475 3500 
L 3475 0 
L 2900 0 
L 2900 538 
Q 2691 219 2414 64 
Q 2138 -91 1772 -91 
Q 1169 -91 856 284 
Q 544 659 544 1381 
z
M 1991 3584 
L 1991 3584 
z
" transform="scale(0.015625)"/>
      <path id="DejaVuSans-73" d="M 2834 3397 
L 2834 2853 
Q 2591 2978 2328 3040 
Q 2066 3103 1784 3103 
Q 1356 3103 1142 2972 
Q 928 2841 928 2578 
Q 928 2378 1081 2264 
Q 1234 2150 1697 2047 
L 1894 2003 
Q 2506 1872 2764 1633 
Q 3022 1394 3022 966 
Q 3022 478 2636 193 
Q 2250 -91 1575 -91 
Q 1294 -91 989 -36 
Q 684 19 347 128 
L 347 722 
Q 666 556 975 473 
Q 1284 391 1588 391 
Q 1994 391 2212 530 
Q 2431 669 2431 922 
Q 2431 1156 2273 1281 
Q 2116 1406 1581 1522 
L 1381 1569 
Q 847 1681 609 1914 
Q 372 2147 372 2553 
Q 372 3047 722 3315 
Q 1072 3584 1716 3584 
Q 2034 3584 2315 3537 
Q 2597 3491 2834 3397 
z
" transform="scale(0.015625)"/>
      <path id="DejaVuSans-20" transform="scale(0.015625)"/>
      <path id="DejaVuSans-28" d="M 1984 4856 
Q 1566 4138 1362 3434 
Q 1159 2731 1159 2009 
Q 1159 1288 1364 580 
Q 1569 -128 1984 -844 
L 1484 -844 
Q 1016 -109 783 600 
Q 550 1309 550 2009 
Q 550 2706 781 3412 
Q 1013 4119 1484 4856 
L 1984 4856 
z
" transform="scale(0.015625)"/>
      <path id="DejaVuSans-46" d="M 628 4666 
L 3309 4666 
L 3309 4134 
L 1259 4134 
L 1259 2759 
L 3109 2759 
L 3109 2228 
L 1259 2228 
L 1259 0 
L 628 0 
L 628 4666 
z
" transform="scale(0.015625)"/>
      <path id="DejaVuSans-29" d="M 513 4856 
L 1013 4856 
Q 1481 4119 1714 3412 
Q 1947 2706 1947 2009 
Q 1947 1309 1714 600 
Q 1481 -109 1013 -844 
L 513 -844 
Q 928 -128 1133 580 
Q 1338 1288 1338 2009 
Q 1338 2731 1133 3434 
Q 928 4138 513 4856 
z
" transform="scale(0.015625)"/>
     </defs>
     <use xlink:href="#DejaVuSans-4b"/>
     <use xlink:href="#DejaVuSans-72" transform="translate(65.576172 0)"/>
     <use xlink:href="#DejaVuSans-61" transform="translate(106.689453 0)"/>
     <use xlink:href="#DejaVuSans-66" transform="translate(167.96875 0)"/>
     <use xlink:href="#DejaVuSans-74" transform="translate(201.423828 0)"/>
     <use xlink:href="#DejaVuSans-6f" transform="translate(240.632812 0)"/>
     <use xlink:href="#DejaVuSans-6d" transform="translate(301.814453 0)"/>
     <use xlink:href="#DejaVuSans-6e" transform="translate(399.226562 0)"/>
     <use xlink:href="#DejaVuSans-69" transform="translate(462.605469 0)"/>
     <use xlink:href="#DejaVuSans-62" transform="translate(490.388672 0)"/>
     <use xlink:href="#DejaVuSans-75" transform="translate(553.865234 0)"/>
     <use xlink:href="#DejaVuSans-73" transform="translate(617.244141 0)"/>
     <use xlink:href="#DejaVuSans-73" transform="translate(669.34375 0)"/>
     <use xlink:href="#DejaVuSans-65" transform="translate(721.443359 0)"/>
     <use xlink:href="#DejaVuSans-20" transform="translate(782.966797 0)"/>
     <use xlink:href="#DejaVuSans-28" transform="translate(814.753906 0)"/>
     <use xlink:href="#DejaVuSans-46" transform="translate(853.767578 0)"/>
     <use xlink:href="#DejaVuSans-65" transform="translate(905.787109 0)"/>
     <use xlink:href="#DejaVuSans-62" transform="translate(967.310547 0)"/>
     <use xlink:href="#DejaVuSans-72" transform="translate(1030.787109 0)"/>
     <use xlink:href="#DejaVuSans-75" transform="translate(1071.900391 0)"/>
     <use xlink:href="#DejaVuSans-61" transform="translate(1135.279297 0)"/>
     <use xlink:href="#DejaVuSans-72" transform="translate(1196.558594 0)"/>
     <use xlink:href="#DejaVuSans-79" transform="translate(1237.671875 0)"/>
     <use xlink:href="#DejaVuSans-29" transform="translate(1296.851562 0)"/>
    </g>
   </g>
  </g>
  <g id="axes_2">
   <g id="patch_10">
    <path d="M 559.357413 55.388002 
L 544.470689 55.388002 
L 543.143425 59.534211 
" style="fill: none; stroke: #000000; stroke-linecap: round"/>
   </g>
   <g id="text_9">
    <!-- BEV -->
    <g transform="translate(563.357888 58.147377) scale(0.1 -0.1)">
     <use xlink:href="#DejaVuSans-42"/>
     <use xlink:href="#DejaVuSans-45" transform="translate(68.603516 0)"/>
     <use xlink:href="#DejaVuSans-56" transform="translate(131.787109 0)"/>
    </g>
   </g>
   <g id="patch_11">
    <path d="M 599.206656 81.482736 
L 591.0064 81.482736 
L 588.161056 84.777689 
" style="fill: none; stroke: #000000; stroke-linecap: round"/>
   </g>
   <g id="text_10">
    <!-- PHEV -->
    <g transform="translate(603.204529 84.242111) scale(0.1 -0.1)">
     <defs>
      <path id="DejaVuSans-50" d="M 1259 4147 
L 1259 2394 
L 2053 2394 
Q 2494 2394 2734 2622 
Q 2975 2850 2975 3272 
Q 2975 3691 2734 3919 
Q 2494 4147 2053 4147 
L 1259 4147 
z
M 628 4666 
L 2053 4666 
Q 2838 4666 3239 4311 
Q 3641 3956 3641 3272 
Q 3641 2581 3239 2228 
Q 2838 1875 2053 1875 
L 1259 1875 
L 1259 0 
L 628 0 
L 628 4666 
z
" transform="scale(0.015625)"/>
     </defs>
     <use xlink:href="#DejaVuSans-50"/>
     <use xlink:href="#DejaVuSans-48" transform="translate(60.302734 0)"/>
     <use xlink:href="#DejaVuSans-45" transform="translate(135.498047 0)"/>
     <use xlink:href="#DejaVuSans-56" transform="translate(198.681641 0)"/>
    </g>
   </g>
   <g id="patch_12">
    <path d="M 608.436227 92.050312 
L 601.920787 92.050312 
L 598.719393 95.000534 
" style="fill: none; stroke: #000000; stroke-linecap: round"/>
   </g>
   <g id="text_11">
    <!-- Other -->
    <g transform="translate(612.434539 94.809687) scale(0.1 -0.1)">
     <use xlink:href="#DejaVuSans-4f"/>
     <use xlink:href="#DejaVuSans-74" transform="translate(78.710938 0)"/>
     <use xlink:href="#DejaVuSans-68" transform="translate(117.919922 0)"/>
     <use xlink:href="#DejaVuSans-65" transform="translate(181.298828 0)"/>
     <use xlink:href="#DejaVuSans-72" transform="translate(242.822266 0)"/>
    </g>
   </g>
   <g id="patch_13">
    <path d="M 430.260423 304.139007 
L 448.916136 304.139007 
L 450.706034 300.170509 
" style="fill: none; stroke: #000000; stroke-linecap: round"/>
   </g>
   <g id="text_12">
    <!-- ICE -->
    <g transform="translate(410.008628 306.898382) scale(0.1 -0.1)">
     <use xlink:href="#DejaVuSans-49"/>
     <use xlink:href="#DejaVuSans-43" transform="translate(29.492188 0)"/>
     <use xlink:href="#DejaVuSans-45" transform="translate(99.316406 0)"/>
    </g>
   </g>
   <g id="patch_14">
    <path d="M 575.333294 82.184195 
C 564.954403 74.780643 553.488986 69.03268 541.347049 65.145864 
C 529.205111 61.259048 516.533135 59.280255 503.784253 59.280255 
L 503.784256 124.126099 
C 509.8232 124.126099 515.825715 125.063422 521.577159 126.904545 
C 527.328603 128.745668 532.75959 131.468388 537.675907 134.975333 
z
" style="fill: #2ecc71"/>
   </g>
   <g id="patch_15">
    <path d="M 592.595432 97.090836 
C 589.956468 94.34635 587.191699 91.725664 584.31004 89.237217 
C 581.42838 86.748769 578.432915 84.395241 575.333294 82.184195 
L 537.675907 134.975333 
C 539.144149 136.022671 540.563053 137.1375 541.92805 138.316239 
C 543.293046 139.494977 544.602674 140.736354 545.852709 142.036374 
z
" style="fill: #f39c12"/>
   </g>
   <g id="patch_16">
    <path d="M 596.1368 100.933707 
C 595.560237 100.280799 594.976779 99.634031 594.386499 98.993497 
C 593.796218 98.352964 593.199159 97.718709 592.595432 97.090836 
L 545.852709 142.036374 
C 546.138685 142.333788 546.421503 142.634224 546.701109 142.937635 
C 546.980716 143.241045 547.257091 143.547409 547.530199 143.856681 
z
" style="fill: #c7c7c7"/>
   </g>
   <g id="patch_17">
    <path d="M 503.78426 59.280255 
C 489.79818 59.280255 475.913679 61.661733 462.727002 66.322423 
C 449.540325 70.983112 437.242976 77.855346 426.363137 86.643945 
C 415.483297 95.432544 406.178949 106.009881 398.849664 117.921726 
C 391.520378 129.833571 386.272618 142.906883 383.331724 156.580275 
C 380.390831 170.253666 379.799544 184.328536 381.583237 198.200409 
C 383.36693 212.072282 387.499709 225.539715 393.80409 238.024314 
C 400.108472 250.508913 408.492873 261.829361 418.597253 271.499522 
C 428.701633 281.169683 440.379235 289.0491 453.128542 294.799377 
C 465.877849 300.549653 479.513706 304.087282 493.450507 305.260338 
C 507.387308 306.433386 521.422626 305.224838 534.953746 301.686577 
C 548.484865 298.148317 561.315247 292.331734 572.893881 284.486626 
C 584.472512 276.641518 594.63125 266.881816 602.933798 255.626675 
C 611.236346 244.371535 617.562112 231.784421 621.639468 218.405872 
C 625.716824 205.027322 627.486534 191.051669 626.872607 177.079069 
C 626.258672 163.106468 623.269993 149.339834 618.034952 136.370458 
C 612.799911 123.401082 605.394515 111.417272 596.1368 100.933707 
L 547.530199 143.856681 
C 551.915433 148.822581 555.423252 154.499122 557.903008 160.642511 
C 560.382765 166.785899 561.798455 173.306937 562.089266 179.925537 
C 562.380074 186.544137 561.54179 193.164183 559.610411 199.501391 
C 557.679031 205.838599 554.682616 211.800916 550.74983 217.132298 
C 546.817044 222.46368 542.00501 227.086697 536.520396 230.802801 
C 531.035779 234.518905 524.95823 237.274128 518.548753 238.950146 
C 512.139275 240.626165 505.490966 241.198635 498.889324 240.64298 
C 492.287681 240.087322 485.828591 238.411603 479.789446 235.687788 
C 473.7503 232.963973 468.218804 229.231617 463.432519 224.651015 
C 458.646234 220.070412 454.674676 214.708095 451.68839 208.794337 
C 448.702104 202.88058 446.744471 196.50127 445.899564 189.930382 
C 445.054657 183.359495 445.33474 176.692451 446.727795 170.215582 
C 448.12085 163.738712 450.606631 157.54609 454.078398 151.903638 
C 457.550165 146.261185 461.957487 141.250867 467.111096 137.087847 
C 472.264704 132.924826 478.089764 129.669557 484.336085 127.461862 
C 490.582405 125.254168 497.159274 124.126099 503.784259 124.126099 
z
" style="fill: #9e9e9e"/>
   </g>
   <g id="matplotlib.axis_3"/>
   <g id="matplotlib.axis_4"/>
   <g id="text_13">
    <!-- 9.9% -->
    <g transform="translate(519.397368 100.48492) scale(0.09 -0.09)">
     <defs>
      <path id="DejaVuSans-39" d="M 703 97 
L 703 672 
Q 941 559 1184 500 
Q 1428 441 1663 441 
Q 2288 441 2617 861 
Q 2947 1281 2994 2138 
Q 2813 1869 2534 1725 
Q 2256 1581 1919 1581 
Q 1219 1581 811 2004 
Q 403 2428 403 3163 
Q 403 3881 828 4315 
Q 1253 4750 1959 4750 
Q 2769 4750 3195 4129 
Q 3622 3509 3622 2328 
Q 3622 1225 3098 567 
Q 2575 -91 1691 -91 
Q 1453 -91 1209 -44 
Q 966 3 703 97 
z
M 1959 2075 
Q 2384 2075 2632 2365 
Q 2881 2656 2881 3163 
Q 2881 3666 2632 3958 
Q 2384 4250 1959 4250 
Q 1534 4250 1286 3958 
Q 1038 3666 1038 3163 
Q 1038 2656 1286 2365 
Q 1534 2075 1959 2075 
z
" transform="scale(0.015625)"/>
     </defs>
     <use xlink:href="#DejaVuSans-39"/>
     <use xlink:href="#DejaVuSans-2e" transform="translate(63.623047 0)"/>
     <use xlink:href="#DejaVuSans-39" transform="translate(95.410156 0)"/>
     <use xlink:href="#DejaVuSans-25" transform="translate(159.033203 0)"/>
    </g>
   </g>
   <g id="text_14">
    <!-- 3.0% -->
    <g transform="translate(550.330712 117.830694) scale(0.09 -0.09)">
     <use xlink:href="#DejaVuSans-33"/>
     <use xlink:href="#DejaVuSans-2e" transform="translate(63.623047 0)"/>
     <use xlink:href="#DejaVuSans-30" transform="translate(95.410156 0)"/>
     <use xlink:href="#DejaVuSans-25" transform="translate(159.033203 0)"/>
    </g>
   </g>
   <g id="text_15">
    <!-- 86.5% -->
    <g transform="translate(453.016907 265.835446) scale(0.09 -0.09)">
     <defs>
      <path id="DejaVuSans-38" d="M 2034 2216 
Q 1584 2216 1326 1975 
Q 1069 1734 1069 1313 
Q 1069 891 1326 650 
Q 1584 409 2034 409 
Q 2484 409 2743 651 
Q 3003 894 3003 1313 
Q 3003 1734 2745 1975 
Q 2488 2216 2034 2216 
z
M 1403 2484 
Q 997 2584 770 2862 
Q 544 3141 544 3541 
Q 544 4100 942 4425 
Q 1341 4750 2034 4750 
Q 2731 4750 3128 4425 
Q 3525 4100 3525 3541 
Q 3525 3141 3298 2862 
Q 3072 2584 2669 2484 
Q 3125 2378 3379 2068 
Q 3634 1759 3634 1313 
Q 3634 634 3220 271 
Q 2806 -91 2034 -91 
Q 1263 -91 848 271 
Q 434 634 434 1313 
Q 434 1759 690 2068 
Q 947 2378 1403 2484 
z
M 1172 3481 
Q 1172 3119 1398 2916 
Q 1625 2713 2034 2713 
Q 2441 2713 2670 2916 
Q 2900 3119 2900 3481 
Q 2900 3844 2670 4047 
Q 2441 4250 2034 4250 
Q 1625 4250 1398 4047 
Q 1172 3844 1172 3481 
z
" transform="scale(0.015625)"/>
     </defs>
     <use xlink:href="#DejaVuSans-38"/>
     <use xlink:href="#DejaVuSans-36" transform="translate(63.623047 0)"/>
     <use xlink:href="#DejaVuSans-2e" transform="translate(127.246094 0)"/>
     <use xlink:href="#DejaVuSans-35" transform="translate(159.033203 0)"/>
     <use xlink:href="#DejaVuSans-25" transform="translate(222.65625 0)"/>
    </g>
   </g>
   <g id="text_16">
    <!-- Lastkraftwagen (February) -->
    <g transform="translate(424.247707 16.318125) scale(0.12 -0.12)">
     <defs>
      <path id="DejaVuSans-4c" d="M 628 4666 
L 1259 4666 
L 1259 531 
L 3531 531 
L 3531 0 
L 628 0 
L 628 4666 
z
" transform="scale(0.015625)"/>
      <path id="DejaVuSans-6b" d="M 581 4863 
L 1159 4863 
L 1159 1991 
L 2875 3500 
L 3609 3500 
L 1753 1863 
L 3688 0 
L 2938 0 
L 1159 1709 
L 1159 0 
L 581 0 
L 581 4863 
z
" transform="scale(0.015625)"/>
      <path id="DejaVuSans-77" d="M 269 3500 
L 844 3500 
L 1563 769 
L 2278 3500 
L 2956 3500 
L 3675 769 
L 4391 3500 
L 4966 3500 
L 4050 0 
L 3372 0 
L 2619 2869 
L 1863 0 
L 1184 0 
L 269 3500 
z
" transform="scale(0.015625)"/>
      <path id="DejaVuSans-67" d="M 2906 1791 
Q 2906 2416 2648 2759 
Q 2391 3103 1925 3103 
Q 1463 3103 1205 2759 
Q 947 2416 947 1791 
Q 947 1169 1205 825 
Q 1463 481 1925 481 
Q 2391 481 2648 825 
Q 2906 1169 2906 1791 
z
M 3481 434 
Q 3481 -459 3084 -895 
Q 2688 -1331 1869 -1331 
Q 1566 -1331 1297 -1286 
Q 1028 -1241 775 -1147 
L 775 -588 
Q 1028 -725 1275 -790 
Q 1522 -856 1778 -856 
Q 2344 -856 2625 -561 
Q 2906 -266 2906 331 
L 2906 616 
Q 2728 306 2450 153 
Q 2172 0 1784 0 
Q 1141 0 747 490 
Q 353 981 353 1791 
Q 353 2603 747 3093 
Q 1141 3584 1784 3584 
Q 2172 3584 2450 3431 
Q 2728 3278 2906 2969 
L 2906 3500 
L 3481 3500 
L 3481 434 
z
" transform="scale(0.015625)"/>
     </defs>
     <use xlink:href="#DejaVuSans-4c"/>
     <use xlink:href="#DejaVuSans-61" transform="translate(55.712891 0)"/>
     <use xlink:href="#DejaVuSans-73" transform="translate(116.992188 0)"/>
     <use xlink:href="#DejaVuSans-74" transform="translate(169.091797 0)"/>
     <use xlink:href="#DejaVuSans-6b" transform="translate(208.300781 0)"/>
     <use xlink:href="#DejaVuSans-72" transform="translate(266.210938 0)"/>
     <use xlink:href="#DejaVuSans-61" transform="translate(307.324219 0)"/>
     <use xlink:href="#DejaVuSans-66" transform="translate(368.603516 0)"/>
     <use xlink:href="#DejaVuSans-74" transform="translate(402.058594 0)"/>
     <use xlink:href="#DejaVuSans-77" transform="translate(441.267578 0)"/>
     <use xlink:href="#DejaVuSans-61" transform="translate(523.054688 0)"/>
     <use xlink:href="#DejaVuSans-67" transform="translate(584.333984 0)"/>
     <use xlink:href="#DejaVuSans-65" transform="translate(647.810547 0)"/>
     <use xlink:href="#DejaVuSans-6e" transform="translate(709.333984 0)"/>
     <use xlink:href="#DejaVuSans-20" transform="translate(772.712891 0)"/>
     <use xlink:href="#DejaVuSans-28" transform="translate(804.5 0)"/>
     <use xlink:href="#DejaVuSans-46" transform="translate(843.513672 0)"/>
     <use xlink:href="#DejaVuSans-65" transform="translate(895.533203 0)"/>
     <use xlink:href="#DejaVuSans-62" transform="translate(957.056641 0)"/>
     <use xlink:href="#DejaVuSans-72" transform="translate(1020.533203 0)"/>
     <use xlink:href="#DejaVuSans-75" transform="translate(1061.646484 0)"/>
     <use xlink:href="#DejaVuSans-61" transform="translate(1125.025391 0)"/>
     <use xlink:href="#DejaVuSans-72" transform="translate(1186.304688 0)"/>
     <use xlink:href="#DejaVuSans-79" transform="translate(1227.417969 0)"/>
     <use xlink:href="#DejaVuSans-29" transform="translate(1286.597656 0)"/>
    </g>
   </g>
  </g>
  <g id="axes_3">
   <g id="patch_18">
    <path d="M 868.593559 39.657717 
L 855.224673 39.657717 
L 853.090103 54.674982 
" style="fill: none; stroke: #000000; stroke-linecap: round"/>
   </g>
   <g id="text_17">
    <!-- BEV -->
    <g transform="translate(872.590257 42.417092) scale(0.1 -0.1)">
     <use xlink:href="#DejaVuSans-42"/>
     <use xlink:href="#DejaVuSans-45" transform="translate(68.603516 0)"/>
     <use xlink:href="#DejaVuSans-56" transform="translate(131.787109 0)"/>
    </g>
   </g>
   <g id="patch_19">
    <path d="M 892.260263 48.430153 
L 878.810177 48.430153 
L 875.089134 59.796328 
" style="fill: none; stroke: #000000; stroke-linecap: round"/>
   </g>
   <g id="text_18">
    <!-- Gas -->
    <g transform="translate(896.26543 51.189528) scale(0.1 -0.1)">
     <defs>
      <path id="DejaVuSans-47" d="M 3809 666 
L 3809 1919 
L 2778 1919 
L 2778 2438 
L 4434 2438 
L 4434 434 
Q 4069 175 3628 42 
Q 3188 -91 2688 -91 
Q 1594 -91 976 548 
Q 359 1188 359 2328 
Q 359 3472 976 4111 
Q 1594 4750 2688 4750 
Q 3144 4750 3555 4637 
Q 3966 4525 4313 4306 
L 4313 3634 
Q 3963 3931 3569 4081 
Q 3175 4231 2741 4231 
Q 1884 4231 1454 3753 
Q 1025 3275 1025 2328 
Q 1025 1384 1454 906 
Q 1884 428 2741 428 
Q 3075 428 3337 486 
Q 3600 544 3809 666 
z
" transform="scale(0.015625)"/>
     </defs>
     <use xlink:href="#DejaVuSans-47"/>
     <use xlink:href="#DejaVuSans-61" transform="translate(77.490234 0)"/>
     <use xlink:href="#DejaVuSans-73" transform="translate(138.769531 0)"/>
    </g>
   </g>
   <g id="patch_20">
    <path d="M 887.409427 57.202589 
L 880.893985 57.202589 
L 879.39432 61.289604 
" style="fill: none; stroke: #000000; stroke-linecap: round"/>
   </g>
   <g id="text_19">
    <!-- Other -->
    <g transform="translate(891.407747 59.961964) scale(0.1 -0.1)">
     <use xlink:href="#DejaVuSans-4f"/>
     <use xlink:href="#DejaVuSans-74" transform="translate(78.710938 0)"/>
     <use xlink:href="#DejaVuSans-68" transform="translate(117.919922 0)"/>
     <use xlink:href="#DejaVuSans-65" transform="translate(181.298828 0)"/>
     <use xlink:href="#DejaVuSans-72" transform="translate(242.822266 0)"/>
    </g>
   </g>
   <g id="patch_21">
    <path d="M 792.835473 313.866979 
L 811.491188 313.866979 
L 812.255566 309.581139 
" style="fill: none; stroke: #000000; stroke-linecap: round"/>
   </g>
   <g id="text_20">
    <!-- ICE -->
    <g transform="translate(772.583677 316.626354) scale(0.1 -0.1)">
     <use xlink:href="#DejaVuSans-49"/>
     <use xlink:href="#DejaVuSans-43" transform="translate(29.492188 0)"/>
     <use xlink:href="#DejaVuSans-45" transform="translate(99.316406 0)"/>
    </g>
   </g>
   <g id="patch_22">
    <path d="M 869.254647 64.160244 
C 863.683259 62.543738 858.004643 61.322735 852.261212 60.506356 
C 846.517782 59.689978 840.723866 59.280264 834.922706 59.280264 
L 834.922709 124.126111 
C 837.670627 124.126111 840.415114 124.320186 843.135686 124.706892 
C 845.856258 125.093598 848.546129 125.671967 851.185207 126.437681 
z
" style="fill: #2ecc71"/>
   </g>
   <g id="patch_23">
    <path d="M 877.213355 66.765751 
C 875.902142 66.286566 874.582872 65.829699 873.256135 65.395355 
C 871.929397 64.961011 870.595381 64.549248 869.254647 64.160244 
L 851.185207 126.437681 
C 851.820292 126.621946 852.452194 126.816991 853.080649 127.022733 
C 853.709104 127.228475 854.334021 127.444886 854.955122 127.671868 
z
" style="fill: #f35c12"/>
   </g>
   <g id="patch_24">
    <path d="M 877.515776 66.876722 
C 877.465398 66.858164 877.415013 66.839636 877.36461 66.821144 
C 877.314206 66.802653 877.263784 66.784176 877.213355 66.765751 
L 854.955122 127.671868 
C 854.979009 127.680596 855.002893 127.689348 855.026769 127.698107 
C 855.050644 127.706866 855.074511 127.715643 855.098374 127.724433 
z
" style="fill: #c7c7c7"/>
   </g>
   <g id="patch_25">
    <path d="M 834.922713 59.280264 
C 819.657565 59.280264 804.524501 62.117252 790.295908 67.646439 
C 776.067315 73.175625 762.989427 81.301307 751.729726 91.608778 
C 740.470025 101.916249 731.223383 114.227086 724.461716 127.913015 
C 717.700048 141.598944 713.540384 156.423086 712.19503 171.628833 
C 710.849675 186.834581 712.341911 202.158784 716.595582 216.819312 
C 720.849254 231.47984 727.790725 245.222955 737.065735 257.347269 
C 746.340746 269.471582 757.788769 279.767237 770.825518 287.708768 
C 783.862266 295.650299 798.262129 301.100269 813.290139 303.780505 
C 828.318148 306.460741 843.714238 306.324868 858.692604 303.379825 
C 873.67097 300.434774 887.972402 294.731512 900.866961 286.561136 
C 913.76152 278.39076 925.026053 267.894659 934.085643 255.608541 
C 943.145233 243.322423 949.843055 229.458967 953.837324 214.725652 
C 957.831593 199.992336 959.053147 184.644184 957.439644 169.464547 
C 955.826142 154.284912 951.405489 139.536487 944.403337 125.972027 
C 937.401184 112.40757 927.938696 100.261813 916.498831 90.154671 
C 905.058967 80.047529 891.839735 72.153931 877.515776 66.876722 
L 855.098374 127.724433 
C 861.883407 130.224164 868.145148 133.963237 873.564032 138.75083 
C 878.982915 143.538424 883.465146 149.291677 886.781955 155.716946 
C 890.098764 162.142217 892.192758 169.128313 892.957048 176.318667 
C 893.721339 183.509021 893.142708 190.779198 891.250686 197.758137 
C 889.358664 204.737076 886.186011 211.303976 881.894627 217.123716 
C 877.603242 222.943456 872.26741 227.915294 866.159461 231.785472 
C 860.051512 235.65565 853.27715 238.357195 846.182134 239.752219 
C 839.087119 241.147239 831.794234 241.211601 824.675703 239.942015 
C 817.557173 238.67243 810.736185 236.090865 804.560883 232.329087 
C 798.385581 228.567309 792.962833 223.69042 788.569407 217.947324 
C 784.175981 212.204228 780.887916 205.694332 778.873019 198.749871 
C 776.858122 191.80541 776.151274 184.546577 776.788547 177.343855 
C 777.42582 170.141132 779.396187 163.11917 782.599082 156.636362 
C 785.801977 150.153553 790.181966 144.322104 795.515508 139.439618 
C 800.849051 134.557132 807.04384 130.708124 813.7837 128.089036 
C 820.523559 125.469948 827.691853 124.126111 834.922713 124.126111 
z
" style="fill: #9e9e9e"/>
   </g>
   <g id="matplotlib.axis_5"/>
   <g id="matplotlib.axis_6"/>
   <g id="text_21">
    <!-- 4.5% -->
    <g transform="translate(835.974322 97.14448) scale(0.09 -0.09)">
     <use xlink:href="#DejaVuSans-34"/>
     <use xlink:href="#DejaVuSans-2e" transform="translate(63.623047 0)"/>
     <use xlink:href="#DejaVuSans-35" transform="translate(95.410156 0)"/>
     <use xlink:href="#DejaVuSans-25" transform="translate(159.033203 0)"/>
    </g>
   </g>
   <g id="text_22">
    <!-- 94.4% -->
    <g transform="translate(805.052014 272.301864) scale(0.09 -0.09)">
     <use xlink:href="#DejaVuSans-39"/>
     <use xlink:href="#DejaVuSans-34" transform="translate(63.623047 0)"/>
     <use xlink:href="#DejaVuSans-2e" transform="translate(127.246094 0)"/>
     <use xlink:href="#DejaVuSans-34" transform="translate(159.033203 0)"/>
     <use xlink:href="#DejaVuSans-25" transform="translate(222.65625 0)"/>
    </g>
   </g>
   <g id="text_23">
    <!-- Sattelzugmaschinen (February) -->
    <g transform="translate(740.726459 16.318138) scale(0.12 -0.12)">
     <defs>
      <path id="DejaVuSans-53" d="M 3425 4513 
L 3425 3897 
Q 3066 4069 2747 4153 
Q 2428 4238 2131 4238 
Q 1616 4238 1336 4038 
Q 1056 3838 1056 3469 
Q 1056 3159 1242 3001 
Q 1428 2844 1947 2747 
L 2328 2669 
Q 3034 2534 3370 2195 
Q 3706 1856 3706 1288 
Q 3706 609 3251 259 
Q 2797 -91 1919 -91 
Q 1588 -91 1214 -16 
Q 841 59 441 206 
L 441 856 
Q 825 641 1194 531 
Q 1563 422 1919 422 
Q 2459 422 2753 634 
Q 3047 847 3047 1241 
Q 3047 1584 2836 1778 
Q 2625 1972 2144 2069 
L 1759 2144 
Q 1053 2284 737 2584 
Q 422 2884 422 3419 
Q 422 4038 858 4394 
Q 1294 4750 2059 4750 
Q 2388 4750 2728 4690 
Q 3069 4631 3425 4513 
z
" transform="scale(0.015625)"/>
      <path id="DejaVuSans-6c" d="M 603 4863 
L 1178 4863 
L 1178 0 
L 603 0 
L 603 4863 
z
" transform="scale(0.015625)"/>
      <path id="DejaVuSans-7a" d="M 353 3500 
L 3084 3500 
L 3084 2975 
L 922 459 
L 3084 459 
L 3084 0 
L 275 0 
L 275 525 
L 2438 3041 
L 353 3041 
L 353 3500 
z
" transform="scale(0.015625)"/>
      <path id="DejaVuSans-63" d="M 3122 3366 
L 3122 2828 
Q 2878 2963 2633 3030 
Q 2388 3097 2138 3097 
Q 1578 3097 1268 2742 
Q 959 2388 959 1747 
Q 959 1106 1268 751 
Q 1578 397 2138 397 
Q 2388 397 2633 464 
Q 2878 531 3122 666 
L 3122 134 
Q 2881 22 2623 -34 
Q 2366 -91 2075 -91 
Q 1284 -91 818 406 
Q 353 903 353 1747 
Q 353 2603 823 3093 
Q 1294 3584 2113 3584 
Q 2378 3584 2631 3529 
Q 2884 3475 3122 3366 
z
" transform="scale(0.015625)"/>
     </defs>
     <use xlink:href="#DejaVuSans-53"/>
     <use xlink:href="#DejaVuSans-61" transform="translate(63.476562 0)"/>
     <use xlink:href="#DejaVuSans-74" transform="translate(124.755859 0)"/>
     <use xlink:href="#DejaVuSans-74" transform="translate(163.964844 0)"/>
     <use xlink:href="#DejaVuSans-65" transform="translate(203.173828 0)"/>
     <use xlink:href="#DejaVuSans-6c" transform="translate(264.697266 0)"/>
     <use xlink:href="#DejaVuSans-7a" transform="translate(292.480469 0)"/>
     <use xlink:href="#DejaVuSans-75" transform="translate(344.970703 0)"/>
     <use xlink:href="#DejaVuSans-67" transform="translate(408.349609 0)"/>
     <use xlink:href="#DejaVuSans-6d" transform="translate(471.826172 0)"/>
     <use xlink:href="#DejaVuSans-61" transform="translate(569.238281 0)"/>
     <use xlink:href="#DejaVuSans-73" transform="translate(630.517578 0)"/>
     <use xlink:href="#DejaVuSans-63" transform="translate(682.617188 0)"/>
     <use xlink:href="#DejaVuSans-68" transform="translate(737.597656 0)"/>
     <use xlink:href="#DejaVuSans-69" transform="translate(800.976562 0)"/>
     <use xlink:href="#DejaVuSans-6e" transform="translate(828.759766 0)"/>
     <use xlink:href="#DejaVuSans-65" transform="translate(892.138672 0)"/>
     <use xlink:href="#DejaVuSans-6e" transform="translate(953.662109 0)"/>
     <use xlink:href="#DejaVuSans-20" transform="translate(1017.041016 0)"/>
     <use xlink:href="#DejaVuSans-28" transform="translate(1048.828125 0)"/>
     <use xlink:href="#DejaVuSans-46" transform="translate(1087.841797 0)"/>
     <use xlink:href="#DejaVuSans-65" transform="translate(1139.861328 0)"/>
     <use xlink:href="#DejaVuSans-62" transform="translate(1201.384766 0)"/>
     <use xlink:href="#DejaVuSans-72" transform="translate(1264.861328 0)"/>
     <use xlink:href="#DejaVuSans-75" transform="translate(1305.974609 0)"/>
     <use xlink:href="#DejaVuSans-61" transform="translate(1369.353516 0)"/>
     <use xlink:href="#DejaVuSans-72" transform="translate(1430.632812 0)"/>
     <use xlink:href="#DejaVuSans-79" transform="translate(1471.746094 0)"/>
     <use xlink:href="#DejaVuSans-29" transform="translate(1530.925781 0)"/>
    </g>
   </g>
  </g>
 </g>
</svg>
