<?xml version="1.0" encoding="utf-8" standalone="no"?>
<!DOCTYPE svg PUBLIC "-//W3C//DTD SVG 1.1//EN"
  "http://www.w3.org/Graphics/SVG/1.1/DTD/svg11.dtd">
<svg xmlns:xlink="http://www.w3.org/1999/xlink" width="1002.692331pt" height="343.731402pt" viewBox="0 0 1002.692331 343.731402" xmlns="http://www.w3.org/2000/svg" version="1.1">
 <metadata>
  <rdf:RDF xmlns:dc="http://purl.org/dc/elements/1.1/" xmlns:cc="http://creativecommons.org/ns#" xmlns:rdf="http://www.w3.org/1999/02/22-rdf-syntax-ns#">
   <cc:Work>
    <dc:type rdf:resource="http://purl.org/dc/dcmitype/StillImage"/>
    <dc:date>2025-09-07T16:43:42.593459</dc:date>
    <dc:format>image/svg+xml</dc:format>
    <dc:creator>
     <cc:Agent>
      <dc:title>Matplotlib v3.10.6, https://matplotlib.org/</dc:title>
     </cc:Agent>
    </dc:creator>
   </cc:Work>
  </rdf:RDF>
 </metadata>
 <defs>
  <style type="text/css">*{stroke-linejoin: round; stroke-linecap: butt}</style>
 </defs>
 <g id="figure_1">
  <g id="patch_1">
   <path d="M 0 343.731402 
L 1002.692331 343.731402 
L 1002.692331 0 
L 0 0 
z
" style="fill: #ffffff"/>
  </g>
  <g id="axes_1">
   <g id="patch_2">
    <path d="M 267.54408 77.432367 
L 253.399988 77.432367 
L 250.746182 80.731084 
" style="fill: none; stroke: #000000; stroke-linecap: round"/>
   </g>
   <g id="text_1">
    <!-- BEV -->
    <g transform="translate(271.543239 80.191742) scale(0.1 -0.1)">
     <defs>
      <path id="DejaVuSans-42" d="M 1259 2228 
L 1259 519 
L 2272 519 
Q 2781 519 3026 730 
Q 3272 941 3272 1375 
Q 3272 1813 3026 2020 
Q 2781 2228 2272 2228 
L 1259 2228 
z
M 1259 4147 
L 1259 2741 
L 2194 2741 
Q 2656 2741 2882 2914 
Q 3109 3088 3109 3444 
Q 3109 3797 2882 3972 
Q 2656 4147 2194 4147 
L 1259 4147 
z
M 628 4666 
L 2241 4666 
Q 2963 4666 3353 4366 
Q 3744 4066 3744 3513 
Q 3744 3084 3544 2831 
Q 3344 2578 2956 2516 
Q 3422 2416 3680 2098 
Q 3938 1781 3938 1306 
Q 3938 681 3513 340 
Q 3088 0 2303 0 
L 628 0 
L 628 4666 
z
" transform="scale(0.015625)"/>
      <path id="DejaVuSans-45" d="M 628 4666 
L 3578 4666 
L 3578 4134 
L 1259 4134 
L 1259 2753 
L 3481 2753 
L 3481 2222 
L 1259 2222 
L 1259 531 
L 3634 531 
L 3634 0 
L 628 0 
L 628 4666 
z
" transform="scale(0.015625)"/>
      <path id="DejaVuSans-56" d="M 1831 0 
L 50 4666 
L 709 4666 
L 2188 738 
L 3669 4666 
L 4325 4666 
L 2547 0 
L 1831 0 
z
" transform="scale(0.015625)"/>
     </defs>
     <use xlink:href="#DejaVuSans-42"/>
     <use xlink:href="#DejaVuSans-45" transform="translate(68.603516 0)"/>
     <use xlink:href="#DejaVuSans-56" transform="translate(131.787109 0)"/>
    </g>
   </g>
   <g id="patch_3">
    <path d="M 309.376195 170.197249 
L 301.922816 170.197249 
L 297.699644 170.495693 
" style="fill: none; stroke: #000000; stroke-linecap: round"/>
   </g>
   <g id="text_2">
    <!-- PHEV -->
    <g transform="translate(313.376991 172.956624) scale(0.1 -0.1)">
     <defs>
      <path id="DejaVuSans-50" d="M 1259 4147 
L 1259 2394 
L 2053 2394 
Q 2494 2394 2734 2622 
Q 2975 2850 2975 3272 
Q 2975 3691 2734 3919 
Q 2494 4147 2053 4147 
L 1259 4147 
z
M 628 4666 
L 2053 4666 
Q 2838 4666 3239 4311 
Q 3641 3956 3641 3272 
Q 3641 2581 3239 2228 
Q 2838 1875 2053 1875 
L 1259 1875 
L 1259 0 
L 628 0 
L 628 4666 
z
" transform="scale(0.015625)"/>
      <path id="DejaVuSans-48" d="M 628 4666 
L 1259 4666 
L 1259 2753 
L 3553 2753 
L 3553 4666 
L 4184 4666 
L 4184 0 
L 3553 0 
L 3553 2222 
L 1259 2222 
L 1259 0 
L 628 0 
L 628 4666 
z
" transform="scale(0.015625)"/>
     </defs>
     <use xlink:href="#DejaVuSans-50"/>
     <use xlink:href="#DejaVuSans-48" transform="translate(60.302734 0)"/>
     <use xlink:href="#DejaVuSans-45" transform="translate(135.498047 0)"/>
     <use xlink:href="#DejaVuSans-56" transform="translate(198.681641 0)"/>
    </g>
   </g>
   <g id="patch_4">
    <path d="M 322.147673 192.323676 
L 301.611379 192.323676 
L 297.398278 191.90649 
" style="fill: none; stroke: #000000; stroke-linecap: round"/>
   </g>
   <g id="text_3">
    <!-- HY -->
    <g transform="translate(326.146816 195.083051) scale(0.1 -0.1)">
     <defs>
      <path id="DejaVuSans-59" d="M -13 4666 
L 666 4666 
L 1959 2747 
L 3244 4666 
L 3922 4666 
L 2272 2222 
L 2272 0 
L 1638 0 
L 1638 2222 
L -13 4666 
z
" transform="scale(0.015625)"/>
     </defs>
     <use xlink:href="#DejaVuSans-48"/>
     <use xlink:href="#DejaVuSans-59" transform="translate(75.195312 0)"/>
    </g>
   </g>
   <g id="patch_5">
    <path d="M 283.87136 248.184828 
L 282.734744 248.184828 
L 279.132167 245.960935 
" style="fill: none; stroke: #000000; stroke-linecap: round"/>
   </g>
   <g id="text_4">
    <!-- Hybrid -->
    <g transform="translate(287.873298 250.944203) scale(0.1 -0.1)">
     <defs>
      <path id="DejaVuSans-79" d="M 2059 -325 
Q 1816 -950 1584 -1140 
Q 1353 -1331 966 -1331 
L 506 -1331 
L 506 -850 
L 844 -850 
Q 1081 -850 1212 -737 
Q 1344 -625 1503 -206 
L 1606 56 
L 191 3500 
L 800 3500 
L 1894 763 
L 2988 3500 
L 3597 3500 
L 2059 -325 
z
" transform="scale(0.015625)"/>
      <path id="DejaVuSans-62" d="M 3116 1747 
Q 3116 2381 2855 2742 
Q 2594 3103 2138 3103 
Q 1681 3103 1420 2742 
Q 1159 2381 1159 1747 
Q 1159 1113 1420 752 
Q 1681 391 2138 391 
Q 2594 391 2855 752 
Q 3116 1113 3116 1747 
z
M 1159 2969 
Q 1341 3281 1617 3432 
Q 1894 3584 2278 3584 
Q 2916 3584 3314 3078 
Q 3713 2572 3713 1747 
Q 3713 922 3314 415 
Q 2916 -91 2278 -91 
Q 1894 -91 1617 61 
Q 1341 213 1159 525 
L 1159 0 
L 581 0 
L 581 4863 
L 1159 4863 
L 1159 2969 
z
" transform="scale(0.015625)"/>
      <path id="DejaVuSans-72" d="M 2631 2963 
Q 2534 3019 2420 3045 
Q 2306 3072 2169 3072 
Q 1681 3072 1420 2755 
Q 1159 2438 1159 1844 
L 1159 0 
L 581 0 
L 581 3500 
L 1159 3500 
L 1159 2956 
Q 1341 3275 1631 3429 
Q 1922 3584 2338 3584 
Q 2397 3584 2469 3576 
Q 2541 3569 2628 3553 
L 2631 2963 
z
" transform="scale(0.015625)"/>
      <path id="DejaVuSans-69" d="M 603 3500 
L 1178 3500 
L 1178 0 
L 603 0 
L 603 3500 
z
M 603 4863 
L 1178 4863 
L 1178 4134 
L 603 4134 
L 603 4863 
z
" transform="scale(0.015625)"/>
      <path id="DejaVuSans-64" d="M 2906 2969 
L 2906 4863 
L 3481 4863 
L 3481 0 
L 2906 0 
L 2906 525 
Q 2725 213 2448 61 
Q 2172 -91 1784 -91 
Q 1150 -91 751 415 
Q 353 922 353 1747 
Q 353 2572 751 3078 
Q 1150 3584 1784 3584 
Q 2172 3584 2448 3432 
Q 2725 3281 2906 2969 
z
M 947 1747 
Q 947 1113 1208 752 
Q 1469 391 1925 391 
Q 2381 391 2643 752 
Q 2906 1113 2906 1747 
Q 2906 2381 2643 2742 
Q 2381 3103 1925 3103 
Q 1469 3103 1208 2742 
Q 947 2381 947 1747 
z
" transform="scale(0.015625)"/>
     </defs>
     <use xlink:href="#DejaVuSans-48"/>
     <use xlink:href="#DejaVuSans-79" transform="translate(75.195312 0)"/>
     <use xlink:href="#DejaVuSans-62" transform="translate(134.375 0)"/>
     <use xlink:href="#DejaVuSans-72" transform="translate(197.851562 0)"/>
     <use xlink:href="#DejaVuSans-69" transform="translate(238.964844 0)"/>
     <use xlink:href="#DejaVuSans-64" transform="translate(266.748047 0)"/>
    </g>
   </g>
   <g id="patch_6">
    <path d="M 247.604498 289.726525 
L 241.835746 289.726525 
L 239.555956 286.159056 
" style="fill: none; stroke: #000000; stroke-linecap: round"/>
   </g>
   <g id="text_5">
    <!-- Other -->
    <g transform="translate(251.605559 292.4859) scale(0.1 -0.1)">
     <defs>
      <path id="DejaVuSans-4f" d="M 2522 4238 
Q 1834 4238 1429 3725 
Q 1025 3213 1025 2328 
Q 1025 1447 1429 934 
Q 1834 422 2522 422 
Q 3209 422 3611 934 
Q 4013 1447 4013 2328 
Q 4013 3213 3611 3725 
Q 3209 4238 2522 4238 
z
M 2522 4750 
Q 3503 4750 4090 4092 
Q 4678 3434 4678 2328 
Q 4678 1225 4090 567 
Q 3503 -91 2522 -91 
Q 1538 -91 948 565 
Q 359 1222 359 2328 
Q 359 3434 948 4092 
Q 1538 4750 2522 4750 
z
" transform="scale(0.015625)"/>
      <path id="DejaVuSans-74" d="M 1172 4494 
L 1172 3500 
L 2356 3500 
L 2356 3053 
L 1172 3053 
L 1172 1153 
Q 1172 725 1289 603 
Q 1406 481 1766 481 
L 2356 481 
L 2356 0 
L 1766 0 
Q 1100 0 847 248 
Q 594 497 594 1153 
L 594 3053 
L 172 3053 
L 172 3500 
L 594 3500 
L 594 4494 
L 1172 4494 
z
" transform="scale(0.015625)"/>
      <path id="DejaVuSans-68" d="M 3513 2113 
L 3513 0 
L 2938 0 
L 2938 2094 
Q 2938 2591 2744 2837 
Q 2550 3084 2163 3084 
Q 1697 3084 1428 2787 
Q 1159 2491 1159 1978 
L 1159 0 
L 581 0 
L 581 4863 
L 1159 4863 
L 1159 2956 
Q 1366 3272 1645 3428 
Q 1925 3584 2291 3584 
Q 2894 3584 3203 3211 
Q 3513 2838 3513 2113 
z
" transform="scale(0.015625)"/>
      <path id="DejaVuSans-65" d="M 3597 1894 
L 3597 1613 
L 953 1613 
Q 991 1019 1311 708 
Q 1631 397 2203 397 
Q 2534 397 2845 478 
Q 3156 559 3463 722 
L 3463 178 
Q 3153 47 2828 -22 
Q 2503 -91 2169 -91 
Q 1331 -91 842 396 
Q 353 884 353 1716 
Q 353 2575 817 3079 
Q 1281 3584 2069 3584 
Q 2775 3584 3186 3129 
Q 3597 2675 3597 1894 
z
M 3022 2063 
Q 3016 2534 2758 2815 
Q 2500 3097 2075 3097 
Q 1594 3097 1305 2825 
Q 1016 2553 972 2059 
L 3022 2063 
z
" transform="scale(0.015625)"/>
     </defs>
     <use xlink:href="#DejaVuSans-4f"/>
     <use xlink:href="#DejaVuSans-74" transform="translate(78.710938 0)"/>
     <use xlink:href="#DejaVuSans-68" transform="translate(117.919922 0)"/>
     <use xlink:href="#DejaVuSans-65" transform="translate(181.298828 0)"/>
     <use xlink:href="#DejaVuSans-72" transform="translate(242.822266 0)"/>
    </g>
   </g>
   <g id="patch_7">
    <path d="M 27.447798 214.965384 
L 45.363553 214.965384 
L 49.438223 213.815903 
" style="fill: none; stroke: #000000; stroke-linecap: round"/>
   </g>
   <g id="text_6">
    <!-- ICE -->
    <g transform="translate(7.2 217.724759) scale(0.1 -0.1)">
     <defs>
      <path id="DejaVuSans-49" d="M 628 4666 
L 1259 4666 
L 1259 0 
L 628 0 
L 628 4666 
z
" transform="scale(0.015625)"/>
      <path id="DejaVuSans-43" d="M 4122 4306 
L 4122 3641 
Q 3803 3938 3442 4084 
Q 3081 4231 2675 4231 
Q 1875 4231 1450 3742 
Q 1025 3253 1025 2328 
Q 1025 1406 1450 917 
Q 1875 428 2675 428 
Q 3081 428 3442 575 
Q 3803 722 4122 1019 
L 4122 359 
Q 3791 134 3420 21 
Q 3050 -91 2638 -91 
Q 1578 -91 968 557 
Q 359 1206 359 2328 
Q 359 3453 968 4101 
Q 1578 4750 2638 4750 
Q 3056 4750 3426 4639 
Q 3797 4528 4122 4306 
z
" transform="scale(0.015625)"/>
     </defs>
     <use xlink:href="#DejaVuSans-49"/>
     <use xlink:href="#DejaVuSans-43" transform="translate(29.492188 0)"/>
     <use xlink:href="#DejaVuSans-45" transform="translate(99.316406 0)"/>
    </g>
   </g>
   <g id="patch_8">
    <path d="M 289.394516 153.541981 
C 283.494223 126.631734 268.565908 102.531511 247.100528 85.262686 
C 225.635148 67.99386 198.896933 58.573503 171.347434 58.573503 
L 171.347436 122.179439 
C 184.397199 122.179439 197.062669 126.641713 207.230481 134.821683 
C 217.398293 143.001653 224.4696 154.417548 227.264475 167.164507 
z
" style="fill: #2ecc71"/>
   </g>
   <g id="patch_9">
    <path d="M 291.861321 188.448895 
C 292.298554 182.609772 292.310843 176.746583 291.89808 170.905679 
C 291.485316 165.064775 290.648589 159.261582 289.394516 153.541981 
L 227.264475 167.164507 
C 227.85851 169.873792 228.254855 172.622673 228.450374 175.389417 
C 228.645894 178.156161 228.640072 180.933461 228.432962 183.699361 
z
" style="fill: #f39c12"/>
   </g>
   <g id="patch_10">
    <path d="M 291.290748 194.211032 
C 291.408839 193.253127 291.515448 192.293841 291.610553 191.333381 
C 291.705658 190.372921 291.789252 189.411358 291.861321 188.448895 
L 228.432962 183.699361 
C 228.398824 184.155265 228.359227 184.610742 228.314177 185.065697 
C 228.269127 185.520651 228.218628 185.97505 228.162691 186.428795 
z
" style="fill: #3498db"/>
   </g>
   <g id="patch_11">
    <path d="M 238.319017 280.022194 
C 252.80649 270.377325 265.04096 257.715685 274.183147 242.905864 
C 283.325335 228.096043 289.161317 211.484598 291.290748 194.211032 
L 228.162691 186.428795 
C 227.154013 194.61101 224.3896 202.479589 220.05909 209.494768 
C 215.72858 216.509946 209.933305 222.507565 203.070818 227.076187 
z
" style="fill: #d62728"/>
   </g>
   <g id="patch_12">
    <path d="M 234.506398 282.458645 
C 235.149364 282.064509 235.788635 281.664366 236.42411 281.258266 
C 237.059585 280.852165 237.691249 280.440122 238.319017 280.022194 
L 203.070818 227.076187 
C 202.773454 227.274153 202.474245 227.469331 202.17323 227.661695 
C 201.872216 227.854058 201.569403 228.043599 201.26484 228.230295 
z
" style="fill: #c7c7c7"/>
   </g>
   <g id="patch_13">
    <path d="M 171.34744 58.573503 
C 152.676886 58.573503 134.257862 62.900178 117.540006 71.212992 
C 100.82215 79.525807 86.255873 91.600831 74.987668 106.487641 
C 63.719463 121.374455 56.0529 138.671974 52.591363 157.018836 
C 49.129825 175.365699 49.966589 194.267586 55.03578 212.236806 
C 60.104978 230.206026 69.270036 246.758468 81.809623 260.591342 
C 94.349209 274.424216 109.925447 285.164837 127.312457 291.967891 
C 144.699466 298.770944 163.428786 301.453121 182.026307 299.803321 
C 200.623826 298.153521 218.588493 292.216195 234.506398 282.458645 
L 201.26484 228.230295 
C 193.72478 232.852293 185.215201 235.66471 176.40585 236.446194 
C 167.596498 237.227679 158.724715 235.957174 150.488763 232.734675 
C 142.252811 229.512176 134.874593 224.424513 128.934789 217.872099 
C 122.994985 211.319686 118.653642 203.479055 116.252443 194.967319 
C 113.851247 186.455583 113.454885 177.502058 115.094561 168.811438 
C 116.734236 160.12082 120.365766 151.927258 125.703337 144.875609 
C 131.040907 137.823962 137.940723 132.104214 145.859707 128.166565 
C 153.778692 124.228916 162.503493 122.179439 171.34744 122.179439 
z
" style="fill: #9e9e9e"/>
   </g>
   <g id="matplotlib.axis_1"/>
   <g id="matplotlib.axis_2"/>
   <g id="text_7">
    <!-- 21.6% -->
    <g transform="translate(211.594433 114.111511) scale(0.09 -0.09)">
     <defs>
      <path id="DejaVuSans-32" d="M 1228 531 
L 3431 531 
L 3431 0 
L 469 0 
L 469 531 
Q 828 903 1448 1529 
Q 2069 2156 2228 2338 
Q 2531 2678 2651 2914 
Q 2772 3150 2772 3378 
Q 2772 3750 2511 3984 
Q 2250 4219 1831 4219 
Q 1534 4219 1204 4116 
Q 875 4013 500 3803 
L 500 4441 
Q 881 4594 1212 4672 
Q 1544 4750 1819 4750 
Q 2544 4750 2975 4387 
Q 3406 4025 3406 3419 
Q 3406 3131 3298 2873 
Q 3191 2616 2906 2266 
Q 2828 2175 2409 1742 
Q 1991 1309 1228 531 
z
" transform="scale(0.015625)"/>
      <path id="DejaVuSans-31" d="M 794 531 
L 1825 531 
L 1825 4091 
L 703 3866 
L 703 4441 
L 1819 4666 
L 2450 4666 
L 2450 531 
L 3481 531 
L 3481 0 
L 794 0 
L 794 531 
z
" transform="scale(0.015625)"/>
      <path id="DejaVuSans-2e" d="M 684 794 
L 1344 794 
L 1344 0 
L 684 0 
L 684 794 
z
" transform="scale(0.015625)"/>
      <path id="DejaVuSans-36" d="M 2113 2584 
Q 1688 2584 1439 2293 
Q 1191 2003 1191 1497 
Q 1191 994 1439 701 
Q 1688 409 2113 409 
Q 2538 409 2786 701 
Q 3034 994 3034 1497 
Q 3034 2003 2786 2293 
Q 2538 2584 2113 2584 
z
M 3366 4563 
L 3366 3988 
Q 3128 4100 2886 4159 
Q 2644 4219 2406 4219 
Q 1781 4219 1451 3797 
Q 1122 3375 1075 2522 
Q 1259 2794 1537 2939 
Q 1816 3084 2150 3084 
Q 2853 3084 3261 2657 
Q 3669 2231 3669 1497 
Q 3669 778 3244 343 
Q 2819 -91 2113 -91 
Q 1303 -91 875 529 
Q 447 1150 447 2328 
Q 447 3434 972 4092 
Q 1497 4750 2381 4750 
Q 2619 4750 2861 4703 
Q 3103 4656 3366 4563 
z
" transform="scale(0.015625)"/>
      <path id="DejaVuSans-25" d="M 4653 2053 
Q 4381 2053 4226 1822 
Q 4072 1591 4072 1178 
Q 4072 772 4226 539 
Q 4381 306 4653 306 
Q 4919 306 5073 539 
Q 5228 772 5228 1178 
Q 5228 1588 5073 1820 
Q 4919 2053 4653 2053 
z
M 4653 2450 
Q 5147 2450 5437 2106 
Q 5728 1763 5728 1178 
Q 5728 594 5436 251 
Q 5144 -91 4653 -91 
Q 4153 -91 3862 251 
Q 3572 594 3572 1178 
Q 3572 1766 3864 2108 
Q 4156 2450 4653 2450 
z
M 1428 4353 
Q 1159 4353 1004 4120 
Q 850 3888 850 3481 
Q 850 3069 1003 2837 
Q 1156 2606 1428 2606 
Q 1700 2606 1854 2837 
Q 2009 3069 2009 3481 
Q 2009 3884 1853 4118 
Q 1697 4353 1428 4353 
z
M 4250 4750 
L 4750 4750 
L 1831 -91 
L 1331 -91 
L 4250 4750 
z
M 1428 4750 
Q 1922 4750 2215 4408 
Q 2509 4066 2509 3481 
Q 2509 2891 2217 2550 
Q 1925 2209 1428 2209 
Q 931 2209 642 2551 
Q 353 2894 353 3481 
Q 353 4063 643 4406 
Q 934 4750 1428 4750 
z
" transform="scale(0.015625)"/>
     </defs>
     <use xlink:href="#DejaVuSans-32"/>
     <use xlink:href="#DejaVuSans-31" transform="translate(63.623047 0)"/>
     <use xlink:href="#DejaVuSans-2e" transform="translate(127.246094 0)"/>
     <use xlink:href="#DejaVuSans-36" transform="translate(159.033203 0)"/>
     <use xlink:href="#DejaVuSans-25" transform="translate(222.65625 0)"/>
    </g>
   </g>
   <g id="text_8">
    <!-- 4.6% -->
    <g transform="translate(246.711789 175.774465) scale(0.09 -0.09)">
     <defs>
      <path id="DejaVuSans-34" d="M 2419 4116 
L 825 1625 
L 2419 1625 
L 2419 4116 
z
M 2253 4666 
L 3047 4666 
L 3047 1625 
L 3713 1625 
L 3713 1100 
L 3047 1100 
L 3047 0 
L 2419 0 
L 2419 1100 
L 313 1100 
L 313 1709 
L 2253 4666 
z
" transform="scale(0.015625)"/>
     </defs>
     <use xlink:href="#DejaVuSans-34"/>
     <use xlink:href="#DejaVuSans-2e" transform="translate(63.623047 0)"/>
     <use xlink:href="#DejaVuSans-36" transform="translate(95.410156 0)"/>
     <use xlink:href="#DejaVuSans-25" transform="translate(159.033203 0)"/>
    </g>
   </g>
   <g id="text_9">
    <!-- 13.7% -->
    <g transform="translate(231.093913 227.614604) scale(0.09 -0.09)">
     <defs>
      <path id="DejaVuSans-33" d="M 2597 2516 
Q 3050 2419 3304 2112 
Q 3559 1806 3559 1356 
Q 3559 666 3084 287 
Q 2609 -91 1734 -91 
Q 1441 -91 1130 -33 
Q 819 25 488 141 
L 488 750 
Q 750 597 1062 519 
Q 1375 441 1716 441 
Q 2309 441 2620 675 
Q 2931 909 2931 1356 
Q 2931 1769 2642 2001 
Q 2353 2234 1838 2234 
L 1294 2234 
L 1294 2753 
L 1863 2753 
Q 2328 2753 2575 2939 
Q 2822 3125 2822 3475 
Q 2822 3834 2567 4026 
Q 2313 4219 1838 4219 
Q 1578 4219 1281 4162 
Q 984 4106 628 3988 
L 628 4550 
Q 988 4650 1302 4700 
Q 1616 4750 1894 4750 
Q 2613 4750 3031 4423 
Q 3450 4097 3450 3541 
Q 3450 3153 3228 2886 
Q 3006 2619 2597 2516 
z
" transform="scale(0.015625)"/>
      <path id="DejaVuSans-37" d="M 525 4666 
L 3525 4666 
L 3525 4397 
L 1831 0 
L 1172 0 
L 2766 4134 
L 525 4134 
L 525 4666 
z
" transform="scale(0.015625)"/>
     </defs>
     <use xlink:href="#DejaVuSans-31"/>
     <use xlink:href="#DejaVuSans-33" transform="translate(63.623047 0)"/>
     <use xlink:href="#DejaVuSans-2e" transform="translate(127.246094 0)"/>
     <use xlink:href="#DejaVuSans-37" transform="translate(159.033203 0)"/>
     <use xlink:href="#DejaVuSans-25" transform="translate(222.65625 0)"/>
    </g>
   </g>
   <g id="text_10">
    <!-- 58.8% -->
    <g transform="translate(73.307803 205.532857) scale(0.09 -0.09)">
     <defs>
      <path id="DejaVuSans-35" d="M 691 4666 
L 3169 4666 
L 3169 4134 
L 1269 4134 
L 1269 2991 
Q 1406 3038 1543 3061 
Q 1681 3084 1819 3084 
Q 2600 3084 3056 2656 
Q 3513 2228 3513 1497 
Q 3513 744 3044 326 
Q 2575 -91 1722 -91 
Q 1428 -91 1123 -41 
Q 819 9 494 109 
L 494 744 
Q 775 591 1075 516 
Q 1375 441 1709 441 
Q 2250 441 2565 725 
Q 2881 1009 2881 1497 
Q 2881 1984 2565 2268 
Q 2250 2553 1709 2553 
Q 1456 2553 1204 2497 
Q 953 2441 691 2322 
L 691 4666 
z
" transform="scale(0.015625)"/>
      <path id="DejaVuSans-38" d="M 2034 2216 
Q 1584 2216 1326 1975 
Q 1069 1734 1069 1313 
Q 1069 891 1326 650 
Q 1584 409 2034 409 
Q 2484 409 2743 651 
Q 3003 894 3003 1313 
Q 3003 1734 2745 1975 
Q 2488 2216 2034 2216 
z
M 1403 2484 
Q 997 2584 770 2862 
Q 544 3141 544 3541 
Q 544 4100 942 4425 
Q 1341 4750 2034 4750 
Q 2731 4750 3128 4425 
Q 3525 4100 3525 3541 
Q 3525 3141 3298 2862 
Q 3072 2584 2669 2484 
Q 3125 2378 3379 2068 
Q 3634 1759 3634 1313 
Q 3634 634 3220 271 
Q 2806 -91 2034 -91 
Q 1263 -91 848 271 
Q 434 634 434 1313 
Q 434 1759 690 2068 
Q 947 2378 1403 2484 
z
M 1172 3481 
Q 1172 3119 1398 2916 
Q 1625 2713 2034 2713 
Q 2441 2713 2670 2916 
Q 2900 3119 2900 3481 
Q 2900 3844 2670 4047 
Q 2441 4250 2034 4250 
Q 1625 4250 1398 4047 
Q 1172 3844 1172 3481 
z
" transform="scale(0.015625)"/>
     </defs>
     <use xlink:href="#DejaVuSans-35"/>
     <use xlink:href="#DejaVuSans-38" transform="translate(63.623047 0)"/>
     <use xlink:href="#DejaVuSans-2e" transform="translate(127.246094 0)"/>
     <use xlink:href="#DejaVuSans-38" transform="translate(159.033203 0)"/>
     <use xlink:href="#DejaVuSans-25" transform="translate(222.65625 0)"/>
    </g>
   </g>
   <g id="text_11">
    <!-- Kraftomnibusse (February - July) -->
    <g transform="translate(74.426877 16.318125) scale(0.12 -0.12)">
     <defs>
      <path id="DejaVuSans-4b" d="M 628 4666 
L 1259 4666 
L 1259 2694 
L 3353 4666 
L 4166 4666 
L 1850 2491 
L 4331 0 
L 3500 0 
L 1259 2247 
L 1259 0 
L 628 0 
L 628 4666 
z
" transform="scale(0.015625)"/>
      <path id="DejaVuSans-61" d="M 2194 1759 
Q 1497 1759 1228 1600 
Q 959 1441 959 1056 
Q 959 750 1161 570 
Q 1363 391 1709 391 
Q 2188 391 2477 730 
Q 2766 1069 2766 1631 
L 2766 1759 
L 2194 1759 
z
M 3341 1997 
L 3341 0 
L 2766 0 
L 2766 531 
Q 2569 213 2275 61 
Q 1981 -91 1556 -91 
Q 1019 -91 701 211 
Q 384 513 384 1019 
Q 384 1609 779 1909 
Q 1175 2209 1959 2209 
L 2766 2209 
L 2766 2266 
Q 2766 2663 2505 2880 
Q 2244 3097 1772 3097 
Q 1472 3097 1187 3025 
Q 903 2953 641 2809 
L 641 3341 
Q 956 3463 1253 3523 
Q 1550 3584 1831 3584 
Q 2591 3584 2966 3190 
Q 3341 2797 3341 1997 
z
" transform="scale(0.015625)"/>
      <path id="DejaVuSans-66" d="M 2375 4863 
L 2375 4384 
L 1825 4384 
Q 1516 4384 1395 4259 
Q 1275 4134 1275 3809 
L 1275 3500 
L 2222 3500 
L 2222 3053 
L 1275 3053 
L 1275 0 
L 697 0 
L 697 3053 
L 147 3053 
L 147 3500 
L 697 3500 
L 697 3744 
Q 697 4328 969 4595 
Q 1241 4863 1831 4863 
L 2375 4863 
z
" transform="scale(0.015625)"/>
      <path id="DejaVuSans-6f" d="M 1959 3097 
Q 1497 3097 1228 2736 
Q 959 2375 959 1747 
Q 959 1119 1226 758 
Q 1494 397 1959 397 
Q 2419 397 2687 759 
Q 2956 1122 2956 1747 
Q 2956 2369 2687 2733 
Q 2419 3097 1959 3097 
z
M 1959 3584 
Q 2709 3584 3137 3096 
Q 3566 2609 3566 1747 
Q 3566 888 3137 398 
Q 2709 -91 1959 -91 
Q 1206 -91 779 398 
Q 353 888 353 1747 
Q 353 2609 779 3096 
Q 1206 3584 1959 3584 
z
" transform="scale(0.015625)"/>
      <path id="DejaVuSans-6d" d="M 3328 2828 
Q 3544 3216 3844 3400 
Q 4144 3584 4550 3584 
Q 5097 3584 5394 3201 
Q 5691 2819 5691 2113 
L 5691 0 
L 5113 0 
L 5113 2094 
Q 5113 2597 4934 2840 
Q 4756 3084 4391 3084 
Q 3944 3084 3684 2787 
Q 3425 2491 3425 1978 
L 3425 0 
L 2847 0 
L 2847 2094 
Q 2847 2600 2669 2842 
Q 2491 3084 2119 3084 
Q 1678 3084 1418 2786 
Q 1159 2488 1159 1978 
L 1159 0 
L 581 0 
L 581 3500 
L 1159 3500 
L 1159 2956 
Q 1356 3278 1631 3431 
Q 1906 3584 2284 3584 
Q 2666 3584 2933 3390 
Q 3200 3197 3328 2828 
z
" transform="scale(0.015625)"/>
      <path id="DejaVuSans-6e" d="M 3513 2113 
L 3513 0 
L 2938 0 
L 2938 2094 
Q 2938 2591 2744 2837 
Q 2550 3084 2163 3084 
Q 1697 3084 1428 2787 
Q 1159 2491 1159 1978 
L 1159 0 
L 581 0 
L 581 3500 
L 1159 3500 
L 1159 2956 
Q 1366 3272 1645 3428 
Q 1925 3584 2291 3584 
Q 2894 3584 3203 3211 
Q 3513 2838 3513 2113 
z
" transform="scale(0.015625)"/>
      <path id="DejaVuSans-75" d="M 544 1381 
L 544 3500 
L 1119 3500 
L 1119 1403 
Q 1119 906 1312 657 
Q 1506 409 1894 409 
Q 2359 409 2629 706 
Q 2900 1003 2900 1516 
L 2900 3500 
L 3475 3500 
L 3475 0 
L 2900 0 
L 2900 538 
Q 2691 219 2414 64 
Q 2138 -91 1772 -91 
Q 1169 -91 856 284 
Q 544 659 544 1381 
z
M 1991 3584 
L 1991 3584 
z
" transform="scale(0.015625)"/>
      <path id="DejaVuSans-73" d="M 2834 3397 
L 2834 2853 
Q 2591 2978 2328 3040 
Q 2066 3103 1784 3103 
Q 1356 3103 1142 2972 
Q 928 2841 928 2578 
Q 928 2378 1081 2264 
Q 1234 2150 1697 2047 
L 1894 2003 
Q 2506 1872 2764 1633 
Q 3022 1394 3022 966 
Q 3022 478 2636 193 
Q 2250 -91 1575 -91 
Q 1294 -91 989 -36 
Q 684 19 347 128 
L 347 722 
Q 666 556 975 473 
Q 1284 391 1588 391 
Q 1994 391 2212 530 
Q 2431 669 2431 922 
Q 2431 1156 2273 1281 
Q 2116 1406 1581 1522 
L 1381 1569 
Q 847 1681 609 1914 
Q 372 2147 372 2553 
Q 372 3047 722 3315 
Q 1072 3584 1716 3584 
Q 2034 3584 2315 3537 
Q 2597 3491 2834 3397 
z
" transform="scale(0.015625)"/>
      <path id="DejaVuSans-20" transform="scale(0.015625)"/>
      <path id="DejaVuSans-28" d="M 1984 4856 
Q 1566 4138 1362 3434 
Q 1159 2731 1159 2009 
Q 1159 1288 1364 580 
Q 1569 -128 1984 -844 
L 1484 -844 
Q 1016 -109 783 600 
Q 550 1309 550 2009 
Q 550 2706 781 3412 
Q 1013 4119 1484 4856 
L 1984 4856 
z
" transform="scale(0.015625)"/>
      <path id="DejaVuSans-46" d="M 628 4666 
L 3309 4666 
L 3309 4134 
L 1259 4134 
L 1259 2759 
L 3109 2759 
L 3109 2228 
L 1259 2228 
L 1259 0 
L 628 0 
L 628 4666 
z
" transform="scale(0.015625)"/>
      <path id="DejaVuSans-2d" d="M 313 2009 
L 1997 2009 
L 1997 1497 
L 313 1497 
L 313 2009 
z
" transform="scale(0.015625)"/>
      <path id="DejaVuSans-4a" d="M 628 4666 
L 1259 4666 
L 1259 325 
Q 1259 -519 939 -900 
Q 619 -1281 -91 -1281 
L -331 -1281 
L -331 -750 
L -134 -750 
Q 284 -750 456 -515 
Q 628 -281 628 325 
L 628 4666 
z
" transform="scale(0.015625)"/>
      <path id="DejaVuSans-6c" d="M 603 4863 
L 1178 4863 
L 1178 0 
L 603 0 
L 603 4863 
z
" transform="scale(0.015625)"/>
      <path id="DejaVuSans-29" d="M 513 4856 
L 1013 4856 
Q 1481 4119 1714 3412 
Q 1947 2706 1947 2009 
Q 1947 1309 1714 600 
Q 1481 -109 1013 -844 
L 513 -844 
Q 928 -128 1133 580 
Q 1338 1288 1338 2009 
Q 1338 2731 1133 3434 
Q 928 4138 513 4856 
z
" transform="scale(0.015625)"/>
     </defs>
     <use xlink:href="#DejaVuSans-4b"/>
     <use xlink:href="#DejaVuSans-72" transform="translate(65.576172 0)"/>
     <use xlink:href="#DejaVuSans-61" transform="translate(106.689453 0)"/>
     <use xlink:href="#DejaVuSans-66" transform="translate(167.96875 0)"/>
     <use xlink:href="#DejaVuSans-74" transform="translate(201.423828 0)"/>
     <use xlink:href="#DejaVuSans-6f" transform="translate(240.632812 0)"/>
     <use xlink:href="#DejaVuSans-6d" transform="translate(301.814453 0)"/>
     <use xlink:href="#DejaVuSans-6e" transform="translate(399.226562 0)"/>
     <use xlink:href="#DejaVuSans-69" transform="translate(462.605469 0)"/>
     <use xlink:href="#DejaVuSans-62" transform="translate(490.388672 0)"/>
     <use xlink:href="#DejaVuSans-75" transform="translate(553.865234 0)"/>
     <use xlink:href="#DejaVuSans-73" transform="translate(617.244141 0)"/>
     <use xlink:href="#DejaVuSans-73" transform="translate(669.34375 0)"/>
     <use xlink:href="#DejaVuSans-65" transform="translate(721.443359 0)"/>
     <use xlink:href="#DejaVuSans-20" transform="translate(782.966797 0)"/>
     <use xlink:href="#DejaVuSans-28" transform="translate(814.753906 0)"/>
     <use xlink:href="#DejaVuSans-46" transform="translate(853.767578 0)"/>
     <use xlink:href="#DejaVuSans-65" transform="translate(905.787109 0)"/>
     <use xlink:href="#DejaVuSans-62" transform="translate(967.310547 0)"/>
     <use xlink:href="#DejaVuSans-72" transform="translate(1030.787109 0)"/>
     <use xlink:href="#DejaVuSans-75" transform="translate(1071.900391 0)"/>
     <use xlink:href="#DejaVuSans-61" transform="translate(1135.279297 0)"/>
     <use xlink:href="#DejaVuSans-72" transform="translate(1196.558594 0)"/>
     <use xlink:href="#DejaVuSans-79" transform="translate(1237.671875 0)"/>
     <use xlink:href="#DejaVuSans-20" transform="translate(1296.851562 0)"/>
     <use xlink:href="#DejaVuSans-2d" transform="translate(1328.638672 0)"/>
     <use xlink:href="#DejaVuSans-20" transform="translate(1364.722656 0)"/>
     <use xlink:href="#DejaVuSans-4a" transform="translate(1396.509766 0)"/>
     <use xlink:href="#DejaVuSans-75" transform="translate(1426.001953 0)"/>
     <use xlink:href="#DejaVuSans-6c" transform="translate(1489.380859 0)"/>
     <use xlink:href="#DejaVuSans-79" transform="translate(1517.164062 0)"/>
     <use xlink:href="#DejaVuSans-29" transform="translate(1576.34375 0)"/>
    </g>
   </g>
  </g>
  <g id="axes_2">
   <g id="patch_14">
    <path d="M 551.802611 52.697682 
L 537.658526 52.697682 
L 536.597945 56.796389 
" style="fill: none; stroke: #000000; stroke-linecap: round"/>
   </g>
   <g id="text_12">
    <!-- BEV -->
    <g transform="translate(555.801763 55.457057) scale(0.1 -0.1)">
     <use xlink:href="#DejaVuSans-42"/>
     <use xlink:href="#DejaVuSans-45" transform="translate(68.603516 0)"/>
     <use xlink:href="#DejaVuSans-56" transform="translate(131.787109 0)"/>
    </g>
   </g>
   <g id="patch_15">
    <path d="M 579.294721 62.324351 
L 574.593303 62.324351 
L 569.671573 70.590006 
" style="fill: none; stroke: #000000; stroke-linecap: round"/>
   </g>
   <g id="text_13">
    <!-- PHEV -->
    <g transform="translate(583.291584 65.083726) scale(0.1 -0.1)">
     <use xlink:href="#DejaVuSans-50"/>
     <use xlink:href="#DejaVuSans-48" transform="translate(60.302734 0)"/>
     <use xlink:href="#DejaVuSans-45" transform="translate(135.498047 0)"/>
     <use xlink:href="#DejaVuSans-56" transform="translate(198.681641 0)"/>
    </g>
   </g>
   <g id="patch_16">
    <path d="M 583.872957 70.929047 
L 578.104209 70.929047 
L 575.7355 74.438103 
" style="fill: none; stroke: #000000; stroke-linecap: round"/>
   </g>
   <g id="text_14">
    <!-- Other -->
    <g transform="translate(587.874007 73.688422) scale(0.1 -0.1)">
     <use xlink:href="#DejaVuSans-4f"/>
     <use xlink:href="#DejaVuSans-74" transform="translate(78.710938 0)"/>
     <use xlink:href="#DejaVuSans-68" transform="translate(117.919922 0)"/>
     <use xlink:href="#DejaVuSans-65" transform="translate(181.298828 0)"/>
     <use xlink:href="#DejaVuSans-72" transform="translate(242.822266 0)"/>
    </g>
   </g>
   <g id="patch_17">
    <path d="M 447.02934 304.08965 
L 464.945094 304.08965 
L 466.236268 300.05764 
" style="fill: none; stroke: #000000; stroke-linecap: round"/>
   </g>
   <g id="text_15">
    <!-- ICE -->
    <g transform="translate(426.781543 306.849025) scale(0.1 -0.1)">
     <use xlink:href="#DejaVuSans-49"/>
     <use xlink:href="#DejaVuSans-43" transform="translate(29.492188 0)"/>
     <use xlink:href="#DejaVuSans-45" transform="translate(99.316406 0)"/>
    </g>
   </g>
   <g id="patch_18">
    <path d="M 563.484684 73.741536 
C 554.552901 68.787448 545.029006 64.985593 535.140975 62.426968 
C 525.252944 59.868343 515.080322 58.573529 504.86662 58.573529 
L 504.866622 122.179442 
C 509.704692 122.179442 514.523302 122.792775 519.207107 124.004755 
C 523.890911 125.216736 528.402229 127.017615 532.633074 129.364288 
z
" style="fill: #2ecc71"/>
   </g>
   <g id="patch_19">
    <path d="M 569.848903 77.531067 
C 568.807868 76.867154 567.75672 76.219239 566.695833 75.587539 
C 565.634947 74.955839 564.564432 74.340425 563.484684 73.741536 
L 532.633074 129.364288 
C 533.144534 129.647972 533.651619 129.939484 534.154145 130.23871 
C 534.65667 130.537937 535.154582 130.844844 535.647704 131.159329 
z
" style="fill: #f39c12"/>
   </g>
   <g id="patch_20">
    <path d="M 575.068187 81.054227 
C 574.21379 80.44449 573.351491 79.845918 572.481498 79.258648 
C 571.611506 78.671378 570.7339 78.095467 569.848903 77.531067 
L 535.647704 131.159329 
C 536.066913 131.426676 536.482621 131.699476 536.894723 131.977656 
C 537.306824 132.255837 537.715282 132.539371 538.119996 132.828194 
z
" style="fill: #c7c7c7"/>
   </g>
   <g id="patch_21">
    <path d="M 504.866626 58.573529 
C 490.570676 58.573529 476.387476 61.110213 462.977768 66.065402 
C 449.568061 71.020592 437.143364 78.316133 426.282502 87.61215 
C 415.42164 96.908168 406.29593 108.058019 399.330495 120.542287 
C 392.36506 133.026555 387.669787 146.64831 385.463396 160.77297 
C 383.256998 174.897631 383.574303 189.302393 386.400509 203.316199 
C 389.226714 217.330004 394.517261 230.731806 402.025658 242.897253 
C 409.534056 255.062704 419.141883 265.799899 430.401548 274.608657 
C 441.661213 283.417415 454.395104 290.158777 468.010001 294.518687 
C 481.624898 298.878596 495.906034 300.788283 510.188119 300.15878 
C 524.470203 299.529277 538.52795 296.370524 551.706457 290.829663 
C 564.884965 285.288802 576.976354 277.453245 587.41735 267.688005 
C 597.858346 257.922765 606.484234 246.381883 612.893186 233.603015 
C 619.302137 220.824142 623.393047 207.008849 624.975344 192.800733 
C 626.557635 178.592617 625.60636 164.215796 622.165815 150.340031 
C 618.725269 136.464266 612.849736 123.308431 604.812933 111.485404 
C 596.77613 99.662377 586.704815 89.35864 575.068187 81.054227 
L 538.119996 132.828194 
C 543.632083 136.761863 548.402706 141.642581 552.209613 147.242962 
C 556.016519 152.843343 558.799667 159.075055 560.429399 165.647785 
C 562.059131 172.220516 562.509735 179.030589 561.760229 185.760749 
C 561.01072 192.49091 559.07292 199.034996 556.037101 205.088146 
C 553.001282 211.141294 548.915335 216.608028 543.9696 221.233668 
C 539.023865 225.859308 533.296365 229.570888 527.053914 232.195506 
C 520.811463 234.820124 514.15253 236.316376 507.387333 236.614561 
C 500.622135 236.912747 493.857386 236.008158 487.408224 233.942938 
C 480.959062 231.877718 474.927219 228.684441 469.593694 224.511871 
C 464.260168 220.339302 459.709092 215.253262 456.152483 209.49068 
C 452.595874 203.7281 450.089825 197.379878 448.751096 190.74176 
C 447.412367 184.103641 447.262065 177.280333 448.307201 170.589704 
C 449.352333 163.899075 451.57641 157.446665 454.875827 151.533065 
C 458.175243 145.619464 462.497948 140.337956 467.642567 135.934579 
C 472.787185 131.531202 478.672568 128.07542 485.024535 125.728224 
C 491.376502 123.381029 498.09486 122.179442 504.866626 122.179442 
z
" style="fill: #9e9e9e"/>
   </g>
   <g id="matplotlib.axis_3"/>
   <g id="matplotlib.axis_4"/>
   <g id="text_16">
    <!-- 8.1% -->
    <g transform="translate(515.232046 97.669787) scale(0.09 -0.09)">
     <use xlink:href="#DejaVuSans-38"/>
     <use xlink:href="#DejaVuSans-2e" transform="translate(63.623047 0)"/>
     <use xlink:href="#DejaVuSans-31" transform="translate(95.410156 0)"/>
     <use xlink:href="#DejaVuSans-25" transform="translate(159.033203 0)"/>
    </g>
   </g>
   <g id="text_17">
    <!-- 90.1% -->
    <g transform="translate(464.034629 264.775826) scale(0.09 -0.09)">
     <defs>
      <path id="DejaVuSans-39" d="M 703 97 
L 703 672 
Q 941 559 1184 500 
Q 1428 441 1663 441 
Q 2288 441 2617 861 
Q 2947 1281 2994 2138 
Q 2813 1869 2534 1725 
Q 2256 1581 1919 1581 
Q 1219 1581 811 2004 
Q 403 2428 403 3163 
Q 403 3881 828 4315 
Q 1253 4750 1959 4750 
Q 2769 4750 3195 4129 
Q 3622 3509 3622 2328 
Q 3622 1225 3098 567 
Q 2575 -91 1691 -91 
Q 1453 -91 1209 -44 
Q 966 3 703 97 
z
M 1959 2075 
Q 2384 2075 2632 2365 
Q 2881 2656 2881 3163 
Q 2881 3666 2632 3958 
Q 2384 4250 1959 4250 
Q 1534 4250 1286 3958 
Q 1038 3666 1038 3163 
Q 1038 2656 1286 2365 
Q 1534 2075 1959 2075 
z
" transform="scale(0.015625)"/>
      <path id="DejaVuSans-30" d="M 2034 4250 
Q 1547 4250 1301 3770 
Q 1056 3291 1056 2328 
Q 1056 1369 1301 889 
Q 1547 409 2034 409 
Q 2525 409 2770 889 
Q 3016 1369 3016 2328 
Q 3016 3291 2770 3770 
Q 2525 4250 2034 4250 
z
M 2034 4750 
Q 2819 4750 3233 4129 
Q 3647 3509 3647 2328 
Q 3647 1150 3233 529 
Q 2819 -91 2034 -91 
Q 1250 -91 836 529 
Q 422 1150 422 2328 
Q 422 3509 836 4129 
Q 1250 4750 2034 4750 
z
" transform="scale(0.015625)"/>
     </defs>
     <use xlink:href="#DejaVuSans-39"/>
     <use xlink:href="#DejaVuSans-30" transform="translate(63.623047 0)"/>
     <use xlink:href="#DejaVuSans-2e" transform="translate(127.246094 0)"/>
     <use xlink:href="#DejaVuSans-31" transform="translate(159.033203 0)"/>
     <use xlink:href="#DejaVuSans-25" transform="translate(222.65625 0)"/>
    </g>
   </g>
   <g id="text_18">
    <!-- Lastkraftwagen (February - July) -->
    <g transform="translate(408.561004 16.318159) scale(0.12 -0.12)">
     <defs>
      <path id="DejaVuSans-4c" d="M 628 4666 
L 1259 4666 
L 1259 531 
L 3531 531 
L 3531 0 
L 628 0 
L 628 4666 
z
" transform="scale(0.015625)"/>
      <path id="DejaVuSans-6b" d="M 581 4863 
L 1159 4863 
L 1159 1991 
L 2875 3500 
L 3609 3500 
L 1753 1863 
L 3688 0 
L 2938 0 
L 1159 1709 
L 1159 0 
L 581 0 
L 581 4863 
z
" transform="scale(0.015625)"/>
      <path id="DejaVuSans-77" d="M 269 3500 
L 844 3500 
L 1563 769 
L 2278 3500 
L 2956 3500 
L 3675 769 
L 4391 3500 
L 4966 3500 
L 4050 0 
L 3372 0 
L 2619 2869 
L 1863 0 
L 1184 0 
L 269 3500 
z
" transform="scale(0.015625)"/>
      <path id="DejaVuSans-67" d="M 2906 1791 
Q 2906 2416 2648 2759 
Q 2391 3103 1925 3103 
Q 1463 3103 1205 2759 
Q 947 2416 947 1791 
Q 947 1169 1205 825 
Q 1463 481 1925 481 
Q 2391 481 2648 825 
Q 2906 1169 2906 1791 
z
M 3481 434 
Q 3481 -459 3084 -895 
Q 2688 -1331 1869 -1331 
Q 1566 -1331 1297 -1286 
Q 1028 -1241 775 -1147 
L 775 -588 
Q 1028 -725 1275 -790 
Q 1522 -856 1778 -856 
Q 2344 -856 2625 -561 
Q 2906 -266 2906 331 
L 2906 616 
Q 2728 306 2450 153 
Q 2172 0 1784 0 
Q 1141 0 747 490 
Q 353 981 353 1791 
Q 353 2603 747 3093 
Q 1141 3584 1784 3584 
Q 2172 3584 2450 3431 
Q 2728 3278 2906 2969 
L 2906 3500 
L 3481 3500 
L 3481 434 
z
" transform="scale(0.015625)"/>
     </defs>
     <use xlink:href="#DejaVuSans-4c"/>
     <use xlink:href="#DejaVuSans-61" transform="translate(55.712891 0)"/>
     <use xlink:href="#DejaVuSans-73" transform="translate(116.992188 0)"/>
     <use xlink:href="#DejaVuSans-74" transform="translate(169.091797 0)"/>
     <use xlink:href="#DejaVuSans-6b" transform="translate(208.300781 0)"/>
     <use xlink:href="#DejaVuSans-72" transform="translate(266.210938 0)"/>
     <use xlink:href="#DejaVuSans-61" transform="translate(307.324219 0)"/>
     <use xlink:href="#DejaVuSans-66" transform="translate(368.603516 0)"/>
     <use xlink:href="#DejaVuSans-74" transform="translate(402.058594 0)"/>
     <use xlink:href="#DejaVuSans-77" transform="translate(441.267578 0)"/>
     <use xlink:href="#DejaVuSans-61" transform="translate(523.054688 0)"/>
     <use xlink:href="#DejaVuSans-67" transform="translate(584.333984 0)"/>
     <use xlink:href="#DejaVuSans-65" transform="translate(647.810547 0)"/>
     <use xlink:href="#DejaVuSans-6e" transform="translate(709.333984 0)"/>
     <use xlink:href="#DejaVuSans-20" transform="translate(772.712891 0)"/>
     <use xlink:href="#DejaVuSans-28" transform="translate(804.5 0)"/>
     <use xlink:href="#DejaVuSans-46" transform="translate(843.513672 0)"/>
     <use xlink:href="#DejaVuSans-65" transform="translate(895.533203 0)"/>
     <use xlink:href="#DejaVuSans-62" transform="translate(957.056641 0)"/>
     <use xlink:href="#DejaVuSans-72" transform="translate(1020.533203 0)"/>
     <use xlink:href="#DejaVuSans-75" transform="translate(1061.646484 0)"/>
     <use xlink:href="#DejaVuSans-61" transform="translate(1125.025391 0)"/>
     <use xlink:href="#DejaVuSans-72" transform="translate(1186.304688 0)"/>
     <use xlink:href="#DejaVuSans-79" transform="translate(1227.417969 0)"/>
     <use xlink:href="#DejaVuSans-20" transform="translate(1286.597656 0)"/>
     <use xlink:href="#DejaVuSans-2d" transform="translate(1318.384766 0)"/>
     <use xlink:href="#DejaVuSans-20" transform="translate(1354.46875 0)"/>
     <use xlink:href="#DejaVuSans-4a" transform="translate(1386.255859 0)"/>
     <use xlink:href="#DejaVuSans-75" transform="translate(1415.748047 0)"/>
     <use xlink:href="#DejaVuSans-6c" transform="translate(1479.126953 0)"/>
     <use xlink:href="#DejaVuSans-79" transform="translate(1506.910156 0)"/>
     <use xlink:href="#DejaVuSans-29" transform="translate(1566.089844 0)"/>
    </g>
   </g>
  </g>
  <g id="axes_3">
   <g id="patch_22">
    <path d="M 862.225455 34.571889 
L 849.141905 34.571889 
L 847.765544 53.10735 
" style="fill: none; stroke: #000000; stroke-linecap: round"/>
   </g>
   <g id="text_19">
    <!-- BEV -->
    <g transform="translate(866.222447 37.331264) scale(0.1 -0.1)">
     <use xlink:href="#DejaVuSans-42"/>
     <use xlink:href="#DejaVuSans-45" transform="translate(68.603516 0)"/>
     <use xlink:href="#DejaVuSans-56" transform="translate(131.787109 0)"/>
    </g>
   </g>
   <g id="patch_23">
    <path d="M 877.567692 43.176585 
L 863.911669 43.176585 
L 861.710816 54.923958 
" style="fill: none; stroke: #000000; stroke-linecap: round"/>
   </g>
   <g id="text_20">
    <!-- Gas -->
    <g transform="translate(881.568106 45.93596) scale(0.1 -0.1)">
     <defs>
      <path id="DejaVuSans-47" d="M 3809 666 
L 3809 1919 
L 2778 1919 
L 2778 2438 
L 4434 2438 
L 4434 434 
Q 4069 175 3628 42 
Q 3188 -91 2688 -91 
Q 1594 -91 976 548 
Q 359 1188 359 2328 
Q 359 3472 976 4111 
Q 1594 4750 2688 4750 
Q 3144 4750 3555 4637 
Q 3966 4525 4313 4306 
L 4313 3634 
Q 3963 3931 3569 4081 
Q 3175 4231 2741 4231 
Q 1884 4231 1454 3753 
Q 1025 3275 1025 2328 
Q 1025 1384 1454 906 
Q 1884 428 2741 428 
Q 3075 428 3337 486 
Q 3600 544 3809 666 
z
" transform="scale(0.015625)"/>
     </defs>
     <use xlink:href="#DejaVuSans-47"/>
     <use xlink:href="#DejaVuSans-61" transform="translate(77.490234 0)"/>
     <use xlink:href="#DejaVuSans-73" transform="translate(138.769531 0)"/>
    </g>
   </g>
   <g id="patch_24">
    <path d="M 873.175226 51.781281 
L 867.406477 51.781281 
L 866.467867 55.909626 
" style="fill: none; stroke: #000000; stroke-linecap: round"/>
   </g>
   <g id="text_21">
    <!-- Other -->
    <g transform="translate(877.176277 54.540656) scale(0.1 -0.1)">
     <use xlink:href="#DejaVuSans-4f"/>
     <use xlink:href="#DejaVuSans-74" transform="translate(78.710938 0)"/>
     <use xlink:href="#DejaVuSans-68" transform="translate(117.919922 0)"/>
     <use xlink:href="#DejaVuSans-65" transform="translate(181.298828 0)"/>
     <use xlink:href="#DejaVuSans-72" transform="translate(242.822266 0)"/>
    </g>
   </g>
   <g id="patch_25">
    <path d="M 805.777947 309.498628 
L 823.6937 309.498628 
L 824.168883 305.291673 
" style="fill: none; stroke: #000000; stroke-linecap: round"/>
   </g>
   <g id="text_22">
    <!-- ICE -->
    <g transform="translate(785.53015 312.258003) scale(0.1 -0.1)">
     <use xlink:href="#DejaVuSans-49"/>
     <use xlink:href="#DejaVuSans-43" transform="translate(29.492188 0)"/>
     <use xlink:href="#DejaVuSans-45" transform="translate(99.316406 0)"/>
    </g>
   </g>
   <g id="patch_26">
    <path d="M 856.235111 59.898952 
C 853.281706 59.457909 850.312968 59.126471 847.335011 58.905344 
C 844.357055 58.684217 841.371925 58.573539 838.385769 58.573539 
L 838.385772 122.179452 
C 839.800267 122.179452 841.214276 122.231879 842.624887 122.336623 
C 844.035498 122.441367 845.441742 122.598364 846.840723 122.807279 
z
" style="fill: #2ecc71"/>
   </g>
   <g id="patch_27">
    <path d="M 865.014263 61.543709 
C 863.561829 61.215614 862.103455 60.914401 860.639888 60.6402 
C 859.17632 60.366 857.70781 60.118876 856.235111 59.898952 
L 846.840723 122.807279 
C 847.538318 122.911454 848.233928 123.028512 848.927196 123.158397 
C 849.620465 123.288281 850.311274 123.430961 850.999269 123.586375 
z
" style="fill: #f35c12"/>
   </g>
   <g id="patch_28">
    <path d="M 865.342609 61.618364 
C 865.287902 61.605845 865.233193 61.593369 865.178469 61.580929 
C 865.123746 61.568489 865.069005 61.556077 865.014263 61.543709 
L 850.999269 123.586375 
C 851.025199 123.592233 851.051129 123.598112 851.077051 123.604005 
C 851.102973 123.609898 851.128887 123.615807 851.154801 123.621738 
z
" style="fill: #c7c7c7"/>
   </g>
   <g id="patch_29">
    <path d="M 838.385776 58.573539 
C 823.087337 58.573539 807.92711 61.478462 793.712286 67.133632 
C 779.497463 72.788802 766.484883 81.09204 755.36739 91.601258 
C 744.249897 102.110477 735.228382 114.635775 728.783162 128.510261 
C 722.337942 142.384747 718.585486 157.357725 717.725593 172.631979 
C 716.865699 187.906232 718.913906 203.205771 723.761154 217.715987 
C 728.608403 232.226204 736.167101 245.684923 746.034815 257.375539 
C 755.90253 269.066156 767.900943 278.777436 781.391223 285.992321 
C 794.881504 293.207206 809.619888 297.795323 824.821663 299.512394 
C 840.023437 301.229465 855.413913 300.044451 870.173645 296.020453 
C 884.933376 291.996455 898.795667 285.20619 911.022446 276.011184 
C 923.249225 266.816178 933.619564 255.382582 941.581301 242.319162 
C 949.543038 229.255742 954.952324 214.798541 957.521134 199.717313 
C 960.089951 184.636085 959.771868 169.203335 956.583856 154.240756 
C 953.395836 139.278178 947.395469 125.056133 938.902245 112.331851 
C 930.40902 99.607569 919.576388 88.610969 906.981131 79.927548 
C 894.385875 71.244127 880.255607 65.030803 865.342609 61.618364 
L 851.154801 123.621738 
C 858.218853 125.238156 864.912138 128.18131 870.878312 132.294509 
C 876.844486 136.407708 881.975733 141.616624 885.998839 147.643916 
C 890.021946 153.671207 892.864225 160.407965 894.374339 167.495502 
C 895.88445 174.58304 896.035121 181.893289 894.818313 189.037029 
C 893.601508 196.180769 891.039215 203.028916 887.267866 209.216852 
C 883.496517 215.404788 878.584251 220.820702 872.792619 225.176231 
C 867.000987 229.53176 860.434638 232.748201 853.443187 234.654306 
C 846.451735 236.56041 839.161509 237.121733 831.960669 236.308383 
C 824.759828 235.495034 817.778488 233.321715 811.388355 229.904138 
C 804.998223 226.486561 799.314764 221.886481 794.640583 216.348821 
C 789.966403 210.81116 786.385967 204.435977 784.089902 197.562717 
C 781.793837 190.689457 780.823634 183.442306 781.230951 176.207134 
C 781.638269 168.971961 783.415748 161.879498 786.468747 155.307373 
C 789.521746 148.735248 793.795095 142.802212 799.061276 137.824161 
C 804.327458 132.84611 810.491311 128.912998 817.224648 126.234233 
C 823.957986 123.555468 831.139146 122.179452 838.385775 122.179452 
z
" style="fill: #9e9e9e"/>
   </g>
   <g id="matplotlib.axis_5"/>
   <g id="matplotlib.axis_6"/>
   <g id="text_23">
    <!-- 2.4% -->
    <g transform="translate(833.397115 95.134224) scale(0.09 -0.09)">
     <use xlink:href="#DejaVuSans-32"/>
     <use xlink:href="#DejaVuSans-2e" transform="translate(63.623047 0)"/>
     <use xlink:href="#DejaVuSans-34" transform="translate(95.410156 0)"/>
     <use xlink:href="#DejaVuSans-25" transform="translate(159.033203 0)"/>
    </g>
   </g>
   <g id="text_24">
    <!-- 96.4% -->
    <g transform="translate(814.32437 268.371294) scale(0.09 -0.09)">
     <use xlink:href="#DejaVuSans-39"/>
     <use xlink:href="#DejaVuSans-36" transform="translate(63.623047 0)"/>
     <use xlink:href="#DejaVuSans-2e" transform="translate(127.246094 0)"/>
     <use xlink:href="#DejaVuSans-34" transform="translate(159.033203 0)"/>
     <use xlink:href="#DejaVuSans-25" transform="translate(222.65625 0)"/>
    </g>
   </g>
   <g id="text_25">
    <!-- Sattelzugmaschinen (February - July) -->
    <g transform="translate(727.420443 16.318171) scale(0.12 -0.12)">
     <defs>
      <path id="DejaVuSans-53" d="M 3425 4513 
L 3425 3897 
Q 3066 4069 2747 4153 
Q 2428 4238 2131 4238 
Q 1616 4238 1336 4038 
Q 1056 3838 1056 3469 
Q 1056 3159 1242 3001 
Q 1428 2844 1947 2747 
L 2328 2669 
Q 3034 2534 3370 2195 
Q 3706 1856 3706 1288 
Q 3706 609 3251 259 
Q 2797 -91 1919 -91 
Q 1588 -91 1214 -16 
Q 841 59 441 206 
L 441 856 
Q 825 641 1194 531 
Q 1563 422 1919 422 
Q 2459 422 2753 634 
Q 3047 847 3047 1241 
Q 3047 1584 2836 1778 
Q 2625 1972 2144 2069 
L 1759 2144 
Q 1053 2284 737 2584 
Q 422 2884 422 3419 
Q 422 4038 858 4394 
Q 1294 4750 2059 4750 
Q 2388 4750 2728 4690 
Q 3069 4631 3425 4513 
z
" transform="scale(0.015625)"/>
      <path id="DejaVuSans-7a" d="M 353 3500 
L 3084 3500 
L 3084 2975 
L 922 459 
L 3084 459 
L 3084 0 
L 275 0 
L 275 525 
L 2438 3041 
L 353 3041 
L 353 3500 
z
" transform="scale(0.015625)"/>
      <path id="DejaVuSans-63" d="M 3122 3366 
L 3122 2828 
Q 2878 2963 2633 3030 
Q 2388 3097 2138 3097 
Q 1578 3097 1268 2742 
Q 959 2388 959 1747 
Q 959 1106 1268 751 
Q 1578 397 2138 397 
Q 2388 397 2633 464 
Q 2878 531 3122 666 
L 3122 134 
Q 2881 22 2623 -34 
Q 2366 -91 2075 -91 
Q 1284 -91 818 406 
Q 353 903 353 1747 
Q 353 2603 823 3093 
Q 1294 3584 2113 3584 
Q 2378 3584 2631 3529 
Q 2884 3475 3122 3366 
z
" transform="scale(0.015625)"/>
     </defs>
     <use xlink:href="#DejaVuSans-53"/>
     <use xlink:href="#DejaVuSans-61" transform="translate(63.476562 0)"/>
     <use xlink:href="#DejaVuSans-74" transform="translate(124.755859 0)"/>
     <use xlink:href="#DejaVuSans-74" transform="translate(163.964844 0)"/>
     <use xlink:href="#DejaVuSans-65" transform="translate(203.173828 0)"/>
     <use xlink:href="#DejaVuSans-6c" transform="translate(264.697266 0)"/>
     <use xlink:href="#DejaVuSans-7a" transform="translate(292.480469 0)"/>
     <use xlink:href="#DejaVuSans-75" transform="translate(344.970703 0)"/>
     <use xlink:href="#DejaVuSans-67" transform="translate(408.349609 0)"/>
     <use xlink:href="#DejaVuSans-6d" transform="translate(471.826172 0)"/>
     <use xlink:href="#DejaVuSans-61" transform="translate(569.238281 0)"/>
     <use xlink:href="#DejaVuSans-73" transform="translate(630.517578 0)"/>
     <use xlink:href="#DejaVuSans-63" transform="translate(682.617188 0)"/>
     <use xlink:href="#DejaVuSans-68" transform="translate(737.597656 0)"/>
     <use xlink:href="#DejaVuSans-69" transform="translate(800.976562 0)"/>
     <use xlink:href="#DejaVuSans-6e" transform="translate(828.759766 0)"/>
     <use xlink:href="#DejaVuSans-65" transform="translate(892.138672 0)"/>
     <use xlink:href="#DejaVuSans-6e" transform="translate(953.662109 0)"/>
     <use xlink:href="#DejaVuSans-20" transform="translate(1017.041016 0)"/>
     <use xlink:href="#DejaVuSans-28" transform="translate(1048.828125 0)"/>
     <use xlink:href="#DejaVuSans-46" transform="translate(1087.841797 0)"/>
     <use xlink:href="#DejaVuSans-65" transform="translate(1139.861328 0)"/>
     <use xlink:href="#DejaVuSans-62" transform="translate(1201.384766 0)"/>
     <use xlink:href="#DejaVuSans-72" transform="translate(1264.861328 0)"/>
     <use xlink:href="#DejaVuSans-75" transform="translate(1305.974609 0)"/>
     <use xlink:href="#DejaVuSans-61" transform="translate(1369.353516 0)"/>
     <use xlink:href="#DejaVuSans-72" transform="translate(1430.632812 0)"/>
     <use xlink:href="#DejaVuSans-79" transform="translate(1471.746094 0)"/>
     <use xlink:href="#DejaVuSans-20" transform="translate(1530.925781 0)"/>
     <use xlink:href="#DejaVuSans-2d" transform="translate(1562.712891 0)"/>
     <use xlink:href="#DejaVuSans-20" transform="translate(1598.796875 0)"/>
     <use xlink:href="#DejaVuSans-4a" transform="translate(1630.583984 0)"/>
     <use xlink:href="#DejaVuSans-75" transform="translate(1660.076172 0)"/>
     <use xlink:href="#DejaVuSans-6c" transform="translate(1723.455078 0)"/>
     <use xlink:href="#DejaVuSans-79" transform="translate(1751.238281 0)"/>
     <use xlink:href="#DejaVuSans-29" transform="translate(1810.417969 0)"/>
    </g>
   </g>
  </g>
 </g>
</svg>
