<?xml version="1.0" encoding="utf-8" standalone="no"?>
<!DOCTYPE svg PUBLIC "-//W3C//DTD SVG 1.1//EN"
  "http://www.w3.org/Graphics/SVG/1.1/DTD/svg11.dtd">
<svg xmlns:xlink="http://www.w3.org/1999/xlink" width="1001.382794pt" height="345.778979pt" viewBox="0 0 1001.382794 345.778979" xmlns="http://www.w3.org/2000/svg" version="1.1">
 <metadata>
  <rdf:RDF xmlns:dc="http://purl.org/dc/elements/1.1/" xmlns:cc="http://creativecommons.org/ns#" xmlns:rdf="http://www.w3.org/1999/02/22-rdf-syntax-ns#">
   <cc:Work>
    <dc:type rdf:resource="http://purl.org/dc/dcmitype/StillImage"/>
    <dc:date>2025-09-07T16:43:41.596412</dc:date>
    <dc:format>image/svg+xml</dc:format>
    <dc:creator>
     <cc:Agent>
      <dc:title>Matplotlib v3.10.6, https://matplotlib.org/</dc:title>
     </cc:Agent>
    </dc:creator>
   </cc:Work>
  </rdf:RDF>
 </metadata>
 <defs>
  <style type="text/css">*{stroke-linejoin: round; stroke-linecap: butt}</style>
 </defs>
 <g id="figure_1">
  <g id="patch_1">
   <path d="M 0 345.778979 
L 1001.382794 345.778979 
L 1001.382794 0 
L 0 0 
z
" style="fill: #ffffff"/>
  </g>
  <g id="axes_1">
   <g id="patch_2">
    <path d="M 251.635731 68.691879 
L 237.243544 68.691879 
L 234.980103 72.316798 
" style="fill: none; stroke: #000000; stroke-linecap: round"/>
   </g>
   <g id="text_1">
    <!-- BEV -->
    <g transform="translate(255.635501 71.451254) scale(0.1 -0.1)">
     <defs>
      <path id="DejaVuSans-42" d="M 1259 2228 
L 1259 519 
L 2272 519 
Q 2781 519 3026 730 
Q 3272 941 3272 1375 
Q 3272 1813 3026 2020 
Q 2781 2228 2272 2228 
L 1259 2228 
z
M 1259 4147 
L 1259 2741 
L 2194 2741 
Q 2656 2741 2882 2914 
Q 3109 3088 3109 3444 
Q 3109 3797 2882 3972 
Q 2656 4147 2194 4147 
L 1259 4147 
z
M 628 4666 
L 2241 4666 
Q 2963 4666 3353 4366 
Q 3744 4066 3744 3513 
Q 3744 3084 3544 2831 
Q 3344 2578 2956 2516 
Q 3422 2416 3680 2098 
Q 3938 1781 3938 1306 
Q 3938 681 3513 340 
Q 3088 0 2303 0 
L 628 0 
L 628 4666 
z
" transform="scale(0.015625)"/>
      <path id="DejaVuSans-45" d="M 628 4666 
L 3578 4666 
L 3578 4134 
L 1259 4134 
L 1259 2753 
L 3481 2753 
L 3481 2222 
L 1259 2222 
L 1259 531 
L 3634 531 
L 3634 0 
L 628 0 
L 628 4666 
z
" transform="scale(0.015625)"/>
      <path id="DejaVuSans-56" d="M 1831 0 
L 50 4666 
L 709 4666 
L 2188 738 
L 3669 4666 
L 4325 4666 
L 2547 0 
L 1831 0 
z
" transform="scale(0.015625)"/>
     </defs>
     <use xlink:href="#DejaVuSans-42"/>
     <use xlink:href="#DejaVuSans-45" transform="translate(68.603516 0)"/>
     <use xlink:href="#DejaVuSans-56" transform="translate(131.787109 0)"/>
    </g>
   </g>
   <g id="patch_3">
    <path d="M 299.337351 136.406885 
L 291.636428 136.406885 
L 287.608712 137.835414 
" style="fill: none; stroke: #000000; stroke-linecap: round"/>
   </g>
   <g id="text_2">
    <!-- PHEV -->
    <g transform="translate(303.339326 139.16626) scale(0.1 -0.1)">
     <defs>
      <path id="DejaVuSans-50" d="M 1259 4147 
L 1259 2394 
L 2053 2394 
Q 2494 2394 2734 2622 
Q 2975 2850 2975 3272 
Q 2975 3691 2734 3919 
Q 2494 4147 2053 4147 
L 1259 4147 
z
M 628 4666 
L 2053 4666 
Q 2838 4666 3239 4311 
Q 3641 3956 3641 3272 
Q 3641 2581 3239 2228 
Q 2838 1875 2053 1875 
L 1259 1875 
L 1259 0 
L 628 0 
L 628 4666 
z
" transform="scale(0.015625)"/>
      <path id="DejaVuSans-48" d="M 628 4666 
L 1259 4666 
L 1259 2753 
L 3553 2753 
L 3553 4666 
L 4184 4666 
L 4184 0 
L 3553 0 
L 3553 2222 
L 1259 2222 
L 1259 0 
L 628 0 
L 628 4666 
z
" transform="scale(0.015625)"/>
     </defs>
     <use xlink:href="#DejaVuSans-50"/>
     <use xlink:href="#DejaVuSans-48" transform="translate(60.302734 0)"/>
     <use xlink:href="#DejaVuSans-45" transform="translate(135.498047 0)"/>
     <use xlink:href="#DejaVuSans-56" transform="translate(198.681641 0)"/>
    </g>
   </g>
   <g id="patch_4">
    <path d="M 317.922437 157.142629 
L 297.137704 157.142629 
L 292.931546 157.898578 
" style="fill: none; stroke: #000000; stroke-linecap: round"/>
   </g>
   <g id="text_3">
    <!-- HY -->
    <g transform="translate(321.921845 159.902004) scale(0.1 -0.1)">
     <defs>
      <path id="DejaVuSans-59" d="M -13 4666 
L 666 4666 
L 1959 2747 
L 3244 4666 
L 3922 4666 
L 2272 2222 
L 2272 0 
L 1638 0 
L 1638 2222 
L -13 4666 
z
" transform="scale(0.015625)"/>
     </defs>
     <use xlink:href="#DejaVuSans-48"/>
     <use xlink:href="#DejaVuSans-59" transform="translate(75.195312 0)"/>
    </g>
   </g>
   <g id="patch_5">
    <path d="M 294.072128 221.410397 
L 292.686201 221.410397 
L 288.62443 220.08177 
" style="fill: none; stroke: #000000; stroke-linecap: round"/>
   </g>
   <g id="text_4">
    <!-- Hybrid -->
    <g transform="translate(298.073475 224.169772) scale(0.1 -0.1)">
     <defs>
      <path id="DejaVuSans-79" d="M 2059 -325 
Q 1816 -950 1584 -1140 
Q 1353 -1331 966 -1331 
L 506 -1331 
L 506 -850 
L 844 -850 
Q 1081 -850 1212 -737 
Q 1344 -625 1503 -206 
L 1606 56 
L 191 3500 
L 800 3500 
L 1894 763 
L 2988 3500 
L 3597 3500 
L 2059 -325 
z
" transform="scale(0.015625)"/>
      <path id="DejaVuSans-62" d="M 3116 1747 
Q 3116 2381 2855 2742 
Q 2594 3103 2138 3103 
Q 1681 3103 1420 2742 
Q 1159 2381 1159 1747 
Q 1159 1113 1420 752 
Q 1681 391 2138 391 
Q 2594 391 2855 752 
Q 3116 1113 3116 1747 
z
M 1159 2969 
Q 1341 3281 1617 3432 
Q 1894 3584 2278 3584 
Q 2916 3584 3314 3078 
Q 3713 2572 3713 1747 
Q 3713 922 3314 415 
Q 2916 -91 2278 -91 
Q 1894 -91 1617 61 
Q 1341 213 1159 525 
L 1159 0 
L 581 0 
L 581 4863 
L 1159 4863 
L 1159 2969 
z
" transform="scale(0.015625)"/>
      <path id="DejaVuSans-72" d="M 2631 2963 
Q 2534 3019 2420 3045 
Q 2306 3072 2169 3072 
Q 1681 3072 1420 2755 
Q 1159 2438 1159 1844 
L 1159 0 
L 581 0 
L 581 3500 
L 1159 3500 
L 1159 2956 
Q 1341 3275 1631 3429 
Q 1922 3584 2338 3584 
Q 2397 3584 2469 3576 
Q 2541 3569 2628 3553 
L 2631 2963 
z
" transform="scale(0.015625)"/>
      <path id="DejaVuSans-69" d="M 603 3500 
L 1178 3500 
L 1178 0 
L 603 0 
L 603 3500 
z
M 603 4863 
L 1178 4863 
L 1178 4134 
L 603 4134 
L 603 4863 
z
" transform="scale(0.015625)"/>
      <path id="DejaVuSans-64" d="M 2906 2969 
L 2906 4863 
L 3481 4863 
L 3481 0 
L 2906 0 
L 2906 525 
Q 2725 213 2448 61 
Q 2172 -91 1784 -91 
Q 1150 -91 751 415 
Q 353 922 353 1747 
Q 353 2572 751 3078 
Q 1150 3584 1784 3584 
Q 2172 3584 2448 3432 
Q 2725 3281 2906 2969 
z
M 947 1747 
Q 947 1113 1208 752 
Q 1469 391 1925 391 
Q 2381 391 2643 752 
Q 2906 1113 2906 1747 
Q 2906 2381 2643 2742 
Q 2381 3103 1925 3103 
Q 1469 3103 1208 2742 
Q 947 2381 947 1747 
z
" transform="scale(0.015625)"/>
     </defs>
     <use xlink:href="#DejaVuSans-48"/>
     <use xlink:href="#DejaVuSans-79" transform="translate(75.195312 0)"/>
     <use xlink:href="#DejaVuSans-62" transform="translate(134.375 0)"/>
     <use xlink:href="#DejaVuSans-72" transform="translate(197.851562 0)"/>
     <use xlink:href="#DejaVuSans-69" transform="translate(238.964844 0)"/>
     <use xlink:href="#DejaVuSans-64" transform="translate(266.748047 0)"/>
    </g>
   </g>
   <g id="patch_6">
    <path d="M 267.559943 272.687915 
L 261.541347 272.687915 
L 258.489788 269.696062 
" style="fill: none; stroke: #000000; stroke-linecap: round"/>
   </g>
   <g id="text_5">
    <!-- Other -->
    <g transform="translate(271.559861 275.44729) scale(0.1 -0.1)">
     <defs>
      <path id="DejaVuSans-4f" d="M 2522 4238 
Q 1834 4238 1429 3725 
Q 1025 3213 1025 2328 
Q 1025 1447 1429 934 
Q 1834 422 2522 422 
Q 3209 422 3611 934 
Q 4013 1447 4013 2328 
Q 4013 3213 3611 3725 
Q 3209 4238 2522 4238 
z
M 2522 4750 
Q 3503 4750 4090 4092 
Q 4678 3434 4678 2328 
Q 4678 1225 4090 567 
Q 3503 -91 2522 -91 
Q 1538 -91 948 565 
Q 359 1222 359 2328 
Q 359 3434 948 4092 
Q 1538 4750 2522 4750 
z
" transform="scale(0.015625)"/>
      <path id="DejaVuSans-74" d="M 1172 4494 
L 1172 3500 
L 2356 3500 
L 2356 3053 
L 1172 3053 
L 1172 1153 
Q 1172 725 1289 603 
Q 1406 481 1766 481 
L 2356 481 
L 2356 0 
L 1766 0 
Q 1100 0 847 248 
Q 594 497 594 1153 
L 594 3053 
L 172 3053 
L 172 3500 
L 594 3500 
L 594 4494 
L 1172 4494 
z
" transform="scale(0.015625)"/>
      <path id="DejaVuSans-68" d="M 3513 2113 
L 3513 0 
L 2938 0 
L 2938 2094 
Q 2938 2591 2744 2837 
Q 2550 3084 2163 3084 
Q 1697 3084 1428 2787 
Q 1159 2491 1159 1978 
L 1159 0 
L 581 0 
L 581 4863 
L 1159 4863 
L 1159 2956 
Q 1366 3272 1645 3428 
Q 1925 3584 2291 3584 
Q 2894 3584 3203 3211 
Q 3513 2838 3513 2113 
z
" transform="scale(0.015625)"/>
      <path id="DejaVuSans-65" d="M 3597 1894 
L 3597 1613 
L 953 1613 
Q 991 1019 1311 708 
Q 1631 397 2203 397 
Q 2534 397 2845 478 
Q 3156 559 3463 722 
L 3463 178 
Q 3153 47 2828 -22 
Q 2503 -91 2169 -91 
Q 1331 -91 842 396 
Q 353 884 353 1716 
Q 353 2575 817 3079 
Q 1281 3584 2069 3584 
Q 2775 3584 3186 3129 
Q 3597 2675 3597 1894 
z
M 3022 2063 
Q 3016 2534 2758 2815 
Q 2500 3097 2075 3097 
Q 1594 3097 1305 2825 
Q 1016 2553 972 2059 
L 3022 2063 
z
" transform="scale(0.015625)"/>
     </defs>
     <use xlink:href="#DejaVuSans-4f"/>
     <use xlink:href="#DejaVuSans-74" transform="translate(78.710938 0)"/>
     <use xlink:href="#DejaVuSans-68" transform="translate(117.919922 0)"/>
     <use xlink:href="#DejaVuSans-65" transform="translate(181.298828 0)"/>
     <use xlink:href="#DejaVuSans-72" transform="translate(242.822266 0)"/>
    </g>
   </g>
   <g id="patch_7">
    <path d="M 27.455307 230.567969 
L 45.612268 230.567969 
L 49.564543 228.942308 
" style="fill: none; stroke: #000000; stroke-linecap: round"/>
   </g>
   <g id="text_6">
    <!-- ICE -->
    <g transform="translate(7.2 233.327344) scale(0.1 -0.1)">
     <defs>
      <path id="DejaVuSans-49" d="M 628 4666 
L 1259 4666 
L 1259 0 
L 628 0 
L 628 4666 
z
" transform="scale(0.015625)"/>
      <path id="DejaVuSans-43" d="M 4122 4306 
L 4122 3641 
Q 3803 3938 3442 4084 
Q 3081 4231 2675 4231 
Q 1875 4231 1450 3742 
Q 1025 3253 1025 2328 
Q 1025 1406 1450 917 
Q 1875 428 2675 428 
Q 3081 428 3442 575 
Q 3803 722 4122 1019 
L 4122 359 
Q 3791 134 3420 21 
Q 3050 -91 2638 -91 
Q 1578 -91 968 557 
Q 359 1206 359 2328 
Q 359 3453 968 4101 
Q 1578 4750 2638 4750 
Q 3056 4750 3426 4639 
Q 3797 4528 4122 4306 
z
" transform="scale(0.015625)"/>
     </defs>
     <use xlink:href="#DejaVuSans-49"/>
     <use xlink:href="#DejaVuSans-43" transform="translate(29.492188 0)"/>
     <use xlink:href="#DejaVuSans-45" transform="translate(99.316406 0)"/>
    </g>
   </g>
   <g id="patch_8">
    <path d="M 276.754448 127.053689 
C 266.755823 106.587693 251.206784 89.335885 231.88612 77.271841 
C 212.565455 65.207797 190.239139 58.8098 167.461315 58.8098 
L 167.461318 122.830244 
C 178.250813 122.830244 188.826437 125.860874 197.978331 131.575421 
C 207.130224 137.289968 214.495559 145.461878 219.231749 155.156297 
z
" style="fill: #2ecc71"/>
   </g>
   <g id="patch_9">
    <path d="M 285.973549 153.046829 
C 284.935553 148.557524 283.643307 144.130817 282.103066 139.788127 
C 280.562825 135.445436 278.777076 131.193772 276.754448 127.053689 
L 219.231749 155.156297 
C 220.189836 157.117389 221.035717 159.131335 221.765305 161.188399 
C 222.494893 163.245463 223.10701 165.342324 223.598692 167.468837 
z
" style="fill: #f39c12"/>
   </g>
   <g id="patch_10">
    <path d="M 288.098369 164.869491 
C 287.841841 162.883056 287.536287 160.90326 287.18199 158.931914 
C 286.827692 156.960568 286.424753 154.998276 285.973549 153.046829 
L 223.598692 167.468837 
C 223.81242 168.393207 224.003286 169.322713 224.171111 170.256509 
C 224.338936 171.190304 224.483672 172.128102 224.605186 173.069045 
z
" style="fill: #3498db"/>
   </g>
   <g id="patch_11">
    <path d="M 255.570849 264.309952 
C 268.049063 251.199625 277.445236 235.468033 283.072242 218.265613 
C 288.699247 201.063193 290.416488 182.819777 288.098369 164.869491 
L 224.605186 173.069045 
C 225.703242 181.571812 224.889812 190.21343 222.224389 198.361945 
C 219.558965 206.51046 215.108146 213.962267 209.197413 220.172421 
z
" style="fill: #d62728"/>
   </g>
   <g id="patch_12">
    <path d="M 253.047062 266.884106 
C 253.474021 266.461344 253.897841 266.035422 254.318493 265.606382 
C 254.739145 265.177341 255.156606 264.745184 255.570849 264.309952 
L 209.197413 220.172421 
C 209.001193 220.378584 208.803448 220.58329 208.604192 220.78652 
C 208.404936 220.989749 208.204179 221.191502 208.001935 221.391757 
z
" style="fill: #c7c7c7"/>
   </g>
   <g id="patch_13">
    <path d="M 167.461322 58.8098 
C 147.484252 58.8098 127.81144 63.731126 110.187426 73.13737 
C 92.563412 82.543613 77.525008 96.148276 66.405844 112.744887 
C 55.28668 129.341499 48.425415 148.424522 46.430497 168.301734 
C 44.435579 188.178947 47.367772 208.244897 54.96706 226.720129 
C 62.566349 245.195361 74.601247 261.51713 90.004534 274.238061 
C 105.407821 286.958991 123.710291 295.691601 143.288935 299.661499 
C 162.867579 303.631396 183.126041 302.717649 202.267791 297.001284 
C 221.409541 291.284926 238.851534 280.940081 253.047062 266.884106 
L 208.001935 221.391757 
C 201.277738 228.049851 193.015741 232.950041 183.948596 235.657789 
C 174.881451 238.365541 165.285338 238.798369 156.011243 236.917891 
C 146.737149 235.037413 138.067558 230.900913 130.771264 224.87521 
C 123.47497 218.849506 117.774229 211.118141 114.174566 202.366716 
C 110.574903 193.61529 109.185969 184.110366 110.130931 174.694844 
C 111.075892 165.279323 114.325964 156.239996 119.592937 148.378443 
C 124.859909 140.51689 131.983364 134.072577 140.331581 129.616988 
C 148.679798 125.161398 157.998499 122.830244 167.461321 122.830244 
z
" style="fill: #9e9e9e"/>
   </g>
   <g id="matplotlib.axis_1"/>
   <g id="matplotlib.axis_2"/>
   <g id="text_7">
    <!-- 17.8% -->
    <g transform="translate(199.551933 108.644775) scale(0.09 -0.09)">
     <defs>
      <path id="DejaVuSans-31" d="M 794 531 
L 1825 531 
L 1825 4091 
L 703 3866 
L 703 4441 
L 1819 4666 
L 2450 4666 
L 2450 531 
L 3481 531 
L 3481 0 
L 794 0 
L 794 531 
z
" transform="scale(0.015625)"/>
      <path id="DejaVuSans-37" d="M 525 4666 
L 3525 4666 
L 3525 4397 
L 1831 0 
L 1172 0 
L 2766 4134 
L 525 4134 
L 525 4666 
z
" transform="scale(0.015625)"/>
      <path id="DejaVuSans-2e" d="M 684 794 
L 1344 794 
L 1344 0 
L 684 0 
L 684 794 
z
" transform="scale(0.015625)"/>
      <path id="DejaVuSans-38" d="M 2034 2216 
Q 1584 2216 1326 1975 
Q 1069 1734 1069 1313 
Q 1069 891 1326 650 
Q 1584 409 2034 409 
Q 2484 409 2743 651 
Q 3003 894 3003 1313 
Q 3003 1734 2745 1975 
Q 2488 2216 2034 2216 
z
M 1403 2484 
Q 997 2584 770 2862 
Q 544 3141 544 3541 
Q 544 4100 942 4425 
Q 1341 4750 2034 4750 
Q 2731 4750 3128 4425 
Q 3525 4100 3525 3541 
Q 3525 3141 3298 2862 
Q 3072 2584 2669 2484 
Q 3125 2378 3379 2068 
Q 3634 1759 3634 1313 
Q 3634 634 3220 271 
Q 2806 -91 2034 -91 
Q 1263 -91 848 271 
Q 434 634 434 1313 
Q 434 1759 690 2068 
Q 947 2378 1403 2484 
z
M 1172 3481 
Q 1172 3119 1398 2916 
Q 1625 2713 2034 2713 
Q 2441 2713 2670 2916 
Q 2900 3119 2900 3481 
Q 2900 3844 2670 4047 
Q 2441 4250 2034 4250 
Q 1625 4250 1398 4047 
Q 1172 3844 1172 3481 
z
" transform="scale(0.015625)"/>
      <path id="DejaVuSans-25" d="M 4653 2053 
Q 4381 2053 4226 1822 
Q 4072 1591 4072 1178 
Q 4072 772 4226 539 
Q 4381 306 4653 306 
Q 4919 306 5073 539 
Q 5228 772 5228 1178 
Q 5228 1588 5073 1820 
Q 4919 2053 4653 2053 
z
M 4653 2450 
Q 5147 2450 5437 2106 
Q 5728 1763 5728 1178 
Q 5728 594 5436 251 
Q 5144 -91 4653 -91 
Q 4153 -91 3862 251 
Q 3572 594 3572 1178 
Q 3572 1766 3864 2108 
Q 4156 2450 4653 2450 
z
M 1428 4353 
Q 1159 4353 1004 4120 
Q 850 3888 850 3481 
Q 850 3069 1003 2837 
Q 1156 2606 1428 2606 
Q 1700 2606 1854 2837 
Q 2009 3069 2009 3481 
Q 2009 3884 1853 4118 
Q 1697 4353 1428 4353 
z
M 4250 4750 
L 4750 4750 
L 1831 -91 
L 1331 -91 
L 4250 4750 
z
M 1428 4750 
Q 1922 4750 2215 4408 
Q 2509 4066 2509 3481 
Q 2509 2891 2217 2550 
Q 1925 2209 1428 2209 
Q 931 2209 642 2551 
Q 353 2894 353 3481 
Q 353 4063 643 4406 
Q 934 4750 1428 4750 
z
" transform="scale(0.015625)"/>
     </defs>
     <use xlink:href="#DejaVuSans-31"/>
     <use xlink:href="#DejaVuSans-37" transform="translate(63.623047 0)"/>
     <use xlink:href="#DejaVuSans-2e" transform="translate(127.246094 0)"/>
     <use xlink:href="#DejaVuSans-38" transform="translate(159.033203 0)"/>
     <use xlink:href="#DejaVuSans-25" transform="translate(222.65625 0)"/>
    </g>
   </g>
   <g id="text_8">
    <!-- 3.6% -->
    <g transform="translate(238.57127 153.656509) scale(0.09 -0.09)">
     <defs>
      <path id="DejaVuSans-33" d="M 2597 2516 
Q 3050 2419 3304 2112 
Q 3559 1806 3559 1356 
Q 3559 666 3084 287 
Q 2609 -91 1734 -91 
Q 1441 -91 1130 -33 
Q 819 25 488 141 
L 488 750 
Q 750 597 1062 519 
Q 1375 441 1716 441 
Q 2309 441 2620 675 
Q 2931 909 2931 1356 
Q 2931 1769 2642 2001 
Q 2353 2234 1838 2234 
L 1294 2234 
L 1294 2753 
L 1863 2753 
Q 2328 2753 2575 2939 
Q 2822 3125 2822 3475 
Q 2822 3834 2567 4026 
Q 2313 4219 1838 4219 
Q 1578 4219 1281 4162 
Q 984 4106 628 3988 
L 628 4550 
Q 988 4650 1302 4700 
Q 1616 4750 1894 4750 
Q 2613 4750 3031 4423 
Q 3450 4097 3450 3541 
Q 3450 3153 3228 2886 
Q 3006 2619 2597 2516 
z
" transform="scale(0.015625)"/>
      <path id="DejaVuSans-36" d="M 2113 2584 
Q 1688 2584 1439 2293 
Q 1191 2003 1191 1497 
Q 1191 994 1439 701 
Q 1688 409 2113 409 
Q 2538 409 2786 701 
Q 3034 994 3034 1497 
Q 3034 2003 2786 2293 
Q 2538 2584 2113 2584 
z
M 3366 4563 
L 3366 3988 
Q 3128 4100 2886 4159 
Q 2644 4219 2406 4219 
Q 1781 4219 1451 3797 
Q 1122 3375 1075 2522 
Q 1259 2794 1537 2939 
Q 1816 3084 2150 3084 
Q 2853 3084 3261 2657 
Q 3669 2231 3669 1497 
Q 3669 778 3244 343 
Q 2819 -91 2113 -91 
Q 1303 -91 875 529 
Q 447 1150 447 2328 
Q 447 3434 972 4092 
Q 1497 4750 2381 4750 
Q 2619 4750 2861 4703 
Q 3103 4656 3366 4563 
z
" transform="scale(0.015625)"/>
     </defs>
     <use xlink:href="#DejaVuSans-33"/>
     <use xlink:href="#DejaVuSans-2e" transform="translate(63.623047 0)"/>
     <use xlink:href="#DejaVuSans-36" transform="translate(95.410156 0)"/>
     <use xlink:href="#DejaVuSans-25" transform="translate(159.033203 0)"/>
    </g>
   </g>
   <g id="text_9">
    <!-- 14.2% -->
    <g transform="translate(236.405949 210.160301) scale(0.09 -0.09)">
     <defs>
      <path id="DejaVuSans-34" d="M 2419 4116 
L 825 1625 
L 2419 1625 
L 2419 4116 
z
M 2253 4666 
L 3047 4666 
L 3047 1625 
L 3713 1625 
L 3713 1100 
L 3047 1100 
L 3047 0 
L 2419 0 
L 2419 1100 
L 313 1100 
L 313 1709 
L 2253 4666 
z
" transform="scale(0.015625)"/>
      <path id="DejaVuSans-32" d="M 1228 531 
L 3431 531 
L 3431 0 
L 469 0 
L 469 531 
Q 828 903 1448 1529 
Q 2069 2156 2228 2338 
Q 2531 2678 2651 2914 
Q 2772 3150 2772 3378 
Q 2772 3750 2511 3984 
Q 2250 4219 1831 4219 
Q 1534 4219 1204 4116 
Q 875 4013 500 3803 
L 500 4441 
Q 881 4594 1212 4672 
Q 1544 4750 1819 4750 
Q 2544 4750 2975 4387 
Q 3406 4025 3406 3419 
Q 3406 3131 3298 2873 
Q 3191 2616 2906 2266 
Q 2828 2175 2409 1742 
Q 1991 1309 1228 531 
z
" transform="scale(0.015625)"/>
     </defs>
     <use xlink:href="#DejaVuSans-31"/>
     <use xlink:href="#DejaVuSans-34" transform="translate(63.623047 0)"/>
     <use xlink:href="#DejaVuSans-2e" transform="translate(127.246094 0)"/>
     <use xlink:href="#DejaVuSans-32" transform="translate(159.033203 0)"/>
     <use xlink:href="#DejaVuSans-25" transform="translate(222.65625 0)"/>
    </g>
   </g>
   <g id="text_10">
    <!-- 62.4% -->
    <g transform="translate(72.170213 216.24753) scale(0.09 -0.09)">
     <use xlink:href="#DejaVuSans-36"/>
     <use xlink:href="#DejaVuSans-32" transform="translate(63.623047 0)"/>
     <use xlink:href="#DejaVuSans-2e" transform="translate(127.246094 0)"/>
     <use xlink:href="#DejaVuSans-34" transform="translate(159.033203 0)"/>
     <use xlink:href="#DejaVuSans-25" transform="translate(222.65625 0)"/>
    </g>
   </g>
   <g id="text_11">
    <!-- Kraftomnibusse (July) -->
    <g transform="translate(103.104756 16.318175) scale(0.12 -0.12)">
     <defs>
      <path id="DejaVuSans-4b" d="M 628 4666 
L 1259 4666 
L 1259 2694 
L 3353 4666 
L 4166 4666 
L 1850 2491 
L 4331 0 
L 3500 0 
L 1259 2247 
L 1259 0 
L 628 0 
L 628 4666 
z
" transform="scale(0.015625)"/>
      <path id="DejaVuSans-61" d="M 2194 1759 
Q 1497 1759 1228 1600 
Q 959 1441 959 1056 
Q 959 750 1161 570 
Q 1363 391 1709 391 
Q 2188 391 2477 730 
Q 2766 1069 2766 1631 
L 2766 1759 
L 2194 1759 
z
M 3341 1997 
L 3341 0 
L 2766 0 
L 2766 531 
Q 2569 213 2275 61 
Q 1981 -91 1556 -91 
Q 1019 -91 701 211 
Q 384 513 384 1019 
Q 384 1609 779 1909 
Q 1175 2209 1959 2209 
L 2766 2209 
L 2766 2266 
Q 2766 2663 2505 2880 
Q 2244 3097 1772 3097 
Q 1472 3097 1187 3025 
Q 903 2953 641 2809 
L 641 3341 
Q 956 3463 1253 3523 
Q 1550 3584 1831 3584 
Q 2591 3584 2966 3190 
Q 3341 2797 3341 1997 
z
" transform="scale(0.015625)"/>
      <path id="DejaVuSans-66" d="M 2375 4863 
L 2375 4384 
L 1825 4384 
Q 1516 4384 1395 4259 
Q 1275 4134 1275 3809 
L 1275 3500 
L 2222 3500 
L 2222 3053 
L 1275 3053 
L 1275 0 
L 697 0 
L 697 3053 
L 147 3053 
L 147 3500 
L 697 3500 
L 697 3744 
Q 697 4328 969 4595 
Q 1241 4863 1831 4863 
L 2375 4863 
z
" transform="scale(0.015625)"/>
      <path id="DejaVuSans-6f" d="M 1959 3097 
Q 1497 3097 1228 2736 
Q 959 2375 959 1747 
Q 959 1119 1226 758 
Q 1494 397 1959 397 
Q 2419 397 2687 759 
Q 2956 1122 2956 1747 
Q 2956 2369 2687 2733 
Q 2419 3097 1959 3097 
z
M 1959 3584 
Q 2709 3584 3137 3096 
Q 3566 2609 3566 1747 
Q 3566 888 3137 398 
Q 2709 -91 1959 -91 
Q 1206 -91 779 398 
Q 353 888 353 1747 
Q 353 2609 779 3096 
Q 1206 3584 1959 3584 
z
" transform="scale(0.015625)"/>
      <path id="DejaVuSans-6d" d="M 3328 2828 
Q 3544 3216 3844 3400 
Q 4144 3584 4550 3584 
Q 5097 3584 5394 3201 
Q 5691 2819 5691 2113 
L 5691 0 
L 5113 0 
L 5113 2094 
Q 5113 2597 4934 2840 
Q 4756 3084 4391 3084 
Q 3944 3084 3684 2787 
Q 3425 2491 3425 1978 
L 3425 0 
L 2847 0 
L 2847 2094 
Q 2847 2600 2669 2842 
Q 2491 3084 2119 3084 
Q 1678 3084 1418 2786 
Q 1159 2488 1159 1978 
L 1159 0 
L 581 0 
L 581 3500 
L 1159 3500 
L 1159 2956 
Q 1356 3278 1631 3431 
Q 1906 3584 2284 3584 
Q 2666 3584 2933 3390 
Q 3200 3197 3328 2828 
z
" transform="scale(0.015625)"/>
      <path id="DejaVuSans-6e" d="M 3513 2113 
L 3513 0 
L 2938 0 
L 2938 2094 
Q 2938 2591 2744 2837 
Q 2550 3084 2163 3084 
Q 1697 3084 1428 2787 
Q 1159 2491 1159 1978 
L 1159 0 
L 581 0 
L 581 3500 
L 1159 3500 
L 1159 2956 
Q 1366 3272 1645 3428 
Q 1925 3584 2291 3584 
Q 2894 3584 3203 3211 
Q 3513 2838 3513 2113 
z
" transform="scale(0.015625)"/>
      <path id="DejaVuSans-75" d="M 544 1381 
L 544 3500 
L 1119 3500 
L 1119 1403 
Q 1119 906 1312 657 
Q 1506 409 1894 409 
Q 2359 409 2629 706 
Q 2900 1003 2900 1516 
L 2900 3500 
L 3475 3500 
L 3475 0 
L 2900 0 
L 2900 538 
Q 2691 219 2414 64 
Q 2138 -91 1772 -91 
Q 1169 -91 856 284 
Q 544 659 544 1381 
z
M 1991 3584 
L 1991 3584 
z
" transform="scale(0.015625)"/>
      <path id="DejaVuSans-73" d="M 2834 3397 
L 2834 2853 
Q 2591 2978 2328 3040 
Q 2066 3103 1784 3103 
Q 1356 3103 1142 2972 
Q 928 2841 928 2578 
Q 928 2378 1081 2264 
Q 1234 2150 1697 2047 
L 1894 2003 
Q 2506 1872 2764 1633 
Q 3022 1394 3022 966 
Q 3022 478 2636 193 
Q 2250 -91 1575 -91 
Q 1294 -91 989 -36 
Q 684 19 347 128 
L 347 722 
Q 666 556 975 473 
Q 1284 391 1588 391 
Q 1994 391 2212 530 
Q 2431 669 2431 922 
Q 2431 1156 2273 1281 
Q 2116 1406 1581 1522 
L 1381 1569 
Q 847 1681 609 1914 
Q 372 2147 372 2553 
Q 372 3047 722 3315 
Q 1072 3584 1716 3584 
Q 2034 3584 2315 3537 
Q 2597 3491 2834 3397 
z
" transform="scale(0.015625)"/>
      <path id="DejaVuSans-20" transform="scale(0.015625)"/>
      <path id="DejaVuSans-28" d="M 1984 4856 
Q 1566 4138 1362 3434 
Q 1159 2731 1159 2009 
Q 1159 1288 1364 580 
Q 1569 -128 1984 -844 
L 1484 -844 
Q 1016 -109 783 600 
Q 550 1309 550 2009 
Q 550 2706 781 3412 
Q 1013 4119 1484 4856 
L 1984 4856 
z
" transform="scale(0.015625)"/>
      <path id="DejaVuSans-4a" d="M 628 4666 
L 1259 4666 
L 1259 325 
Q 1259 -519 939 -900 
Q 619 -1281 -91 -1281 
L -331 -1281 
L -331 -750 
L -134 -750 
Q 284 -750 456 -515 
Q 628 -281 628 325 
L 628 4666 
z
" transform="scale(0.015625)"/>
      <path id="DejaVuSans-6c" d="M 603 4863 
L 1178 4863 
L 1178 0 
L 603 0 
L 603 4863 
z
" transform="scale(0.015625)"/>
      <path id="DejaVuSans-29" d="M 513 4856 
L 1013 4856 
Q 1481 4119 1714 3412 
Q 1947 2706 1947 2009 
Q 1947 1309 1714 600 
Q 1481 -109 1013 -844 
L 513 -844 
Q 928 -128 1133 580 
Q 1338 1288 1338 2009 
Q 1338 2731 1133 3434 
Q 928 4138 513 4856 
z
" transform="scale(0.015625)"/>
     </defs>
     <use xlink:href="#DejaVuSans-4b"/>
     <use xlink:href="#DejaVuSans-72" transform="translate(65.576172 0)"/>
     <use xlink:href="#DejaVuSans-61" transform="translate(106.689453 0)"/>
     <use xlink:href="#DejaVuSans-66" transform="translate(167.96875 0)"/>
     <use xlink:href="#DejaVuSans-74" transform="translate(201.423828 0)"/>
     <use xlink:href="#DejaVuSans-6f" transform="translate(240.632812 0)"/>
     <use xlink:href="#DejaVuSans-6d" transform="translate(301.814453 0)"/>
     <use xlink:href="#DejaVuSans-6e" transform="translate(399.226562 0)"/>
     <use xlink:href="#DejaVuSans-69" transform="translate(462.605469 0)"/>
     <use xlink:href="#DejaVuSans-62" transform="translate(490.388672 0)"/>
     <use xlink:href="#DejaVuSans-75" transform="translate(553.865234 0)"/>
     <use xlink:href="#DejaVuSans-73" transform="translate(617.244141 0)"/>
     <use xlink:href="#DejaVuSans-73" transform="translate(669.34375 0)"/>
     <use xlink:href="#DejaVuSans-65" transform="translate(721.443359 0)"/>
     <use xlink:href="#DejaVuSans-20" transform="translate(782.966797 0)"/>
     <use xlink:href="#DejaVuSans-28" transform="translate(814.753906 0)"/>
     <use xlink:href="#DejaVuSans-4a" transform="translate(853.767578 0)"/>
     <use xlink:href="#DejaVuSans-75" transform="translate(883.259766 0)"/>
     <use xlink:href="#DejaVuSans-6c" transform="translate(946.638672 0)"/>
     <use xlink:href="#DejaVuSans-79" transform="translate(974.421875 0)"/>
     <use xlink:href="#DejaVuSans-29" transform="translate(1033.601562 0)"/>
    </g>
   </g>
  </g>
  <g id="axes_2">
   <g id="patch_14">
    <path d="M 555.021194 54.559423 
L 540.629014 54.559423 
L 539.368164 58.642738 
" style="fill: none; stroke: #000000; stroke-linecap: round"/>
   </g>
   <g id="text_12">
    <!-- BEV -->
    <g transform="translate(559.020957 57.318798) scale(0.1 -0.1)">
     <use xlink:href="#DejaVuSans-42"/>
     <use xlink:href="#DejaVuSans-45" transform="translate(68.603516 0)"/>
     <use xlink:href="#DejaVuSans-56" transform="translate(131.787109 0)"/>
    </g>
   </g>
   <g id="patch_15">
    <path d="M 592.088869 77.826823 
L 584.387953 77.826823 
L 581.707748 81.155439 
" style="fill: none; stroke: #000000; stroke-linecap: round"/>
   </g>
   <g id="text_13">
    <!-- PHEV -->
    <g transform="translate(596.09083 80.586198) scale(0.1 -0.1)">
     <use xlink:href="#DejaVuSans-50"/>
     <use xlink:href="#DejaVuSans-48" transform="translate(60.302734 0)"/>
     <use xlink:href="#DejaVuSans-45" transform="translate(135.498047 0)"/>
     <use xlink:href="#DejaVuSans-56" transform="translate(198.681641 0)"/>
    </g>
   </g>
   <g id="patch_16">
    <path d="M 601.248143 87.593968 
L 595.229551 87.593968 
L 592.197688 90.605782 
" style="fill: none; stroke: #000000; stroke-linecap: round"/>
   </g>
   <g id="text_14">
    <!-- Other -->
    <g transform="translate(605.248048 90.353343) scale(0.1 -0.1)">
     <use xlink:href="#DejaVuSans-4f"/>
     <use xlink:href="#DejaVuSans-74" transform="translate(78.710938 0)"/>
     <use xlink:href="#DejaVuSans-68" transform="translate(117.919922 0)"/>
     <use xlink:href="#DejaVuSans-65" transform="translate(181.298828 0)"/>
     <use xlink:href="#DejaVuSans-72" transform="translate(242.822266 0)"/>
    </g>
   </g>
   <g id="patch_17">
    <path d="M 431.044723 301.266903 
L 449.201676 301.266903 
L 450.906343 297.348066 
" style="fill: none; stroke: #000000; stroke-linecap: round"/>
   </g>
   <g id="text_15">
    <!-- ICE -->
    <g transform="translate(410.789421 304.026278) scale(0.1 -0.1)">
     <use xlink:href="#DejaVuSans-49"/>
     <use xlink:href="#DejaVuSans-43" transform="translate(29.492188 0)"/>
     <use xlink:href="#DejaVuSans-45" transform="translate(99.316406 0)"/>
    </g>
   </g>
   <g id="patch_18">
    <path d="M 570.33745 79.986146 
C 560.28948 73.126907 549.269065 67.813766 537.644648 64.22437 
C 526.020229 60.634973 513.922808 58.809762 501.756835 58.809762 
L 501.756838 122.83018 
C 507.519668 122.83018 513.250024 123.694753 518.756328 125.394994 
C 524.262631 127.095234 529.482828 129.611985 534.242392 132.861098 
z
" style="fill: #2ecc71"/>
   </g>
   <g id="patch_19">
    <path d="M 585.275816 92.014528 
C 582.949164 89.817192 580.536706 87.712535 578.044067 85.705459 
C 575.551429 83.698383 572.98056 81.790461 570.33745 79.986146 
L 534.242392 132.861098 
C 535.494392 133.715774 536.712172 134.619527 537.892895 135.570247 
C 539.073619 136.520967 540.216363 137.51791 541.318461 138.558753 
z
" style="fill: #f39c12"/>
   </g>
   <g id="patch_20">
    <path d="M 590.743032 97.51814 
C 589.861374 96.5721 588.964686 95.640183 588.05331 94.722738 
C 587.141933 93.805293 586.215984 92.902443 585.275816 92.014528 
L 541.318461 138.558753 
C 541.763803 138.979344 542.202411 139.40701 542.634115 139.84159 
C 543.06582 140.276169 543.490567 140.717603 543.908194 141.165727 
z
" style="fill: #c7c7c7"/>
   </g>
   <g id="patch_21">
    <path d="M 501.756842 58.809762 
C 487.880371 58.809762 474.10566 61.184287 461.030095 65.83037 
C 447.954528 70.476452 435.769881 77.325939 425.004584 86.081783 
C 414.239287 94.837626 405.051243 105.371394 397.838888 117.226285 
C 390.626534 129.081177 385.495671 142.083292 382.668811 155.668775 
C 379.841944 169.254257 379.360557 183.223841 381.245503 196.971694 
C 383.130448 210.719546 387.354088 224.044003 393.73326 236.36726 
C 400.112432 248.690513 408.553557 259.831807 418.690577 269.307947 
C 428.827598 278.784087 440.511826 286.456106 453.236547 291.991271 
C 465.961264 297.526435 479.539838 300.843556 493.383392 301.798797 
C 507.226946 302.754037 521.132443 301.333368 534.49682 297.598416 
C 547.861196 293.863463 560.488416 287.869011 571.830919 279.875008 
C 583.173422 271.881005 593.064804 262.004725 601.076127 250.674446 
C 609.087451 239.344167 615.101196 226.726094 618.856558 213.367438 
C 622.61192 200.008782 624.053825 186.105473 623.119734 172.260476 
C 622.185642 158.415478 618.889257 144.831853 613.373537 132.098697 
C 607.857818 119.36554 600.203677 107.669624 590.743032 97.51814 
L 543.908194 141.165727 
C 548.389553 145.974325 552.015198 151.514496 554.627908 157.545991 
C 557.240617 163.577486 558.802063 170.011835 559.244527 176.569991 
C 559.686991 183.128148 559.003984 189.713926 557.225128 196.04171 
C 555.446272 202.369495 552.597656 208.346477 548.802819 213.713451 
C 545.007981 219.080425 540.32259 223.758663 534.949825 227.545296 
C 529.57706 231.331929 523.595746 234.171407 517.265252 235.940595 
C 510.934758 237.709782 504.347943 238.382731 497.79047 237.930249 
C 491.232997 237.477767 484.801041 235.906499 478.773544 233.284579 
C 472.746044 230.662659 467.21141 227.028544 462.409663 222.539846 
C 457.607917 218.051149 453.609489 212.773693 450.587776 206.936363 
C 447.566063 201.099031 445.565392 194.787446 444.672523 188.275305 
C 443.779654 181.763165 444.007679 175.145993 445.346721 168.710765 
C 446.68576 162.275536 449.116169 156.116639 452.532547 150.501164 
C 455.948926 144.885689 460.301157 139.89601 465.400509 135.748505 
C 470.49986 131.601001 476.271535 128.356507 482.465224 126.155731 
C 488.658913 123.954955 495.183776 122.83018 501.756841 122.83018 
z
" style="fill: #9e9e9e"/>
   </g>
   <g id="matplotlib.axis_3"/>
   <g id="matplotlib.axis_4"/>
   <g id="text_16">
    <!-- 9.5% -->
    <g transform="translate(516.16395 99.250578) scale(0.09 -0.09)">
     <defs>
      <path id="DejaVuSans-39" d="M 703 97 
L 703 672 
Q 941 559 1184 500 
Q 1428 441 1663 441 
Q 2288 441 2617 861 
Q 2947 1281 2994 2138 
Q 2813 1869 2534 1725 
Q 2256 1581 1919 1581 
Q 1219 1581 811 2004 
Q 403 2428 403 3163 
Q 403 3881 828 4315 
Q 1253 4750 1959 4750 
Q 2769 4750 3195 4129 
Q 3622 3509 3622 2328 
Q 3622 1225 3098 567 
Q 2575 -91 1691 -91 
Q 1453 -91 1209 -44 
Q 966 3 703 97 
z
M 1959 2075 
Q 2384 2075 2632 2365 
Q 2881 2656 2881 3163 
Q 2881 3666 2632 3958 
Q 2384 4250 1959 4250 
Q 1534 4250 1286 3958 
Q 1038 3666 1038 3163 
Q 1038 2656 1286 2365 
Q 1534 2075 1959 2075 
z
" transform="scale(0.015625)"/>
      <path id="DejaVuSans-35" d="M 691 4666 
L 3169 4666 
L 3169 4134 
L 1269 4134 
L 1269 2991 
Q 1406 3038 1543 3061 
Q 1681 3084 1819 3084 
Q 2600 3084 3056 2656 
Q 3513 2228 3513 1497 
Q 3513 744 3044 326 
Q 2575 -91 1722 -91 
Q 1428 -91 1123 -41 
Q 819 9 494 109 
L 494 744 
Q 775 591 1075 516 
Q 1375 441 1709 441 
Q 2250 441 2565 725 
Q 2881 1009 2881 1497 
Q 2881 1984 2565 2268 
Q 2250 2553 1709 2553 
Q 1456 2553 1204 2497 
Q 953 2441 691 2322 
L 691 4666 
z
" transform="scale(0.015625)"/>
     </defs>
     <use xlink:href="#DejaVuSans-39"/>
     <use xlink:href="#DejaVuSans-2e" transform="translate(63.623047 0)"/>
     <use xlink:href="#DejaVuSans-35" transform="translate(95.410156 0)"/>
     <use xlink:href="#DejaVuSans-25" transform="translate(159.033203 0)"/>
    </g>
   </g>
   <g id="text_17">
    <!-- 2.5% -->
    <g transform="translate(545.251537 114.716963) scale(0.09 -0.09)">
     <use xlink:href="#DejaVuSans-32"/>
     <use xlink:href="#DejaVuSans-2e" transform="translate(63.623047 0)"/>
     <use xlink:href="#DejaVuSans-35" transform="translate(95.410156 0)"/>
     <use xlink:href="#DejaVuSans-25" transform="translate(159.033203 0)"/>
    </g>
   </g>
   <g id="text_18">
    <!-- 86.9% -->
    <g transform="translate(452.526984 263.242743) scale(0.09 -0.09)">
     <use xlink:href="#DejaVuSans-38"/>
     <use xlink:href="#DejaVuSans-36" transform="translate(63.623047 0)"/>
     <use xlink:href="#DejaVuSans-2e" transform="translate(127.246094 0)"/>
     <use xlink:href="#DejaVuSans-39" transform="translate(159.033203 0)"/>
     <use xlink:href="#DejaVuSans-25" transform="translate(222.65625 0)"/>
    </g>
   </g>
   <g id="text_19">
    <!-- Lastkraftwagen (July) -->
    <g transform="translate(438.015285 16.318125) scale(0.12 -0.12)">
     <defs>
      <path id="DejaVuSans-4c" d="M 628 4666 
L 1259 4666 
L 1259 531 
L 3531 531 
L 3531 0 
L 628 0 
L 628 4666 
z
" transform="scale(0.015625)"/>
      <path id="DejaVuSans-6b" d="M 581 4863 
L 1159 4863 
L 1159 1991 
L 2875 3500 
L 3609 3500 
L 1753 1863 
L 3688 0 
L 2938 0 
L 1159 1709 
L 1159 0 
L 581 0 
L 581 4863 
z
" transform="scale(0.015625)"/>
      <path id="DejaVuSans-77" d="M 269 3500 
L 844 3500 
L 1563 769 
L 2278 3500 
L 2956 3500 
L 3675 769 
L 4391 3500 
L 4966 3500 
L 4050 0 
L 3372 0 
L 2619 2869 
L 1863 0 
L 1184 0 
L 269 3500 
z
" transform="scale(0.015625)"/>
      <path id="DejaVuSans-67" d="M 2906 1791 
Q 2906 2416 2648 2759 
Q 2391 3103 1925 3103 
Q 1463 3103 1205 2759 
Q 947 2416 947 1791 
Q 947 1169 1205 825 
Q 1463 481 1925 481 
Q 2391 481 2648 825 
Q 2906 1169 2906 1791 
z
M 3481 434 
Q 3481 -459 3084 -895 
Q 2688 -1331 1869 -1331 
Q 1566 -1331 1297 -1286 
Q 1028 -1241 775 -1147 
L 775 -588 
Q 1028 -725 1275 -790 
Q 1522 -856 1778 -856 
Q 2344 -856 2625 -561 
Q 2906 -266 2906 331 
L 2906 616 
Q 2728 306 2450 153 
Q 2172 0 1784 0 
Q 1141 0 747 490 
Q 353 981 353 1791 
Q 353 2603 747 3093 
Q 1141 3584 1784 3584 
Q 2172 3584 2450 3431 
Q 2728 3278 2906 2969 
L 2906 3500 
L 3481 3500 
L 3481 434 
z
" transform="scale(0.015625)"/>
     </defs>
     <use xlink:href="#DejaVuSans-4c"/>
     <use xlink:href="#DejaVuSans-61" transform="translate(55.712891 0)"/>
     <use xlink:href="#DejaVuSans-73" transform="translate(116.992188 0)"/>
     <use xlink:href="#DejaVuSans-74" transform="translate(169.091797 0)"/>
     <use xlink:href="#DejaVuSans-6b" transform="translate(208.300781 0)"/>
     <use xlink:href="#DejaVuSans-72" transform="translate(266.210938 0)"/>
     <use xlink:href="#DejaVuSans-61" transform="translate(307.324219 0)"/>
     <use xlink:href="#DejaVuSans-66" transform="translate(368.603516 0)"/>
     <use xlink:href="#DejaVuSans-74" transform="translate(402.058594 0)"/>
     <use xlink:href="#DejaVuSans-77" transform="translate(441.267578 0)"/>
     <use xlink:href="#DejaVuSans-61" transform="translate(523.054688 0)"/>
     <use xlink:href="#DejaVuSans-67" transform="translate(584.333984 0)"/>
     <use xlink:href="#DejaVuSans-65" transform="translate(647.810547 0)"/>
     <use xlink:href="#DejaVuSans-6e" transform="translate(709.333984 0)"/>
     <use xlink:href="#DejaVuSans-20" transform="translate(772.712891 0)"/>
     <use xlink:href="#DejaVuSans-28" transform="translate(804.5 0)"/>
     <use xlink:href="#DejaVuSans-4a" transform="translate(843.513672 0)"/>
     <use xlink:href="#DejaVuSans-75" transform="translate(873.005859 0)"/>
     <use xlink:href="#DejaVuSans-6c" transform="translate(936.384766 0)"/>
     <use xlink:href="#DejaVuSans-79" transform="translate(964.167969 0)"/>
     <use xlink:href="#DejaVuSans-29" transform="translate(1023.347656 0)"/>
    </g>
   </g>
  </g>
  <g id="axes_3">
   <g id="patch_22">
    <path d="M 865.934284 36.754242 
L 853.066893 36.754242 
L 851.042687 53.849477 
" style="fill: none; stroke: #000000; stroke-linecap: round"/>
   </g>
   <g id="text_20">
    <!-- BEV -->
    <g transform="translate(869.936789 39.513617) scale(0.1 -0.1)">
     <use xlink:href="#DejaVuSans-42"/>
     <use xlink:href="#DejaVuSans-45" transform="translate(68.603516 0)"/>
     <use xlink:href="#DejaVuSans-56" transform="translate(131.787109 0)"/>
    </g>
   </g>
   <g id="patch_23">
    <path d="M 885.160695 45.415014 
L 871.871512 45.415014 
L 868.736643 57.233075 
" style="fill: none; stroke: #000000; stroke-linecap: round"/>
   </g>
   <g id="text_21">
    <!-- Gas -->
    <g transform="translate(889.159638 48.174389) scale(0.1 -0.1)">
     <defs>
      <path id="DejaVuSans-47" d="M 3809 666 
L 3809 1919 
L 2778 1919 
L 2778 2438 
L 4434 2438 
L 4434 434 
Q 4069 175 3628 42 
Q 3188 -91 2688 -91 
Q 1594 -91 976 548 
Q 359 1188 359 2328 
Q 359 3472 976 4111 
Q 1594 4750 2688 4750 
Q 3144 4750 3555 4637 
Q 3966 4525 4313 4306 
L 4313 3634 
Q 3963 3931 3569 4081 
Q 3175 4231 2741 4231 
Q 1884 4231 1454 3753 
Q 1025 3275 1025 2328 
Q 1025 1384 1454 906 
Q 1884 428 2741 428 
Q 3075 428 3337 486 
Q 3600 544 3809 666 
z
" transform="scale(0.015625)"/>
     </defs>
     <use xlink:href="#DejaVuSans-47"/>
     <use xlink:href="#DejaVuSans-61" transform="translate(77.490234 0)"/>
     <use xlink:href="#DejaVuSans-73" transform="translate(138.769531 0)"/>
    </g>
   </g>
   <g id="patch_24">
    <path d="M 879.340879 54.075786 
L 873.322284 54.075786 
L 872.113406 58.174786 
" style="fill: none; stroke: #000000; stroke-linecap: round"/>
   </g>
   <g id="text_22">
    <!-- Other -->
    <g transform="translate(883.340792 56.835161) scale(0.1 -0.1)">
     <use xlink:href="#DejaVuSans-4f"/>
     <use xlink:href="#DejaVuSans-74" transform="translate(78.710938 0)"/>
     <use xlink:href="#DejaVuSans-68" transform="translate(117.919922 0)"/>
     <use xlink:href="#DejaVuSans-65" transform="translate(181.298828 0)"/>
     <use xlink:href="#DejaVuSans-72" transform="translate(242.822266 0)"/>
    </g>
   </g>
   <g id="patch_25">
    <path d="M 798.811132 310.813115 
L 816.968086 310.813115 
L 817.587101 306.584637 
" style="fill: none; stroke: #000000; stroke-linecap: round"/>
   </g>
   <g id="text_23">
    <!-- ICE -->
    <g transform="translate(778.55583 313.57249) scale(0.1 -0.1)">
     <use xlink:href="#DejaVuSans-49"/>
     <use xlink:href="#DejaVuSans-43" transform="translate(29.492188 0)"/>
     <use xlink:href="#DejaVuSans-45" transform="translate(99.316406 0)"/>
    </g>
   </g>
   <g id="patch_26">
    <path d="M 864.460031 62.173445 
C 859.812096 61.05709 855.102392 60.215685 850.355433 59.65361 
C 845.608474 59.091536 840.832506 58.809762 836.052386 58.809762 
L 836.052389 122.830188 
C 838.316656 122.830188 840.578957 122.963659 842.827517 123.229905 
C 845.076076 123.496151 847.306988 123.894711 849.508642 124.423511 
z
" style="fill: #2ecc71"/>
   </g>
   <g id="patch_27">
    <path d="M 870.002319 63.643597 
C 869.084541 63.376839 868.163659 63.120913 867.239848 62.875862 
C 866.316037 62.630812 865.389361 62.396651 864.460031 62.173445 
L 849.508642 124.423511 
C 849.948851 124.52924 850.387803 124.640158 850.825397 124.756235 
C 851.262992 124.872312 851.699199 124.99354 852.133936 125.119899 
z
" style="fill: #f35c12"/>
   </g>
   <g id="patch_28">
    <path d="M 870.919021 63.913952 
C 870.766415 63.86829 870.613728 63.822932 870.460944 63.777872 
C 870.30816 63.732812 870.155281 63.688056 870.002319 63.643597 
L 852.133936 125.119899 
C 852.206392 125.140958 852.278808 125.162158 852.35118 125.183503 
C 852.423551 125.204847 852.495876 125.226332 852.568164 125.247961 
z
" style="fill: #c7c7c7"/>
   </g>
   <g id="patch_29">
    <path d="M 836.052393 58.809762 
C 820.822395 58.809762 805.726966 61.670112 791.552711 67.241775 
C 777.378456 72.813437 764.375916 80.997905 753.222519 91.368761 
C 742.069123 101.739617 732.962041 114.11357 726.375824 127.845814 
C 719.789606 141.578058 715.840648 156.4259 714.734711 171.615691 
C 713.628774 186.805482 715.385413 202.068735 719.913085 216.610158 
C 724.440757 231.15158 731.659463 244.714179 741.193033 256.591207 
C 750.726603 268.468235 762.406541 278.449805 775.624272 286.015812 
C 788.842003 293.58182 803.363889 298.598535 818.433271 300.804565 
C 833.502652 303.010595 848.853171 302.366962 863.684986 298.90717 
C 878.516803 295.447386 892.567753 289.232605 905.105717 280.586667 
C 917.643684 271.94073 928.44706 261.016412 936.952909 248.382988 
C 945.458758 235.749565 951.516752 221.630281 954.811231 206.760875 
C 958.10571 191.891468 958.57844 176.534764 956.204814 161.490871 
C 953.83118 146.446977 948.653125 131.981806 940.94046 118.849113 
C 933.227795 105.716424 923.116852 94.148328 911.134442 84.747547 
C 899.152032 75.346765 885.50994 68.279487 870.919021 63.913952 
L 852.568164 125.247961 
C 859.479652 127.315846 865.941695 130.663505 871.617573 135.116506 
C 877.293452 139.569508 882.082846 145.049132 885.736213 151.26988 
C 889.389581 157.49063 891.842344 164.342553 892.966697 171.468608 
C 894.091046 178.594662 893.867121 185.86889 892.306579 192.912294 
C 890.746036 199.955696 887.87646 206.643778 883.847373 212.628031 
C 879.818287 218.612285 874.700898 223.786962 868.761861 227.882406 
C 862.822826 231.97785 856.167113 234.921693 849.141515 236.560539 
C 842.115918 238.199388 834.84462 238.504266 827.706492 237.459305 
C 820.568364 236.414343 813.689576 234.038004 807.428545 230.454106 
C 801.167515 226.870208 795.634913 222.142096 791.119011 216.516135 
C 786.60311 210.890175 783.183722 204.465785 781.039036 197.577743 
C 778.894349 190.689701 778.062257 183.459739 778.586122 176.264575 
C 779.109987 169.069411 780.980546 162.036223 784.100333 155.531475 
C 787.22012 149.026728 791.534001 143.165382 796.817189 138.252871 
C 802.100377 133.34036 808.259475 129.463507 814.973596 126.824299 
C 821.687716 124.18509 828.838183 122.830188 836.052392 122.830188 
z
" style="fill: #9e9e9e"/>
   </g>
   <g id="matplotlib.axis_5"/>
   <g id="matplotlib.axis_6"/>
   <g id="text_24">
    <!-- 3.8% -->
    <g transform="translate(834.918473 95.959636) scale(0.09 -0.09)">
     <use xlink:href="#DejaVuSans-33"/>
     <use xlink:href="#DejaVuSans-2e" transform="translate(63.623047 0)"/>
     <use xlink:href="#DejaVuSans-38" transform="translate(95.410156 0)"/>
     <use xlink:href="#DejaVuSans-25" transform="translate(159.033203 0)"/>
    </g>
   </g>
   <g id="text_25">
    <!-- 95.4% -->
    <g transform="translate(809.07138 269.588325) scale(0.09 -0.09)">
     <use xlink:href="#DejaVuSans-39"/>
     <use xlink:href="#DejaVuSans-35" transform="translate(63.623047 0)"/>
     <use xlink:href="#DejaVuSans-2e" transform="translate(127.246094 0)"/>
     <use xlink:href="#DejaVuSans-34" transform="translate(159.033203 0)"/>
     <use xlink:href="#DejaVuSans-25" transform="translate(222.65625 0)"/>
    </g>
   </g>
   <g id="text_26">
    <!-- Sattelzugmaschinen (July) -->
    <g transform="translate(757.651127 16.318125) scale(0.12 -0.12)">
     <defs>
      <path id="DejaVuSans-53" d="M 3425 4513 
L 3425 3897 
Q 3066 4069 2747 4153 
Q 2428 4238 2131 4238 
Q 1616 4238 1336 4038 
Q 1056 3838 1056 3469 
Q 1056 3159 1242 3001 
Q 1428 2844 1947 2747 
L 2328 2669 
Q 3034 2534 3370 2195 
Q 3706 1856 3706 1288 
Q 3706 609 3251 259 
Q 2797 -91 1919 -91 
Q 1588 -91 1214 -16 
Q 841 59 441 206 
L 441 856 
Q 825 641 1194 531 
Q 1563 422 1919 422 
Q 2459 422 2753 634 
Q 3047 847 3047 1241 
Q 3047 1584 2836 1778 
Q 2625 1972 2144 2069 
L 1759 2144 
Q 1053 2284 737 2584 
Q 422 2884 422 3419 
Q 422 4038 858 4394 
Q 1294 4750 2059 4750 
Q 2388 4750 2728 4690 
Q 3069 4631 3425 4513 
z
" transform="scale(0.015625)"/>
      <path id="DejaVuSans-7a" d="M 353 3500 
L 3084 3500 
L 3084 2975 
L 922 459 
L 3084 459 
L 3084 0 
L 275 0 
L 275 525 
L 2438 3041 
L 353 3041 
L 353 3500 
z
" transform="scale(0.015625)"/>
      <path id="DejaVuSans-63" d="M 3122 3366 
L 3122 2828 
Q 2878 2963 2633 3030 
Q 2388 3097 2138 3097 
Q 1578 3097 1268 2742 
Q 959 2388 959 1747 
Q 959 1106 1268 751 
Q 1578 397 2138 397 
Q 2388 397 2633 464 
Q 2878 531 3122 666 
L 3122 134 
Q 2881 22 2623 -34 
Q 2366 -91 2075 -91 
Q 1284 -91 818 406 
Q 353 903 353 1747 
Q 353 2603 823 3093 
Q 1294 3584 2113 3584 
Q 2378 3584 2631 3529 
Q 2884 3475 3122 3366 
z
" transform="scale(0.015625)"/>
     </defs>
     <use xlink:href="#DejaVuSans-53"/>
     <use xlink:href="#DejaVuSans-61" transform="translate(63.476562 0)"/>
     <use xlink:href="#DejaVuSans-74" transform="translate(124.755859 0)"/>
     <use xlink:href="#DejaVuSans-74" transform="translate(163.964844 0)"/>
     <use xlink:href="#DejaVuSans-65" transform="translate(203.173828 0)"/>
     <use xlink:href="#DejaVuSans-6c" transform="translate(264.697266 0)"/>
     <use xlink:href="#DejaVuSans-7a" transform="translate(292.480469 0)"/>
     <use xlink:href="#DejaVuSans-75" transform="translate(344.970703 0)"/>
     <use xlink:href="#DejaVuSans-67" transform="translate(408.349609 0)"/>
     <use xlink:href="#DejaVuSans-6d" transform="translate(471.826172 0)"/>
     <use xlink:href="#DejaVuSans-61" transform="translate(569.238281 0)"/>
     <use xlink:href="#DejaVuSans-73" transform="translate(630.517578 0)"/>
     <use xlink:href="#DejaVuSans-63" transform="translate(682.617188 0)"/>
     <use xlink:href="#DejaVuSans-68" transform="translate(737.597656 0)"/>
     <use xlink:href="#DejaVuSans-69" transform="translate(800.976562 0)"/>
     <use xlink:href="#DejaVuSans-6e" transform="translate(828.759766 0)"/>
     <use xlink:href="#DejaVuSans-65" transform="translate(892.138672 0)"/>
     <use xlink:href="#DejaVuSans-6e" transform="translate(953.662109 0)"/>
     <use xlink:href="#DejaVuSans-20" transform="translate(1017.041016 0)"/>
     <use xlink:href="#DejaVuSans-28" transform="translate(1048.828125 0)"/>
     <use xlink:href="#DejaVuSans-4a" transform="translate(1087.841797 0)"/>
     <use xlink:href="#DejaVuSans-75" transform="translate(1117.333984 0)"/>
     <use xlink:href="#DejaVuSans-6c" transform="translate(1180.712891 0)"/>
     <use xlink:href="#DejaVuSans-79" transform="translate(1208.496094 0)"/>
     <use xlink:href="#DejaVuSans-29" transform="translate(1267.675781 0)"/>
    </g>
   </g>
  </g>
 </g>
</svg>
