<?xml version="1.0" encoding="utf-8" standalone="no"?>
<!DOCTYPE svg PUBLIC "-//W3C//DTD SVG 1.1//EN"
  "http://www.w3.org/Graphics/SVG/1.1/DTD/svg11.dtd">
<svg xmlns:xlink="http://www.w3.org/1999/xlink" width="1001.826465pt" height="346.813218pt" viewBox="0 0 1001.826465 346.813218" xmlns="http://www.w3.org/2000/svg" version="1.1">
 <metadata>
  <rdf:RDF xmlns:dc="http://purl.org/dc/elements/1.1/" xmlns:cc="http://creativecommons.org/ns#" xmlns:rdf="http://www.w3.org/1999/02/22-rdf-syntax-ns#">
   <cc:Work>
    <dc:type rdf:resource="http://purl.org/dc/dcmitype/StillImage"/>
    <dc:date>2026-06-11T12:02:39.174086</dc:date>
    <dc:format>image/svg+xml</dc:format>
    <dc:creator>
     <cc:Agent>
      <dc:title>Matplotlib v3.10.6, https://matplotlib.org/</dc:title>
     </cc:Agent>
    </dc:creator>
   </cc:Work>
  </rdf:RDF>
 </metadata>
 <defs>
  <style type="text/css">*{stroke-linejoin: round; stroke-linecap: butt}</style>
 </defs>
 <g id="figure_1">
  <g id="patch_1">
   <path d="M 0 346.813218 
L 1001.826465 346.813218 
L 1001.826465 0 
L 0 0 
z
" style="fill: #ffffff"/>
  </g>
  <g id="axes_1">
   <g id="patch_2">
    <path d="M 260.002135 72.752464 
L 245.481229 72.752464 
L 243.015405 76.267483 
" style="fill: none; stroke: #000000; stroke-linecap: round"/>
   </g>
   <g id="text_1">
    <!-- BEV -->
    <g transform="translate(263.998813 75.511839) scale(0.1 -0.1)">
     <defs>
      <path id="DejaVuSans-42" d="M 1259 2228 
L 1259 519 
L 2272 519 
Q 2781 519 3026 730 
Q 3272 941 3272 1375 
Q 3272 1813 3026 2020 
Q 2781 2228 2272 2228 
L 1259 2228 
z
M 1259 4147 
L 1259 2741 
L 2194 2741 
Q 2656 2741 2882 2914 
Q 3109 3088 3109 3444 
Q 3109 3797 2882 3972 
Q 2656 4147 2194 4147 
L 1259 4147 
z
M 628 4666 
L 2241 4666 
Q 2963 4666 3353 4366 
Q 3744 4066 3744 3513 
Q 3744 3084 3544 2831 
Q 3344 2578 2956 2516 
Q 3422 2416 3680 2098 
Q 3938 1781 3938 1306 
Q 3938 681 3513 340 
Q 3088 0 2303 0 
L 628 0 
L 628 4666 
z
" transform="scale(0.015625)"/>
      <path id="DejaVuSans-45" d="M 628 4666 
L 3578 4666 
L 3578 4134 
L 1259 4134 
L 1259 2753 
L 3481 2753 
L 3481 2222 
L 1259 2222 
L 1259 531 
L 3634 531 
L 3634 0 
L 628 0 
L 628 4666 
z
" transform="scale(0.015625)"/>
      <path id="DejaVuSans-56" d="M 1831 0 
L 50 4666 
L 709 4666 
L 2188 738 
L 3669 4666 
L 4325 4666 
L 2547 0 
L 1831 0 
z
" transform="scale(0.015625)"/>
     </defs>
     <use xlink:href="#DejaVuSans-42"/>
     <use xlink:href="#DejaVuSans-45" transform="translate(68.603516 0)"/>
     <use xlink:href="#DejaVuSans-56" transform="translate(131.787109 0)"/>
    </g>
   </g>
   <g id="patch_3">
    <path d="M 304.613178 142.288093 
L 295.968225 142.288093 
L 291.862471 143.544433 
" style="fill: none; stroke: #000000; stroke-linecap: round"/>
   </g>
   <g id="text_2">
    <!-- FCEV -->
    <g transform="translate(308.612369 145.047468) scale(0.1 -0.1)">
     <defs>
      <path id="DejaVuSans-46" d="M 628 4666 
L 3309 4666 
L 3309 4134 
L 1259 4134 
L 1259 2759 
L 3109 2759 
L 3109 2228 
L 1259 2228 
L 1259 0 
L 628 0 
L 628 4666 
z
" transform="scale(0.015625)"/>
      <path id="DejaVuSans-43" d="M 4122 4306 
L 4122 3641 
Q 3803 3938 3442 4084 
Q 3081 4231 2675 4231 
Q 1875 4231 1450 3742 
Q 1025 3253 1025 2328 
Q 1025 1406 1450 917 
Q 1875 428 2675 428 
Q 3081 428 3442 575 
Q 3803 722 4122 1019 
L 4122 359 
Q 3791 134 3420 21 
Q 3050 -91 2638 -91 
Q 1578 -91 968 557 
Q 359 1206 359 2328 
Q 359 3453 968 4101 
Q 1578 4750 2638 4750 
Q 3056 4750 3426 4639 
Q 3797 4528 4122 4306 
z
" transform="scale(0.015625)"/>
     </defs>
     <use xlink:href="#DejaVuSans-46"/>
     <use xlink:href="#DejaVuSans-43" transform="translate(57.519531 0)"/>
     <use xlink:href="#DejaVuSans-45" transform="translate(127.34375 0)"/>
     <use xlink:href="#DejaVuSans-56" transform="translate(190.527344 0)"/>
    </g>
   </g>
   <g id="patch_4">
    <path d="M 298.24865 217.041604 
L 296.73527 217.041604 
L 292.604596 215.869777 
" style="fill: none; stroke: #000000; stroke-linecap: round"/>
   </g>
   <g id="text_3">
    <!-- Hybrid -->
    <g transform="translate(302.248161 219.800979) scale(0.1 -0.1)">
     <defs>
      <path id="DejaVuSans-48" d="M 628 4666 
L 1259 4666 
L 1259 2753 
L 3553 2753 
L 3553 4666 
L 4184 4666 
L 4184 0 
L 3553 0 
L 3553 2222 
L 1259 2222 
L 1259 0 
L 628 0 
L 628 4666 
z
" transform="scale(0.015625)"/>
      <path id="DejaVuSans-79" d="M 2059 -325 
Q 1816 -950 1584 -1140 
Q 1353 -1331 966 -1331 
L 506 -1331 
L 506 -850 
L 844 -850 
Q 1081 -850 1212 -737 
Q 1344 -625 1503 -206 
L 1606 56 
L 191 3500 
L 800 3500 
L 1894 763 
L 2988 3500 
L 3597 3500 
L 2059 -325 
z
" transform="scale(0.015625)"/>
      <path id="DejaVuSans-62" d="M 3116 1747 
Q 3116 2381 2855 2742 
Q 2594 3103 2138 3103 
Q 1681 3103 1420 2742 
Q 1159 2381 1159 1747 
Q 1159 1113 1420 752 
Q 1681 391 2138 391 
Q 2594 391 2855 752 
Q 3116 1113 3116 1747 
z
M 1159 2969 
Q 1341 3281 1617 3432 
Q 1894 3584 2278 3584 
Q 2916 3584 3314 3078 
Q 3713 2572 3713 1747 
Q 3713 922 3314 415 
Q 2916 -91 2278 -91 
Q 1894 -91 1617 61 
Q 1341 213 1159 525 
L 1159 0 
L 581 0 
L 581 4863 
L 1159 4863 
L 1159 2969 
z
" transform="scale(0.015625)"/>
      <path id="DejaVuSans-72" d="M 2631 2963 
Q 2534 3019 2420 3045 
Q 2306 3072 2169 3072 
Q 1681 3072 1420 2755 
Q 1159 2438 1159 1844 
L 1159 0 
L 581 0 
L 581 3500 
L 1159 3500 
L 1159 2956 
Q 1341 3275 1631 3429 
Q 1922 3584 2338 3584 
Q 2397 3584 2469 3576 
Q 2541 3569 2628 3553 
L 2631 2963 
z
" transform="scale(0.015625)"/>
      <path id="DejaVuSans-69" d="M 603 3500 
L 1178 3500 
L 1178 0 
L 603 0 
L 603 3500 
z
M 603 4863 
L 1178 4863 
L 1178 4134 
L 603 4134 
L 603 4863 
z
" transform="scale(0.015625)"/>
      <path id="DejaVuSans-64" d="M 2906 2969 
L 2906 4863 
L 3481 4863 
L 3481 0 
L 2906 0 
L 2906 525 
Q 2725 213 2448 61 
Q 2172 -91 1784 -91 
Q 1150 -91 751 415 
Q 353 922 353 1747 
Q 353 2572 751 3078 
Q 1150 3584 1784 3584 
Q 2172 3584 2448 3432 
Q 2725 3281 2906 2969 
z
M 947 1747 
Q 947 1113 1208 752 
Q 1469 391 1925 391 
Q 2381 391 2643 752 
Q 2906 1113 2906 1747 
Q 2906 2381 2643 2742 
Q 2381 3103 1925 3103 
Q 1469 3103 1208 2742 
Q 947 2381 947 1747 
z
" transform="scale(0.015625)"/>
     </defs>
     <use xlink:href="#DejaVuSans-48"/>
     <use xlink:href="#DejaVuSans-79" transform="translate(75.195312 0)"/>
     <use xlink:href="#DejaVuSans-62" transform="translate(134.375 0)"/>
     <use xlink:href="#DejaVuSans-72" transform="translate(197.851562 0)"/>
     <use xlink:href="#DejaVuSans-69" transform="translate(238.964844 0)"/>
     <use xlink:href="#DejaVuSans-64" transform="translate(266.748047 0)"/>
    </g>
   </g>
   <g id="patch_5">
    <path d="M 265.147164 278.301834 
L 259.00309 278.301834 
L 256.098047 275.140135 
" style="fill: none; stroke: #000000; stroke-linecap: round"/>
   </g>
   <g id="text_4">
    <!-- Other -->
    <g transform="translate(269.147239 281.061209) scale(0.1 -0.1)">
     <defs>
      <path id="DejaVuSans-4f" d="M 2522 4238 
Q 1834 4238 1429 3725 
Q 1025 3213 1025 2328 
Q 1025 1447 1429 934 
Q 1834 422 2522 422 
Q 3209 422 3611 934 
Q 4013 1447 4013 2328 
Q 4013 3213 3611 3725 
Q 3209 4238 2522 4238 
z
M 2522 4750 
Q 3503 4750 4090 4092 
Q 4678 3434 4678 2328 
Q 4678 1225 4090 567 
Q 3503 -91 2522 -91 
Q 1538 -91 948 565 
Q 359 1222 359 2328 
Q 359 3434 948 4092 
Q 1538 4750 2522 4750 
z
" transform="scale(0.015625)"/>
      <path id="DejaVuSans-74" d="M 1172 4494 
L 1172 3500 
L 2356 3500 
L 2356 3053 
L 1172 3053 
L 1172 1153 
Q 1172 725 1289 603 
Q 1406 481 1766 481 
L 2356 481 
L 2356 0 
L 1766 0 
Q 1100 0 847 248 
Q 594 497 594 1153 
L 594 3053 
L 172 3053 
L 172 3500 
L 594 3500 
L 594 4494 
L 1172 4494 
z
" transform="scale(0.015625)"/>
      <path id="DejaVuSans-68" d="M 3513 2113 
L 3513 0 
L 2938 0 
L 2938 2094 
Q 2938 2591 2744 2837 
Q 2550 3084 2163 3084 
Q 1697 3084 1428 2787 
Q 1159 2491 1159 1978 
L 1159 0 
L 581 0 
L 581 4863 
L 1159 4863 
L 1159 2956 
Q 1366 3272 1645 3428 
Q 1925 3584 2291 3584 
Q 2894 3584 3203 3211 
Q 3513 2838 3513 2113 
z
" transform="scale(0.015625)"/>
      <path id="DejaVuSans-65" d="M 3597 1894 
L 3597 1613 
L 953 1613 
Q 991 1019 1311 708 
Q 1631 397 2203 397 
Q 2534 397 2845 478 
Q 3156 559 3463 722 
L 3463 178 
Q 3153 47 2828 -22 
Q 2503 -91 2169 -91 
Q 1331 -91 842 396 
Q 353 884 353 1716 
Q 353 2575 817 3079 
Q 1281 3584 2069 3584 
Q 2775 3584 3186 3129 
Q 3597 2675 3597 1894 
z
M 3022 2063 
Q 3016 2534 2758 2815 
Q 2500 3097 2075 3097 
Q 1594 3097 1305 2825 
Q 1016 2553 972 2059 
L 3022 2063 
z
" transform="scale(0.015625)"/>
     </defs>
     <use xlink:href="#DejaVuSans-4f"/>
     <use xlink:href="#DejaVuSans-74" transform="translate(78.710938 0)"/>
     <use xlink:href="#DejaVuSans-68" transform="translate(117.919922 0)"/>
     <use xlink:href="#DejaVuSans-65" transform="translate(181.298828 0)"/>
     <use xlink:href="#DejaVuSans-72" transform="translate(242.822266 0)"/>
    </g>
   </g>
   <g id="patch_6">
    <path d="M 27.445684 227.21361 
L 45.737892 227.21361 
L 49.760196 225.711373 
" style="fill: none; stroke: #000000; stroke-linecap: round"/>
   </g>
   <g id="text_5">
    <!-- ICE -->
    <g transform="translate(7.2 229.972985) scale(0.1 -0.1)">
     <defs>
      <path id="DejaVuSans-49" d="M 628 4666 
L 1259 4666 
L 1259 0 
L 628 0 
L 628 4666 
z
" transform="scale(0.015625)"/>
     </defs>
     <use xlink:href="#DejaVuSans-49"/>
     <use xlink:href="#DejaVuSans-43" transform="translate(29.492188 0)"/>
     <use xlink:href="#DejaVuSans-45" transform="translate(99.316406 0)"/>
    </g>
   </g>
   <g id="patch_7">
    <path d="M 284.318173 139.427257 
C 275.782459 115.847424 260.18261 95.462035 239.653131 81.060388 
C 219.123652 66.658741 194.645653 58.929097 169.568436 58.929097 
L 169.568439 123.158922 
C 181.447121 123.158922 193.041962 126.820332 202.766452 133.642165 
C 212.490942 140.463998 219.880344 150.120235 223.923577 161.289629 
z
" style="fill: #2ecc71"/>
   </g>
   <g id="patch_8">
    <path d="M 287.913942 151.178352 
C 287.413777 149.191203 286.863648 147.216961 286.264071 145.257515 
C 285.664494 143.298069 285.01565 141.354032 284.318173 139.427257 
L 223.923577 161.289629 
C 224.253961 162.202312 224.561308 163.123172 224.845319 164.051331 
C 225.129329 164.979489 225.389916 165.914656 225.626836 166.855938 
z
" style="fill: #3498db"/>
   </g>
   <g id="patch_9">
    <path d="M 254.642142 268.460986 
C 269.981947 253.545725 281.132923 234.855363 286.972219 214.271937 
C 292.811508 193.688509 293.136319 171.926884 287.913942 151.178352 
L 225.626836 166.855938 
C 228.100594 176.68419 227.946736 186.992328 225.180757 196.742373 
C 222.414775 206.492417 217.132734 215.345746 209.86651 222.41087 
z
" style="fill: #e74c3c"/>
   </g>
   <g id="patch_10">
    <path d="M 249.565738 273.125306 
C 250.433557 272.372016 251.290691 271.606505 252.136884 270.828999 
C 252.983078 270.051494 253.818244 269.262081 254.642142 268.460986 
L 209.86651 222.41087 
C 209.476242 222.790336 209.080637 223.164268 208.679809 223.53256 
C 208.278981 223.900852 207.87297 224.263462 207.461898 224.620284 
z
" style="fill: #c7c7c7"/>
   </g>
   <g id="patch_11">
    <path d="M 169.568443 58.929097 
C 149.864434 58.929097 130.450443 63.701203 112.991845 72.836043 
C 95.533247 81.970883 80.543959 95.199583 69.309841 111.387313 
C 58.075724 127.575043 50.927444 146.24531 48.478217 165.796507 
C 46.02899 185.347703 48.350916 205.204306 55.244797 223.662973 
C 62.138678 242.121641 73.4016 258.639019 88.067371 271.798159 
C 102.733143 284.957299 120.370091 294.370869 139.465217 299.231331 
C 158.560346 304.091794 178.551567 304.256068 197.723994 299.710081 
C 216.896419 295.164094 234.685683 286.041648 249.565738 273.125306 
L 207.461898 224.620284 
C 200.413451 230.738552 191.986957 235.05971 182.905282 237.213072 
C 173.823606 239.366435 164.35408 239.28862 155.30902 236.986296 
C 146.26396 234.683972 137.909616 230.224912 130.962671 223.991636 
C 124.015727 217.758359 118.680659 209.934338 115.415136 201.190758 
C 112.149613 192.447179 111.049754 183.04142 112.209914 173.780327 
C 113.370074 164.519234 116.756102 155.675423 122.077526 148.007551 
C 127.39895 140.339679 134.499139 134.073452 142.769001 129.746423 
C 151.038863 125.419393 160.234964 123.158922 169.568442 123.158922 
z
" style="fill: #9e9e9e"/>
   </g>
   <g id="matplotlib.axis_1"/>
   <g id="matplotlib.axis_2"/>
   <g id="text_6">
    <!-- 19.5% -->
    <g transform="translate(205.734178 111.517327) scale(0.09 -0.09)">
     <defs>
      <path id="DejaVuSans-31" d="M 794 531 
L 1825 531 
L 1825 4091 
L 703 3866 
L 703 4441 
L 1819 4666 
L 2450 4666 
L 2450 531 
L 3481 531 
L 3481 0 
L 794 0 
L 794 531 
z
" transform="scale(0.015625)"/>
      <path id="DejaVuSans-39" d="M 703 97 
L 703 672 
Q 941 559 1184 500 
Q 1428 441 1663 441 
Q 2288 441 2617 861 
Q 2947 1281 2994 2138 
Q 2813 1869 2534 1725 
Q 2256 1581 1919 1581 
Q 1219 1581 811 2004 
Q 403 2428 403 3163 
Q 403 3881 828 4315 
Q 1253 4750 1959 4750 
Q 2769 4750 3195 4129 
Q 3622 3509 3622 2328 
Q 3622 1225 3098 567 
Q 2575 -91 1691 -91 
Q 1453 -91 1209 -44 
Q 966 3 703 97 
z
M 1959 2075 
Q 2384 2075 2632 2365 
Q 2881 2656 2881 3163 
Q 2881 3666 2632 3958 
Q 2384 4250 1959 4250 
Q 1534 4250 1286 3958 
Q 1038 3666 1038 3163 
Q 1038 2656 1286 2365 
Q 1534 2075 1959 2075 
z
" transform="scale(0.015625)"/>
      <path id="DejaVuSans-2e" d="M 684 794 
L 1344 794 
L 1344 0 
L 684 0 
L 684 794 
z
" transform="scale(0.015625)"/>
      <path id="DejaVuSans-35" d="M 691 4666 
L 3169 4666 
L 3169 4134 
L 1269 4134 
L 1269 2991 
Q 1406 3038 1543 3061 
Q 1681 3084 1819 3084 
Q 2600 3084 3056 2656 
Q 3513 2228 3513 1497 
Q 3513 744 3044 326 
Q 2575 -91 1722 -91 
Q 1428 -91 1123 -41 
Q 819 9 494 109 
L 494 744 
Q 775 591 1075 516 
Q 1375 441 1709 441 
Q 2250 441 2565 725 
Q 2881 1009 2881 1497 
Q 2881 1984 2565 2268 
Q 2250 2553 1709 2553 
Q 1456 2553 1204 2497 
Q 953 2441 691 2322 
L 691 4666 
z
" transform="scale(0.015625)"/>
      <path id="DejaVuSans-25" d="M 4653 2053 
Q 4381 2053 4226 1822 
Q 4072 1591 4072 1178 
Q 4072 772 4226 539 
Q 4381 306 4653 306 
Q 4919 306 5073 539 
Q 5228 772 5228 1178 
Q 5228 1588 5073 1820 
Q 4919 2053 4653 2053 
z
M 4653 2450 
Q 5147 2450 5437 2106 
Q 5728 1763 5728 1178 
Q 5728 594 5436 251 
Q 5144 -91 4653 -91 
Q 4153 -91 3862 251 
Q 3572 594 3572 1178 
Q 3572 1766 3864 2108 
Q 4156 2450 4653 2450 
z
M 1428 4353 
Q 1159 4353 1004 4120 
Q 850 3888 850 3481 
Q 850 3069 1003 2837 
Q 1156 2606 1428 2606 
Q 1700 2606 1854 2837 
Q 2009 3069 2009 3481 
Q 2009 3884 1853 4118 
Q 1697 4353 1428 4353 
z
M 4250 4750 
L 4750 4750 
L 1831 -91 
L 1331 -91 
L 4250 4750 
z
M 1428 4750 
Q 1922 4750 2215 4408 
Q 2509 4066 2509 3481 
Q 2509 2891 2217 2550 
Q 1925 2209 1428 2209 
Q 931 2209 642 2551 
Q 353 2894 353 3481 
Q 353 4063 643 4406 
Q 934 4750 1428 4750 
z
" transform="scale(0.015625)"/>
     </defs>
     <use xlink:href="#DejaVuSans-31"/>
     <use xlink:href="#DejaVuSans-39" transform="translate(63.623047 0)"/>
     <use xlink:href="#DejaVuSans-2e" transform="translate(127.246094 0)"/>
     <use xlink:href="#DejaVuSans-35" transform="translate(159.033203 0)"/>
     <use xlink:href="#DejaVuSans-25" transform="translate(222.65625 0)"/>
    </g>
   </g>
   <g id="text_7">
    <!-- 16.6% -->
    <g transform="translate(239.803927 207.429646) scale(0.09 -0.09)">
     <defs>
      <path id="DejaVuSans-36" d="M 2113 2584 
Q 1688 2584 1439 2293 
Q 1191 2003 1191 1497 
Q 1191 994 1439 701 
Q 1688 409 2113 409 
Q 2538 409 2786 701 
Q 3034 994 3034 1497 
Q 3034 2003 2786 2293 
Q 2538 2584 2113 2584 
z
M 3366 4563 
L 3366 3988 
Q 3128 4100 2886 4159 
Q 2644 4219 2406 4219 
Q 1781 4219 1451 3797 
Q 1122 3375 1075 2522 
Q 1259 2794 1537 2939 
Q 1816 3084 2150 3084 
Q 2853 3084 3261 2657 
Q 3669 2231 3669 1497 
Q 3669 778 3244 343 
Q 2819 -91 2113 -91 
Q 1303 -91 875 529 
Q 447 1150 447 2328 
Q 447 3434 972 4092 
Q 1497 4750 2381 4750 
Q 2619 4750 2861 4703 
Q 3103 4656 3366 4563 
z
" transform="scale(0.015625)"/>
     </defs>
     <use xlink:href="#DejaVuSans-31"/>
     <use xlink:href="#DejaVuSans-36" transform="translate(63.623047 0)"/>
     <use xlink:href="#DejaVuSans-2e" transform="translate(127.246094 0)"/>
     <use xlink:href="#DejaVuSans-36" transform="translate(159.033203 0)"/>
     <use xlink:href="#DejaVuSans-25" transform="translate(222.65625 0)"/>
    </g>
   </g>
   <g id="text_8">
    <!-- 61.4% -->
    <g transform="translate(72.96018 214.191192) scale(0.09 -0.09)">
     <defs>
      <path id="DejaVuSans-34" d="M 2419 4116 
L 825 1625 
L 2419 1625 
L 2419 4116 
z
M 2253 4666 
L 3047 4666 
L 3047 1625 
L 3713 1625 
L 3713 1100 
L 3047 1100 
L 3047 0 
L 2419 0 
L 2419 1100 
L 313 1100 
L 313 1709 
L 2253 4666 
z
" transform="scale(0.015625)"/>
     </defs>
     <use xlink:href="#DejaVuSans-36"/>
     <use xlink:href="#DejaVuSans-31" transform="translate(63.623047 0)"/>
     <use xlink:href="#DejaVuSans-2e" transform="translate(127.246094 0)"/>
     <use xlink:href="#DejaVuSans-34" transform="translate(159.033203 0)"/>
     <use xlink:href="#DejaVuSans-25" transform="translate(222.65625 0)"/>
    </g>
   </g>
   <g id="text_9">
    <!-- Kraftomnibusse (November - April) -->
    <g transform="translate(65.095203 16.318125) scale(0.12 -0.12)">
     <defs>
      <path id="DejaVuSans-4b" d="M 628 4666 
L 1259 4666 
L 1259 2694 
L 3353 4666 
L 4166 4666 
L 1850 2491 
L 4331 0 
L 3500 0 
L 1259 2247 
L 1259 0 
L 628 0 
L 628 4666 
z
" transform="scale(0.015625)"/>
      <path id="DejaVuSans-61" d="M 2194 1759 
Q 1497 1759 1228 1600 
Q 959 1441 959 1056 
Q 959 750 1161 570 
Q 1363 391 1709 391 
Q 2188 391 2477 730 
Q 2766 1069 2766 1631 
L 2766 1759 
L 2194 1759 
z
M 3341 1997 
L 3341 0 
L 2766 0 
L 2766 531 
Q 2569 213 2275 61 
Q 1981 -91 1556 -91 
Q 1019 -91 701 211 
Q 384 513 384 1019 
Q 384 1609 779 1909 
Q 1175 2209 1959 2209 
L 2766 2209 
L 2766 2266 
Q 2766 2663 2505 2880 
Q 2244 3097 1772 3097 
Q 1472 3097 1187 3025 
Q 903 2953 641 2809 
L 641 3341 
Q 956 3463 1253 3523 
Q 1550 3584 1831 3584 
Q 2591 3584 2966 3190 
Q 3341 2797 3341 1997 
z
" transform="scale(0.015625)"/>
      <path id="DejaVuSans-66" d="M 2375 4863 
L 2375 4384 
L 1825 4384 
Q 1516 4384 1395 4259 
Q 1275 4134 1275 3809 
L 1275 3500 
L 2222 3500 
L 2222 3053 
L 1275 3053 
L 1275 0 
L 697 0 
L 697 3053 
L 147 3053 
L 147 3500 
L 697 3500 
L 697 3744 
Q 697 4328 969 4595 
Q 1241 4863 1831 4863 
L 2375 4863 
z
" transform="scale(0.015625)"/>
      <path id="DejaVuSans-6f" d="M 1959 3097 
Q 1497 3097 1228 2736 
Q 959 2375 959 1747 
Q 959 1119 1226 758 
Q 1494 397 1959 397 
Q 2419 397 2687 759 
Q 2956 1122 2956 1747 
Q 2956 2369 2687 2733 
Q 2419 3097 1959 3097 
z
M 1959 3584 
Q 2709 3584 3137 3096 
Q 3566 2609 3566 1747 
Q 3566 888 3137 398 
Q 2709 -91 1959 -91 
Q 1206 -91 779 398 
Q 353 888 353 1747 
Q 353 2609 779 3096 
Q 1206 3584 1959 3584 
z
" transform="scale(0.015625)"/>
      <path id="DejaVuSans-6d" d="M 3328 2828 
Q 3544 3216 3844 3400 
Q 4144 3584 4550 3584 
Q 5097 3584 5394 3201 
Q 5691 2819 5691 2113 
L 5691 0 
L 5113 0 
L 5113 2094 
Q 5113 2597 4934 2840 
Q 4756 3084 4391 3084 
Q 3944 3084 3684 2787 
Q 3425 2491 3425 1978 
L 3425 0 
L 2847 0 
L 2847 2094 
Q 2847 2600 2669 2842 
Q 2491 3084 2119 3084 
Q 1678 3084 1418 2786 
Q 1159 2488 1159 1978 
L 1159 0 
L 581 0 
L 581 3500 
L 1159 3500 
L 1159 2956 
Q 1356 3278 1631 3431 
Q 1906 3584 2284 3584 
Q 2666 3584 2933 3390 
Q 3200 3197 3328 2828 
z
" transform="scale(0.015625)"/>
      <path id="DejaVuSans-6e" d="M 3513 2113 
L 3513 0 
L 2938 0 
L 2938 2094 
Q 2938 2591 2744 2837 
Q 2550 3084 2163 3084 
Q 1697 3084 1428 2787 
Q 1159 2491 1159 1978 
L 1159 0 
L 581 0 
L 581 3500 
L 1159 3500 
L 1159 2956 
Q 1366 3272 1645 3428 
Q 1925 3584 2291 3584 
Q 2894 3584 3203 3211 
Q 3513 2838 3513 2113 
z
" transform="scale(0.015625)"/>
      <path id="DejaVuSans-75" d="M 544 1381 
L 544 3500 
L 1119 3500 
L 1119 1403 
Q 1119 906 1312 657 
Q 1506 409 1894 409 
Q 2359 409 2629 706 
Q 2900 1003 2900 1516 
L 2900 3500 
L 3475 3500 
L 3475 0 
L 2900 0 
L 2900 538 
Q 2691 219 2414 64 
Q 2138 -91 1772 -91 
Q 1169 -91 856 284 
Q 544 659 544 1381 
z
M 1991 3584 
L 1991 3584 
z
" transform="scale(0.015625)"/>
      <path id="DejaVuSans-73" d="M 2834 3397 
L 2834 2853 
Q 2591 2978 2328 3040 
Q 2066 3103 1784 3103 
Q 1356 3103 1142 2972 
Q 928 2841 928 2578 
Q 928 2378 1081 2264 
Q 1234 2150 1697 2047 
L 1894 2003 
Q 2506 1872 2764 1633 
Q 3022 1394 3022 966 
Q 3022 478 2636 193 
Q 2250 -91 1575 -91 
Q 1294 -91 989 -36 
Q 684 19 347 128 
L 347 722 
Q 666 556 975 473 
Q 1284 391 1588 391 
Q 1994 391 2212 530 
Q 2431 669 2431 922 
Q 2431 1156 2273 1281 
Q 2116 1406 1581 1522 
L 1381 1569 
Q 847 1681 609 1914 
Q 372 2147 372 2553 
Q 372 3047 722 3315 
Q 1072 3584 1716 3584 
Q 2034 3584 2315 3537 
Q 2597 3491 2834 3397 
z
" transform="scale(0.015625)"/>
      <path id="DejaVuSans-20" transform="scale(0.015625)"/>
      <path id="DejaVuSans-28" d="M 1984 4856 
Q 1566 4138 1362 3434 
Q 1159 2731 1159 2009 
Q 1159 1288 1364 580 
Q 1569 -128 1984 -844 
L 1484 -844 
Q 1016 -109 783 600 
Q 550 1309 550 2009 
Q 550 2706 781 3412 
Q 1013 4119 1484 4856 
L 1984 4856 
z
" transform="scale(0.015625)"/>
      <path id="DejaVuSans-4e" d="M 628 4666 
L 1478 4666 
L 3547 763 
L 3547 4666 
L 4159 4666 
L 4159 0 
L 3309 0 
L 1241 3903 
L 1241 0 
L 628 0 
L 628 4666 
z
" transform="scale(0.015625)"/>
      <path id="DejaVuSans-76" d="M 191 3500 
L 800 3500 
L 1894 563 
L 2988 3500 
L 3597 3500 
L 2284 0 
L 1503 0 
L 191 3500 
z
" transform="scale(0.015625)"/>
      <path id="DejaVuSans-2d" d="M 313 2009 
L 1997 2009 
L 1997 1497 
L 313 1497 
L 313 2009 
z
" transform="scale(0.015625)"/>
      <path id="DejaVuSans-41" d="M 2188 4044 
L 1331 1722 
L 3047 1722 
L 2188 4044 
z
M 1831 4666 
L 2547 4666 
L 4325 0 
L 3669 0 
L 3244 1197 
L 1141 1197 
L 716 0 
L 50 0 
L 1831 4666 
z
" transform="scale(0.015625)"/>
      <path id="DejaVuSans-70" d="M 1159 525 
L 1159 -1331 
L 581 -1331 
L 581 3500 
L 1159 3500 
L 1159 2969 
Q 1341 3281 1617 3432 
Q 1894 3584 2278 3584 
Q 2916 3584 3314 3078 
Q 3713 2572 3713 1747 
Q 3713 922 3314 415 
Q 2916 -91 2278 -91 
Q 1894 -91 1617 61 
Q 1341 213 1159 525 
z
M 3116 1747 
Q 3116 2381 2855 2742 
Q 2594 3103 2138 3103 
Q 1681 3103 1420 2742 
Q 1159 2381 1159 1747 
Q 1159 1113 1420 752 
Q 1681 391 2138 391 
Q 2594 391 2855 752 
Q 3116 1113 3116 1747 
z
" transform="scale(0.015625)"/>
      <path id="DejaVuSans-6c" d="M 603 4863 
L 1178 4863 
L 1178 0 
L 603 0 
L 603 4863 
z
" transform="scale(0.015625)"/>
      <path id="DejaVuSans-29" d="M 513 4856 
L 1013 4856 
Q 1481 4119 1714 3412 
Q 1947 2706 1947 2009 
Q 1947 1309 1714 600 
Q 1481 -109 1013 -844 
L 513 -844 
Q 928 -128 1133 580 
Q 1338 1288 1338 2009 
Q 1338 2731 1133 3434 
Q 928 4138 513 4856 
z
" transform="scale(0.015625)"/>
     </defs>
     <use xlink:href="#DejaVuSans-4b"/>
     <use xlink:href="#DejaVuSans-72" transform="translate(65.576172 0)"/>
     <use xlink:href="#DejaVuSans-61" transform="translate(106.689453 0)"/>
     <use xlink:href="#DejaVuSans-66" transform="translate(167.96875 0)"/>
     <use xlink:href="#DejaVuSans-74" transform="translate(201.423828 0)"/>
     <use xlink:href="#DejaVuSans-6f" transform="translate(240.632812 0)"/>
     <use xlink:href="#DejaVuSans-6d" transform="translate(301.814453 0)"/>
     <use xlink:href="#DejaVuSans-6e" transform="translate(399.226562 0)"/>
     <use xlink:href="#DejaVuSans-69" transform="translate(462.605469 0)"/>
     <use xlink:href="#DejaVuSans-62" transform="translate(490.388672 0)"/>
     <use xlink:href="#DejaVuSans-75" transform="translate(553.865234 0)"/>
     <use xlink:href="#DejaVuSans-73" transform="translate(617.244141 0)"/>
     <use xlink:href="#DejaVuSans-73" transform="translate(669.34375 0)"/>
     <use xlink:href="#DejaVuSans-65" transform="translate(721.443359 0)"/>
     <use xlink:href="#DejaVuSans-20" transform="translate(782.966797 0)"/>
     <use xlink:href="#DejaVuSans-28" transform="translate(814.753906 0)"/>
     <use xlink:href="#DejaVuSans-4e" transform="translate(853.767578 0)"/>
     <use xlink:href="#DejaVuSans-6f" transform="translate(928.572266 0)"/>
     <use xlink:href="#DejaVuSans-76" transform="translate(989.753906 0)"/>
     <use xlink:href="#DejaVuSans-65" transform="translate(1048.933594 0)"/>
     <use xlink:href="#DejaVuSans-6d" transform="translate(1110.457031 0)"/>
     <use xlink:href="#DejaVuSans-62" transform="translate(1207.869141 0)"/>
     <use xlink:href="#DejaVuSans-65" transform="translate(1271.345703 0)"/>
     <use xlink:href="#DejaVuSans-72" transform="translate(1332.869141 0)"/>
     <use xlink:href="#DejaVuSans-20" transform="translate(1373.982422 0)"/>
     <use xlink:href="#DejaVuSans-2d" transform="translate(1405.769531 0)"/>
     <use xlink:href="#DejaVuSans-20" transform="translate(1441.853516 0)"/>
     <use xlink:href="#DejaVuSans-41" transform="translate(1473.640625 0)"/>
     <use xlink:href="#DejaVuSans-70" transform="translate(1542.048828 0)"/>
     <use xlink:href="#DejaVuSans-72" transform="translate(1605.525391 0)"/>
     <use xlink:href="#DejaVuSans-69" transform="translate(1646.638672 0)"/>
     <use xlink:href="#DejaVuSans-6c" transform="translate(1674.421875 0)"/>
     <use xlink:href="#DejaVuSans-29" transform="translate(1702.205078 0)"/>
    </g>
   </g>
  </g>
  <g id="axes_2">
   <g id="patch_12">
    <path d="M 563.627222 57.167048 
L 549.106345 57.167048 
L 547.601353 61.188314 
" style="fill: none; stroke: #000000; stroke-linecap: round"/>
   </g>
   <g id="text_10">
    <!-- BEV -->
    <g transform="translate(567.623871 59.926423) scale(0.1 -0.1)">
     <use xlink:href="#DejaVuSans-42"/>
     <use xlink:href="#DejaVuSans-45" transform="translate(68.603516 0)"/>
     <use xlink:href="#DejaVuSans-56" transform="translate(131.787109 0)"/>
    </g>
   </g>
   <g id="patch_13">
    <path d="M 607.773015 91.353599 
L 599.946168 91.353599 
L 596.789782 94.264406 
" style="fill: none; stroke: #000000; stroke-linecap: round"/>
   </g>
   <g id="text_11">
    <!-- PHEV -->
    <g transform="translate(611.774634 94.112974) scale(0.1 -0.1)">
     <defs>
      <path id="DejaVuSans-50" d="M 1259 4147 
L 1259 2394 
L 2053 2394 
Q 2494 2394 2734 2622 
Q 2975 2850 2975 3272 
Q 2975 3691 2734 3919 
Q 2494 4147 2053 4147 
L 1259 4147 
z
M 628 4666 
L 2053 4666 
Q 2838 4666 3239 4311 
Q 3641 3956 3641 3272 
Q 3641 2581 3239 2228 
Q 2838 1875 2053 1875 
L 1259 1875 
L 1259 0 
L 628 0 
L 628 4666 
z
" transform="scale(0.015625)"/>
     </defs>
     <use xlink:href="#DejaVuSans-50"/>
     <use xlink:href="#DejaVuSans-48" transform="translate(60.302734 0)"/>
     <use xlink:href="#DejaVuSans-45" transform="translate(135.498047 0)"/>
     <use xlink:href="#DejaVuSans-56" transform="translate(198.681641 0)"/>
    </g>
   </g>
   <g id="patch_14">
    <path d="M 617.334966 105.34478 
L 611.190908 105.34478 
L 607.669268 107.80112 
" style="fill: none; stroke: #000000; stroke-linecap: round"/>
   </g>
   <g id="text_12">
    <!-- Other -->
    <g transform="translate(621.334991 108.104155) scale(0.1 -0.1)">
     <use xlink:href="#DejaVuSans-4f"/>
     <use xlink:href="#DejaVuSans-74" transform="translate(78.710938 0)"/>
     <use xlink:href="#DejaVuSans-68" transform="translate(117.919922 0)"/>
     <use xlink:href="#DejaVuSans-65" transform="translate(181.298828 0)"/>
     <use xlink:href="#DejaVuSans-72" transform="translate(242.822266 0)"/>
    </g>
   </g>
   <g id="patch_15">
    <path d="M 421.803764 297.345724 
L 440.095939 297.345724 
L 442.131857 293.565433 
" style="fill: none; stroke: #000000; stroke-linecap: round"/>
   </g>
   <g id="text_13">
    <!-- ICE -->
    <g transform="translate(401.558102 300.105099) scale(0.1 -0.1)">
     <use xlink:href="#DejaVuSans-49"/>
     <use xlink:href="#DejaVuSans-43" transform="translate(29.492188 0)"/>
     <use xlink:href="#DejaVuSans-45" transform="translate(99.316406 0)"/>
    </g>
   </g>
   <g id="patch_16">
    <path d="M 582.897178 88.916074 
C 571.879631 79.325979 559.229258 71.791376 545.549222 66.671511 
C 531.869189 61.551646 517.380408 58.929201 502.773686 58.929201 
L 502.773689 123.158928 
C 509.692662 123.158928 516.555769 124.401139 523.035785 126.826338 
C 529.515802 129.251537 535.508084 132.82056 540.726922 137.363236 
z
" style="fill: #2ecc71"/>
   </g>
   <g id="patch_17">
    <path d="M 600.997806 108.543822 
C 598.351037 104.954067 595.509465 101.512103 592.485884 98.233433 
C 589.462303 94.954762 586.261274 91.844308 582.897178 88.916074 
L 540.726922 137.363236 
C 542.320441 138.750295 543.836718 140.223667 545.268941 141.776722 
C 546.701163 143.329777 548.047171 144.96018 549.300904 146.660591 
z
" style="fill: #f39c12"/>
   </g>
   <g id="patch_18">
    <path d="M 604.667706 113.80534 
C 604.079237 112.912529 603.479064 112.027495 602.867333 111.150461 
C 602.255602 110.273427 601.632378 109.404475 600.997806 108.543822 
L 549.300904 146.660591 
C 549.60149 147.068268 549.896702 147.479877 550.186469 147.895314 
C 550.476236 148.310751 550.760529 148.729978 551.039277 149.152889 
z
" style="fill: #c7c7c7"/>
   </g>
   <g id="patch_19">
    <path d="M 502.773693 58.929201 
C 489.280525 58.929201 475.880276 61.167043 463.119314 65.551499 
C 450.358352 69.935954 438.412478 76.40659 427.768666 84.699647 
C 417.124853 92.992704 407.92974 102.993929 400.558249 114.295553 
C 393.186757 125.597174 387.7404 138.043534 384.441253 151.127158 
C 381.142107 164.210781 380.035609 177.75144 381.16686 191.197102 
C 382.29811 204.642764 385.651543 217.808187 391.090421 230.156633 
C 396.5293 242.505079 403.978725 253.866451 413.134951 263.777509 
C 422.291177 273.688567 433.028082 282.012792 444.907933 288.41082 
C 456.787785 294.808847 469.646909 299.192524 482.961067 301.383137 
C 496.275224 303.57375 509.861008 303.541119 523.164489 301.286576 
C 536.467969 299.032032 549.305896 294.586636 561.154877 288.131624 
C 573.003862 281.676612 583.700651 273.300916 592.809167 263.34599 
C 601.917683 253.391063 609.312452 241.994048 614.691953 229.619616 
C 620.071455 217.245184 623.361611 204.063781 624.428262 190.61284 
C 625.494912 177.161899 624.323386 163.62674 620.961436 150.559114 
C 617.599486 137.491489 612.093403 125.071424 604.667706 113.80534 
L 551.039277 149.152889 
C 554.556713 154.489455 557.164857 160.372644 558.75736 166.562571 
C 560.349863 172.752499 560.904796 179.16389 560.39954 185.535388 
C 559.894285 191.906887 558.33579 198.150709 555.787605 204.012283 
C 553.23942 209.873856 549.736635 215.272442 545.422075 219.987933 
C 541.107514 224.703425 536.040614 228.67086 530.427937 231.728497 
C 524.815262 234.786134 518.734139 236.891848 512.43249 237.95979 
C 506.130841 239.027731 499.69547 239.043188 493.388764 238.005529 
C 487.082057 236.967871 480.990893 234.891392 475.363595 231.860747 
C 469.736297 228.830103 464.650395 224.887049 460.313235 220.192337 
C 455.976076 215.497626 452.447401 210.115923 449.87109 204.266659 
C 447.294779 198.417395 445.706311 192.181142 445.170455 185.812145 
C 444.6346 179.443146 445.15873 173.02915 446.721484 166.831644 
C 448.284238 160.634138 450.864091 154.738494 454.35585 149.385095 
C 457.847609 144.031694 462.203189 139.294271 467.244995 135.365981 
C 472.286801 131.437691 477.945373 128.372653 483.990039 126.295806 
C 490.034705 124.218959 496.382192 123.158928 502.773692 123.158928 
z
" style="fill: #9e9e9e"/>
   </g>
   <g id="matplotlib.axis_3"/>
   <g id="matplotlib.axis_4"/>
   <g id="text_14">
    <!-- 11.4% -->
    <g transform="translate(519.276838 101.157319) scale(0.09 -0.09)">
     <use xlink:href="#DejaVuSans-31"/>
     <use xlink:href="#DejaVuSans-31" transform="translate(63.623047 0)"/>
     <use xlink:href="#DejaVuSans-2e" transform="translate(127.246094 0)"/>
     <use xlink:href="#DejaVuSans-34" transform="translate(159.033203 0)"/>
     <use xlink:href="#DejaVuSans-25" transform="translate(222.65625 0)"/>
    </g>
   </g>
   <g id="text_15">
    <!-- 3.5% -->
    <g transform="translate(555.934363 123.881902) scale(0.09 -0.09)">
     <defs>
      <path id="DejaVuSans-33" d="M 2597 2516 
Q 3050 2419 3304 2112 
Q 3559 1806 3559 1356 
Q 3559 666 3084 287 
Q 2609 -91 1734 -91 
Q 1441 -91 1130 -33 
Q 819 25 488 141 
L 488 750 
Q 750 597 1062 519 
Q 1375 441 1716 441 
Q 2309 441 2620 675 
Q 2931 909 2931 1356 
Q 2931 1769 2642 2001 
Q 2353 2234 1838 2234 
L 1294 2234 
L 1294 2753 
L 1863 2753 
Q 2328 2753 2575 2939 
Q 2822 3125 2822 3475 
Q 2822 3834 2567 4026 
Q 2313 4219 1838 4219 
Q 1578 4219 1281 4162 
Q 984 4106 628 3988 
L 628 4550 
Q 988 4650 1302 4700 
Q 1616 4750 1894 4750 
Q 2613 4750 3031 4423 
Q 3450 4097 3450 3541 
Q 3450 3153 3228 2886 
Q 3006 2619 2597 2516 
z
" transform="scale(0.015625)"/>
     </defs>
     <use xlink:href="#DejaVuSans-33"/>
     <use xlink:href="#DejaVuSans-2e" transform="translate(63.623047 0)"/>
     <use xlink:href="#DejaVuSans-35" transform="translate(95.410156 0)"/>
     <use xlink:href="#DejaVuSans-25" transform="translate(159.033203 0)"/>
    </g>
   </g>
   <g id="text_16">
    <!-- 84.3% -->
    <g transform="translate(446.81511 260.809616) scale(0.09 -0.09)">
     <defs>
      <path id="DejaVuSans-38" d="M 2034 2216 
Q 1584 2216 1326 1975 
Q 1069 1734 1069 1313 
Q 1069 891 1326 650 
Q 1584 409 2034 409 
Q 2484 409 2743 651 
Q 3003 894 3003 1313 
Q 3003 1734 2745 1975 
Q 2488 2216 2034 2216 
z
M 1403 2484 
Q 997 2584 770 2862 
Q 544 3141 544 3541 
Q 544 4100 942 4425 
Q 1341 4750 2034 4750 
Q 2731 4750 3128 4425 
Q 3525 4100 3525 3541 
Q 3525 3141 3298 2862 
Q 3072 2584 2669 2484 
Q 3125 2378 3379 2068 
Q 3634 1759 3634 1313 
Q 3634 634 3220 271 
Q 2806 -91 2034 -91 
Q 1263 -91 848 271 
Q 434 634 434 1313 
Q 434 1759 690 2068 
Q 947 2378 1403 2484 
z
M 1172 3481 
Q 1172 3119 1398 2916 
Q 1625 2713 2034 2713 
Q 2441 2713 2670 2916 
Q 2900 3119 2900 3481 
Q 2900 3844 2670 4047 
Q 2441 4250 2034 4250 
Q 1625 4250 1398 4047 
Q 1172 3844 1172 3481 
z
" transform="scale(0.015625)"/>
     </defs>
     <use xlink:href="#DejaVuSans-38"/>
     <use xlink:href="#DejaVuSans-34" transform="translate(63.623047 0)"/>
     <use xlink:href="#DejaVuSans-2e" transform="translate(127.246094 0)"/>
     <use xlink:href="#DejaVuSans-33" transform="translate(159.033203 0)"/>
     <use xlink:href="#DejaVuSans-25" transform="translate(222.65625 0)"/>
    </g>
   </g>
   <g id="text_17">
    <!-- Lastkraftwagen (November - April) -->
    <g transform="translate(398.915564 16.31826) scale(0.12 -0.12)">
     <defs>
      <path id="DejaVuSans-4c" d="M 628 4666 
L 1259 4666 
L 1259 531 
L 3531 531 
L 3531 0 
L 628 0 
L 628 4666 
z
" transform="scale(0.015625)"/>
      <path id="DejaVuSans-6b" d="M 581 4863 
L 1159 4863 
L 1159 1991 
L 2875 3500 
L 3609 3500 
L 1753 1863 
L 3688 0 
L 2938 0 
L 1159 1709 
L 1159 0 
L 581 0 
L 581 4863 
z
" transform="scale(0.015625)"/>
      <path id="DejaVuSans-77" d="M 269 3500 
L 844 3500 
L 1563 769 
L 2278 3500 
L 2956 3500 
L 3675 769 
L 4391 3500 
L 4966 3500 
L 4050 0 
L 3372 0 
L 2619 2869 
L 1863 0 
L 1184 0 
L 269 3500 
z
" transform="scale(0.015625)"/>
      <path id="DejaVuSans-67" d="M 2906 1791 
Q 2906 2416 2648 2759 
Q 2391 3103 1925 3103 
Q 1463 3103 1205 2759 
Q 947 2416 947 1791 
Q 947 1169 1205 825 
Q 1463 481 1925 481 
Q 2391 481 2648 825 
Q 2906 1169 2906 1791 
z
M 3481 434 
Q 3481 -459 3084 -895 
Q 2688 -1331 1869 -1331 
Q 1566 -1331 1297 -1286 
Q 1028 -1241 775 -1147 
L 775 -588 
Q 1028 -725 1275 -790 
Q 1522 -856 1778 -856 
Q 2344 -856 2625 -561 
Q 2906 -266 2906 331 
L 2906 616 
Q 2728 306 2450 153 
Q 2172 0 1784 0 
Q 1141 0 747 490 
Q 353 981 353 1791 
Q 353 2603 747 3093 
Q 1141 3584 1784 3584 
Q 2172 3584 2450 3431 
Q 2728 3278 2906 2969 
L 2906 3500 
L 3481 3500 
L 3481 434 
z
" transform="scale(0.015625)"/>
     </defs>
     <use xlink:href="#DejaVuSans-4c"/>
     <use xlink:href="#DejaVuSans-61" transform="translate(55.712891 0)"/>
     <use xlink:href="#DejaVuSans-73" transform="translate(116.992188 0)"/>
     <use xlink:href="#DejaVuSans-74" transform="translate(169.091797 0)"/>
     <use xlink:href="#DejaVuSans-6b" transform="translate(208.300781 0)"/>
     <use xlink:href="#DejaVuSans-72" transform="translate(266.210938 0)"/>
     <use xlink:href="#DejaVuSans-61" transform="translate(307.324219 0)"/>
     <use xlink:href="#DejaVuSans-66" transform="translate(368.603516 0)"/>
     <use xlink:href="#DejaVuSans-74" transform="translate(402.058594 0)"/>
     <use xlink:href="#DejaVuSans-77" transform="translate(441.267578 0)"/>
     <use xlink:href="#DejaVuSans-61" transform="translate(523.054688 0)"/>
     <use xlink:href="#DejaVuSans-67" transform="translate(584.333984 0)"/>
     <use xlink:href="#DejaVuSans-65" transform="translate(647.810547 0)"/>
     <use xlink:href="#DejaVuSans-6e" transform="translate(709.333984 0)"/>
     <use xlink:href="#DejaVuSans-20" transform="translate(772.712891 0)"/>
     <use xlink:href="#DejaVuSans-28" transform="translate(804.5 0)"/>
     <use xlink:href="#DejaVuSans-4e" transform="translate(843.513672 0)"/>
     <use xlink:href="#DejaVuSans-6f" transform="translate(918.318359 0)"/>
     <use xlink:href="#DejaVuSans-76" transform="translate(979.5 0)"/>
     <use xlink:href="#DejaVuSans-65" transform="translate(1038.679688 0)"/>
     <use xlink:href="#DejaVuSans-6d" transform="translate(1100.203125 0)"/>
     <use xlink:href="#DejaVuSans-62" transform="translate(1197.615234 0)"/>
     <use xlink:href="#DejaVuSans-65" transform="translate(1261.091797 0)"/>
     <use xlink:href="#DejaVuSans-72" transform="translate(1322.615234 0)"/>
     <use xlink:href="#DejaVuSans-20" transform="translate(1363.728516 0)"/>
     <use xlink:href="#DejaVuSans-2d" transform="translate(1395.515625 0)"/>
     <use xlink:href="#DejaVuSans-20" transform="translate(1431.599609 0)"/>
     <use xlink:href="#DejaVuSans-41" transform="translate(1463.386719 0)"/>
     <use xlink:href="#DejaVuSans-70" transform="translate(1531.794922 0)"/>
     <use xlink:href="#DejaVuSans-72" transform="translate(1595.271484 0)"/>
     <use xlink:href="#DejaVuSans-69" transform="translate(1636.384766 0)"/>
     <use xlink:href="#DejaVuSans-6c" transform="translate(1664.167969 0)"/>
     <use xlink:href="#DejaVuSans-29" transform="translate(1691.951172 0)"/>
    </g>
   </g>
  </g>
  <g id="axes_3">
   <g id="patch_20">
    <path d="M 873.561468 43.456737 
L 860.346368 43.456737 
L 858.294046 55.038333 
" style="fill: none; stroke: #000000; stroke-linecap: round"/>
   </g>
   <g id="text_18">
    <!-- BEV -->
    <g transform="translate(877.561085 46.216112) scale(0.1 -0.1)">
     <use xlink:href="#DejaVuSans-42"/>
     <use xlink:href="#DejaVuSans-45" transform="translate(68.603516 0)"/>
     <use xlink:href="#DejaVuSans-56" transform="translate(131.787109 0)"/>
    </g>
   </g>
   <g id="patch_21">
    <path d="M 901.691433 52.145823 
L 888.933998 52.145823 
L 884.602695 62.682285 
" style="fill: none; stroke: #000000; stroke-linecap: round"/>
   </g>
   <g id="text_19">
    <!-- Gas -->
    <g transform="translate(905.68843 54.905198) scale(0.1 -0.1)">
     <defs>
      <path id="DejaVuSans-47" d="M 3809 666 
L 3809 1919 
L 2778 1919 
L 2778 2438 
L 4434 2438 
L 4434 434 
Q 4069 175 3628 42 
Q 3188 -91 2688 -91 
Q 1594 -91 976 548 
Q 359 1188 359 2328 
Q 359 3472 976 4111 
Q 1594 4750 2688 4750 
Q 3144 4750 3555 4637 
Q 3966 4525 4313 4306 
L 4313 3634 
Q 3963 3931 3569 4081 
Q 3175 4231 2741 4231 
Q 1884 4231 1454 3753 
Q 1025 3275 1025 2328 
Q 1025 1384 1454 906 
Q 1884 428 2741 428 
Q 3075 428 3337 486 
Q 3600 544 3809 666 
z
" transform="scale(0.015625)"/>
     </defs>
     <use xlink:href="#DejaVuSans-47"/>
     <use xlink:href="#DejaVuSans-61" transform="translate(77.490234 0)"/>
     <use xlink:href="#DejaVuSans-73" transform="translate(138.769531 0)"/>
    </g>
   </g>
   <g id="patch_22">
    <path d="M 897.272092 60.83491 
L 891.128033 60.83491 
L 889.336666 64.737035 
" style="fill: none; stroke: #000000; stroke-linecap: round"/>
   </g>
   <g id="text_20">
    <!-- Other -->
    <g transform="translate(901.272121 63.594285) scale(0.1 -0.1)">
     <use xlink:href="#DejaVuSans-4f"/>
     <use xlink:href="#DejaVuSans-74" transform="translate(78.710938 0)"/>
     <use xlink:href="#DejaVuSans-68" transform="translate(117.919922 0)"/>
     <use xlink:href="#DejaVuSans-65" transform="translate(181.298828 0)"/>
     <use xlink:href="#DejaVuSans-72" transform="translate(242.822266 0)"/>
    </g>
   </g>
   <g id="patch_23">
    <path d="M 789.390023 310.086184 
L 807.682201 310.086184 
L 808.601347 305.892056 
" style="fill: none; stroke: #000000; stroke-linecap: round"/>
   </g>
   <g id="text_21">
    <!-- ICE -->
    <g transform="translate(769.14436 312.845559) scale(0.1 -0.1)">
     <use xlink:href="#DejaVuSans-49"/>
     <use xlink:href="#DejaVuSans-43" transform="translate(29.492188 0)"/>
     <use xlink:href="#DejaVuSans-45" transform="translate(99.316406 0)"/>
    </g>
   </g>
   <g id="patch_24">
    <path d="M 877.913282 66.360183 
C 871.20897 63.907068 864.302316 62.046968 857.272815 60.801306 
C 850.243316 59.555644 843.11805 58.929205 835.979034 58.929205 
L 835.979037 123.158932 
C 839.360676 123.158932 842.735802 123.455667 846.065565 124.045717 
C 849.395328 124.635768 852.666901 125.516868 855.842628 126.67887 
z
" style="fill: #2ecc71"/>
   </g>
   <g id="patch_25">
    <path d="M 886.771444 70.001569 
C 885.319616 69.337014 883.854888 68.701017 882.3781 68.093941 
C 880.901311 67.486865 879.412754 66.908842 877.913282 66.360183 
L 855.842628 126.67887 
C 856.552904 126.938761 857.25801 127.212561 857.957542 127.500124 
C 858.657073 127.787686 859.350892 128.088948 860.038599 128.403737 
z
" style="fill: #f35c12"/>
   </g>
   <g id="patch_26">
    <path d="M 887.01659 70.114111 
C 886.975754 70.095308 886.934907 70.076534 886.89405 70.057775 
C 886.853192 70.039015 886.812323 70.020277 886.771444 70.001569 
L 860.038599 128.403737 
C 860.057963 128.412599 860.077322 128.421474 860.096676 128.43036 
C 860.11603 128.439246 860.135378 128.448139 860.154721 128.457046 
z
" style="fill: #c7c7c7"/>
   </g>
   <g id="patch_27">
    <path d="M 835.979041 58.929205 
C 821.060173 58.929205 806.266972 61.664941 792.334803 67.000413 
C 778.402634 72.335886 765.566227 80.181202 754.463639 90.1464 
C 743.361052 100.111597 734.179359 112.028757 727.374944 125.305522 
C 720.570528 138.582291 716.258056 152.994978 714.651875 167.827132 
C 713.045694 182.659287 714.172879 197.661036 717.97739 212.086649 
C 721.781901 226.512263 728.199641 240.118691 736.911604 252.22961 
C 745.623567 264.340533 756.482943 274.751863 768.949977 282.946118 
C 781.417006 291.140373 795.281637 296.979471 809.854662 300.173153 
C 824.427685 303.366843 839.463595 303.86131 854.214958 301.631978 
C 868.966319 299.402654 883.184598 294.487106 896.163062 287.129653 
C 909.141526 279.772199 920.661485 270.096817 930.15032 258.584452 
C 939.639154 247.072087 946.936998 233.916685 951.681062 219.7722 
C 956.425126 205.627716 958.535508 190.732436 957.907279 175.8268 
C 957.279051 160.921166 953.922825 146.256342 948.005416 132.561202 
C 942.088006 118.866058 933.709103 106.371377 923.285225 95.698265 
C 912.861347 85.025152 900.56811 76.353414 887.01659 70.114111 
L 860.154721 128.457046 
C 866.573862 131.412506 872.396975 135.520171 877.334601 140.575856 
C 882.272227 145.63154 886.241182 151.550074 889.044165 158.037247 
C 891.847149 164.524419 893.43694 171.470914 893.734522 178.531478 
C 894.032103 185.592042 893.032449 192.647701 890.785261 199.34772 
C 888.538072 206.047739 885.081199 212.279245 880.586488 217.732471 
C 876.091777 223.185696 870.634954 227.768772 864.487261 231.253882 
C 858.339567 234.738991 851.604593 237.067408 844.617106 238.123404 
C 837.629618 239.179404 830.507345 238.945182 823.604334 237.432382 
C 816.701322 235.919585 810.133866 233.153696 804.228431 229.272207 
C 798.322994 225.390718 793.179079 220.459035 789.05236 214.722282 
C 784.92564 208.985531 781.885658 202.540381 780.083521 195.707196 
C 778.281384 188.87401 777.747455 181.767919 778.508277 174.742161 
C 779.2691 167.716404 781.31185 160.889342 784.534994 154.600346 
C 787.758138 148.311352 792.107361 142.666382 797.366482 137.946025 
C 802.625602 133.225668 808.706006 129.509466 815.305454 126.982137 
C 821.904902 124.454808 828.912208 123.158932 835.97904 123.158932 
z
" style="fill: #9e9e9e"/>
   </g>
   <g id="matplotlib.axis_5"/>
   <g id="matplotlib.axis_6"/>
   <g id="text_22">
    <!-- 5.6% -->
    <g transform="translate(839.878449 96.930771) scale(0.09 -0.09)">
     <use xlink:href="#DejaVuSans-35"/>
     <use xlink:href="#DejaVuSans-2e" transform="translate(63.623047 0)"/>
     <use xlink:href="#DejaVuSans-36" transform="translate(95.410156 0)"/>
     <use xlink:href="#DejaVuSans-25" transform="translate(159.033203 0)"/>
    </g>
   </g>
   <g id="text_23">
    <!-- 93.1% -->
    <g transform="translate(802.874243 269.278499) scale(0.09 -0.09)">
     <use xlink:href="#DejaVuSans-39"/>
     <use xlink:href="#DejaVuSans-33" transform="translate(63.623047 0)"/>
     <use xlink:href="#DejaVuSans-2e" transform="translate(127.246094 0)"/>
     <use xlink:href="#DejaVuSans-31" transform="translate(159.033203 0)"/>
     <use xlink:href="#DejaVuSans-25" transform="translate(222.65625 0)"/>
    </g>
   </g>
   <g id="text_24">
    <!-- Sattelzugmaschinen (November - April) -->
    <g transform="translate(717.461239 16.318264) scale(0.12 -0.12)">
     <defs>
      <path id="DejaVuSans-53" d="M 3425 4513 
L 3425 3897 
Q 3066 4069 2747 4153 
Q 2428 4238 2131 4238 
Q 1616 4238 1336 4038 
Q 1056 3838 1056 3469 
Q 1056 3159 1242 3001 
Q 1428 2844 1947 2747 
L 2328 2669 
Q 3034 2534 3370 2195 
Q 3706 1856 3706 1288 
Q 3706 609 3251 259 
Q 2797 -91 1919 -91 
Q 1588 -91 1214 -16 
Q 841 59 441 206 
L 441 856 
Q 825 641 1194 531 
Q 1563 422 1919 422 
Q 2459 422 2753 634 
Q 3047 847 3047 1241 
Q 3047 1584 2836 1778 
Q 2625 1972 2144 2069 
L 1759 2144 
Q 1053 2284 737 2584 
Q 422 2884 422 3419 
Q 422 4038 858 4394 
Q 1294 4750 2059 4750 
Q 2388 4750 2728 4690 
Q 3069 4631 3425 4513 
z
" transform="scale(0.015625)"/>
      <path id="DejaVuSans-7a" d="M 353 3500 
L 3084 3500 
L 3084 2975 
L 922 459 
L 3084 459 
L 3084 0 
L 275 0 
L 275 525 
L 2438 3041 
L 353 3041 
L 353 3500 
z
" transform="scale(0.015625)"/>
      <path id="DejaVuSans-63" d="M 3122 3366 
L 3122 2828 
Q 2878 2963 2633 3030 
Q 2388 3097 2138 3097 
Q 1578 3097 1268 2742 
Q 959 2388 959 1747 
Q 959 1106 1268 751 
Q 1578 397 2138 397 
Q 2388 397 2633 464 
Q 2878 531 3122 666 
L 3122 134 
Q 2881 22 2623 -34 
Q 2366 -91 2075 -91 
Q 1284 -91 818 406 
Q 353 903 353 1747 
Q 353 2603 823 3093 
Q 1294 3584 2113 3584 
Q 2378 3584 2631 3529 
Q 2884 3475 3122 3366 
z
" transform="scale(0.015625)"/>
     </defs>
     <use xlink:href="#DejaVuSans-53"/>
     <use xlink:href="#DejaVuSans-61" transform="translate(63.476562 0)"/>
     <use xlink:href="#DejaVuSans-74" transform="translate(124.755859 0)"/>
     <use xlink:href="#DejaVuSans-74" transform="translate(163.964844 0)"/>
     <use xlink:href="#DejaVuSans-65" transform="translate(203.173828 0)"/>
     <use xlink:href="#DejaVuSans-6c" transform="translate(264.697266 0)"/>
     <use xlink:href="#DejaVuSans-7a" transform="translate(292.480469 0)"/>
     <use xlink:href="#DejaVuSans-75" transform="translate(344.970703 0)"/>
     <use xlink:href="#DejaVuSans-67" transform="translate(408.349609 0)"/>
     <use xlink:href="#DejaVuSans-6d" transform="translate(471.826172 0)"/>
     <use xlink:href="#DejaVuSans-61" transform="translate(569.238281 0)"/>
     <use xlink:href="#DejaVuSans-73" transform="translate(630.517578 0)"/>
     <use xlink:href="#DejaVuSans-63" transform="translate(682.617188 0)"/>
     <use xlink:href="#DejaVuSans-68" transform="translate(737.597656 0)"/>
     <use xlink:href="#DejaVuSans-69" transform="translate(800.976562 0)"/>
     <use xlink:href="#DejaVuSans-6e" transform="translate(828.759766 0)"/>
     <use xlink:href="#DejaVuSans-65" transform="translate(892.138672 0)"/>
     <use xlink:href="#DejaVuSans-6e" transform="translate(953.662109 0)"/>
     <use xlink:href="#DejaVuSans-20" transform="translate(1017.041016 0)"/>
     <use xlink:href="#DejaVuSans-28" transform="translate(1048.828125 0)"/>
     <use xlink:href="#DejaVuSans-4e" transform="translate(1087.841797 0)"/>
     <use xlink:href="#DejaVuSans-6f" transform="translate(1162.646484 0)"/>
     <use xlink:href="#DejaVuSans-76" transform="translate(1223.828125 0)"/>
     <use xlink:href="#DejaVuSans-65" transform="translate(1283.007812 0)"/>
     <use xlink:href="#DejaVuSans-6d" transform="translate(1344.53125 0)"/>
     <use xlink:href="#DejaVuSans-62" transform="translate(1441.943359 0)"/>
     <use xlink:href="#DejaVuSans-65" transform="translate(1505.419922 0)"/>
     <use xlink:href="#DejaVuSans-72" transform="translate(1566.943359 0)"/>
     <use xlink:href="#DejaVuSans-20" transform="translate(1608.056641 0)"/>
     <use xlink:href="#DejaVuSans-2d" transform="translate(1639.84375 0)"/>
     <use xlink:href="#DejaVuSans-20" transform="translate(1675.927734 0)"/>
     <use xlink:href="#DejaVuSans-41" transform="translate(1707.714844 0)"/>
     <use xlink:href="#DejaVuSans-70" transform="translate(1776.123047 0)"/>
     <use xlink:href="#DejaVuSans-72" transform="translate(1839.599609 0)"/>
     <use xlink:href="#DejaVuSans-69" transform="translate(1880.712891 0)"/>
     <use xlink:href="#DejaVuSans-6c" transform="translate(1908.496094 0)"/>
     <use xlink:href="#DejaVuSans-29" transform="translate(1936.279297 0)"/>
    </g>
   </g>
  </g>
 </g>
</svg>
