<?xml version="1.0" encoding="utf-8" standalone="no"?>
<!DOCTYPE svg PUBLIC "-//W3C//DTD SVG 1.1//EN"
  "http://www.w3.org/Graphics/SVG/1.1/DTD/svg11.dtd">
<svg xmlns:xlink="http://www.w3.org/1999/xlink" width="1000.8pt" height="345.425354pt" viewBox="0 0 1000.8 345.425354" xmlns="http://www.w3.org/2000/svg" version="1.1">
 <metadata>
  <rdf:RDF xmlns:dc="http://purl.org/dc/elements/1.1/" xmlns:cc="http://creativecommons.org/ns#" xmlns:rdf="http://www.w3.org/1999/02/22-rdf-syntax-ns#">
   <cc:Work>
    <dc:type rdf:resource="http://purl.org/dc/dcmitype/StillImage"/>
    <dc:date>2025-10-16T12:01:46.521180</dc:date>
    <dc:format>image/svg+xml</dc:format>
    <dc:creator>
     <cc:Agent>
      <dc:title>Matplotlib v3.10.6, https://matplotlib.org/</dc:title>
     </cc:Agent>
    </dc:creator>
   </cc:Work>
  </rdf:RDF>
 </metadata>
 <defs>
  <style type="text/css">*{stroke-linejoin: round; stroke-linecap: butt}</style>
 </defs>
 <g id="figure_1">
  <g id="patch_1">
   <path d="M 0 345.425354 
L 1000.8 345.425354 
L 1000.8 0 
L 0 0 
z
" style="fill: #ffffff"/>
  </g>
  <g id="axes_1">
   <g id="patch_2">
    <path d="M 257.555532 74.308432 
L 243.205247 74.308432 
L 240.673578 77.745443 
" style="fill: none; stroke: #000000; stroke-linecap: round"/>
   </g>
   <g id="text_1">
    <!-- BEV -->
    <g transform="translate(261.554265 77.067807) scale(0.1 -0.1)">
     <defs>
      <path id="DejaVuSans-42" d="M 1259 2228 
L 1259 519 
L 2272 519 
Q 2781 519 3026 730 
Q 3272 941 3272 1375 
Q 3272 1813 3026 2020 
Q 2781 2228 2272 2228 
L 1259 2228 
z
M 1259 4147 
L 1259 2741 
L 2194 2741 
Q 2656 2741 2882 2914 
Q 3109 3088 3109 3444 
Q 3109 3797 2882 3972 
Q 2656 4147 2194 4147 
L 1259 4147 
z
M 628 4666 
L 2241 4666 
Q 2963 4666 3353 4366 
Q 3744 4066 3744 3513 
Q 3744 3084 3544 2831 
Q 3344 2578 2956 2516 
Q 3422 2416 3680 2098 
Q 3938 1781 3938 1306 
Q 3938 681 3513 340 
Q 3088 0 2303 0 
L 628 0 
L 628 4666 
z
" transform="scale(0.015625)"/>
      <path id="DejaVuSans-45" d="M 628 4666 
L 3578 4666 
L 3578 4134 
L 1259 4134 
L 1259 2753 
L 3481 2753 
L 3481 2222 
L 1259 2222 
L 1259 531 
L 3634 531 
L 3634 0 
L 628 0 
L 628 4666 
z
" transform="scale(0.015625)"/>
      <path id="DejaVuSans-56" d="M 1831 0 
L 50 4666 
L 709 4666 
L 2188 738 
L 3669 4666 
L 4325 4666 
L 2547 0 
L 1831 0 
z
" transform="scale(0.015625)"/>
     </defs>
     <use xlink:href="#DejaVuSans-42"/>
     <use xlink:href="#DejaVuSans-45" transform="translate(68.603516 0)"/>
     <use xlink:href="#DejaVuSans-56" transform="translate(131.787109 0)"/>
    </g>
   </g>
   <g id="patch_3">
    <path d="M 299.473226 144.548577 
L 291.819163 144.548577 
L 287.710662 145.707293 
" style="fill: none; stroke: #000000; stroke-linecap: round"/>
   </g>
   <g id="text_2">
    <!-- PHEV -->
    <g transform="translate(303.479116 147.307952) scale(0.1 -0.1)">
     <defs>
      <path id="DejaVuSans-50" d="M 1259 4147 
L 1259 2394 
L 2053 2394 
Q 2494 2394 2734 2622 
Q 2975 2850 2975 3272 
Q 2975 3691 2734 3919 
Q 2494 4147 2053 4147 
L 1259 4147 
z
M 628 4666 
L 2053 4666 
Q 2838 4666 3239 4311 
Q 3641 3956 3641 3272 
Q 3641 2581 3239 2228 
Q 2838 1875 2053 1875 
L 1259 1875 
L 1259 0 
L 628 0 
L 628 4666 
z
" transform="scale(0.015625)"/>
      <path id="DejaVuSans-48" d="M 628 4666 
L 1259 4666 
L 1259 2753 
L 3553 2753 
L 3553 4666 
L 4184 4666 
L 4184 0 
L 3553 0 
L 3553 2222 
L 1259 2222 
L 1259 0 
L 628 0 
L 628 4666 
z
" transform="scale(0.015625)"/>
     </defs>
     <use xlink:href="#DejaVuSans-50"/>
     <use xlink:href="#DejaVuSans-48" transform="translate(60.302734 0)"/>
     <use xlink:href="#DejaVuSans-45" transform="translate(135.498047 0)"/>
     <use xlink:href="#DejaVuSans-56" transform="translate(198.681641 0)"/>
    </g>
   </g>
   <g id="patch_4">
    <path d="M 297.820334 171.664487 
L 296.478526 171.664487 
L 292.218898 171.943678 
" style="fill: none; stroke: #000000; stroke-linecap: round"/>
   </g>
   <g id="text_3">
    <!-- Hybrid -->
    <g transform="translate(301.822852 174.423862) scale(0.1 -0.1)">
     <defs>
      <path id="DejaVuSans-79" d="M 2059 -325 
Q 1816 -950 1584 -1140 
Q 1353 -1331 966 -1331 
L 506 -1331 
L 506 -850 
L 844 -850 
Q 1081 -850 1212 -737 
Q 1344 -625 1503 -206 
L 1606 56 
L 191 3500 
L 800 3500 
L 1894 763 
L 2988 3500 
L 3597 3500 
L 2059 -325 
z
" transform="scale(0.015625)"/>
      <path id="DejaVuSans-62" d="M 3116 1747 
Q 3116 2381 2855 2742 
Q 2594 3103 2138 3103 
Q 1681 3103 1420 2742 
Q 1159 2381 1159 1747 
Q 1159 1113 1420 752 
Q 1681 391 2138 391 
Q 2594 391 2855 752 
Q 3116 1113 3116 1747 
z
M 1159 2969 
Q 1341 3281 1617 3432 
Q 1894 3584 2278 3584 
Q 2916 3584 3314 3078 
Q 3713 2572 3713 1747 
Q 3713 922 3314 415 
Q 2916 -91 2278 -91 
Q 1894 -91 1617 61 
Q 1341 213 1159 525 
L 1159 0 
L 581 0 
L 581 4863 
L 1159 4863 
L 1159 2969 
z
" transform="scale(0.015625)"/>
      <path id="DejaVuSans-72" d="M 2631 2963 
Q 2534 3019 2420 3045 
Q 2306 3072 2169 3072 
Q 1681 3072 1420 2755 
Q 1159 2438 1159 1844 
L 1159 0 
L 581 0 
L 581 3500 
L 1159 3500 
L 1159 2956 
Q 1341 3275 1631 3429 
Q 1922 3584 2338 3584 
Q 2397 3584 2469 3576 
Q 2541 3569 2628 3553 
L 2631 2963 
z
" transform="scale(0.015625)"/>
      <path id="DejaVuSans-69" d="M 603 3500 
L 1178 3500 
L 1178 0 
L 603 0 
L 603 3500 
z
M 603 4863 
L 1178 4863 
L 1178 4134 
L 603 4134 
L 603 4863 
z
" transform="scale(0.015625)"/>
      <path id="DejaVuSans-64" d="M 2906 2969 
L 2906 4863 
L 3481 4863 
L 3481 0 
L 2906 0 
L 2906 525 
Q 2725 213 2448 61 
Q 2172 -91 1784 -91 
Q 1150 -91 751 415 
Q 353 922 353 1747 
Q 353 2572 751 3078 
Q 1150 3584 1784 3584 
Q 2172 3584 2448 3432 
Q 2725 3281 2906 2969 
z
M 947 1747 
Q 947 1113 1208 752 
Q 1469 391 1925 391 
Q 2381 391 2643 752 
Q 2906 1113 2906 1747 
Q 2906 2381 2643 2742 
Q 2381 3103 1925 3103 
Q 1469 3103 1208 2742 
Q 947 2381 947 1747 
z
" transform="scale(0.015625)"/>
     </defs>
     <use xlink:href="#DejaVuSans-48"/>
     <use xlink:href="#DejaVuSans-79" transform="translate(75.195312 0)"/>
     <use xlink:href="#DejaVuSans-62" transform="translate(134.375 0)"/>
     <use xlink:href="#DejaVuSans-72" transform="translate(197.851562 0)"/>
     <use xlink:href="#DejaVuSans-69" transform="translate(238.964844 0)"/>
     <use xlink:href="#DejaVuSans-64" transform="translate(266.748047 0)"/>
    </g>
   </g>
   <g id="patch_5">
    <path d="M 310.54898 200.008623 
L 295.271972 200.008623 
L 291.05148 199.36845 
" style="fill: none; stroke: #000000; stroke-linecap: round"/>
   </g>
   <g id="text_4">
    <!-- Gas -->
    <g transform="translate(314.555359 202.767998) scale(0.1 -0.1)">
     <defs>
      <path id="DejaVuSans-47" d="M 3809 666 
L 3809 1919 
L 2778 1919 
L 2778 2438 
L 4434 2438 
L 4434 434 
Q 4069 175 3628 42 
Q 3188 -91 2688 -91 
Q 1594 -91 976 548 
Q 359 1188 359 2328 
Q 359 3472 976 4111 
Q 1594 4750 2688 4750 
Q 3144 4750 3555 4637 
Q 3966 4525 4313 4306 
L 4313 3634 
Q 3963 3931 3569 4081 
Q 3175 4231 2741 4231 
Q 1884 4231 1454 3753 
Q 1025 3275 1025 2328 
Q 1025 1384 1454 906 
Q 1884 428 2741 428 
Q 3075 428 3337 486 
Q 3600 544 3809 666 
z
" transform="scale(0.015625)"/>
      <path id="DejaVuSans-61" d="M 2194 1759 
Q 1497 1759 1228 1600 
Q 959 1441 959 1056 
Q 959 750 1161 570 
Q 1363 391 1709 391 
Q 2188 391 2477 730 
Q 2766 1069 2766 1631 
L 2766 1759 
L 2194 1759 
z
M 3341 1997 
L 3341 0 
L 2766 0 
L 2766 531 
Q 2569 213 2275 61 
Q 1981 -91 1556 -91 
Q 1019 -91 701 211 
Q 384 513 384 1019 
Q 384 1609 779 1909 
Q 1175 2209 1959 2209 
L 2766 2209 
L 2766 2266 
Q 2766 2663 2505 2880 
Q 2244 3097 1772 3097 
Q 1472 3097 1187 3025 
Q 903 2953 641 2809 
L 641 3341 
Q 956 3463 1253 3523 
Q 1550 3584 1831 3584 
Q 2591 3584 2966 3190 
Q 3341 2797 3341 1997 
z
" transform="scale(0.015625)"/>
      <path id="DejaVuSans-73" d="M 2834 3397 
L 2834 2853 
Q 2591 2978 2328 3040 
Q 2066 3103 1784 3103 
Q 1356 3103 1142 2972 
Q 928 2841 928 2578 
Q 928 2378 1081 2264 
Q 1234 2150 1697 2047 
L 1894 2003 
Q 2506 1872 2764 1633 
Q 3022 1394 3022 966 
Q 3022 478 2636 193 
Q 2250 -91 1575 -91 
Q 1294 -91 989 -36 
Q 684 19 347 128 
L 347 722 
Q 666 556 975 473 
Q 1284 391 1588 391 
Q 1994 391 2212 530 
Q 2431 669 2431 922 
Q 2431 1156 2273 1281 
Q 2116 1406 1581 1522 
L 1381 1569 
Q 847 1681 609 1914 
Q 372 2147 372 2553 
Q 372 3047 722 3315 
Q 1072 3584 1716 3584 
Q 2034 3584 2315 3537 
Q 2597 3491 2834 3397 
z
" transform="scale(0.015625)"/>
     </defs>
     <use xlink:href="#DejaVuSans-47"/>
     <use xlink:href="#DejaVuSans-61" transform="translate(77.490234 0)"/>
     <use xlink:href="#DejaVuSans-73" transform="translate(138.769531 0)"/>
    </g>
   </g>
   <g id="patch_6">
    <path d="M 300.570947 205.370118 
L 290.359501 203.477538 
" style="fill: none; stroke: #000000; stroke-linecap: round"/>
   </g>
   <g id="text_5">
    <!-- Other -->
    <g transform="translate(304.532115 211.419091) scale(0.1 -0.1)">
     <defs>
      <path id="DejaVuSans-4f" d="M 2522 4238 
Q 1834 4238 1429 3725 
Q 1025 3213 1025 2328 
Q 1025 1447 1429 934 
Q 1834 422 2522 422 
Q 3209 422 3611 934 
Q 4013 1447 4013 2328 
Q 4013 3213 3611 3725 
Q 3209 4238 2522 4238 
z
M 2522 4750 
Q 3503 4750 4090 4092 
Q 4678 3434 4678 2328 
Q 4678 1225 4090 567 
Q 3503 -91 2522 -91 
Q 1538 -91 948 565 
Q 359 1222 359 2328 
Q 359 3434 948 4092 
Q 1538 4750 2522 4750 
z
" transform="scale(0.015625)"/>
      <path id="DejaVuSans-74" d="M 1172 4494 
L 1172 3500 
L 2356 3500 
L 2356 3053 
L 1172 3053 
L 1172 1153 
Q 1172 725 1289 603 
Q 1406 481 1766 481 
L 2356 481 
L 2356 0 
L 1766 0 
Q 1100 0 847 248 
Q 594 497 594 1153 
L 594 3053 
L 172 3053 
L 172 3500 
L 594 3500 
L 594 4494 
L 1172 4494 
z
" transform="scale(0.015625)"/>
      <path id="DejaVuSans-68" d="M 3513 2113 
L 3513 0 
L 2938 0 
L 2938 2094 
Q 2938 2591 2744 2837 
Q 2550 3084 2163 3084 
Q 1697 3084 1428 2787 
Q 1159 2491 1159 1978 
L 1159 0 
L 581 0 
L 581 4863 
L 1159 4863 
L 1159 2956 
Q 1366 3272 1645 3428 
Q 1925 3584 2291 3584 
Q 2894 3584 3203 3211 
Q 3513 2838 3513 2113 
z
" transform="scale(0.015625)"/>
      <path id="DejaVuSans-65" d="M 3597 1894 
L 3597 1613 
L 953 1613 
Q 991 1019 1311 708 
Q 1631 397 2203 397 
Q 2534 397 2845 478 
Q 3156 559 3463 722 
L 3463 178 
Q 3153 47 2828 -22 
Q 2503 -91 2169 -91 
Q 1331 -91 842 396 
Q 353 884 353 1716 
Q 353 2575 817 3079 
Q 1281 3584 2069 3584 
Q 2775 3584 3186 3129 
Q 3597 2675 3597 1894 
z
M 3022 2063 
Q 3016 2534 2758 2815 
Q 2500 3097 2075 3097 
Q 1594 3097 1305 2825 
Q 1016 2553 972 2059 
L 3022 2063 
z
" transform="scale(0.015625)"/>
     </defs>
     <use xlink:href="#DejaVuSans-4f"/>
     <use xlink:href="#DejaVuSans-74" transform="translate(78.710938 0)"/>
     <use xlink:href="#DejaVuSans-68" transform="translate(117.919922 0)"/>
     <use xlink:href="#DejaVuSans-65" transform="translate(181.298828 0)"/>
     <use xlink:href="#DejaVuSans-72" transform="translate(242.822266 0)"/>
    </g>
   </g>
   <g id="patch_7">
    <path d="M 45.850813 264.426497 
L 63.96873 264.426497 
L 67.250741 261.696878 
" style="fill: none; stroke: #000000; stroke-linecap: round"/>
   </g>
   <g id="text_6">
    <!-- ICE -->
    <g transform="translate(25.599403 267.185872) scale(0.1 -0.1)">
     <defs>
      <path id="DejaVuSans-49" d="M 628 4666 
L 1259 4666 
L 1259 0 
L 628 0 
L 628 4666 
z
" transform="scale(0.015625)"/>
      <path id="DejaVuSans-43" d="M 4122 4306 
L 4122 3641 
Q 3803 3938 3442 4084 
Q 3081 4231 2675 4231 
Q 1875 4231 1450 3742 
Q 1025 3253 1025 2328 
Q 1025 1406 1450 917 
Q 1875 428 2675 428 
Q 3081 428 3442 575 
Q 3803 722 4122 1019 
L 4122 359 
Q 3791 134 3420 21 
Q 3050 -91 2638 -91 
Q 1578 -91 968 557 
Q 359 1206 359 2328 
Q 359 3453 968 4101 
Q 1578 4750 2638 4750 
Q 3056 4750 3426 4639 
Q 3797 4528 4122 4306 
z
" transform="scale(0.015625)"/>
     </defs>
     <use xlink:href="#DejaVuSans-49"/>
     <use xlink:href="#DejaVuSans-43" transform="translate(29.492188 0)"/>
     <use xlink:href="#DejaVuSans-45" transform="translate(99.316406 0)"/>
    </g>
   </g>
   <g id="patch_8">
    <path d="M 281.191188 144.241332 
C 273.502908 119.481023 258.08772 97.819775 237.212939 82.443622 
C 216.338162 67.067468 191.080005 58.769119 165.153524 58.769119 
L 165.153527 122.717994 
C 177.434492 122.717994 189.398882 126.648791 199.286934 133.932232 
C 209.174988 141.215673 216.476919 151.476264 220.118736 163.204832 
z
" style="fill: #2ecc71"/>
   </g>
   <g id="patch_9">
    <path d="M 282.917857 150.363653 
C 282.656851 149.335953 282.38241 148.311708 282.094593 147.29119 
C 281.806776 146.270672 281.505619 145.253967 281.191188 144.241332 
L 220.118736 163.204832 
C 220.267677 163.684501 220.410331 164.166098 220.546665 164.649501 
C 220.682999 165.132905 220.812998 165.618073 220.936632 166.104879 
z
" style="fill: #f39c12"/>
   </g>
   <g id="patch_10">
    <path d="M 285.81419 194.553113 
C 286.687186 187.17722 286.882028 179.736788 286.396248 172.325314 
C 285.910474 164.913841 284.746127 157.562497 282.917857 150.363653 
L 220.936632 166.104879 
C 221.802655 169.514857 222.354188 172.997073 222.584291 176.507771 
C 222.814397 180.018469 222.722104 183.542884 222.308579 187.036728 
z
" style="fill: #e74c3c"/>
   </g>
   <g id="patch_11">
    <path d="M 284.621816 202.414121 
C 284.863356 201.110895 285.083553 199.803804 285.28232 198.493372 
C 285.481088 197.182941 285.658404 195.869346 285.81419 194.553113 
L 222.308579 187.036728 
C 222.234786 187.660207 222.150794 188.282436 222.056641 188.903167 
C 221.962488 189.523898 221.858184 190.143046 221.74377 190.760364 
z
" style="fill: #f35c12"/>
   </g>
   <g id="patch_12">
    <path d="M 284.621816 202.414121 
C 284.621816 202.414121 284.621816 202.414121 284.621816 202.414121 
L 221.74377 190.760364 
C 221.74377 190.760364 221.74377 190.760364 221.74377 190.760364 
z
" style="fill: #c7c7c7"/>
   </g>
   <g id="patch_13">
    <path d="M 165.153531 58.769119 
C 142.072284 58.769119 119.461955 65.346049 99.981912 77.726348 
C 80.501865 90.106648 64.947005 107.785134 55.146832 128.682521 
C 45.346659 149.579904 41.701084 172.843477 44.638885 195.736998 
C 47.576693 218.630518 56.977998 240.219829 71.737049 257.965656 
C 86.4961 275.711487 106.010641 288.889696 127.985437 295.950321 
C 149.960231 303.010946 173.498611 303.665853 195.832003 297.838034 
C 218.165393 292.010209 238.382493 279.937461 254.105444 263.039742 
C 269.828394 246.142024 280.415591 225.108872 284.621816 202.414121 
L 221.74377 190.760364 
C 219.751348 201.510509 214.73636 211.47358 207.288647 219.477763 
C 199.840933 227.481945 190.264412 233.200615 179.685438 235.961164 
C 169.106463 238.72171 157.956704 238.411491 147.547591 235.066985 
C 137.138477 231.722478 127.894747 225.480168 120.903618 217.074249 
C 113.912488 208.66833 109.459239 198.441815 108.067645 187.597516 
C 106.676055 176.753216 108.402907 165.733629 113.045094 155.834869 
C 117.687281 145.936106 125.055373 137.562087 134.282763 131.697734 
C 143.510152 125.833382 154.220308 122.717994 165.15353 122.717994 
z
" style="fill: #9e9e9e"/>
   </g>
   <g id="matplotlib.axis_1"/>
   <g id="matplotlib.axis_2"/>
   <g id="text_7">
    <!-- 20.2% -->
    <g transform="translate(202.741074 112.319006) scale(0.09 -0.09)">
     <defs>
      <path id="DejaVuSans-32" d="M 1228 531 
L 3431 531 
L 3431 0 
L 469 0 
L 469 531 
Q 828 903 1448 1529 
Q 2069 2156 2228 2338 
Q 2531 2678 2651 2914 
Q 2772 3150 2772 3378 
Q 2772 3750 2511 3984 
Q 2250 4219 1831 4219 
Q 1534 4219 1204 4116 
Q 875 4013 500 3803 
L 500 4441 
Q 881 4594 1212 4672 
Q 1544 4750 1819 4750 
Q 2544 4750 2975 4387 
Q 3406 4025 3406 3419 
Q 3406 3131 3298 2873 
Q 3191 2616 2906 2266 
Q 2828 2175 2409 1742 
Q 1991 1309 1228 531 
z
" transform="scale(0.015625)"/>
      <path id="DejaVuSans-30" d="M 2034 4250 
Q 1547 4250 1301 3770 
Q 1056 3291 1056 2328 
Q 1056 1369 1301 889 
Q 1547 409 2034 409 
Q 2525 409 2770 889 
Q 3016 1369 3016 2328 
Q 3016 3291 2770 3770 
Q 2525 4250 2034 4250 
z
M 2034 4750 
Q 2819 4750 3233 4129 
Q 3647 3509 3647 2328 
Q 3647 1150 3233 529 
Q 2819 -91 2034 -91 
Q 1250 -91 836 529 
Q 422 1150 422 2328 
Q 422 3509 836 4129 
Q 1250 4750 2034 4750 
z
" transform="scale(0.015625)"/>
      <path id="DejaVuSans-2e" d="M 684 794 
L 1344 794 
L 1344 0 
L 684 0 
L 684 794 
z
" transform="scale(0.015625)"/>
      <path id="DejaVuSans-25" d="M 4653 2053 
Q 4381 2053 4226 1822 
Q 4072 1591 4072 1178 
Q 4072 772 4226 539 
Q 4381 306 4653 306 
Q 4919 306 5073 539 
Q 5228 772 5228 1178 
Q 5228 1588 5073 1820 
Q 4919 2053 4653 2053 
z
M 4653 2450 
Q 5147 2450 5437 2106 
Q 5728 1763 5728 1178 
Q 5728 594 5436 251 
Q 5144 -91 4653 -91 
Q 4153 -91 3862 251 
Q 3572 594 3572 1178 
Q 3572 1766 3864 2108 
Q 4156 2450 4653 2450 
z
M 1428 4353 
Q 1159 4353 1004 4120 
Q 850 3888 850 3481 
Q 850 3069 1003 2837 
Q 1156 2606 1428 2606 
Q 1700 2606 1854 2837 
Q 2009 3069 2009 3481 
Q 2009 3884 1853 4118 
Q 1697 4353 1428 4353 
z
M 4250 4750 
L 4750 4750 
L 1831 -91 
L 1331 -91 
L 4250 4750 
z
M 1428 4750 
Q 1922 4750 2215 4408 
Q 2509 4066 2509 3481 
Q 2509 2891 2217 2550 
Q 1925 2209 1428 2209 
Q 931 2209 642 2551 
Q 353 2894 353 3481 
Q 353 4063 643 4406 
Q 934 4750 1428 4750 
z
" transform="scale(0.015625)"/>
     </defs>
     <use xlink:href="#DejaVuSans-32"/>
     <use xlink:href="#DejaVuSans-30" transform="translate(63.623047 0)"/>
     <use xlink:href="#DejaVuSans-2e" transform="translate(127.246094 0)"/>
     <use xlink:href="#DejaVuSans-32" transform="translate(159.033203 0)"/>
     <use xlink:href="#DejaVuSans-25" transform="translate(222.65625 0)"/>
    </g>
   </g>
   <g id="text_8">
    <!-- 5.8% -->
    <g transform="translate(241.016176 177.033819) scale(0.09 -0.09)">
     <defs>
      <path id="DejaVuSans-35" d="M 691 4666 
L 3169 4666 
L 3169 4134 
L 1269 4134 
L 1269 2991 
Q 1406 3038 1543 3061 
Q 1681 3084 1819 3084 
Q 2600 3084 3056 2656 
Q 3513 2228 3513 1497 
Q 3513 744 3044 326 
Q 2575 -91 1722 -91 
Q 1428 -91 1123 -41 
Q 819 9 494 109 
L 494 744 
Q 775 591 1075 516 
Q 1375 441 1709 441 
Q 2250 441 2565 725 
Q 2881 1009 2881 1497 
Q 2881 1984 2565 2268 
Q 2250 2553 1709 2553 
Q 1456 2553 1204 2497 
Q 953 2441 691 2322 
L 691 4666 
z
" transform="scale(0.015625)"/>
      <path id="DejaVuSans-38" d="M 2034 2216 
Q 1584 2216 1326 1975 
Q 1069 1734 1069 1313 
Q 1069 891 1326 650 
Q 1584 409 2034 409 
Q 2484 409 2743 651 
Q 3003 894 3003 1313 
Q 3003 1734 2745 1975 
Q 2488 2216 2034 2216 
z
M 1403 2484 
Q 997 2584 770 2862 
Q 544 3141 544 3541 
Q 544 4100 942 4425 
Q 1341 4750 2034 4750 
Q 2731 4750 3128 4425 
Q 3525 4100 3525 3541 
Q 3525 3141 3298 2862 
Q 3072 2584 2669 2484 
Q 3125 2378 3379 2068 
Q 3634 1759 3634 1313 
Q 3634 634 3220 271 
Q 2806 -91 2034 -91 
Q 1263 -91 848 271 
Q 434 634 434 1313 
Q 434 1759 690 2068 
Q 947 2378 1403 2484 
z
M 1172 3481 
Q 1172 3119 1398 2916 
Q 1625 2713 2034 2713 
Q 2441 2713 2670 2916 
Q 2900 3119 2900 3481 
Q 2900 3844 2670 4047 
Q 2441 4250 2034 4250 
Q 1625 4250 1398 4047 
Q 1172 3844 1172 3481 
z
" transform="scale(0.015625)"/>
     </defs>
     <use xlink:href="#DejaVuSans-35"/>
     <use xlink:href="#DejaVuSans-2e" transform="translate(63.623047 0)"/>
     <use xlink:href="#DejaVuSans-38" transform="translate(95.410156 0)"/>
     <use xlink:href="#DejaVuSans-25" transform="translate(159.033203 0)"/>
    </g>
   </g>
   <g id="text_9">
    <!-- 72.1% -->
    <g transform="translate(83.598416 238.694847) scale(0.09 -0.09)">
     <defs>
      <path id="DejaVuSans-37" d="M 525 4666 
L 3525 4666 
L 3525 4397 
L 1831 0 
L 1172 0 
L 2766 4134 
L 525 4134 
L 525 4666 
z
" transform="scale(0.015625)"/>
      <path id="DejaVuSans-31" d="M 794 531 
L 1825 531 
L 1825 4091 
L 703 3866 
L 703 4441 
L 1819 4666 
L 2450 4666 
L 2450 531 
L 3481 531 
L 3481 0 
L 794 0 
L 794 531 
z
" transform="scale(0.015625)"/>
     </defs>
     <use xlink:href="#DejaVuSans-37"/>
     <use xlink:href="#DejaVuSans-32" transform="translate(63.623047 0)"/>
     <use xlink:href="#DejaVuSans-2e" transform="translate(127.246094 0)"/>
     <use xlink:href="#DejaVuSans-31" transform="translate(159.033203 0)"/>
     <use xlink:href="#DejaVuSans-25" transform="translate(222.65625 0)"/>
    </g>
   </g>
   <g id="text_10">
    <!-- Kraftomnibusse (September) -->
    <g transform="translate(78.421741 16.318332) scale(0.12 -0.12)">
     <defs>
      <path id="DejaVuSans-4b" d="M 628 4666 
L 1259 4666 
L 1259 2694 
L 3353 4666 
L 4166 4666 
L 1850 2491 
L 4331 0 
L 3500 0 
L 1259 2247 
L 1259 0 
L 628 0 
L 628 4666 
z
" transform="scale(0.015625)"/>
      <path id="DejaVuSans-66" d="M 2375 4863 
L 2375 4384 
L 1825 4384 
Q 1516 4384 1395 4259 
Q 1275 4134 1275 3809 
L 1275 3500 
L 2222 3500 
L 2222 3053 
L 1275 3053 
L 1275 0 
L 697 0 
L 697 3053 
L 147 3053 
L 147 3500 
L 697 3500 
L 697 3744 
Q 697 4328 969 4595 
Q 1241 4863 1831 4863 
L 2375 4863 
z
" transform="scale(0.015625)"/>
      <path id="DejaVuSans-6f" d="M 1959 3097 
Q 1497 3097 1228 2736 
Q 959 2375 959 1747 
Q 959 1119 1226 758 
Q 1494 397 1959 397 
Q 2419 397 2687 759 
Q 2956 1122 2956 1747 
Q 2956 2369 2687 2733 
Q 2419 3097 1959 3097 
z
M 1959 3584 
Q 2709 3584 3137 3096 
Q 3566 2609 3566 1747 
Q 3566 888 3137 398 
Q 2709 -91 1959 -91 
Q 1206 -91 779 398 
Q 353 888 353 1747 
Q 353 2609 779 3096 
Q 1206 3584 1959 3584 
z
" transform="scale(0.015625)"/>
      <path id="DejaVuSans-6d" d="M 3328 2828 
Q 3544 3216 3844 3400 
Q 4144 3584 4550 3584 
Q 5097 3584 5394 3201 
Q 5691 2819 5691 2113 
L 5691 0 
L 5113 0 
L 5113 2094 
Q 5113 2597 4934 2840 
Q 4756 3084 4391 3084 
Q 3944 3084 3684 2787 
Q 3425 2491 3425 1978 
L 3425 0 
L 2847 0 
L 2847 2094 
Q 2847 2600 2669 2842 
Q 2491 3084 2119 3084 
Q 1678 3084 1418 2786 
Q 1159 2488 1159 1978 
L 1159 0 
L 581 0 
L 581 3500 
L 1159 3500 
L 1159 2956 
Q 1356 3278 1631 3431 
Q 1906 3584 2284 3584 
Q 2666 3584 2933 3390 
Q 3200 3197 3328 2828 
z
" transform="scale(0.015625)"/>
      <path id="DejaVuSans-6e" d="M 3513 2113 
L 3513 0 
L 2938 0 
L 2938 2094 
Q 2938 2591 2744 2837 
Q 2550 3084 2163 3084 
Q 1697 3084 1428 2787 
Q 1159 2491 1159 1978 
L 1159 0 
L 581 0 
L 581 3500 
L 1159 3500 
L 1159 2956 
Q 1366 3272 1645 3428 
Q 1925 3584 2291 3584 
Q 2894 3584 3203 3211 
Q 3513 2838 3513 2113 
z
" transform="scale(0.015625)"/>
      <path id="DejaVuSans-75" d="M 544 1381 
L 544 3500 
L 1119 3500 
L 1119 1403 
Q 1119 906 1312 657 
Q 1506 409 1894 409 
Q 2359 409 2629 706 
Q 2900 1003 2900 1516 
L 2900 3500 
L 3475 3500 
L 3475 0 
L 2900 0 
L 2900 538 
Q 2691 219 2414 64 
Q 2138 -91 1772 -91 
Q 1169 -91 856 284 
Q 544 659 544 1381 
z
M 1991 3584 
L 1991 3584 
z
" transform="scale(0.015625)"/>
      <path id="DejaVuSans-20" transform="scale(0.015625)"/>
      <path id="DejaVuSans-28" d="M 1984 4856 
Q 1566 4138 1362 3434 
Q 1159 2731 1159 2009 
Q 1159 1288 1364 580 
Q 1569 -128 1984 -844 
L 1484 -844 
Q 1016 -109 783 600 
Q 550 1309 550 2009 
Q 550 2706 781 3412 
Q 1013 4119 1484 4856 
L 1984 4856 
z
" transform="scale(0.015625)"/>
      <path id="DejaVuSans-53" d="M 3425 4513 
L 3425 3897 
Q 3066 4069 2747 4153 
Q 2428 4238 2131 4238 
Q 1616 4238 1336 4038 
Q 1056 3838 1056 3469 
Q 1056 3159 1242 3001 
Q 1428 2844 1947 2747 
L 2328 2669 
Q 3034 2534 3370 2195 
Q 3706 1856 3706 1288 
Q 3706 609 3251 259 
Q 2797 -91 1919 -91 
Q 1588 -91 1214 -16 
Q 841 59 441 206 
L 441 856 
Q 825 641 1194 531 
Q 1563 422 1919 422 
Q 2459 422 2753 634 
Q 3047 847 3047 1241 
Q 3047 1584 2836 1778 
Q 2625 1972 2144 2069 
L 1759 2144 
Q 1053 2284 737 2584 
Q 422 2884 422 3419 
Q 422 4038 858 4394 
Q 1294 4750 2059 4750 
Q 2388 4750 2728 4690 
Q 3069 4631 3425 4513 
z
" transform="scale(0.015625)"/>
      <path id="DejaVuSans-70" d="M 1159 525 
L 1159 -1331 
L 581 -1331 
L 581 3500 
L 1159 3500 
L 1159 2969 
Q 1341 3281 1617 3432 
Q 1894 3584 2278 3584 
Q 2916 3584 3314 3078 
Q 3713 2572 3713 1747 
Q 3713 922 3314 415 
Q 2916 -91 2278 -91 
Q 1894 -91 1617 61 
Q 1341 213 1159 525 
z
M 3116 1747 
Q 3116 2381 2855 2742 
Q 2594 3103 2138 3103 
Q 1681 3103 1420 2742 
Q 1159 2381 1159 1747 
Q 1159 1113 1420 752 
Q 1681 391 2138 391 
Q 2594 391 2855 752 
Q 3116 1113 3116 1747 
z
" transform="scale(0.015625)"/>
      <path id="DejaVuSans-29" d="M 513 4856 
L 1013 4856 
Q 1481 4119 1714 3412 
Q 1947 2706 1947 2009 
Q 1947 1309 1714 600 
Q 1481 -109 1013 -844 
L 513 -844 
Q 928 -128 1133 580 
Q 1338 1288 1338 2009 
Q 1338 2731 1133 3434 
Q 928 4138 513 4856 
z
" transform="scale(0.015625)"/>
     </defs>
     <use xlink:href="#DejaVuSans-4b"/>
     <use xlink:href="#DejaVuSans-72" transform="translate(65.576172 0)"/>
     <use xlink:href="#DejaVuSans-61" transform="translate(106.689453 0)"/>
     <use xlink:href="#DejaVuSans-66" transform="translate(167.96875 0)"/>
     <use xlink:href="#DejaVuSans-74" transform="translate(201.423828 0)"/>
     <use xlink:href="#DejaVuSans-6f" transform="translate(240.632812 0)"/>
     <use xlink:href="#DejaVuSans-6d" transform="translate(301.814453 0)"/>
     <use xlink:href="#DejaVuSans-6e" transform="translate(399.226562 0)"/>
     <use xlink:href="#DejaVuSans-69" transform="translate(462.605469 0)"/>
     <use xlink:href="#DejaVuSans-62" transform="translate(490.388672 0)"/>
     <use xlink:href="#DejaVuSans-75" transform="translate(553.865234 0)"/>
     <use xlink:href="#DejaVuSans-73" transform="translate(617.244141 0)"/>
     <use xlink:href="#DejaVuSans-73" transform="translate(669.34375 0)"/>
     <use xlink:href="#DejaVuSans-65" transform="translate(721.443359 0)"/>
     <use xlink:href="#DejaVuSans-20" transform="translate(782.966797 0)"/>
     <use xlink:href="#DejaVuSans-28" transform="translate(814.753906 0)"/>
     <use xlink:href="#DejaVuSans-53" transform="translate(853.767578 0)"/>
     <use xlink:href="#DejaVuSans-65" transform="translate(917.244141 0)"/>
     <use xlink:href="#DejaVuSans-70" transform="translate(978.767578 0)"/>
     <use xlink:href="#DejaVuSans-74" transform="translate(1042.244141 0)"/>
     <use xlink:href="#DejaVuSans-65" transform="translate(1081.453125 0)"/>
     <use xlink:href="#DejaVuSans-6d" transform="translate(1142.976562 0)"/>
     <use xlink:href="#DejaVuSans-62" transform="translate(1240.388672 0)"/>
     <use xlink:href="#DejaVuSans-65" transform="translate(1303.865234 0)"/>
     <use xlink:href="#DejaVuSans-72" transform="translate(1365.388672 0)"/>
     <use xlink:href="#DejaVuSans-29" transform="translate(1406.501953 0)"/>
    </g>
   </g>
  </g>
  <g id="axes_2">
   <g id="patch_14">
    <path d="M 556.502788 55.46369 
L 542.152517 55.46369 
L 540.79824 59.511939 
" style="fill: none; stroke: #000000; stroke-linecap: round"/>
   </g>
   <g id="text_11">
    <!-- BEV -->
    <g transform="translate(560.501507 58.223065) scale(0.1 -0.1)">
     <use xlink:href="#DejaVuSans-42"/>
     <use xlink:href="#DejaVuSans-45" transform="translate(68.603516 0)"/>
     <use xlink:href="#DejaVuSans-56" transform="translate(131.787109 0)"/>
    </g>
   </g>
   <g id="patch_15">
    <path d="M 597.455499 82.851965 
L 590.569374 82.851965 
L 586.897633 86.818945 
" style="fill: none; stroke: #000000; stroke-linecap: round"/>
   </g>
   <g id="text_12">
    <!-- PHEV -->
    <g transform="translate(601.456356 85.61134) scale(0.1 -0.1)">
     <use xlink:href="#DejaVuSans-50"/>
     <use xlink:href="#DejaVuSans-48" transform="translate(60.302734 0)"/>
     <use xlink:href="#DejaVuSans-45" transform="translate(135.498047 0)"/>
     <use xlink:href="#DejaVuSans-56" transform="translate(198.681641 0)"/>
    </g>
   </g>
   <g id="patch_16">
    <path d="M 616.670603 91.503052 
L 606.62964 91.503052 
L 598.113371 98.619504 
" style="fill: none; stroke: #000000; stroke-linecap: round"/>
   </g>
   <g id="text_13">
    <!-- Gas -->
    <g transform="translate(620.672257 94.262427) scale(0.1 -0.1)">
     <use xlink:href="#DejaVuSans-47"/>
     <use xlink:href="#DejaVuSans-61" transform="translate(77.490234 0)"/>
     <use xlink:href="#DejaVuSans-73" transform="translate(138.769531 0)"/>
    </g>
   </g>
   <g id="patch_17">
    <path d="M 610.788196 100.154139 
L 604.810211 100.154139 
L 601.42358 102.75282 
" style="fill: none; stroke: #000000; stroke-linecap: round"/>
   </g>
   <g id="text_14">
    <!-- Other -->
    <g transform="translate(614.785764 102.913514) scale(0.1 -0.1)">
     <use xlink:href="#DejaVuSans-4f"/>
     <use xlink:href="#DejaVuSans-74" transform="translate(78.710938 0)"/>
     <use xlink:href="#DejaVuSans-68" transform="translate(117.919922 0)"/>
     <use xlink:href="#DejaVuSans-65" transform="translate(181.298828 0)"/>
     <use xlink:href="#DejaVuSans-72" transform="translate(242.822266 0)"/>
    </g>
   </g>
   <g id="patch_18">
    <path d="M 423.204883 297.87366 
L 441.322788 297.87366 
L 443.239005 294.059146 
" style="fill: none; stroke: #000000; stroke-linecap: round"/>
   </g>
   <g id="text_15">
    <!-- ICE -->
    <g transform="translate(402.953482 300.633035) scale(0.1 -0.1)">
     <use xlink:href="#DejaVuSans-49"/>
     <use xlink:href="#DejaVuSans-43" transform="translate(29.492188 0)"/>
     <use xlink:href="#DejaVuSans-45" transform="translate(99.316406 0)"/>
    </g>
   </g>
   <g id="patch_19">
    <path d="M 573.511475 83.227228 
C 563.045872 75.34264 551.373393 69.20269 538.947027 65.045649 
C 526.52066 60.888608 513.503255 58.768959 500.399988 58.768959 
L 500.399991 122.717796 
C 506.606801 122.717796 512.772941 123.72184 518.659115 125.690965 
C 524.545288 127.660089 530.074357 130.568487 535.031748 134.303292 
z
" style="fill: #2ecc71"/>
   </g>
   <g id="patch_20">
    <path d="M 591.511863 99.887952 
C 588.802198 96.816658 585.938971 93.884327 582.933147 91.102212 
C 579.927322 88.320097 576.782753 85.691746 573.511475 83.227228 
L 535.031748 134.303292 
C 536.5813 135.470695 538.070833 136.715703 539.494645 138.033547 
C 540.918457 139.351391 542.274722 140.74039 543.558248 142.195214 
z
" style="fill: #f39c12"/>
   </g>
   <g id="patch_21">
    <path d="M 595.692253 104.890635 
C 595.018047 104.038345 594.332441 103.195143 593.635618 102.361248 
C 592.938795 101.527353 592.230811 100.702851 591.511863 99.887952 
L 543.558248 142.195214 
C 543.898802 142.581218 544.234162 142.971772 544.564237 143.366775 
C 544.894311 143.761778 545.219071 144.161189 545.538432 144.564906 
z
" style="fill: #f35c12"/>
   </g>
   <g id="patch_22">
    <path d="M 597.875284 107.735575 
C 597.518472 107.256081 597.158118 106.77923 596.794266 106.305052 
C 596.430414 105.830873 596.063064 105.359389 595.692253 104.890635 
L 545.538432 144.564906 
C 545.71408 144.786947 545.888087 145.010282 546.060438 145.234893 
C 546.232789 145.459503 546.403483 145.68538 546.5725 145.912509 
z
" style="fill: #c7c7c7"/>
   </g>
   <g id="patch_23">
    <path d="M 500.399995 58.768959 
C 486.820588 58.768959 473.33676 61.045458 460.510034 65.503641 
C 447.683308 69.961824 435.69425 76.538939 425.042133 84.961095 
C 414.390017 93.383251 405.224782 103.531873 397.928125 114.984347 
C 390.631468 126.436821 385.306105 139.031907 382.17379 152.245118 
C 379.041474 165.458328 378.14631 179.103643 379.525574 192.612823 
C 380.904838 206.122002 384.53912 219.3049 390.277067 231.61247 
C 396.015015 243.92004 403.775856 255.179055 413.236396 264.92064 
C 422.696936 274.662226 433.723985 282.749252 445.858356 288.844939 
C 457.992723 294.940626 471.06358 298.959161 484.526606 300.733208 
C 497.989633 302.507255 511.655304 302.011821 524.954526 299.26756 
C 538.253749 296.523292 550.999301 291.56882 562.660417 284.610465 
C 574.321529 277.65211 584.734069 268.787808 593.464363 258.386739 
C 602.194658 247.985671 609.119836 236.194233 613.951504 223.503478 
C 618.783171 210.812723 621.453315 197.401297 621.850734 183.827707 
C 622.248161 170.254116 620.367264 156.709441 616.286381 143.757734 
C 612.205498 130.806027 605.982082 118.629616 597.875284 107.735575 
L 546.5725 145.912509 
C 550.412562 151.072844 553.360496 156.840618 555.293545 162.975637 
C 557.226595 169.110656 558.117546 175.526555 557.929292 181.95615 
C 557.741041 188.385745 556.476235 194.738526 554.187551 200.749937 
C 551.898866 206.761347 548.618519 212.346765 544.483116 217.273587 
C 540.347713 222.200408 535.415458 226.399289 529.891773 229.695352 
C 524.368087 232.991414 518.33072 235.33827 512.031088 236.638186 
C 505.731456 237.938099 499.258244 238.172778 492.881021 237.33244 
C 486.503798 236.492102 480.312339 234.588586 474.564481 231.701155 
C 468.816621 228.813724 463.593282 224.983028 459.111974 220.368592 
C 454.630665 215.754157 450.954477 210.42094 448.236502 204.591038 
C 445.518527 198.761136 443.797025 192.516606 443.14369 186.117521 
C 442.490354 179.718436 442.914379 173.254865 444.398107 166.995977 
C 445.881836 160.737087 448.404376 154.770994 451.860687 149.346138 
C 455.316998 143.921282 459.658426 139.11404 464.704165 135.124597 
C 469.749905 131.135155 475.428932 128.019679 481.504749 125.907908 
C 487.580567 123.796137 493.967643 122.717796 500.399994 122.717796 
z
" style="fill: #9e9e9e"/>
   </g>
   <g id="matplotlib.axis_3"/>
   <g id="matplotlib.axis_4"/>
   <g id="text_16">
    <!-- 10.3% -->
    <g transform="translate(513.858622 99.792394) scale(0.09 -0.09)">
     <defs>
      <path id="DejaVuSans-33" d="M 2597 2516 
Q 3050 2419 3304 2112 
Q 3559 1806 3559 1356 
Q 3559 666 3084 287 
Q 2609 -91 1734 -91 
Q 1441 -91 1130 -33 
Q 819 25 488 141 
L 488 750 
Q 750 597 1062 519 
Q 1375 441 1716 441 
Q 2309 441 2620 675 
Q 2931 909 2931 1356 
Q 2931 1769 2642 2001 
Q 2353 2234 1838 2234 
L 1294 2234 
L 1294 2753 
L 1863 2753 
Q 2328 2753 2575 2939 
Q 2822 3125 2822 3475 
Q 2822 3834 2567 4026 
Q 2313 4219 1838 4219 
Q 1578 4219 1281 4162 
Q 984 4106 628 3988 
L 628 4550 
Q 988 4650 1302 4700 
Q 1616 4750 1894 4750 
Q 2613 4750 3031 4423 
Q 3450 4097 3450 3541 
Q 3450 3153 3228 2886 
Q 3006 2619 2597 2516 
z
" transform="scale(0.015625)"/>
     </defs>
     <use xlink:href="#DejaVuSans-31"/>
     <use xlink:href="#DejaVuSans-30" transform="translate(63.623047 0)"/>
     <use xlink:href="#DejaVuSans-2e" transform="translate(127.246094 0)"/>
     <use xlink:href="#DejaVuSans-33" transform="translate(159.033203 0)"/>
     <use xlink:href="#DejaVuSans-25" transform="translate(222.65625 0)"/>
    </g>
   </g>
   <g id="text_17">
    <!-- 3.2% -->
    <g transform="translate(548.391758 118.553122) scale(0.09 -0.09)">
     <use xlink:href="#DejaVuSans-33"/>
     <use xlink:href="#DejaVuSans-2e" transform="translate(63.623047 0)"/>
     <use xlink:href="#DejaVuSans-32" transform="translate(95.410156 0)"/>
     <use xlink:href="#DejaVuSans-25" transform="translate(159.033203 0)"/>
    </g>
   </g>
   <g id="text_18">
    <!-- 85.2% -->
    <g transform="translate(446.83478 260.927884) scale(0.09 -0.09)">
     <use xlink:href="#DejaVuSans-38"/>
     <use xlink:href="#DejaVuSans-35" transform="translate(63.623047 0)"/>
     <use xlink:href="#DejaVuSans-2e" transform="translate(127.246094 0)"/>
     <use xlink:href="#DejaVuSans-32" transform="translate(159.033203 0)"/>
     <use xlink:href="#DejaVuSans-25" transform="translate(222.65625 0)"/>
    </g>
   </g>
   <g id="text_19">
    <!-- Lastkraftwagen (September) -->
    <g transform="translate(414.283125 16.318125) scale(0.12 -0.12)">
     <defs>
      <path id="DejaVuSans-4c" d="M 628 4666 
L 1259 4666 
L 1259 531 
L 3531 531 
L 3531 0 
L 628 0 
L 628 4666 
z
" transform="scale(0.015625)"/>
      <path id="DejaVuSans-6b" d="M 581 4863 
L 1159 4863 
L 1159 1991 
L 2875 3500 
L 3609 3500 
L 1753 1863 
L 3688 0 
L 2938 0 
L 1159 1709 
L 1159 0 
L 581 0 
L 581 4863 
z
" transform="scale(0.015625)"/>
      <path id="DejaVuSans-77" d="M 269 3500 
L 844 3500 
L 1563 769 
L 2278 3500 
L 2956 3500 
L 3675 769 
L 4391 3500 
L 4966 3500 
L 4050 0 
L 3372 0 
L 2619 2869 
L 1863 0 
L 1184 0 
L 269 3500 
z
" transform="scale(0.015625)"/>
      <path id="DejaVuSans-67" d="M 2906 1791 
Q 2906 2416 2648 2759 
Q 2391 3103 1925 3103 
Q 1463 3103 1205 2759 
Q 947 2416 947 1791 
Q 947 1169 1205 825 
Q 1463 481 1925 481 
Q 2391 481 2648 825 
Q 2906 1169 2906 1791 
z
M 3481 434 
Q 3481 -459 3084 -895 
Q 2688 -1331 1869 -1331 
Q 1566 -1331 1297 -1286 
Q 1028 -1241 775 -1147 
L 775 -588 
Q 1028 -725 1275 -790 
Q 1522 -856 1778 -856 
Q 2344 -856 2625 -561 
Q 2906 -266 2906 331 
L 2906 616 
Q 2728 306 2450 153 
Q 2172 0 1784 0 
Q 1141 0 747 490 
Q 353 981 353 1791 
Q 353 2603 747 3093 
Q 1141 3584 1784 3584 
Q 2172 3584 2450 3431 
Q 2728 3278 2906 2969 
L 2906 3500 
L 3481 3500 
L 3481 434 
z
" transform="scale(0.015625)"/>
     </defs>
     <use xlink:href="#DejaVuSans-4c"/>
     <use xlink:href="#DejaVuSans-61" transform="translate(55.712891 0)"/>
     <use xlink:href="#DejaVuSans-73" transform="translate(116.992188 0)"/>
     <use xlink:href="#DejaVuSans-74" transform="translate(169.091797 0)"/>
     <use xlink:href="#DejaVuSans-6b" transform="translate(208.300781 0)"/>
     <use xlink:href="#DejaVuSans-72" transform="translate(266.210938 0)"/>
     <use xlink:href="#DejaVuSans-61" transform="translate(307.324219 0)"/>
     <use xlink:href="#DejaVuSans-66" transform="translate(368.603516 0)"/>
     <use xlink:href="#DejaVuSans-74" transform="translate(402.058594 0)"/>
     <use xlink:href="#DejaVuSans-77" transform="translate(441.267578 0)"/>
     <use xlink:href="#DejaVuSans-61" transform="translate(523.054688 0)"/>
     <use xlink:href="#DejaVuSans-67" transform="translate(584.333984 0)"/>
     <use xlink:href="#DejaVuSans-65" transform="translate(647.810547 0)"/>
     <use xlink:href="#DejaVuSans-6e" transform="translate(709.333984 0)"/>
     <use xlink:href="#DejaVuSans-20" transform="translate(772.712891 0)"/>
     <use xlink:href="#DejaVuSans-28" transform="translate(804.5 0)"/>
     <use xlink:href="#DejaVuSans-53" transform="translate(843.513672 0)"/>
     <use xlink:href="#DejaVuSans-65" transform="translate(906.990234 0)"/>
     <use xlink:href="#DejaVuSans-70" transform="translate(968.513672 0)"/>
     <use xlink:href="#DejaVuSans-74" transform="translate(1031.990234 0)"/>
     <use xlink:href="#DejaVuSans-65" transform="translate(1071.199219 0)"/>
     <use xlink:href="#DejaVuSans-6d" transform="translate(1132.722656 0)"/>
     <use xlink:href="#DejaVuSans-62" transform="translate(1230.134766 0)"/>
     <use xlink:href="#DejaVuSans-65" transform="translate(1293.611328 0)"/>
     <use xlink:href="#DejaVuSans-72" transform="translate(1355.134766 0)"/>
     <use xlink:href="#DejaVuSans-29" transform="translate(1396.248047 0)"/>
    </g>
   </g>
  </g>
  <g id="axes_3">
   <g id="patch_24">
    <path d="M 867.773266 38.899491 
L 854.91953 38.899491 
L 852.847707 54.096728 
" style="fill: none; stroke: #000000; stroke-linecap: round"/>
   </g>
   <g id="text_20">
    <!-- BEV -->
    <g transform="translate(871.772757 41.658866) scale(0.1 -0.1)">
     <use xlink:href="#DejaVuSans-42"/>
     <use xlink:href="#DejaVuSans-45" transform="translate(68.603516 0)"/>
     <use xlink:href="#DejaVuSans-56" transform="translate(131.787109 0)"/>
    </g>
   </g>
   <g id="patch_25">
    <path d="M 890.519806 47.550579 
L 877.506686 47.550579 
L 873.94991 58.8276 
" style="fill: none; stroke: #000000; stroke-linecap: round"/>
   </g>
   <g id="text_21">
    <!-- Gas -->
    <g transform="translate(894.516245 50.309954) scale(0.1 -0.1)">
     <use xlink:href="#DejaVuSans-47"/>
     <use xlink:href="#DejaVuSans-61" transform="translate(77.490234 0)"/>
     <use xlink:href="#DejaVuSans-73" transform="translate(138.769531 0)"/>
    </g>
   </g>
   <g id="patch_26">
    <path d="M 885.521264 56.201667 
L 879.543278 56.201667 
L 878.119448 60.225978 
" style="fill: none; stroke: #000000; stroke-linecap: round"/>
   </g>
   <g id="text_22">
    <!-- Other -->
    <g transform="translate(889.518835 58.961042) scale(0.1 -0.1)">
     <use xlink:href="#DejaVuSans-4f"/>
     <use xlink:href="#DejaVuSans-74" transform="translate(78.710938 0)"/>
     <use xlink:href="#DejaVuSans-68" transform="translate(117.919922 0)"/>
     <use xlink:href="#DejaVuSans-65" transform="translate(181.298828 0)"/>
     <use xlink:href="#DejaVuSans-72" transform="translate(242.822266 0)"/>
    </g>
   </g>
   <g id="patch_27">
    <path d="M 795.258917 309.980631 
L 813.376823 309.980631 
L 814.099154 305.773426 
" style="fill: none; stroke: #000000; stroke-linecap: round"/>
   </g>
   <g id="text_23">
    <!-- ICE -->
    <g transform="translate(775.007515 312.740006) scale(0.1 -0.1)">
     <use xlink:href="#DejaVuSans-49"/>
     <use xlink:href="#DejaVuSans-43" transform="translate(29.492188 0)"/>
     <use xlink:href="#DejaVuSans-45" transform="translate(99.316406 0)"/>
    </g>
   </g>
   <g id="patch_28">
    <path d="M 868.170612 63.202958 
C 862.881227 61.733457 857.49832 60.624114 852.058914 59.882564 
C 846.619509 59.141013 841.136104 58.768963 835.646384 58.768963 
L 835.646387 122.717804 
C 838.246781 122.717804 840.844183 122.894038 843.420743 123.245299 
C 845.997304 123.59656 848.547102 124.122038 851.0526 124.818117 
z
" style="fill: #2ecc71"/>
   </g>
   <g id="patch_29">
    <path d="M 876.17316 65.726963 
C 874.854429 65.260389 873.527736 64.816613 872.193681 64.395852 
C 870.859626 63.975092 869.518402 63.577405 868.170612 63.202958 
L 851.0526 124.818117 
C 851.691027 124.995487 852.326344 125.183865 852.958264 125.383173 
C 853.590185 125.58248 854.218619 125.79269 854.843281 126.013699 
z
" style="fill: #f35c12"/>
   </g>
   <g id="patch_30">
    <path d="M 876.17316 65.726963 
C 876.17316 65.726963 876.17316 65.726963 876.17316 65.726963 
L 854.843281 126.013699 
C 854.843281 126.013699 854.843281 126.013699 854.843281 126.013699 
z
" style="fill: #c7c7c7"/>
   </g>
   <g id="patch_31">
    <path d="M 835.646391 58.768963 
C 820.559404 58.768963 805.603551 61.578989 791.545439 67.054996 
C 777.487326 72.531003 764.57134 80.577808 753.459521 90.782941 
C 742.347702 100.988074 733.233226 113.174133 726.583277 126.716484 
C 719.933328 140.258838 715.863496 154.922064 714.582414 169.954563 
C 713.301332 184.987062 714.831254 200.127508 719.093769 214.599832 
C 723.356285 229.072155 730.277278 242.624779 739.502015 254.563012 
C 748.726752 266.501245 760.094855 276.617561 773.023631 284.393422 
C 785.952407 292.169284 800.217095 297.46951 815.086521 300.022427 
C 829.955947 302.575336 845.171619 302.336563 859.953618 299.318339 
C 874.735618 296.300116 888.826973 290.554912 901.505396 282.377206 
C 914.183818 274.1995 925.228901 263.731456 934.074498 251.50965 
C 942.920094 239.287844 949.412448 225.524735 953.218753 210.92579 
C 957.025057 196.326845 958.079164 181.145852 956.327025 166.160952 
C 954.574885 151.176052 950.046967 136.647748 942.975366 123.320721 
C 935.903766 109.993693 926.411396 98.09963 914.984841 88.248181 
C 903.558286 78.396731 890.396173 70.759165 876.17316 65.726963 
L 854.843281 126.013699 
C 861.580497 128.397373 867.815183 132.015168 873.227761 136.681644 
C 878.64034 141.34812 883.136726 146.98215 886.486431 153.294952 
C 889.836137 159.607755 891.98094 166.489583 892.810901 173.587693 
C 893.640862 180.685804 893.141548 187.876801 891.338561 194.79209 
C 889.535575 201.70738 886.46025 208.226747 882.27023 214.016024 
C 878.080211 219.8053 872.848329 224.763848 866.842761 228.637498 
C 860.837192 232.511148 854.16234 235.232561 847.16034 236.662245 
C 840.15834 238.09193 832.950916 238.205033 825.907504 236.99576 
C 818.864092 235.786484 812.107134 233.275851 805.982978 229.592548 
C 799.858821 225.909245 794.47393 221.117306 790.104317 215.462353 
C 785.734705 209.807401 782.45634 203.387737 780.437254 196.532426 
C 778.418167 189.677115 777.693467 182.505324 778.300296 175.384667 
C 778.907124 168.26401 780.834939 161.318271 783.984915 154.903472 
C 787.134891 148.488674 791.452274 142.71633 796.715767 137.88232 
C 801.979261 133.048309 808.097359 129.236665 814.756466 126.642767 
C 821.415571 124.048869 828.499922 122.717804 835.64639 122.717804 
z
" style="fill: #9e9e9e"/>
   </g>
   <g id="matplotlib.axis_5"/>
   <g id="matplotlib.axis_6"/>
   <g id="text_24">
    <!-- 4.3% -->
    <g transform="translate(836.031298 96.074976) scale(0.09 -0.09)">
     <defs>
      <path id="DejaVuSans-34" d="M 2419 4116 
L 825 1625 
L 2419 1625 
L 2419 4116 
z
M 2253 4666 
L 3047 4666 
L 3047 1625 
L 3713 1625 
L 3713 1100 
L 3047 1100 
L 3047 0 
L 2419 0 
L 2419 1100 
L 313 1100 
L 313 1709 
L 2253 4666 
z
" transform="scale(0.015625)"/>
     </defs>
     <use xlink:href="#DejaVuSans-34"/>
     <use xlink:href="#DejaVuSans-2e" transform="translate(63.623047 0)"/>
     <use xlink:href="#DejaVuSans-33" transform="translate(95.410156 0)"/>
     <use xlink:href="#DejaVuSans-25" transform="translate(159.033203 0)"/>
    </g>
   </g>
   <g id="text_25">
    <!-- 94.6% -->
    <g transform="translate(806.548039 268.975675) scale(0.09 -0.09)">
     <defs>
      <path id="DejaVuSans-39" d="M 703 97 
L 703 672 
Q 941 559 1184 500 
Q 1428 441 1663 441 
Q 2288 441 2617 861 
Q 2947 1281 2994 2138 
Q 2813 1869 2534 1725 
Q 2256 1581 1919 1581 
Q 1219 1581 811 2004 
Q 403 2428 403 3163 
Q 403 3881 828 4315 
Q 1253 4750 1959 4750 
Q 2769 4750 3195 4129 
Q 3622 3509 3622 2328 
Q 3622 1225 3098 567 
Q 2575 -91 1691 -91 
Q 1453 -91 1209 -44 
Q 966 3 703 97 
z
M 1959 2075 
Q 2384 2075 2632 2365 
Q 2881 2656 2881 3163 
Q 2881 3666 2632 3958 
Q 2384 4250 1959 4250 
Q 1534 4250 1286 3958 
Q 1038 3666 1038 3163 
Q 1038 2656 1286 2365 
Q 1534 2075 1959 2075 
z
" transform="scale(0.015625)"/>
      <path id="DejaVuSans-36" d="M 2113 2584 
Q 1688 2584 1439 2293 
Q 1191 2003 1191 1497 
Q 1191 994 1439 701 
Q 1688 409 2113 409 
Q 2538 409 2786 701 
Q 3034 994 3034 1497 
Q 3034 2003 2786 2293 
Q 2538 2584 2113 2584 
z
M 3366 4563 
L 3366 3988 
Q 3128 4100 2886 4159 
Q 2644 4219 2406 4219 
Q 1781 4219 1451 3797 
Q 1122 3375 1075 2522 
Q 1259 2794 1537 2939 
Q 1816 3084 2150 3084 
Q 2853 3084 3261 2657 
Q 3669 2231 3669 1497 
Q 3669 778 3244 343 
Q 2819 -91 2113 -91 
Q 1303 -91 875 529 
Q 447 1150 447 2328 
Q 447 3434 972 4092 
Q 1497 4750 2381 4750 
Q 2619 4750 2861 4703 
Q 3103 4656 3366 4563 
z
" transform="scale(0.015625)"/>
     </defs>
     <use xlink:href="#DejaVuSans-39"/>
     <use xlink:href="#DejaVuSans-34" transform="translate(63.623047 0)"/>
     <use xlink:href="#DejaVuSans-2e" transform="translate(127.246094 0)"/>
     <use xlink:href="#DejaVuSans-36" transform="translate(159.033203 0)"/>
     <use xlink:href="#DejaVuSans-25" transform="translate(222.65625 0)"/>
    </g>
   </g>
   <g id="text_26">
    <!-- Sattelzugmaschinen (September) -->
    <g transform="translate(734.869822 16.31813) scale(0.12 -0.12)">
     <defs>
      <path id="DejaVuSans-6c" d="M 603 4863 
L 1178 4863 
L 1178 0 
L 603 0 
L 603 4863 
z
" transform="scale(0.015625)"/>
      <path id="DejaVuSans-7a" d="M 353 3500 
L 3084 3500 
L 3084 2975 
L 922 459 
L 3084 459 
L 3084 0 
L 275 0 
L 275 525 
L 2438 3041 
L 353 3041 
L 353 3500 
z
" transform="scale(0.015625)"/>
      <path id="DejaVuSans-63" d="M 3122 3366 
L 3122 2828 
Q 2878 2963 2633 3030 
Q 2388 3097 2138 3097 
Q 1578 3097 1268 2742 
Q 959 2388 959 1747 
Q 959 1106 1268 751 
Q 1578 397 2138 397 
Q 2388 397 2633 464 
Q 2878 531 3122 666 
L 3122 134 
Q 2881 22 2623 -34 
Q 2366 -91 2075 -91 
Q 1284 -91 818 406 
Q 353 903 353 1747 
Q 353 2603 823 3093 
Q 1294 3584 2113 3584 
Q 2378 3584 2631 3529 
Q 2884 3475 3122 3366 
z
" transform="scale(0.015625)"/>
     </defs>
     <use xlink:href="#DejaVuSans-53"/>
     <use xlink:href="#DejaVuSans-61" transform="translate(63.476562 0)"/>
     <use xlink:href="#DejaVuSans-74" transform="translate(124.755859 0)"/>
     <use xlink:href="#DejaVuSans-74" transform="translate(163.964844 0)"/>
     <use xlink:href="#DejaVuSans-65" transform="translate(203.173828 0)"/>
     <use xlink:href="#DejaVuSans-6c" transform="translate(264.697266 0)"/>
     <use xlink:href="#DejaVuSans-7a" transform="translate(292.480469 0)"/>
     <use xlink:href="#DejaVuSans-75" transform="translate(344.970703 0)"/>
     <use xlink:href="#DejaVuSans-67" transform="translate(408.349609 0)"/>
     <use xlink:href="#DejaVuSans-6d" transform="translate(471.826172 0)"/>
     <use xlink:href="#DejaVuSans-61" transform="translate(569.238281 0)"/>
     <use xlink:href="#DejaVuSans-73" transform="translate(630.517578 0)"/>
     <use xlink:href="#DejaVuSans-63" transform="translate(682.617188 0)"/>
     <use xlink:href="#DejaVuSans-68" transform="translate(737.597656 0)"/>
     <use xlink:href="#DejaVuSans-69" transform="translate(800.976562 0)"/>
     <use xlink:href="#DejaVuSans-6e" transform="translate(828.759766 0)"/>
     <use xlink:href="#DejaVuSans-65" transform="translate(892.138672 0)"/>
     <use xlink:href="#DejaVuSans-6e" transform="translate(953.662109 0)"/>
     <use xlink:href="#DejaVuSans-20" transform="translate(1017.041016 0)"/>
     <use xlink:href="#DejaVuSans-28" transform="translate(1048.828125 0)"/>
     <use xlink:href="#DejaVuSans-53" transform="translate(1087.841797 0)"/>
     <use xlink:href="#DejaVuSans-65" transform="translate(1151.318359 0)"/>
     <use xlink:href="#DejaVuSans-70" transform="translate(1212.841797 0)"/>
     <use xlink:href="#DejaVuSans-74" transform="translate(1276.318359 0)"/>
     <use xlink:href="#DejaVuSans-65" transform="translate(1315.527344 0)"/>
     <use xlink:href="#DejaVuSans-6d" transform="translate(1377.050781 0)"/>
     <use xlink:href="#DejaVuSans-62" transform="translate(1474.462891 0)"/>
     <use xlink:href="#DejaVuSans-65" transform="translate(1537.939453 0)"/>
     <use xlink:href="#DejaVuSans-72" transform="translate(1599.462891 0)"/>
     <use xlink:href="#DejaVuSans-29" transform="translate(1640.576172 0)"/>
    </g>
   </g>
  </g>
 </g>
</svg>
