<?xml version="1.0" encoding="utf-8" standalone="no"?>
<!DOCTYPE svg PUBLIC "-//W3C//DTD SVG 1.1//EN"
  "http://www.w3.org/Graphics/SVG/1.1/DTD/svg11.dtd">
<svg xmlns:xlink="http://www.w3.org/1999/xlink" width="856.558125pt" height="711.034375pt" viewBox="0 0 856.558125 711.034375" xmlns="http://www.w3.org/2000/svg" version="1.1">
 <metadata>
  <rdf:RDF xmlns:dc="http://purl.org/dc/elements/1.1/" xmlns:cc="http://creativecommons.org/ns#" xmlns:rdf="http://www.w3.org/1999/02/22-rdf-syntax-ns#">
   <cc:Work>
    <dc:type rdf:resource="http://purl.org/dc/dcmitype/StillImage"/>
    <dc:date>2025-09-15T10:35:43.962595</dc:date>
    <dc:format>image/svg+xml</dc:format>
    <dc:creator>
     <cc:Agent>
      <dc:title>Matplotlib v3.10.6, https://matplotlib.org/</dc:title>
     </cc:Agent>
    </dc:creator>
   </cc:Work>
  </rdf:RDF>
 </metadata>
 <defs>
  <style type="text/css">*{stroke-linejoin: round; stroke-linecap: butt}</style>
 </defs>
 <g id="figure_1">
  <g id="patch_1">
   <path d="M 0 711.034375 
L 856.558125 711.034375 
L 856.558125 0 
L 0 0 
z
" style="fill: #ffffff"/>
  </g>
  <g id="axes_1">
   <g id="patch_2">
    <path d="M 7.2 331.398125 
L 803.23 331.398125 
L 803.23 22.318125 
L 7.2 22.318125 
z
" style="fill: #ffffff"/>
   </g>
   <g id="FillBetweenPolyCollection_1">
    <defs>
     <path id="m038b1ab1be" d="M 43.383182 -379.691916 
L 43.383182 -379.63625 
L 56.792371 -379.63625 
L 68.903896 -379.63625 
L 82.313085 -379.63625 
L 95.289719 -379.63625 
L 108.698908 -379.63625 
L 121.675542 -379.63625 
L 135.08473 -379.63625 
L 148.493919 -379.63625 
L 161.470553 -379.63625 
L 174.879742 -379.63625 
L 187.856376 -379.63625 
L 201.265565 -379.63625 
L 214.674754 -379.63625 
L 226.786279 -379.63625 
L 240.195468 -379.63625 
L 253.172102 -379.63625 
L 266.581291 -379.63625 
L 279.557925 -379.63625 
L 292.967114 -379.63625 
L 306.376303 -379.63625 
L 319.352937 -379.63625 
L 332.762125 -379.63625 
L 345.73876 -379.63625 
L 359.147948 -379.63625 
L 372.557137 -379.63625 
L 384.668662 -379.63625 
L 398.077851 -379.63625 
L 411.054485 -379.63625 
L 424.463674 -379.63625 
L 437.440308 -379.63625 
L 450.849497 -379.63625 
L 464.258686 -379.63625 
L 477.23532 -379.63625 
L 490.644509 -379.63625 
L 503.621143 -379.63625 
L 517.030332 -379.63625 
L 530.43952 -379.63625 
L 542.9836 -379.63625 
L 556.392789 -379.63625 
L 569.369423 -379.63625 
L 582.778612 -379.63625 
L 595.755246 -379.63625 
L 609.164435 -379.63625 
L 622.573624 -379.63625 
L 635.550258 -379.63625 
L 648.959447 -379.63625 
L 661.936081 -379.63625 
L 675.34527 -379.63625 
L 688.754458 -379.63625 
L 700.865984 -379.63625 
L 714.275172 -379.63625 
L 727.251806 -379.63625 
L 740.660995 -379.63625 
L 753.637629 -379.63625 
L 767.046818 -379.63625 
L 767.046818 -384.757524 
L 767.046818 -384.757524 
L 753.637629 -384.646192 
L 740.660995 -383.532871 
L 727.251806 -382.252553 
L 714.275172 -381.974223 
L 700.865984 -381.640227 
L 688.754458 -383.031877 
L 675.34527 -381.974223 
L 661.936081 -382.642215 
L 648.959447 -380.916568 
L 635.550258 -381.862891 
L 622.573624 -381.139232 
L 609.164435 -380.47124 
L 595.755246 -381.640227 
L 582.778612 -384.367862 
L 569.369423 -381.974223 
L 556.392789 -381.640227 
L 542.9836 -383.254541 
L 530.43952 -381.862891 
L 517.030332 -382.864879 
L 503.621143 -383.143209 
L 490.644509 -381.417563 
L 477.23532 -381.862891 
L 464.258686 -380.693904 
L 450.849497 -381.417563 
L 437.440308 -380.860902 
L 424.463674 -380.359908 
L 411.054485 -381.0279 
L 398.077851 -380.74957 
L 384.668662 -380.47124 
L 372.557137 -379.858914 
L 359.147948 -380.415574 
L 345.73876 -380.19291 
L 332.762125 -380.805236 
L 319.352937 -380.19291 
L 306.376303 -379.691916 
L 292.967114 -379.803248 
L 279.557925 -379.858914 
L 266.581291 -379.803248 
L 253.172102 -379.63625 
L 240.195468 -379.63625 
L 226.786279 -379.63625 
L 214.674754 -379.63625 
L 201.265565 -379.63625 
L 187.856376 -379.63625 
L 174.879742 -379.691916 
L 161.470553 -379.691916 
L 148.493919 -379.691916 
L 135.08473 -379.63625 
L 121.675542 -379.63625 
L 108.698908 -379.63625 
L 95.289719 -379.63625 
L 82.313085 -379.63625 
L 68.903896 -379.63625 
L 56.792371 -379.63625 
L 43.383182 -379.691916 
z
" style="stroke: #2ecc71"/>
    </defs>
    <g clip-path="url(#p7be0e58fc2)">
     <use xlink:href="#m038b1ab1be" x="0" y="711.034375" style="fill: #2ecc71; stroke: #2ecc71"/>
    </g>
   </g>
   <g id="FillBetweenPolyCollection_2">
    <defs>
     <path id="ma76b531181" d="M 43.383182 -379.691916 
L 43.383182 -379.691916 
L 56.792371 -379.63625 
L 68.903896 -379.63625 
L 82.313085 -379.63625 
L 95.289719 -379.63625 
L 108.698908 -379.63625 
L 121.675542 -379.63625 
L 135.08473 -379.63625 
L 148.493919 -379.691916 
L 161.470553 -379.691916 
L 174.879742 -379.691916 
L 187.856376 -379.63625 
L 201.265565 -379.63625 
L 214.674754 -379.63625 
L 226.786279 -379.63625 
L 240.195468 -379.63625 
L 253.172102 -379.63625 
L 266.581291 -379.803248 
L 279.557925 -379.858914 
L 292.967114 -379.803248 
L 306.376303 -379.691916 
L 319.352937 -380.19291 
L 332.762125 -380.805236 
L 345.73876 -380.19291 
L 359.147948 -380.415574 
L 372.557137 -379.858914 
L 384.668662 -380.47124 
L 398.077851 -380.74957 
L 411.054485 -381.0279 
L 424.463674 -380.359908 
L 437.440308 -380.860902 
L 450.849497 -381.417563 
L 464.258686 -380.693904 
L 477.23532 -381.862891 
L 490.644509 -381.417563 
L 503.621143 -383.143209 
L 517.030332 -382.864879 
L 530.43952 -381.862891 
L 542.9836 -383.254541 
L 556.392789 -381.640227 
L 569.369423 -381.974223 
L 582.778612 -384.367862 
L 595.755246 -381.640227 
L 609.164435 -380.47124 
L 622.573624 -381.139232 
L 635.550258 -381.862891 
L 648.959447 -380.916568 
L 661.936081 -382.642215 
L 675.34527 -381.974223 
L 688.754458 -383.031877 
L 700.865984 -381.640227 
L 714.275172 -381.974223 
L 727.251806 -382.252553 
L 740.660995 -383.532871 
L 753.637629 -384.646192 
L 767.046818 -384.757524 
L 767.046818 -384.81319 
L 767.046818 -384.81319 
L 753.637629 -384.757524 
L 740.660995 -383.532871 
L 727.251806 -382.252553 
L 714.275172 -381.974223 
L 700.865984 -381.640227 
L 688.754458 -383.087543 
L 675.34527 -381.974223 
L 661.936081 -382.642215 
L 648.959447 -380.972234 
L 635.550258 -381.862891 
L 622.573624 -381.139232 
L 609.164435 -380.582572 
L 595.755246 -381.640227 
L 582.778612 -384.423528 
L 569.369423 -381.974223 
L 556.392789 -381.640227 
L 542.9836 -383.310207 
L 530.43952 -381.862891 
L 517.030332 -382.864879 
L 503.621143 -383.198875 
L 490.644509 -381.417563 
L 477.23532 -381.862891 
L 464.258686 -380.693904 
L 450.849497 -381.473229 
L 437.440308 -380.860902 
L 424.463674 -380.359908 
L 411.054485 -381.083566 
L 398.077851 -380.74957 
L 384.668662 -380.47124 
L 372.557137 -379.858914 
L 359.147948 -380.415574 
L 345.73876 -380.248576 
L 332.762125 -380.916568 
L 319.352937 -380.19291 
L 306.376303 -379.691916 
L 292.967114 -379.91458 
L 279.557925 -379.858914 
L 266.581291 -379.858914 
L 253.172102 -379.63625 
L 240.195468 -379.63625 
L 226.786279 -379.63625 
L 214.674754 -379.63625 
L 201.265565 -379.63625 
L 187.856376 -379.63625 
L 174.879742 -379.691916 
L 161.470553 -379.747582 
L 148.493919 -379.691916 
L 135.08473 -379.63625 
L 121.675542 -379.63625 
L 108.698908 -379.63625 
L 95.289719 -379.63625 
L 82.313085 -379.63625 
L 68.903896 -379.63625 
L 56.792371 -379.63625 
L 43.383182 -379.691916 
z
" style="stroke: #f39c12"/>
    </defs>
    <g clip-path="url(#p7be0e58fc2)">
     <use xlink:href="#ma76b531181" x="0" y="711.034375" style="fill: #f39c12; stroke: #f39c12"/>
    </g>
   </g>
   <g id="FillBetweenPolyCollection_3">
    <defs>
     <path id="m2c553fc897" d="M 43.383182 -379.691916 
L 43.383182 -379.691916 
L 56.792371 -379.63625 
L 68.903896 -379.63625 
L 82.313085 -379.63625 
L 95.289719 -379.63625 
L 108.698908 -379.63625 
L 121.675542 -379.63625 
L 135.08473 -379.63625 
L 148.493919 -379.691916 
L 161.470553 -379.747582 
L 174.879742 -379.691916 
L 187.856376 -379.63625 
L 201.265565 -379.63625 
L 214.674754 -379.63625 
L 226.786279 -379.63625 
L 240.195468 -379.63625 
L 253.172102 -379.63625 
L 266.581291 -379.858914 
L 279.557925 -379.858914 
L 292.967114 -379.91458 
L 306.376303 -379.691916 
L 319.352937 -380.19291 
L 332.762125 -380.916568 
L 345.73876 -380.248576 
L 359.147948 -380.415574 
L 372.557137 -379.858914 
L 384.668662 -380.47124 
L 398.077851 -380.74957 
L 411.054485 -381.083566 
L 424.463674 -380.359908 
L 437.440308 -380.860902 
L 450.849497 -381.473229 
L 464.258686 -380.693904 
L 477.23532 -381.862891 
L 490.644509 -381.417563 
L 503.621143 -383.198875 
L 517.030332 -382.864879 
L 530.43952 -381.862891 
L 542.9836 -383.310207 
L 556.392789 -381.640227 
L 569.369423 -381.974223 
L 582.778612 -384.423528 
L 595.755246 -381.640227 
L 609.164435 -380.582572 
L 622.573624 -381.139232 
L 635.550258 -381.862891 
L 648.959447 -380.972234 
L 661.936081 -382.642215 
L 675.34527 -381.974223 
L 688.754458 -383.087543 
L 700.865984 -381.640227 
L 714.275172 -381.974223 
L 727.251806 -382.252553 
L 740.660995 -383.532871 
L 753.637629 -384.757524 
L 767.046818 -384.81319 
L 767.046818 -384.81319 
L 767.046818 -384.81319 
L 753.637629 -384.757524 
L 740.660995 -383.532871 
L 727.251806 -382.252553 
L 714.275172 -381.974223 
L 700.865984 -381.640227 
L 688.754458 -383.087543 
L 675.34527 -381.974223 
L 661.936081 -382.642215 
L 648.959447 -380.972234 
L 635.550258 -381.862891 
L 622.573624 -381.139232 
L 609.164435 -380.582572 
L 595.755246 -381.640227 
L 582.778612 -384.423528 
L 569.369423 -381.974223 
L 556.392789 -381.640227 
L 542.9836 -383.310207 
L 530.43952 -381.862891 
L 517.030332 -382.864879 
L 503.621143 -383.198875 
L 490.644509 -381.417563 
L 477.23532 -381.862891 
L 464.258686 -380.693904 
L 450.849497 -381.473229 
L 437.440308 -380.860902 
L 424.463674 -380.359908 
L 411.054485 -381.083566 
L 398.077851 -380.74957 
L 384.668662 -380.47124 
L 372.557137 -379.858914 
L 359.147948 -380.415574 
L 345.73876 -380.248576 
L 332.762125 -380.916568 
L 319.352937 -380.19291 
L 306.376303 -379.691916 
L 292.967114 -379.91458 
L 279.557925 -379.858914 
L 266.581291 -379.858914 
L 253.172102 -379.63625 
L 240.195468 -379.63625 
L 226.786279 -379.63625 
L 214.674754 -379.63625 
L 201.265565 -379.63625 
L 187.856376 -379.63625 
L 174.879742 -379.691916 
L 161.470553 -379.747582 
L 148.493919 -379.691916 
L 135.08473 -379.63625 
L 121.675542 -379.63625 
L 108.698908 -379.63625 
L 95.289719 -379.63625 
L 82.313085 -379.63625 
L 68.903896 -379.63625 
L 56.792371 -379.63625 
L 43.383182 -379.691916 
z
" style="stroke: #f35c12"/>
    </defs>
    <g clip-path="url(#p7be0e58fc2)">
     <use xlink:href="#m2c553fc897" x="0" y="711.034375" style="fill: #f35c12; stroke: #f35c12"/>
    </g>
   </g>
   <g id="FillBetweenPolyCollection_4">
    <defs>
     <path id="ma7b89b7612" d="M 43.383182 -390.82512 
L 43.383182 -379.691916 
L 56.792371 -379.63625 
L 68.903896 -379.63625 
L 82.313085 -379.63625 
L 95.289719 -379.63625 
L 108.698908 -379.63625 
L 121.675542 -379.63625 
L 135.08473 -379.63625 
L 148.493919 -379.691916 
L 161.470553 -379.747582 
L 174.879742 -379.691916 
L 187.856376 -379.63625 
L 201.265565 -379.63625 
L 214.674754 -379.63625 
L 226.786279 -379.63625 
L 240.195468 -379.63625 
L 253.172102 -379.63625 
L 266.581291 -379.858914 
L 279.557925 -379.858914 
L 292.967114 -379.91458 
L 306.376303 -379.691916 
L 319.352937 -380.19291 
L 332.762125 -380.916568 
L 345.73876 -380.248576 
L 359.147948 -380.415574 
L 372.557137 -379.858914 
L 384.668662 -380.47124 
L 398.077851 -380.74957 
L 411.054485 -381.083566 
L 424.463674 -380.359908 
L 437.440308 -380.860902 
L 450.849497 -381.473229 
L 464.258686 -380.693904 
L 477.23532 -381.862891 
L 490.644509 -381.417563 
L 503.621143 -383.198875 
L 517.030332 -382.864879 
L 530.43952 -381.862891 
L 542.9836 -383.310207 
L 556.392789 -381.640227 
L 569.369423 -381.974223 
L 582.778612 -384.423528 
L 595.755246 -381.640227 
L 609.164435 -380.582572 
L 622.573624 -381.139232 
L 635.550258 -381.862891 
L 648.959447 -380.972234 
L 661.936081 -382.642215 
L 675.34527 -381.974223 
L 688.754458 -383.087543 
L 700.865984 -381.640227 
L 714.275172 -381.974223 
L 727.251806 -382.252553 
L 740.660995 -383.532871 
L 753.637629 -384.757524 
L 767.046818 -384.81319 
L 767.046818 -385.64818 
L 767.046818 -385.64818 
L 753.637629 -385.815178 
L 740.660995 -384.423528 
L 727.251806 -384.53486 
L 714.275172 -385.36985 
L 700.865984 -382.864879 
L 688.754458 -383.922533 
L 675.34527 -383.421539 
L 661.936081 -383.532871 
L 648.959447 -381.640227 
L 635.550258 -382.697881 
L 622.573624 -381.695893 
L 609.164435 -381.0279 
L 595.755246 -382.976211 
L 582.778612 -386.427504 
L 569.369423 -382.085555 
L 556.392789 -382.085555 
L 542.9836 -384.25653 
L 530.43952 -382.920545 
L 517.030332 -384.924522 
L 503.621143 -383.365873 
L 490.644509 -382.141221 
L 477.23532 -382.920545 
L 464.258686 -381.640227 
L 450.849497 -385.314184 
L 437.440308 -384.200864 
L 424.463674 -384.033865 
L 411.054485 -385.536848 
L 398.077851 -382.029889 
L 384.668662 -384.145197 
L 372.557137 -381.473229 
L 359.147948 -382.642215 
L 345.73876 -382.085555 
L 332.762125 -384.479194 
L 319.352937 -387.986153 
L 306.376303 -381.306231 
L 292.967114 -383.421539 
L 279.557925 -386.984164 
L 266.581291 -383.699869 
L 253.172102 -381.473229 
L 240.195468 -381.0279 
L 226.786279 -381.807225 
L 214.674754 -385.147186 
L 201.265565 -382.642215 
L 187.856376 -384.200864 
L 174.879742 -383.866867 
L 161.470553 -385.035854 
L 148.493919 -382.920545 
L 135.08473 -381.640227 
L 121.675542 -383.198875 
L 108.698908 -385.870844 
L 95.289719 -386.7615 
L 82.313085 -387.763489 
L 68.903896 -388.709811 
L 56.792371 -388.153151 
L 43.383182 -390.82512 
z
" style="stroke: #c7c7c7"/>
    </defs>
    <g clip-path="url(#p7be0e58fc2)">
     <use xlink:href="#ma7b89b7612" x="0" y="711.034375" style="fill: #c7c7c7; stroke: #c7c7c7"/>
    </g>
   </g>
   <g id="FillBetweenPolyCollection_5">
    <defs>
     <path id="m713ba3d87d" d="M 43.383182 -528.320185 
L 43.383182 -390.82512 
L 56.792371 -388.153151 
L 68.903896 -388.709811 
L 82.313085 -387.763489 
L 95.289719 -386.7615 
L 108.698908 -385.870844 
L 121.675542 -383.198875 
L 135.08473 -381.640227 
L 148.493919 -382.920545 
L 161.470553 -385.035854 
L 174.879742 -383.866867 
L 187.856376 -384.200864 
L 201.265565 -382.642215 
L 214.674754 -385.147186 
L 226.786279 -381.807225 
L 240.195468 -381.0279 
L 253.172102 -381.473229 
L 266.581291 -383.699869 
L 279.557925 -386.984164 
L 292.967114 -383.421539 
L 306.376303 -381.306231 
L 319.352937 -387.986153 
L 332.762125 -384.479194 
L 345.73876 -382.085555 
L 359.147948 -382.642215 
L 372.557137 -381.473229 
L 384.668662 -384.145197 
L 398.077851 -382.029889 
L 411.054485 -385.536848 
L 424.463674 -384.033865 
L 437.440308 -384.200864 
L 450.849497 -385.314184 
L 464.258686 -381.640227 
L 477.23532 -382.920545 
L 490.644509 -382.141221 
L 503.621143 -383.365873 
L 517.030332 -384.924522 
L 530.43952 -382.920545 
L 542.9836 -384.25653 
L 556.392789 -382.085555 
L 569.369423 -382.085555 
L 582.778612 -386.427504 
L 595.755246 -382.976211 
L 609.164435 -381.0279 
L 622.573624 -381.695893 
L 635.550258 -382.697881 
L 648.959447 -381.640227 
L 661.936081 -383.532871 
L 675.34527 -383.421539 
L 688.754458 -383.922533 
L 700.865984 -382.864879 
L 714.275172 -385.36985 
L 727.251806 -384.53486 
L 740.660995 -384.423528 
L 753.637629 -385.815178 
L 767.046818 -385.64818 
L 767.046818 -489.687968 
L 767.046818 -489.687968 
L 753.637629 -513.179028 
L 740.660995 -569.62437 
L 727.251806 -528.932511 
L 714.275172 -506.44344 
L 700.865984 -512.288372 
L 688.754458 -484.232698 
L 675.34527 -520.805272 
L 661.936081 -456.956349 
L 648.959447 -506.16511 
L 635.550258 -507.779424 
L 622.573624 -477.163114 
L 609.164435 -469.53687 
L 595.755246 -498.594531 
L 582.778612 -638.483235 
L 569.369423 -518.912628 
L 556.392789 -565.449419 
L 542.9836 -556.654188 
L 530.43952 -572.296339 
L 517.030332 -581.258568 
L 503.621143 -486.515005 
L 490.644509 -563.779439 
L 477.23532 -554.483213 
L 464.258686 -537.393746 
L 450.849497 -673.998155 
L 437.440308 -575.469302 
L 424.463674 -587.326164 
L 411.054485 -578.530933 
L 398.077851 -576.304293 
L 384.668662 -639.596555 
L 372.557137 -561.274468 
L 359.147948 -582.650219 
L 345.73876 -504.216799 
L 332.762125 -544.630328 
L 319.352937 -528.041855 
L 306.376303 -524.813226 
L 292.967114 -514.68201 
L 279.557925 -531.548814 
L 266.581291 -535.779431 
L 253.172102 -516.240659 
L 240.195468 -512.344038 
L 226.786279 -570.403695 
L 214.674754 -548.582616 
L 201.265565 -539.509055 
L 187.856376 -531.214818 
L 174.879742 -518.4673 
L 161.470553 -516.741653 
L 148.493919 -496.757552 
L 135.08473 -485.624349 
L 121.675542 -505.218787 
L 108.698908 -511.453381 
L 95.289719 -504.884791 
L 82.313085 -535.835097 
L 68.903896 -569.290374 
L 56.792371 -504.996123 
L 43.383182 -528.320185 
z
" style="stroke: #9e9e9e"/>
    </defs>
    <g clip-path="url(#p7be0e58fc2)">
     <use xlink:href="#m713ba3d87d" x="0" y="711.034375" style="fill: #9e9e9e; stroke: #9e9e9e"/>
    </g>
   </g>
   <g id="matplotlib.axis_1">
    <g id="xtick_1">
     <g id="line2d_1">
      <defs>
       <path id="mba9f7733f7" d="M 0 0 
L 0 3.5 
" style="stroke: #000000; stroke-width: 0.8"/>
      </defs>
      <g>
       <use xlink:href="#mba9f7733f7" x="43.383182" y="331.398125" style="stroke: #000000; stroke-width: 0.8"/>
      </g>
     </g>
    </g>
    <g id="xtick_2">
     <g id="line2d_2">
      <g>
       <use xlink:href="#mba9f7733f7" x="201.265565" y="331.398125" style="stroke: #000000; stroke-width: 0.8"/>
      </g>
     </g>
    </g>
    <g id="xtick_3">
     <g id="line2d_3">
      <g>
       <use xlink:href="#mba9f7733f7" x="359.147948" y="331.398125" style="stroke: #000000; stroke-width: 0.8"/>
      </g>
     </g>
    </g>
    <g id="xtick_4">
     <g id="line2d_4">
      <g>
       <use xlink:href="#mba9f7733f7" x="517.030332" y="331.398125" style="stroke: #000000; stroke-width: 0.8"/>
      </g>
     </g>
    </g>
    <g id="xtick_5">
     <g id="line2d_5">
      <g>
       <use xlink:href="#mba9f7733f7" x="675.34527" y="331.398125" style="stroke: #000000; stroke-width: 0.8"/>
      </g>
     </g>
    </g>
    <g id="xtick_6">
     <g id="line2d_6">
      <defs>
       <path id="mf5cf09a597" d="M 0 0 
L 0 2 
" style="stroke: #000000; stroke-width: 0.6"/>
      </defs>
      <g>
       <use xlink:href="#mf5cf09a597" x="96.154828" y="331.398125" style="stroke: #000000; stroke-width: 0.6"/>
      </g>
     </g>
    </g>
    <g id="xtick_7">
     <g id="line2d_7">
      <g>
       <use xlink:href="#mf5cf09a597" x="204.293446" y="331.398125" style="stroke: #000000; stroke-width: 0.6"/>
      </g>
     </g>
    </g>
    <g id="xtick_8">
     <g id="line2d_8">
      <g>
       <use xlink:href="#mf5cf09a597" x="312.432065" y="331.398125" style="stroke: #000000; stroke-width: 0.6"/>
      </g>
     </g>
    </g>
    <g id="xtick_9">
     <g id="line2d_9">
      <g>
       <use xlink:href="#mf5cf09a597" x="420.570684" y="331.398125" style="stroke: #000000; stroke-width: 0.6"/>
      </g>
     </g>
    </g>
    <g id="xtick_10">
     <g id="line2d_10">
      <g>
       <use xlink:href="#mf5cf09a597" x="528.709303" y="331.398125" style="stroke: #000000; stroke-width: 0.6"/>
      </g>
     </g>
    </g>
    <g id="xtick_11">
     <g id="line2d_11">
      <g>
       <use xlink:href="#mf5cf09a597" x="636.847921" y="331.398125" style="stroke: #000000; stroke-width: 0.6"/>
      </g>
     </g>
    </g>
    <g id="xtick_12">
     <g id="line2d_12">
      <g>
       <use xlink:href="#mf5cf09a597" x="744.98654" y="331.398125" style="stroke: #000000; stroke-width: 0.6"/>
      </g>
     </g>
    </g>
   </g>
   <g id="matplotlib.axis_2">
    <g id="ytick_1">
     <g id="line2d_13">
      <defs>
       <path id="md7f8f4194e" d="M 0 0 
L 3.5 0 
" style="stroke: #000000; stroke-width: 0.8"/>
      </defs>
      <g>
       <use xlink:href="#md7f8f4194e" x="803.23" y="331.398125" style="stroke: #000000; stroke-width: 0.8"/>
      </g>
     </g>
     <g id="text_1">
      <!-- 0 -->
      <g transform="translate(810.23 335.197344) scale(0.1 -0.1)">
       <defs>
        <path id="DejaVuSans-30" d="M 2034 4250 
Q 1547 4250 1301 3770 
Q 1056 3291 1056 2328 
Q 1056 1369 1301 889 
Q 1547 409 2034 409 
Q 2525 409 2770 889 
Q 3016 1369 3016 2328 
Q 3016 3291 2770 3770 
Q 2525 4250 2034 4250 
z
M 2034 4750 
Q 2819 4750 3233 4129 
Q 3647 3509 3647 2328 
Q 3647 1150 3233 529 
Q 2819 -91 2034 -91 
Q 1250 -91 836 529 
Q 422 1150 422 2328 
Q 422 3509 836 4129 
Q 1250 4750 2034 4750 
z
" transform="scale(0.015625)"/>
       </defs>
       <use xlink:href="#DejaVuSans-30"/>
      </g>
     </g>
    </g>
    <g id="ytick_2">
     <g id="line2d_14">
      <g>
       <use xlink:href="#md7f8f4194e" x="803.23" y="275.732107" style="stroke: #000000; stroke-width: 0.8"/>
      </g>
     </g>
     <g id="text_2">
      <!-- 1000 -->
      <g transform="translate(810.23 279.531325) scale(0.1 -0.1)">
       <defs>
        <path id="DejaVuSans-31" d="M 794 531 
L 1825 531 
L 1825 4091 
L 703 3866 
L 703 4441 
L 1819 4666 
L 2450 4666 
L 2450 531 
L 3481 531 
L 3481 0 
L 794 0 
L 794 531 
z
" transform="scale(0.015625)"/>
       </defs>
       <use xlink:href="#DejaVuSans-31"/>
       <use xlink:href="#DejaVuSans-30" transform="translate(63.623047 0)"/>
       <use xlink:href="#DejaVuSans-30" transform="translate(127.246094 0)"/>
       <use xlink:href="#DejaVuSans-30" transform="translate(190.869141 0)"/>
      </g>
     </g>
    </g>
    <g id="ytick_3">
     <g id="line2d_15">
      <g>
       <use xlink:href="#md7f8f4194e" x="803.23" y="220.066088" style="stroke: #000000; stroke-width: 0.8"/>
      </g>
     </g>
     <g id="text_3">
      <!-- 2000 -->
      <g transform="translate(810.23 223.865307) scale(0.1 -0.1)">
       <defs>
        <path id="DejaVuSans-32" d="M 1228 531 
L 3431 531 
L 3431 0 
L 469 0 
L 469 531 
Q 828 903 1448 1529 
Q 2069 2156 2228 2338 
Q 2531 2678 2651 2914 
Q 2772 3150 2772 3378 
Q 2772 3750 2511 3984 
Q 2250 4219 1831 4219 
Q 1534 4219 1204 4116 
Q 875 4013 500 3803 
L 500 4441 
Q 881 4594 1212 4672 
Q 1544 4750 1819 4750 
Q 2544 4750 2975 4387 
Q 3406 4025 3406 3419 
Q 3406 3131 3298 2873 
Q 3191 2616 2906 2266 
Q 2828 2175 2409 1742 
Q 1991 1309 1228 531 
z
" transform="scale(0.015625)"/>
       </defs>
       <use xlink:href="#DejaVuSans-32"/>
       <use xlink:href="#DejaVuSans-30" transform="translate(63.623047 0)"/>
       <use xlink:href="#DejaVuSans-30" transform="translate(127.246094 0)"/>
       <use xlink:href="#DejaVuSans-30" transform="translate(190.869141 0)"/>
      </g>
     </g>
    </g>
    <g id="ytick_4">
     <g id="line2d_16">
      <g>
       <use xlink:href="#md7f8f4194e" x="803.23" y="164.40007" style="stroke: #000000; stroke-width: 0.8"/>
      </g>
     </g>
     <g id="text_4">
      <!-- 3000 -->
      <g transform="translate(810.23 168.199289) scale(0.1 -0.1)">
       <defs>
        <path id="DejaVuSans-33" d="M 2597 2516 
Q 3050 2419 3304 2112 
Q 3559 1806 3559 1356 
Q 3559 666 3084 287 
Q 2609 -91 1734 -91 
Q 1441 -91 1130 -33 
Q 819 25 488 141 
L 488 750 
Q 750 597 1062 519 
Q 1375 441 1716 441 
Q 2309 441 2620 675 
Q 2931 909 2931 1356 
Q 2931 1769 2642 2001 
Q 2353 2234 1838 2234 
L 1294 2234 
L 1294 2753 
L 1863 2753 
Q 2328 2753 2575 2939 
Q 2822 3125 2822 3475 
Q 2822 3834 2567 4026 
Q 2313 4219 1838 4219 
Q 1578 4219 1281 4162 
Q 984 4106 628 3988 
L 628 4550 
Q 988 4650 1302 4700 
Q 1616 4750 1894 4750 
Q 2613 4750 3031 4423 
Q 3450 4097 3450 3541 
Q 3450 3153 3228 2886 
Q 3006 2619 2597 2516 
z
" transform="scale(0.015625)"/>
       </defs>
       <use xlink:href="#DejaVuSans-33"/>
       <use xlink:href="#DejaVuSans-30" transform="translate(63.623047 0)"/>
       <use xlink:href="#DejaVuSans-30" transform="translate(127.246094 0)"/>
       <use xlink:href="#DejaVuSans-30" transform="translate(190.869141 0)"/>
      </g>
     </g>
    </g>
    <g id="ytick_5">
     <g id="line2d_17">
      <g>
       <use xlink:href="#md7f8f4194e" x="803.23" y="108.734052" style="stroke: #000000; stroke-width: 0.8"/>
      </g>
     </g>
     <g id="text_5">
      <!-- 4000 -->
      <g transform="translate(810.23 112.533271) scale(0.1 -0.1)">
       <defs>
        <path id="DejaVuSans-34" d="M 2419 4116 
L 825 1625 
L 2419 1625 
L 2419 4116 
z
M 2253 4666 
L 3047 4666 
L 3047 1625 
L 3713 1625 
L 3713 1100 
L 3047 1100 
L 3047 0 
L 2419 0 
L 2419 1100 
L 313 1100 
L 313 1709 
L 2253 4666 
z
" transform="scale(0.015625)"/>
       </defs>
       <use xlink:href="#DejaVuSans-34"/>
       <use xlink:href="#DejaVuSans-30" transform="translate(63.623047 0)"/>
       <use xlink:href="#DejaVuSans-30" transform="translate(127.246094 0)"/>
       <use xlink:href="#DejaVuSans-30" transform="translate(190.869141 0)"/>
      </g>
     </g>
    </g>
    <g id="ytick_6">
     <g id="line2d_18">
      <g>
       <use xlink:href="#md7f8f4194e" x="803.23" y="53.068034" style="stroke: #000000; stroke-width: 0.8"/>
      </g>
     </g>
     <g id="text_6">
      <!-- 5000 -->
      <g transform="translate(810.23 56.867252) scale(0.1 -0.1)">
       <defs>
        <path id="DejaVuSans-35" d="M 691 4666 
L 3169 4666 
L 3169 4134 
L 1269 4134 
L 1269 2991 
Q 1406 3038 1543 3061 
Q 1681 3084 1819 3084 
Q 2600 3084 3056 2656 
Q 3513 2228 3513 1497 
Q 3513 744 3044 326 
Q 2575 -91 1722 -91 
Q 1428 -91 1123 -41 
Q 819 9 494 109 
L 494 744 
Q 775 591 1075 516 
Q 1375 441 1709 441 
Q 2250 441 2565 725 
Q 2881 1009 2881 1497 
Q 2881 1984 2565 2268 
Q 2250 2553 1709 2553 
Q 1456 2553 1204 2497 
Q 953 2441 691 2322 
L 691 4666 
z
" transform="scale(0.015625)"/>
       </defs>
       <use xlink:href="#DejaVuSans-35"/>
       <use xlink:href="#DejaVuSans-30" transform="translate(63.623047 0)"/>
       <use xlink:href="#DejaVuSans-30" transform="translate(127.246094 0)"/>
       <use xlink:href="#DejaVuSans-30" transform="translate(190.869141 0)"/>
      </g>
     </g>
    </g>
    <g id="text_7">
     <!-- Value -->
     <g transform="translate(847.278437 190.589375) rotate(-90) scale(0.1 -0.1)">
      <defs>
       <path id="DejaVuSans-56" d="M 1831 0 
L 50 4666 
L 709 4666 
L 2188 738 
L 3669 4666 
L 4325 4666 
L 2547 0 
L 1831 0 
z
" transform="scale(0.015625)"/>
       <path id="DejaVuSans-61" d="M 2194 1759 
Q 1497 1759 1228 1600 
Q 959 1441 959 1056 
Q 959 750 1161 570 
Q 1363 391 1709 391 
Q 2188 391 2477 730 
Q 2766 1069 2766 1631 
L 2766 1759 
L 2194 1759 
z
M 3341 1997 
L 3341 0 
L 2766 0 
L 2766 531 
Q 2569 213 2275 61 
Q 1981 -91 1556 -91 
Q 1019 -91 701 211 
Q 384 513 384 1019 
Q 384 1609 779 1909 
Q 1175 2209 1959 2209 
L 2766 2209 
L 2766 2266 
Q 2766 2663 2505 2880 
Q 2244 3097 1772 3097 
Q 1472 3097 1187 3025 
Q 903 2953 641 2809 
L 641 3341 
Q 956 3463 1253 3523 
Q 1550 3584 1831 3584 
Q 2591 3584 2966 3190 
Q 3341 2797 3341 1997 
z
" transform="scale(0.015625)"/>
       <path id="DejaVuSans-6c" d="M 603 4863 
L 1178 4863 
L 1178 0 
L 603 0 
L 603 4863 
z
" transform="scale(0.015625)"/>
       <path id="DejaVuSans-75" d="M 544 1381 
L 544 3500 
L 1119 3500 
L 1119 1403 
Q 1119 906 1312 657 
Q 1506 409 1894 409 
Q 2359 409 2629 706 
Q 2900 1003 2900 1516 
L 2900 3500 
L 3475 3500 
L 3475 0 
L 2900 0 
L 2900 538 
Q 2691 219 2414 64 
Q 2138 -91 1772 -91 
Q 1169 -91 856 284 
Q 544 659 544 1381 
z
M 1991 3584 
L 1991 3584 
z
" transform="scale(0.015625)"/>
       <path id="DejaVuSans-65" d="M 3597 1894 
L 3597 1613 
L 953 1613 
Q 991 1019 1311 708 
Q 1631 397 2203 397 
Q 2534 397 2845 478 
Q 3156 559 3463 722 
L 3463 178 
Q 3153 47 2828 -22 
Q 2503 -91 2169 -91 
Q 1331 -91 842 396 
Q 353 884 353 1716 
Q 353 2575 817 3079 
Q 1281 3584 2069 3584 
Q 2775 3584 3186 3129 
Q 3597 2675 3597 1894 
z
M 3022 2063 
Q 3016 2534 2758 2815 
Q 2500 3097 2075 3097 
Q 1594 3097 1305 2825 
Q 1016 2553 972 2059 
L 3022 2063 
z
" transform="scale(0.015625)"/>
      </defs>
      <use xlink:href="#DejaVuSans-56"/>
      <use xlink:href="#DejaVuSans-61" transform="translate(60.658203 0)"/>
      <use xlink:href="#DejaVuSans-6c" transform="translate(121.9375 0)"/>
      <use xlink:href="#DejaVuSans-75" transform="translate(149.720703 0)"/>
      <use xlink:href="#DejaVuSans-65" transform="translate(213.099609 0)"/>
     </g>
    </g>
   </g>
   <g id="line2d_19">
    <path d="M 43.383182 331.342459 
L 56.792371 331.398125 
L 68.903896 331.398125 
L 82.313085 331.398125 
L 95.289719 331.398125 
L 108.698908 331.398125 
L 121.675542 331.398125 
L 135.08473 331.398125 
L 148.493919 331.342459 
L 161.470553 331.342459 
L 174.879742 331.342459 
L 187.856376 331.398125 
L 201.265565 331.398125 
L 214.674754 331.398125 
L 226.786279 331.398125 
L 240.195468 331.398125 
L 253.172102 331.398125 
L 266.581291 331.231127 
L 279.557925 331.175461 
L 292.967114 331.231127 
L 306.376303 331.342459 
L 319.352937 330.841465 
L 332.762125 330.229139 
L 345.73876 330.841465 
L 359.147948 330.618801 
L 372.557137 331.175461 
L 384.668662 330.563135 
L 398.077851 330.284805 
L 411.054485 330.006475 
L 424.463674 330.674467 
L 437.440308 330.173473 
L 450.849497 329.616812 
L 464.258686 330.340471 
L 477.23532 329.171484 
L 490.644509 329.616812 
L 503.621143 327.891166 
L 517.030332 328.169496 
L 530.43952 329.171484 
L 542.9836 327.779834 
L 556.392789 329.394148 
L 569.369423 329.060152 
L 582.778612 326.666513 
L 595.755246 329.394148 
L 609.164435 330.563135 
L 622.573624 329.895143 
L 635.550258 329.171484 
L 648.959447 330.117807 
L 661.936081 328.39216 
L 675.34527 329.060152 
L 688.754458 328.002498 
L 700.865984 329.394148 
L 714.275172 329.060152 
L 727.251806 328.781822 
L 740.660995 327.501504 
L 753.637629 326.388183 
L 767.046818 326.276851 
" clip-path="url(#p7be0e58fc2)" style="fill: none; stroke: #2ecc71; stroke-width: 1.5; stroke-linecap: square"/>
   </g>
   <g id="line2d_20">
    <path d="M 43.383182 331.342459 
L 56.792371 331.398125 
L 68.903896 331.398125 
L 82.313085 331.398125 
L 95.289719 331.398125 
L 108.698908 331.398125 
L 121.675542 331.398125 
L 135.08473 331.398125 
L 148.493919 331.342459 
L 161.470553 331.286793 
L 174.879742 331.342459 
L 187.856376 331.398125 
L 201.265565 331.398125 
L 214.674754 331.398125 
L 226.786279 331.398125 
L 240.195468 331.398125 
L 253.172102 331.398125 
L 266.581291 331.175461 
L 279.557925 331.175461 
L 292.967114 331.119795 
L 306.376303 331.342459 
L 319.352937 330.841465 
L 332.762125 330.117807 
L 345.73876 330.785799 
L 359.147948 330.618801 
L 372.557137 331.175461 
L 384.668662 330.563135 
L 398.077851 330.284805 
L 411.054485 329.950809 
L 424.463674 330.674467 
L 437.440308 330.173473 
L 450.849497 329.561146 
L 464.258686 330.340471 
L 477.23532 329.171484 
L 490.644509 329.616812 
L 503.621143 327.8355 
L 517.030332 328.169496 
L 530.43952 329.171484 
L 542.9836 327.724168 
L 556.392789 329.394148 
L 569.369423 329.060152 
L 582.778612 326.610847 
L 595.755246 329.394148 
L 609.164435 330.451803 
L 622.573624 329.895143 
L 635.550258 329.171484 
L 648.959447 330.062141 
L 661.936081 328.39216 
L 675.34527 329.060152 
L 688.754458 327.946832 
L 700.865984 329.394148 
L 714.275172 329.060152 
L 727.251806 328.781822 
L 740.660995 327.501504 
L 753.637629 326.276851 
L 767.046818 326.221185 
" clip-path="url(#p7be0e58fc2)" style="fill: none; stroke: #f39c12; stroke-width: 1.5; stroke-linecap: square"/>
   </g>
   <g id="line2d_21">
    <path d="M 43.383182 331.342459 
L 56.792371 331.398125 
L 68.903896 331.398125 
L 82.313085 331.398125 
L 95.289719 331.398125 
L 108.698908 331.398125 
L 121.675542 331.398125 
L 135.08473 331.398125 
L 148.493919 331.342459 
L 161.470553 331.286793 
L 174.879742 331.342459 
L 187.856376 331.398125 
L 201.265565 331.398125 
L 214.674754 331.398125 
L 226.786279 331.398125 
L 240.195468 331.398125 
L 253.172102 331.398125 
L 266.581291 331.175461 
L 279.557925 331.175461 
L 292.967114 331.119795 
L 306.376303 331.342459 
L 319.352937 330.841465 
L 332.762125 330.117807 
L 345.73876 330.785799 
L 359.147948 330.618801 
L 372.557137 331.175461 
L 384.668662 330.563135 
L 398.077851 330.284805 
L 411.054485 329.950809 
L 424.463674 330.674467 
L 437.440308 330.173473 
L 450.849497 329.561146 
L 464.258686 330.340471 
L 477.23532 329.171484 
L 490.644509 329.616812 
L 503.621143 327.8355 
L 517.030332 328.169496 
L 530.43952 329.171484 
L 542.9836 327.724168 
L 556.392789 329.394148 
L 569.369423 329.060152 
L 582.778612 326.610847 
L 595.755246 329.394148 
L 609.164435 330.451803 
L 622.573624 329.895143 
L 635.550258 329.171484 
L 648.959447 330.062141 
L 661.936081 328.39216 
L 675.34527 329.060152 
L 688.754458 327.946832 
L 700.865984 329.394148 
L 714.275172 329.060152 
L 727.251806 328.781822 
L 740.660995 327.501504 
L 753.637629 326.276851 
L 767.046818 326.221185 
" clip-path="url(#p7be0e58fc2)" style="fill: none; stroke: #f35c12; stroke-width: 1.5; stroke-linecap: square"/>
   </g>
   <g id="line2d_22">
    <path d="M 43.383182 320.209255 
L 56.792371 322.881224 
L 68.903896 322.324564 
L 82.313085 323.270886 
L 95.289719 324.272875 
L 108.698908 325.163531 
L 121.675542 327.8355 
L 135.08473 329.394148 
L 148.493919 328.11383 
L 161.470553 325.998521 
L 174.879742 327.167508 
L 187.856376 326.833511 
L 201.265565 328.39216 
L 214.674754 325.887189 
L 226.786279 329.22715 
L 240.195468 330.006475 
L 253.172102 329.561146 
L 266.581291 327.334506 
L 279.557925 324.050211 
L 292.967114 327.612836 
L 306.376303 329.728144 
L 319.352937 323.048222 
L 332.762125 326.555181 
L 345.73876 328.94882 
L 359.147948 328.39216 
L 372.557137 329.561146 
L 384.668662 326.889178 
L 398.077851 329.004486 
L 411.054485 325.497527 
L 424.463674 327.00051 
L 437.440308 326.833511 
L 450.849497 325.720191 
L 464.258686 329.394148 
L 477.23532 328.11383 
L 490.644509 328.893154 
L 503.621143 327.668502 
L 517.030332 326.109853 
L 530.43952 328.11383 
L 542.9836 326.777845 
L 556.392789 328.94882 
L 569.369423 328.94882 
L 582.778612 324.606871 
L 595.755246 328.058164 
L 609.164435 330.006475 
L 622.573624 329.338482 
L 635.550258 328.336494 
L 648.959447 329.394148 
L 661.936081 327.501504 
L 675.34527 327.612836 
L 688.754458 327.111842 
L 700.865984 328.169496 
L 714.275172 325.664525 
L 727.251806 326.499515 
L 740.660995 326.610847 
L 753.637629 325.219197 
L 767.046818 325.386195 
" clip-path="url(#p7be0e58fc2)" style="fill: none; stroke: #c7c7c7; stroke-width: 1.5; stroke-linecap: square"/>
   </g>
   <g id="line2d_23">
    <path d="M 43.383182 182.71419 
L 56.792371 206.038252 
L 68.903896 141.744001 
L 82.313085 175.199278 
L 95.289719 206.149584 
L 108.698908 199.580994 
L 121.675542 205.815588 
L 135.08473 225.410026 
L 148.493919 214.276823 
L 161.470553 194.292722 
L 174.879742 192.567075 
L 187.856376 179.819557 
L 201.265565 171.52532 
L 214.674754 162.451759 
L 226.786279 140.63068 
L 240.195468 198.690337 
L 253.172102 194.793716 
L 266.581291 175.254944 
L 279.557925 179.485561 
L 292.967114 196.352365 
L 306.376303 186.221149 
L 319.352937 182.99252 
L 332.762125 166.404047 
L 345.73876 206.817576 
L 359.147948 128.384156 
L 372.557137 149.759907 
L 384.668662 71.43782 
L 398.077851 134.730082 
L 411.054485 132.503442 
L 424.463674 123.708211 
L 437.440308 135.565073 
L 450.849497 37.03622 
L 464.258686 173.640629 
L 477.23532 156.551162 
L 490.644509 147.254936 
L 503.621143 224.51937 
L 517.030332 129.775807 
L 530.43952 138.738036 
L 542.9836 154.380187 
L 556.392789 145.584956 
L 569.369423 192.121747 
L 582.778612 72.55114 
L 595.755246 212.439844 
L 609.164435 241.497505 
L 622.573624 233.871261 
L 635.550258 203.254951 
L 648.959447 204.869265 
L 661.936081 254.078026 
L 675.34527 190.229103 
L 688.754458 226.801677 
L 700.865984 198.746003 
L 714.275172 204.590935 
L 727.251806 182.101864 
L 740.660995 141.410005 
L 753.637629 197.855347 
L 767.046818 221.346407 
" clip-path="url(#p7be0e58fc2)" style="fill: none; stroke: #9e9e9e; stroke-width: 1.5; stroke-linecap: square"/>
   </g>
   <g id="patch_3">
    <path d="M 7.2 331.398125 
L 7.2 22.318125 
" style="fill: none; stroke: #000000; stroke-width: 0.8; stroke-linejoin: miter; stroke-linecap: square"/>
   </g>
   <g id="patch_4">
    <path d="M 803.23 331.398125 
L 803.23 22.318125 
" style="fill: none; stroke: #000000; stroke-width: 0.8; stroke-linejoin: miter; stroke-linecap: square"/>
   </g>
   <g id="patch_5">
    <path d="M 7.2 331.398125 
L 803.23 331.398125 
" style="fill: none; stroke: #000000; stroke-width: 0.8; stroke-linejoin: miter; stroke-linecap: square"/>
   </g>
   <g id="patch_6">
    <path d="M 7.2 22.318125 
L 803.23 22.318125 
" style="fill: none; stroke: #000000; stroke-width: 0.8; stroke-linejoin: miter; stroke-linecap: square"/>
   </g>
   <g id="text_8">
    <!-- Sattelzugmaschinen by Powertype over Time (Absolute) -->
    <g transform="translate(236.790312 16.318125) scale(0.12 -0.12)">
     <defs>
      <path id="DejaVuSans-53" d="M 3425 4513 
L 3425 3897 
Q 3066 4069 2747 4153 
Q 2428 4238 2131 4238 
Q 1616 4238 1336 4038 
Q 1056 3838 1056 3469 
Q 1056 3159 1242 3001 
Q 1428 2844 1947 2747 
L 2328 2669 
Q 3034 2534 3370 2195 
Q 3706 1856 3706 1288 
Q 3706 609 3251 259 
Q 2797 -91 1919 -91 
Q 1588 -91 1214 -16 
Q 841 59 441 206 
L 441 856 
Q 825 641 1194 531 
Q 1563 422 1919 422 
Q 2459 422 2753 634 
Q 3047 847 3047 1241 
Q 3047 1584 2836 1778 
Q 2625 1972 2144 2069 
L 1759 2144 
Q 1053 2284 737 2584 
Q 422 2884 422 3419 
Q 422 4038 858 4394 
Q 1294 4750 2059 4750 
Q 2388 4750 2728 4690 
Q 3069 4631 3425 4513 
z
" transform="scale(0.015625)"/>
      <path id="DejaVuSans-74" d="M 1172 4494 
L 1172 3500 
L 2356 3500 
L 2356 3053 
L 1172 3053 
L 1172 1153 
Q 1172 725 1289 603 
Q 1406 481 1766 481 
L 2356 481 
L 2356 0 
L 1766 0 
Q 1100 0 847 248 
Q 594 497 594 1153 
L 594 3053 
L 172 3053 
L 172 3500 
L 594 3500 
L 594 4494 
L 1172 4494 
z
" transform="scale(0.015625)"/>
      <path id="DejaVuSans-7a" d="M 353 3500 
L 3084 3500 
L 3084 2975 
L 922 459 
L 3084 459 
L 3084 0 
L 275 0 
L 275 525 
L 2438 3041 
L 353 3041 
L 353 3500 
z
" transform="scale(0.015625)"/>
      <path id="DejaVuSans-67" d="M 2906 1791 
Q 2906 2416 2648 2759 
Q 2391 3103 1925 3103 
Q 1463 3103 1205 2759 
Q 947 2416 947 1791 
Q 947 1169 1205 825 
Q 1463 481 1925 481 
Q 2391 481 2648 825 
Q 2906 1169 2906 1791 
z
M 3481 434 
Q 3481 -459 3084 -895 
Q 2688 -1331 1869 -1331 
Q 1566 -1331 1297 -1286 
Q 1028 -1241 775 -1147 
L 775 -588 
Q 1028 -725 1275 -790 
Q 1522 -856 1778 -856 
Q 2344 -856 2625 -561 
Q 2906 -266 2906 331 
L 2906 616 
Q 2728 306 2450 153 
Q 2172 0 1784 0 
Q 1141 0 747 490 
Q 353 981 353 1791 
Q 353 2603 747 3093 
Q 1141 3584 1784 3584 
Q 2172 3584 2450 3431 
Q 2728 3278 2906 2969 
L 2906 3500 
L 3481 3500 
L 3481 434 
z
" transform="scale(0.015625)"/>
      <path id="DejaVuSans-6d" d="M 3328 2828 
Q 3544 3216 3844 3400 
Q 4144 3584 4550 3584 
Q 5097 3584 5394 3201 
Q 5691 2819 5691 2113 
L 5691 0 
L 5113 0 
L 5113 2094 
Q 5113 2597 4934 2840 
Q 4756 3084 4391 3084 
Q 3944 3084 3684 2787 
Q 3425 2491 3425 1978 
L 3425 0 
L 2847 0 
L 2847 2094 
Q 2847 2600 2669 2842 
Q 2491 3084 2119 3084 
Q 1678 3084 1418 2786 
Q 1159 2488 1159 1978 
L 1159 0 
L 581 0 
L 581 3500 
L 1159 3500 
L 1159 2956 
Q 1356 3278 1631 3431 
Q 1906 3584 2284 3584 
Q 2666 3584 2933 3390 
Q 3200 3197 3328 2828 
z
" transform="scale(0.015625)"/>
      <path id="DejaVuSans-73" d="M 2834 3397 
L 2834 2853 
Q 2591 2978 2328 3040 
Q 2066 3103 1784 3103 
Q 1356 3103 1142 2972 
Q 928 2841 928 2578 
Q 928 2378 1081 2264 
Q 1234 2150 1697 2047 
L 1894 2003 
Q 2506 1872 2764 1633 
Q 3022 1394 3022 966 
Q 3022 478 2636 193 
Q 2250 -91 1575 -91 
Q 1294 -91 989 -36 
Q 684 19 347 128 
L 347 722 
Q 666 556 975 473 
Q 1284 391 1588 391 
Q 1994 391 2212 530 
Q 2431 669 2431 922 
Q 2431 1156 2273 1281 
Q 2116 1406 1581 1522 
L 1381 1569 
Q 847 1681 609 1914 
Q 372 2147 372 2553 
Q 372 3047 722 3315 
Q 1072 3584 1716 3584 
Q 2034 3584 2315 3537 
Q 2597 3491 2834 3397 
z
" transform="scale(0.015625)"/>
      <path id="DejaVuSans-63" d="M 3122 3366 
L 3122 2828 
Q 2878 2963 2633 3030 
Q 2388 3097 2138 3097 
Q 1578 3097 1268 2742 
Q 959 2388 959 1747 
Q 959 1106 1268 751 
Q 1578 397 2138 397 
Q 2388 397 2633 464 
Q 2878 531 3122 666 
L 3122 134 
Q 2881 22 2623 -34 
Q 2366 -91 2075 -91 
Q 1284 -91 818 406 
Q 353 903 353 1747 
Q 353 2603 823 3093 
Q 1294 3584 2113 3584 
Q 2378 3584 2631 3529 
Q 2884 3475 3122 3366 
z
" transform="scale(0.015625)"/>
      <path id="DejaVuSans-68" d="M 3513 2113 
L 3513 0 
L 2938 0 
L 2938 2094 
Q 2938 2591 2744 2837 
Q 2550 3084 2163 3084 
Q 1697 3084 1428 2787 
Q 1159 2491 1159 1978 
L 1159 0 
L 581 0 
L 581 4863 
L 1159 4863 
L 1159 2956 
Q 1366 3272 1645 3428 
Q 1925 3584 2291 3584 
Q 2894 3584 3203 3211 
Q 3513 2838 3513 2113 
z
" transform="scale(0.015625)"/>
      <path id="DejaVuSans-69" d="M 603 3500 
L 1178 3500 
L 1178 0 
L 603 0 
L 603 3500 
z
M 603 4863 
L 1178 4863 
L 1178 4134 
L 603 4134 
L 603 4863 
z
" transform="scale(0.015625)"/>
      <path id="DejaVuSans-6e" d="M 3513 2113 
L 3513 0 
L 2938 0 
L 2938 2094 
Q 2938 2591 2744 2837 
Q 2550 3084 2163 3084 
Q 1697 3084 1428 2787 
Q 1159 2491 1159 1978 
L 1159 0 
L 581 0 
L 581 3500 
L 1159 3500 
L 1159 2956 
Q 1366 3272 1645 3428 
Q 1925 3584 2291 3584 
Q 2894 3584 3203 3211 
Q 3513 2838 3513 2113 
z
" transform="scale(0.015625)"/>
      <path id="DejaVuSans-20" transform="scale(0.015625)"/>
      <path id="DejaVuSans-62" d="M 3116 1747 
Q 3116 2381 2855 2742 
Q 2594 3103 2138 3103 
Q 1681 3103 1420 2742 
Q 1159 2381 1159 1747 
Q 1159 1113 1420 752 
Q 1681 391 2138 391 
Q 2594 391 2855 752 
Q 3116 1113 3116 1747 
z
M 1159 2969 
Q 1341 3281 1617 3432 
Q 1894 3584 2278 3584 
Q 2916 3584 3314 3078 
Q 3713 2572 3713 1747 
Q 3713 922 3314 415 
Q 2916 -91 2278 -91 
Q 1894 -91 1617 61 
Q 1341 213 1159 525 
L 1159 0 
L 581 0 
L 581 4863 
L 1159 4863 
L 1159 2969 
z
" transform="scale(0.015625)"/>
      <path id="DejaVuSans-79" d="M 2059 -325 
Q 1816 -950 1584 -1140 
Q 1353 -1331 966 -1331 
L 506 -1331 
L 506 -850 
L 844 -850 
Q 1081 -850 1212 -737 
Q 1344 -625 1503 -206 
L 1606 56 
L 191 3500 
L 800 3500 
L 1894 763 
L 2988 3500 
L 3597 3500 
L 2059 -325 
z
" transform="scale(0.015625)"/>
      <path id="DejaVuSans-50" d="M 1259 4147 
L 1259 2394 
L 2053 2394 
Q 2494 2394 2734 2622 
Q 2975 2850 2975 3272 
Q 2975 3691 2734 3919 
Q 2494 4147 2053 4147 
L 1259 4147 
z
M 628 4666 
L 2053 4666 
Q 2838 4666 3239 4311 
Q 3641 3956 3641 3272 
Q 3641 2581 3239 2228 
Q 2838 1875 2053 1875 
L 1259 1875 
L 1259 0 
L 628 0 
L 628 4666 
z
" transform="scale(0.015625)"/>
      <path id="DejaVuSans-6f" d="M 1959 3097 
Q 1497 3097 1228 2736 
Q 959 2375 959 1747 
Q 959 1119 1226 758 
Q 1494 397 1959 397 
Q 2419 397 2687 759 
Q 2956 1122 2956 1747 
Q 2956 2369 2687 2733 
Q 2419 3097 1959 3097 
z
M 1959 3584 
Q 2709 3584 3137 3096 
Q 3566 2609 3566 1747 
Q 3566 888 3137 398 
Q 2709 -91 1959 -91 
Q 1206 -91 779 398 
Q 353 888 353 1747 
Q 353 2609 779 3096 
Q 1206 3584 1959 3584 
z
" transform="scale(0.015625)"/>
      <path id="DejaVuSans-77" d="M 269 3500 
L 844 3500 
L 1563 769 
L 2278 3500 
L 2956 3500 
L 3675 769 
L 4391 3500 
L 4966 3500 
L 4050 0 
L 3372 0 
L 2619 2869 
L 1863 0 
L 1184 0 
L 269 3500 
z
" transform="scale(0.015625)"/>
      <path id="DejaVuSans-72" d="M 2631 2963 
Q 2534 3019 2420 3045 
Q 2306 3072 2169 3072 
Q 1681 3072 1420 2755 
Q 1159 2438 1159 1844 
L 1159 0 
L 581 0 
L 581 3500 
L 1159 3500 
L 1159 2956 
Q 1341 3275 1631 3429 
Q 1922 3584 2338 3584 
Q 2397 3584 2469 3576 
Q 2541 3569 2628 3553 
L 2631 2963 
z
" transform="scale(0.015625)"/>
      <path id="DejaVuSans-70" d="M 1159 525 
L 1159 -1331 
L 581 -1331 
L 581 3500 
L 1159 3500 
L 1159 2969 
Q 1341 3281 1617 3432 
Q 1894 3584 2278 3584 
Q 2916 3584 3314 3078 
Q 3713 2572 3713 1747 
Q 3713 922 3314 415 
Q 2916 -91 2278 -91 
Q 1894 -91 1617 61 
Q 1341 213 1159 525 
z
M 3116 1747 
Q 3116 2381 2855 2742 
Q 2594 3103 2138 3103 
Q 1681 3103 1420 2742 
Q 1159 2381 1159 1747 
Q 1159 1113 1420 752 
Q 1681 391 2138 391 
Q 2594 391 2855 752 
Q 3116 1113 3116 1747 
z
" transform="scale(0.015625)"/>
      <path id="DejaVuSans-76" d="M 191 3500 
L 800 3500 
L 1894 563 
L 2988 3500 
L 3597 3500 
L 2284 0 
L 1503 0 
L 191 3500 
z
" transform="scale(0.015625)"/>
      <path id="DejaVuSans-54" d="M -19 4666 
L 3928 4666 
L 3928 4134 
L 2272 4134 
L 2272 0 
L 1638 0 
L 1638 4134 
L -19 4134 
L -19 4666 
z
" transform="scale(0.015625)"/>
      <path id="DejaVuSans-28" d="M 1984 4856 
Q 1566 4138 1362 3434 
Q 1159 2731 1159 2009 
Q 1159 1288 1364 580 
Q 1569 -128 1984 -844 
L 1484 -844 
Q 1016 -109 783 600 
Q 550 1309 550 2009 
Q 550 2706 781 3412 
Q 1013 4119 1484 4856 
L 1984 4856 
z
" transform="scale(0.015625)"/>
      <path id="DejaVuSans-41" d="M 2188 4044 
L 1331 1722 
L 3047 1722 
L 2188 4044 
z
M 1831 4666 
L 2547 4666 
L 4325 0 
L 3669 0 
L 3244 1197 
L 1141 1197 
L 716 0 
L 50 0 
L 1831 4666 
z
" transform="scale(0.015625)"/>
      <path id="DejaVuSans-29" d="M 513 4856 
L 1013 4856 
Q 1481 4119 1714 3412 
Q 1947 2706 1947 2009 
Q 1947 1309 1714 600 
Q 1481 -109 1013 -844 
L 513 -844 
Q 928 -128 1133 580 
Q 1338 1288 1338 2009 
Q 1338 2731 1133 3434 
Q 928 4138 513 4856 
z
" transform="scale(0.015625)"/>
     </defs>
     <use xlink:href="#DejaVuSans-53"/>
     <use xlink:href="#DejaVuSans-61" transform="translate(63.476562 0)"/>
     <use xlink:href="#DejaVuSans-74" transform="translate(124.755859 0)"/>
     <use xlink:href="#DejaVuSans-74" transform="translate(163.964844 0)"/>
     <use xlink:href="#DejaVuSans-65" transform="translate(203.173828 0)"/>
     <use xlink:href="#DejaVuSans-6c" transform="translate(264.697266 0)"/>
     <use xlink:href="#DejaVuSans-7a" transform="translate(292.480469 0)"/>
     <use xlink:href="#DejaVuSans-75" transform="translate(344.970703 0)"/>
     <use xlink:href="#DejaVuSans-67" transform="translate(408.349609 0)"/>
     <use xlink:href="#DejaVuSans-6d" transform="translate(471.826172 0)"/>
     <use xlink:href="#DejaVuSans-61" transform="translate(569.238281 0)"/>
     <use xlink:href="#DejaVuSans-73" transform="translate(630.517578 0)"/>
     <use xlink:href="#DejaVuSans-63" transform="translate(682.617188 0)"/>
     <use xlink:href="#DejaVuSans-68" transform="translate(737.597656 0)"/>
     <use xlink:href="#DejaVuSans-69" transform="translate(800.976562 0)"/>
     <use xlink:href="#DejaVuSans-6e" transform="translate(828.759766 0)"/>
     <use xlink:href="#DejaVuSans-65" transform="translate(892.138672 0)"/>
     <use xlink:href="#DejaVuSans-6e" transform="translate(953.662109 0)"/>
     <use xlink:href="#DejaVuSans-20" transform="translate(1017.041016 0)"/>
     <use xlink:href="#DejaVuSans-62" transform="translate(1048.828125 0)"/>
     <use xlink:href="#DejaVuSans-79" transform="translate(1112.304688 0)"/>
     <use xlink:href="#DejaVuSans-20" transform="translate(1171.484375 0)"/>
     <use xlink:href="#DejaVuSans-50" transform="translate(1203.271484 0)"/>
     <use xlink:href="#DejaVuSans-6f" transform="translate(1259.949219 0)"/>
     <use xlink:href="#DejaVuSans-77" transform="translate(1321.130859 0)"/>
     <use xlink:href="#DejaVuSans-65" transform="translate(1402.917969 0)"/>
     <use xlink:href="#DejaVuSans-72" transform="translate(1464.441406 0)"/>
     <use xlink:href="#DejaVuSans-74" transform="translate(1505.554688 0)"/>
     <use xlink:href="#DejaVuSans-79" transform="translate(1544.763672 0)"/>
     <use xlink:href="#DejaVuSans-70" transform="translate(1603.943359 0)"/>
     <use xlink:href="#DejaVuSans-65" transform="translate(1667.419922 0)"/>
     <use xlink:href="#DejaVuSans-20" transform="translate(1728.943359 0)"/>
     <use xlink:href="#DejaVuSans-6f" transform="translate(1760.730469 0)"/>
     <use xlink:href="#DejaVuSans-76" transform="translate(1821.912109 0)"/>
     <use xlink:href="#DejaVuSans-65" transform="translate(1881.091797 0)"/>
     <use xlink:href="#DejaVuSans-72" transform="translate(1942.615234 0)"/>
     <use xlink:href="#DejaVuSans-20" transform="translate(1983.728516 0)"/>
     <use xlink:href="#DejaVuSans-54" transform="translate(2015.515625 0)"/>
     <use xlink:href="#DejaVuSans-69" transform="translate(2073.474609 0)"/>
     <use xlink:href="#DejaVuSans-6d" transform="translate(2101.257812 0)"/>
     <use xlink:href="#DejaVuSans-65" transform="translate(2198.669922 0)"/>
     <use xlink:href="#DejaVuSans-20" transform="translate(2260.193359 0)"/>
     <use xlink:href="#DejaVuSans-28" transform="translate(2291.980469 0)"/>
     <use xlink:href="#DejaVuSans-41" transform="translate(2330.994141 0)"/>
     <use xlink:href="#DejaVuSans-62" transform="translate(2399.402344 0)"/>
     <use xlink:href="#DejaVuSans-73" transform="translate(2462.878906 0)"/>
     <use xlink:href="#DejaVuSans-6f" transform="translate(2514.978516 0)"/>
     <use xlink:href="#DejaVuSans-6c" transform="translate(2576.160156 0)"/>
     <use xlink:href="#DejaVuSans-75" transform="translate(2603.943359 0)"/>
     <use xlink:href="#DejaVuSans-74" transform="translate(2667.322266 0)"/>
     <use xlink:href="#DejaVuSans-65" transform="translate(2706.53125 0)"/>
     <use xlink:href="#DejaVuSans-29" transform="translate(2768.054688 0)"/>
    </g>
   </g>
   <g id="legend_1">
    <g id="patch_7">
     <path d="M 735.83625 103.70875 
L 796.23 103.70875 
Q 798.23 103.70875 798.23 101.70875 
L 798.23 29.318125 
Q 798.23 27.318125 796.23 27.318125 
L 735.83625 27.318125 
Q 733.83625 27.318125 733.83625 29.318125 
L 733.83625 101.70875 
Q 733.83625 103.70875 735.83625 103.70875 
z
" style="fill: #ffffff; opacity: 0.8; stroke: #cccccc; stroke-linejoin: miter"/>
    </g>
    <g id="patch_8">
     <path d="M 737.83625 38.916562 
L 757.83625 38.916562 
L 757.83625 31.916562 
L 737.83625 31.916562 
z
" style="fill: #2ecc71; stroke: #2ecc71; stroke-linejoin: miter"/>
    </g>
    <g id="text_9">
     <!-- BEV -->
     <g transform="translate(765.83625 38.916562) scale(0.1 -0.1)">
      <defs>
       <path id="DejaVuSans-42" d="M 1259 2228 
L 1259 519 
L 2272 519 
Q 2781 519 3026 730 
Q 3272 941 3272 1375 
Q 3272 1813 3026 2020 
Q 2781 2228 2272 2228 
L 1259 2228 
z
M 1259 4147 
L 1259 2741 
L 2194 2741 
Q 2656 2741 2882 2914 
Q 3109 3088 3109 3444 
Q 3109 3797 2882 3972 
Q 2656 4147 2194 4147 
L 1259 4147 
z
M 628 4666 
L 2241 4666 
Q 2963 4666 3353 4366 
Q 3744 4066 3744 3513 
Q 3744 3084 3544 2831 
Q 3344 2578 2956 2516 
Q 3422 2416 3680 2098 
Q 3938 1781 3938 1306 
Q 3938 681 3513 340 
Q 3088 0 2303 0 
L 628 0 
L 628 4666 
z
" transform="scale(0.015625)"/>
       <path id="DejaVuSans-45" d="M 628 4666 
L 3578 4666 
L 3578 4134 
L 1259 4134 
L 1259 2753 
L 3481 2753 
L 3481 2222 
L 1259 2222 
L 1259 531 
L 3634 531 
L 3634 0 
L 628 0 
L 628 4666 
z
" transform="scale(0.015625)"/>
      </defs>
      <use xlink:href="#DejaVuSans-42"/>
      <use xlink:href="#DejaVuSans-45" transform="translate(68.603516 0)"/>
      <use xlink:href="#DejaVuSans-56" transform="translate(131.787109 0)"/>
     </g>
    </g>
    <g id="patch_9">
     <path d="M 737.83625 53.594687 
L 757.83625 53.594687 
L 757.83625 46.594687 
L 737.83625 46.594687 
z
" style="fill: #f39c12; stroke: #f39c12; stroke-linejoin: miter"/>
    </g>
    <g id="text_10">
     <!-- PHEV -->
     <g transform="translate(765.83625 53.594687) scale(0.1 -0.1)">
      <defs>
       <path id="DejaVuSans-48" d="M 628 4666 
L 1259 4666 
L 1259 2753 
L 3553 2753 
L 3553 4666 
L 4184 4666 
L 4184 0 
L 3553 0 
L 3553 2222 
L 1259 2222 
L 1259 0 
L 628 0 
L 628 4666 
z
" transform="scale(0.015625)"/>
      </defs>
      <use xlink:href="#DejaVuSans-50"/>
      <use xlink:href="#DejaVuSans-48" transform="translate(60.302734 0)"/>
      <use xlink:href="#DejaVuSans-45" transform="translate(135.498047 0)"/>
      <use xlink:href="#DejaVuSans-56" transform="translate(198.681641 0)"/>
     </g>
    </g>
    <g id="patch_10">
     <path d="M 737.83625 68.272812 
L 757.83625 68.272812 
L 757.83625 61.272812 
L 737.83625 61.272812 
z
" style="fill: #f35c12; stroke: #f35c12; stroke-linejoin: miter"/>
    </g>
    <g id="text_11">
     <!-- Gas -->
     <g transform="translate(765.83625 68.272812) scale(0.1 -0.1)">
      <defs>
       <path id="DejaVuSans-47" d="M 3809 666 
L 3809 1919 
L 2778 1919 
L 2778 2438 
L 4434 2438 
L 4434 434 
Q 4069 175 3628 42 
Q 3188 -91 2688 -91 
Q 1594 -91 976 548 
Q 359 1188 359 2328 
Q 359 3472 976 4111 
Q 1594 4750 2688 4750 
Q 3144 4750 3555 4637 
Q 3966 4525 4313 4306 
L 4313 3634 
Q 3963 3931 3569 4081 
Q 3175 4231 2741 4231 
Q 1884 4231 1454 3753 
Q 1025 3275 1025 2328 
Q 1025 1384 1454 906 
Q 1884 428 2741 428 
Q 3075 428 3337 486 
Q 3600 544 3809 666 
z
" transform="scale(0.015625)"/>
      </defs>
      <use xlink:href="#DejaVuSans-47"/>
      <use xlink:href="#DejaVuSans-61" transform="translate(77.490234 0)"/>
      <use xlink:href="#DejaVuSans-73" transform="translate(138.769531 0)"/>
     </g>
    </g>
    <g id="patch_11">
     <path d="M 737.83625 82.950937 
L 757.83625 82.950937 
L 757.83625 75.950937 
L 737.83625 75.950937 
z
" style="fill: #c7c7c7; stroke: #c7c7c7; stroke-linejoin: miter"/>
    </g>
    <g id="text_12">
     <!-- Other -->
     <g transform="translate(765.83625 82.950937) scale(0.1 -0.1)">
      <defs>
       <path id="DejaVuSans-4f" d="M 2522 4238 
Q 1834 4238 1429 3725 
Q 1025 3213 1025 2328 
Q 1025 1447 1429 934 
Q 1834 422 2522 422 
Q 3209 422 3611 934 
Q 4013 1447 4013 2328 
Q 4013 3213 3611 3725 
Q 3209 4238 2522 4238 
z
M 2522 4750 
Q 3503 4750 4090 4092 
Q 4678 3434 4678 2328 
Q 4678 1225 4090 567 
Q 3503 -91 2522 -91 
Q 1538 -91 948 565 
Q 359 1222 359 2328 
Q 359 3434 948 4092 
Q 1538 4750 2522 4750 
z
" transform="scale(0.015625)"/>
      </defs>
      <use xlink:href="#DejaVuSans-4f"/>
      <use xlink:href="#DejaVuSans-74" transform="translate(78.710938 0)"/>
      <use xlink:href="#DejaVuSans-68" transform="translate(117.919922 0)"/>
      <use xlink:href="#DejaVuSans-65" transform="translate(181.298828 0)"/>
      <use xlink:href="#DejaVuSans-72" transform="translate(242.822266 0)"/>
     </g>
    </g>
    <g id="patch_12">
     <path d="M 737.83625 97.629062 
L 757.83625 97.629062 
L 757.83625 90.629062 
L 737.83625 90.629062 
z
" style="fill: #9e9e9e; stroke: #9e9e9e; stroke-linejoin: miter"/>
    </g>
    <g id="text_13">
     <!-- ICE -->
     <g transform="translate(765.83625 97.629062) scale(0.1 -0.1)">
      <defs>
       <path id="DejaVuSans-49" d="M 628 4666 
L 1259 4666 
L 1259 0 
L 628 0 
L 628 4666 
z
" transform="scale(0.015625)"/>
       <path id="DejaVuSans-43" d="M 4122 4306 
L 4122 3641 
Q 3803 3938 3442 4084 
Q 3081 4231 2675 4231 
Q 1875 4231 1450 3742 
Q 1025 3253 1025 2328 
Q 1025 1406 1450 917 
Q 1875 428 2675 428 
Q 3081 428 3442 575 
Q 3803 722 4122 1019 
L 4122 359 
Q 3791 134 3420 21 
Q 3050 -91 2638 -91 
Q 1578 -91 968 557 
Q 359 1206 359 2328 
Q 359 3453 968 4101 
Q 1578 4750 2638 4750 
Q 3056 4750 3426 4639 
Q 3797 4528 4122 4306 
z
" transform="scale(0.015625)"/>
      </defs>
      <use xlink:href="#DejaVuSans-49"/>
      <use xlink:href="#DejaVuSans-43" transform="translate(29.492188 0)"/>
      <use xlink:href="#DejaVuSans-45" transform="translate(99.316406 0)"/>
     </g>
    </g>
   </g>
  </g>
  <g id="axes_2">
   <g id="patch_13">
    <path d="M 7.2 673.478125 
L 803.23 673.478125 
L 803.23 364.398125 
L 7.2 364.398125 
z
" style="fill: #ffffff"/>
   </g>
   <g id="FillBetweenPolyCollection_6">
    <defs>
     <path id="mf0e999fb3a" d="M 43.383182 -37.671967 
L 43.383182 -37.55625 
L 56.792371 -37.55625 
L 68.903896 -37.55625 
L 82.313085 -37.55625 
L 95.289719 -37.55625 
L 108.698908 -37.55625 
L 121.675542 -37.55625 
L 135.08473 -37.55625 
L 148.493919 -37.55625 
L 161.470553 -37.55625 
L 174.879742 -37.55625 
L 187.856376 -37.55625 
L 201.265565 -37.55625 
L 214.674754 -37.55625 
L 226.786279 -37.55625 
L 240.195468 -37.55625 
L 253.172102 -37.55625 
L 266.581291 -37.55625 
L 279.557925 -37.55625 
L 292.967114 -37.55625 
L 306.376303 -37.55625 
L 319.352937 -37.55625 
L 332.762125 -37.55625 
L 345.73876 -37.55625 
L 359.147948 -37.55625 
L 372.557137 -37.55625 
L 384.668662 -37.55625 
L 398.077851 -37.55625 
L 411.054485 -37.55625 
L 424.463674 -37.55625 
L 437.440308 -37.55625 
L 450.849497 -37.55625 
L 464.258686 -37.55625 
L 477.23532 -37.55625 
L 490.644509 -37.55625 
L 503.621143 -37.55625 
L 517.030332 -37.55625 
L 530.43952 -37.55625 
L 542.9836 -37.55625 
L 556.392789 -37.55625 
L 569.369423 -37.55625 
L 582.778612 -37.55625 
L 595.755246 -37.55625 
L 609.164435 -37.55625 
L 622.573624 -37.55625 
L 635.550258 -37.55625 
L 648.959447 -37.55625 
L 661.936081 -37.55625 
L 675.34527 -37.55625 
L 688.754458 -37.55625 
L 700.865984 -37.55625 
L 714.275172 -37.55625 
L 727.251806 -37.55625 
L 740.660995 -37.55625 
L 753.637629 -37.55625 
L 767.046818 -37.55625 
L 767.046818 -51.939335 
L 767.046818 -51.939335 
L 753.637629 -49.151581 
L 740.660995 -43.895424 
L 727.251806 -42.972641 
L 714.275172 -43.254828 
L 700.865984 -42.225524 
L 688.754458 -47.590247 
L 675.34527 -42.675083 
L 661.936081 -49.572319 
L 648.959447 -40.683764 
L 635.550258 -42.926884 
L 622.573624 -42.319469 
L 609.164435 -40.426962 
L 595.755246 -42.763026 
L 582.778612 -43.206099 
L 569.369423 -42.744643 
L 556.392789 -40.889647 
L 542.9836 -43.873923 
L 530.43952 -41.128397 
L 517.030332 -42.505626 
L 503.621143 -47.697938 
L 490.644509 -40.546141 
L 477.23532 -41.492321 
L 464.258686 -39.628417 
L 450.849497 -39.426628 
L 437.440308 -39.489098 
L 424.463674 -38.633184 
L 411.054485 -39.718858 
L 398.077851 -39.305924 
L 384.668662 -38.549012 
L 372.557137 -37.935141 
L 359.147948 -38.742738 
L 345.73876 -38.937305 
L 332.762125 -39.746088 
L 319.352937 -38.71559 
L 306.376303 -37.674762 
L 292.967114 -37.938459 
L 279.557925 -38.00928 
L 266.581291 -37.886817 
L 253.172102 -37.55625 
L 240.195468 -37.55625 
L 226.786279 -37.55625 
L 214.674754 -37.55625 
L 201.265565 -37.55625 
L 187.856376 -37.55625 
L 174.879742 -37.680179 
L 161.470553 -37.681739 
L 148.493919 -37.703151 
L 135.08473 -37.55625 
L 121.675542 -37.55625 
L 108.698908 -37.55625 
L 95.289719 -37.55625 
L 82.313085 -37.55625 
L 68.903896 -37.55625 
L 56.792371 -37.55625 
L 43.383182 -37.671967 
z
" style="stroke: #2ecc71"/>
    </defs>
    <g clip-path="url(#p4f99c1540b)">
     <use xlink:href="#mf0e999fb3a" x="0" y="711.034375" style="fill: #2ecc71; stroke: #2ecc71"/>
    </g>
   </g>
   <g id="FillBetweenPolyCollection_7">
    <defs>
     <path id="m0e3887bf6d" d="M 43.383182 -37.671967 
L 43.383182 -37.671967 
L 56.792371 -37.55625 
L 68.903896 -37.55625 
L 82.313085 -37.55625 
L 95.289719 -37.55625 
L 108.698908 -37.55625 
L 121.675542 -37.55625 
L 135.08473 -37.55625 
L 148.493919 -37.703151 
L 161.470553 -37.681739 
L 174.879742 -37.680179 
L 187.856376 -37.55625 
L 201.265565 -37.55625 
L 214.674754 -37.55625 
L 226.786279 -37.55625 
L 240.195468 -37.55625 
L 253.172102 -37.55625 
L 266.581291 -37.886817 
L 279.557925 -38.00928 
L 292.967114 -37.938459 
L 306.376303 -37.674762 
L 319.352937 -38.71559 
L 332.762125 -39.746088 
L 345.73876 -38.937305 
L 359.147948 -38.742738 
L 372.557137 -37.935141 
L 384.668662 -38.549012 
L 398.077851 -39.305924 
L 411.054485 -39.718858 
L 424.463674 -38.633184 
L 437.440308 -39.489098 
L 450.849497 -39.426628 
L 464.258686 -39.628417 
L 477.23532 -41.492321 
L 490.644509 -40.546141 
L 503.621143 -47.697938 
L 517.030332 -42.505626 
L 530.43952 -41.128397 
L 542.9836 -43.873923 
L 556.392789 -40.889647 
L 569.369423 -42.744643 
L 582.778612 -43.206099 
L 595.755246 -42.763026 
L 609.164435 -40.426962 
L 622.573624 -42.319469 
L 635.550258 -42.926884 
L 648.959447 -40.683764 
L 661.936081 -49.572319 
L 675.34527 -42.675083 
L 688.754458 -47.590247 
L 700.865984 -42.225524 
L 714.275172 -43.254828 
L 727.251806 -42.972641 
L 740.660995 -43.895424 
L 753.637629 -49.151581 
L 767.046818 -51.939335 
L 767.046818 -52.095673 
L 767.046818 -52.095673 
L 753.637629 -49.409255 
L 740.660995 -43.895424 
L 727.251806 -42.972641 
L 714.275172 -43.254828 
L 700.865984 -42.225524 
L 688.754458 -47.754739 
L 675.34527 -42.675083 
L 661.936081 -49.572319 
L 648.959447 -40.819743 
L 635.550258 -42.926884 
L 622.573624 -42.319469 
L 609.164435 -40.809724 
L 595.755246 -42.763026 
L 582.778612 -43.272568 
L 569.369423 -42.744643 
L 556.392789 -40.889647 
L 542.9836 -43.971118 
L 530.43952 -41.128397 
L 517.030332 -42.505626 
L 503.621143 -47.858917 
L 490.644509 -40.546141 
L 477.23532 -41.492321 
L 464.258686 -39.628417 
L 450.849497 -39.485078 
L 437.440308 -39.489098 
L 424.463674 -38.633184 
L 411.054485 -39.805363 
L 398.077851 -39.305924 
L 384.668662 -38.549012 
L 372.557137 -37.935141 
L 359.147948 -38.742738 
L 345.73876 -39.07541 
L 332.762125 -39.954644 
L 319.352937 -38.71559 
L 306.376303 -37.674762 
L 292.967114 -38.193266 
L 279.557925 -38.00928 
L 266.581291 -37.997006 
L 253.172102 -37.55625 
L 240.195468 -37.55625 
L 226.786279 -37.55625 
L 214.674754 -37.55625 
L 201.265565 -37.55625 
L 187.856376 -37.55625 
L 174.879742 -37.680179 
L 161.470553 -37.807228 
L 148.493919 -37.703151 
L 135.08473 -37.55625 
L 121.675542 -37.55625 
L 108.698908 -37.55625 
L 95.289719 -37.55625 
L 82.313085 -37.55625 
L 68.903896 -37.55625 
L 56.792371 -37.55625 
L 43.383182 -37.671967 
z
" style="stroke: #f39c12"/>
    </defs>
    <g clip-path="url(#p4f99c1540b)">
     <use xlink:href="#m0e3887bf6d" x="0" y="711.034375" style="fill: #f39c12; stroke: #f39c12"/>
    </g>
   </g>
   <g id="FillBetweenPolyCollection_8">
    <defs>
     <path id="m8f8bbaac7e" d="M 43.383182 -37.671967 
L 43.383182 -37.671967 
L 56.792371 -37.55625 
L 68.903896 -37.55625 
L 82.313085 -37.55625 
L 95.289719 -37.55625 
L 108.698908 -37.55625 
L 121.675542 -37.55625 
L 135.08473 -37.55625 
L 148.493919 -37.703151 
L 161.470553 -37.807228 
L 174.879742 -37.680179 
L 187.856376 -37.55625 
L 201.265565 -37.55625 
L 214.674754 -37.55625 
L 226.786279 -37.55625 
L 240.195468 -37.55625 
L 253.172102 -37.55625 
L 266.581291 -37.997006 
L 279.557925 -38.00928 
L 292.967114 -38.193266 
L 306.376303 -37.674762 
L 319.352937 -38.71559 
L 332.762125 -39.954644 
L 345.73876 -39.07541 
L 359.147948 -38.742738 
L 372.557137 -37.935141 
L 384.668662 -38.549012 
L 398.077851 -39.305924 
L 411.054485 -39.805363 
L 424.463674 -38.633184 
L 437.440308 -39.489098 
L 450.849497 -39.485078 
L 464.258686 -39.628417 
L 477.23532 -41.492321 
L 490.644509 -40.546141 
L 503.621143 -47.858917 
L 517.030332 -42.505626 
L 530.43952 -41.128397 
L 542.9836 -43.971118 
L 556.392789 -40.889647 
L 569.369423 -42.744643 
L 582.778612 -43.272568 
L 595.755246 -42.763026 
L 609.164435 -40.809724 
L 622.573624 -42.319469 
L 635.550258 -42.926884 
L 648.959447 -40.819743 
L 661.936081 -49.572319 
L 675.34527 -42.675083 
L 688.754458 -47.754739 
L 700.865984 -42.225524 
L 714.275172 -43.254828 
L 727.251806 -42.972641 
L 740.660995 -43.895424 
L 753.637629 -49.409255 
L 767.046818 -52.095673 
L 767.046818 -52.095673 
L 767.046818 -52.095673 
L 753.637629 -49.409255 
L 740.660995 -43.895424 
L 727.251806 -42.972641 
L 714.275172 -43.254828 
L 700.865984 -42.225524 
L 688.754458 -47.754739 
L 675.34527 -42.675083 
L 661.936081 -49.572319 
L 648.959447 -40.819743 
L 635.550258 -42.926884 
L 622.573624 -42.319469 
L 609.164435 -40.809724 
L 595.755246 -42.763026 
L 582.778612 -43.272568 
L 569.369423 -42.744643 
L 556.392789 -40.889647 
L 542.9836 -43.971118 
L 530.43952 -41.128397 
L 517.030332 -42.505626 
L 503.621143 -47.858917 
L 490.644509 -40.546141 
L 477.23532 -41.492321 
L 464.258686 -39.628417 
L 450.849497 -39.485078 
L 437.440308 -39.489098 
L 424.463674 -38.633184 
L 411.054485 -39.805363 
L 398.077851 -39.305924 
L 384.668662 -38.549012 
L 372.557137 -37.935141 
L 359.147948 -38.742738 
L 345.73876 -39.07541 
L 332.762125 -39.954644 
L 319.352937 -38.71559 
L 306.376303 -37.674762 
L 292.967114 -38.193266 
L 279.557925 -38.00928 
L 266.581291 -37.997006 
L 253.172102 -37.55625 
L 240.195468 -37.55625 
L 226.786279 -37.55625 
L 214.674754 -37.55625 
L 201.265565 -37.55625 
L 187.856376 -37.55625 
L 174.879742 -37.680179 
L 161.470553 -37.807228 
L 148.493919 -37.703151 
L 135.08473 -37.55625 
L 121.675542 -37.55625 
L 108.698908 -37.55625 
L 95.289719 -37.55625 
L 82.313085 -37.55625 
L 68.903896 -37.55625 
L 56.792371 -37.55625 
L 43.383182 -37.671967 
z
" style="stroke: #f35c12"/>
    </defs>
    <g clip-path="url(#p4f99c1540b)">
     <use xlink:href="#m8f8bbaac7e" x="0" y="711.034375" style="fill: #f35c12; stroke: #f35c12"/>
    </g>
   </g>
   <g id="FillBetweenPolyCollection_9">
    <defs>
     <path id="m7a6c398a4a" d="M 43.383182 -60.815359 
L 43.383182 -37.671967 
L 56.792371 -37.55625 
L 68.903896 -37.55625 
L 82.313085 -37.55625 
L 95.289719 -37.55625 
L 108.698908 -37.55625 
L 121.675542 -37.55625 
L 135.08473 -37.55625 
L 148.493919 -37.703151 
L 161.470553 -37.807228 
L 174.879742 -37.680179 
L 187.856376 -37.55625 
L 201.265565 -37.55625 
L 214.674754 -37.55625 
L 226.786279 -37.55625 
L 240.195468 -37.55625 
L 253.172102 -37.55625 
L 266.581291 -37.997006 
L 279.557925 -38.00928 
L 292.967114 -38.193266 
L 306.376303 -37.674762 
L 319.352937 -38.71559 
L 332.762125 -39.954644 
L 345.73876 -39.07541 
L 359.147948 -38.742738 
L 372.557137 -37.935141 
L 384.668662 -38.549012 
L 398.077851 -39.305924 
L 411.054485 -39.805363 
L 424.463674 -38.633184 
L 437.440308 -39.489098 
L 450.849497 -39.485078 
L 464.258686 -39.628417 
L 477.23532 -41.492321 
L 490.644509 -40.546141 
L 503.621143 -47.858917 
L 517.030332 -42.505626 
L 530.43952 -41.128397 
L 542.9836 -43.971118 
L 556.392789 -40.889647 
L 569.369423 -42.744643 
L 582.778612 -43.272568 
L 595.755246 -42.763026 
L 609.164435 -40.809724 
L 622.573624 -42.319469 
L 635.550258 -42.926884 
L 648.959447 -40.819743 
L 661.936081 -49.572319 
L 675.34527 -42.675083 
L 688.754458 -47.754739 
L 700.865984 -42.225524 
L 714.275172 -43.254828 
L 727.251806 -42.972641 
L 740.660995 -43.895424 
L 753.637629 -49.409255 
L 767.046818 -52.095673 
L 767.046818 -54.440742 
L 767.046818 -54.440742 
L 753.637629 -51.857159 
L 740.660995 -45.344378 
L 727.251806 -47.697577 
L 714.275172 -51.531333 
L 700.865984 -45.078969 
L 688.754458 -50.222115 
L 675.34527 -45.843884 
L 661.936081 -53.132636 
L 648.959447 -42.45149 
L 635.550258 -44.940872 
L 622.573624 -44.083624 
L 609.164435 -42.34077 
L 595.755246 -46.23421 
L 582.778612 -45.665446 
L 569.369423 -42.99171 
L 556.392789 -41.630402 
L 542.9836 -45.623432 
L 530.43952 -42.825166 
L 517.030332 -45.662987 
L 503.621143 -48.341854 
L 490.644509 -41.760784 
L 477.23532 -43.361955 
L 464.258686 -41.48246 
L 450.849497 -43.518081 
L 437.440308 -44.760502 
L 424.463674 -44.100694 
L 411.054485 -46.72571 
L 398.077851 -41.31805 
L 384.668662 -42.917166 
L 372.557137 -40.682097 
L 359.147948 -42.132702 
L 345.73876 -43.63289 
L 332.762125 -46.628436 
L 319.352937 -54.946348 
L 306.376303 -41.111618 
L 292.967114 -46.219663 
L 279.557925 -52.506254 
L 266.581291 -45.600043 
L 253.172102 -41.712583 
L 240.195468 -40.797441 
L 226.786279 -41.073647 
L 214.674754 -47.638266 
L 201.265565 -43.367643 
L 187.856376 -46.863837 
L 174.879742 -46.974887 
L 161.470553 -49.728706 
L 148.493919 -46.223417 
L 135.08473 -43.4002 
L 121.675542 -46.324477 
L 108.698908 -52.174899 
L 95.289719 -55.139468 
L 82.313085 -53.638103 
L 68.903896 -52.343465 
L 56.792371 -58.555024 
L 43.383182 -60.815359 
z
" style="stroke: #c7c7c7"/>
    </defs>
    <g clip-path="url(#p4f99c1540b)">
     <use xlink:href="#m7a6c398a4a" x="0" y="711.034375" style="fill: #c7c7c7; stroke: #c7c7c7"/>
    </g>
   </g>
   <g id="FillBetweenPolyCollection_10">
    <defs>
     <path id="m0237e895a3" d="M 43.383182 -346.63625 
L 43.383182 -60.815359 
L 56.792371 -58.555024 
L 68.903896 -52.343465 
L 82.313085 -53.638103 
L 95.289719 -55.139468 
L 108.698908 -52.174899 
L 121.675542 -46.324477 
L 135.08473 -43.4002 
L 148.493919 -46.223417 
L 161.470553 -49.728706 
L 174.879742 -46.974887 
L 187.856376 -46.863837 
L 201.265565 -43.367643 
L 214.674754 -47.638266 
L 226.786279 -41.073647 
L 240.195468 -40.797441 
L 253.172102 -41.712583 
L 266.581291 -45.600043 
L 279.557925 -52.506254 
L 292.967114 -46.219663 
L 306.376303 -41.111618 
L 319.352937 -54.946348 
L 332.762125 -46.628436 
L 345.73876 -43.63289 
L 359.147948 -42.132702 
L 372.557137 -40.682097 
L 384.668662 -42.917166 
L 398.077851 -41.31805 
L 411.054485 -46.72571 
L 424.463674 -44.100694 
L 437.440308 -44.760502 
L 450.849497 -43.518081 
L 464.258686 -41.48246 
L 477.23532 -43.361955 
L 490.644509 -41.760784 
L 503.621143 -48.341854 
L 517.030332 -45.662987 
L 530.43952 -42.825166 
L 542.9836 -45.623432 
L 556.392789 -41.630402 
L 569.369423 -42.99171 
L 582.778612 -45.665446 
L 595.755246 -46.23421 
L 609.164435 -42.34077 
L 622.573624 -44.083624 
L 635.550258 -44.940872 
L 648.959447 -42.45149 
L 661.936081 -53.132636 
L 675.34527 -45.843884 
L 688.754458 -50.222115 
L 700.865984 -45.078969 
L 714.275172 -51.531333 
L 727.251806 -47.697577 
L 740.660995 -45.344378 
L 753.637629 -51.857159 
L 767.046818 -54.440742 
L 767.046818 -346.63625 
L 767.046818 -346.63625 
L 753.637629 -346.63625 
L 740.660995 -346.63625 
L 727.251806 -346.63625 
L 714.275172 -346.63625 
L 700.865984 -346.63625 
L 688.754458 -346.63625 
L 675.34527 -346.63625 
L 661.936081 -346.63625 
L 648.959447 -346.63625 
L 635.550258 -346.63625 
L 622.573624 -346.63625 
L 609.164435 -346.63625 
L 595.755246 -346.63625 
L 582.778612 -346.63625 
L 569.369423 -346.63625 
L 556.392789 -346.63625 
L 542.9836 -346.63625 
L 530.43952 -346.63625 
L 517.030332 -346.63625 
L 503.621143 -346.63625 
L 490.644509 -346.63625 
L 477.23532 -346.63625 
L 464.258686 -346.63625 
L 450.849497 -346.63625 
L 437.440308 -346.63625 
L 424.463674 -346.63625 
L 411.054485 -346.63625 
L 398.077851 -346.63625 
L 384.668662 -346.63625 
L 372.557137 -346.63625 
L 359.147948 -346.63625 
L 345.73876 -346.63625 
L 332.762125 -346.63625 
L 319.352937 -346.63625 
L 306.376303 -346.63625 
L 292.967114 -346.63625 
L 279.557925 -346.63625 
L 266.581291 -346.63625 
L 253.172102 -346.63625 
L 240.195468 -346.63625 
L 226.786279 -346.63625 
L 214.674754 -346.63625 
L 201.265565 -346.63625 
L 187.856376 -346.63625 
L 174.879742 -346.63625 
L 161.470553 -346.63625 
L 148.493919 -346.63625 
L 135.08473 -346.63625 
L 121.675542 -346.63625 
L 108.698908 -346.63625 
L 95.289719 -346.63625 
L 82.313085 -346.63625 
L 68.903896 -346.63625 
L 56.792371 -346.63625 
L 43.383182 -346.63625 
z
" style="stroke: #9e9e9e"/>
    </defs>
    <g clip-path="url(#p4f99c1540b)">
     <use xlink:href="#m0237e895a3" x="0" y="711.034375" style="fill: #9e9e9e; stroke: #9e9e9e"/>
    </g>
   </g>
   <g id="matplotlib.axis_3">
    <g id="xtick_13">
     <g id="line2d_24">
      <g>
       <use xlink:href="#mba9f7733f7" x="43.383182" y="673.478125" style="stroke: #000000; stroke-width: 0.8"/>
      </g>
     </g>
     <g id="text_14">
      <!-- 2021 -->
      <g transform="translate(30.658182 688.076562) scale(0.1 -0.1)">
       <use xlink:href="#DejaVuSans-32"/>
       <use xlink:href="#DejaVuSans-30" transform="translate(63.623047 0)"/>
       <use xlink:href="#DejaVuSans-32" transform="translate(127.246094 0)"/>
       <use xlink:href="#DejaVuSans-31" transform="translate(190.869141 0)"/>
      </g>
     </g>
    </g>
    <g id="xtick_14">
     <g id="line2d_25">
      <g>
       <use xlink:href="#mba9f7733f7" x="201.265565" y="673.478125" style="stroke: #000000; stroke-width: 0.8"/>
      </g>
     </g>
     <g id="text_15">
      <!-- 2022 -->
      <g transform="translate(188.540565 688.076562) scale(0.1 -0.1)">
       <use xlink:href="#DejaVuSans-32"/>
       <use xlink:href="#DejaVuSans-30" transform="translate(63.623047 0)"/>
       <use xlink:href="#DejaVuSans-32" transform="translate(127.246094 0)"/>
       <use xlink:href="#DejaVuSans-32" transform="translate(190.869141 0)"/>
      </g>
     </g>
    </g>
    <g id="xtick_15">
     <g id="line2d_26">
      <g>
       <use xlink:href="#mba9f7733f7" x="359.147948" y="673.478125" style="stroke: #000000; stroke-width: 0.8"/>
      </g>
     </g>
     <g id="text_16">
      <!-- 2023 -->
      <g transform="translate(346.422948 688.076562) scale(0.1 -0.1)">
       <use xlink:href="#DejaVuSans-32"/>
       <use xlink:href="#DejaVuSans-30" transform="translate(63.623047 0)"/>
       <use xlink:href="#DejaVuSans-32" transform="translate(127.246094 0)"/>
       <use xlink:href="#DejaVuSans-33" transform="translate(190.869141 0)"/>
      </g>
     </g>
    </g>
    <g id="xtick_16">
     <g id="line2d_27">
      <g>
       <use xlink:href="#mba9f7733f7" x="517.030332" y="673.478125" style="stroke: #000000; stroke-width: 0.8"/>
      </g>
     </g>
     <g id="text_17">
      <!-- 2024 -->
      <g transform="translate(504.305332 688.076562) scale(0.1 -0.1)">
       <use xlink:href="#DejaVuSans-32"/>
       <use xlink:href="#DejaVuSans-30" transform="translate(63.623047 0)"/>
       <use xlink:href="#DejaVuSans-32" transform="translate(127.246094 0)"/>
       <use xlink:href="#DejaVuSans-34" transform="translate(190.869141 0)"/>
      </g>
     </g>
    </g>
    <g id="xtick_17">
     <g id="line2d_28">
      <g>
       <use xlink:href="#mba9f7733f7" x="675.34527" y="673.478125" style="stroke: #000000; stroke-width: 0.8"/>
      </g>
     </g>
     <g id="text_18">
      <!-- 2025 -->
      <g transform="translate(662.62027 688.076562) scale(0.1 -0.1)">
       <use xlink:href="#DejaVuSans-32"/>
       <use xlink:href="#DejaVuSans-30" transform="translate(63.623047 0)"/>
       <use xlink:href="#DejaVuSans-32" transform="translate(127.246094 0)"/>
       <use xlink:href="#DejaVuSans-35" transform="translate(190.869141 0)"/>
      </g>
     </g>
    </g>
    <g id="xtick_18">
     <g id="line2d_29">
      <g>
       <use xlink:href="#mf5cf09a597" x="96.154828" y="673.478125" style="stroke: #000000; stroke-width: 0.6"/>
      </g>
     </g>
    </g>
    <g id="xtick_19">
     <g id="line2d_30">
      <g>
       <use xlink:href="#mf5cf09a597" x="204.293446" y="673.478125" style="stroke: #000000; stroke-width: 0.6"/>
      </g>
     </g>
    </g>
    <g id="xtick_20">
     <g id="line2d_31">
      <g>
       <use xlink:href="#mf5cf09a597" x="312.432065" y="673.478125" style="stroke: #000000; stroke-width: 0.6"/>
      </g>
     </g>
    </g>
    <g id="xtick_21">
     <g id="line2d_32">
      <g>
       <use xlink:href="#mf5cf09a597" x="420.570684" y="673.478125" style="stroke: #000000; stroke-width: 0.6"/>
      </g>
     </g>
    </g>
    <g id="xtick_22">
     <g id="line2d_33">
      <g>
       <use xlink:href="#mf5cf09a597" x="528.709303" y="673.478125" style="stroke: #000000; stroke-width: 0.6"/>
      </g>
     </g>
    </g>
    <g id="xtick_23">
     <g id="line2d_34">
      <g>
       <use xlink:href="#mf5cf09a597" x="636.847921" y="673.478125" style="stroke: #000000; stroke-width: 0.6"/>
      </g>
     </g>
    </g>
    <g id="xtick_24">
     <g id="line2d_35">
      <g>
       <use xlink:href="#mf5cf09a597" x="744.98654" y="673.478125" style="stroke: #000000; stroke-width: 0.6"/>
      </g>
     </g>
    </g>
    <g id="text_19">
     <!-- Time -->
     <g transform="translate(392.981406 701.754687) scale(0.1 -0.1)">
      <use xlink:href="#DejaVuSans-54"/>
      <use xlink:href="#DejaVuSans-69" transform="translate(57.958984 0)"/>
      <use xlink:href="#DejaVuSans-6d" transform="translate(85.742188 0)"/>
      <use xlink:href="#DejaVuSans-65" transform="translate(183.154297 0)"/>
     </g>
    </g>
   </g>
   <g id="matplotlib.axis_4">
    <g id="ytick_7">
     <g id="line2d_36">
      <g>
       <use xlink:href="#md7f8f4194e" x="803.23" y="673.478125" style="stroke: #000000; stroke-width: 0.8"/>
      </g>
     </g>
     <g id="text_20">
      <!-- 0.0 -->
      <g transform="translate(810.23 677.277344) scale(0.1 -0.1)">
       <defs>
        <path id="DejaVuSans-2e" d="M 684 794 
L 1344 794 
L 1344 0 
L 684 0 
L 684 794 
z
" transform="scale(0.015625)"/>
       </defs>
       <use xlink:href="#DejaVuSans-30"/>
       <use xlink:href="#DejaVuSans-2e" transform="translate(63.623047 0)"/>
       <use xlink:href="#DejaVuSans-30" transform="translate(95.410156 0)"/>
      </g>
     </g>
    </g>
    <g id="ytick_8">
     <g id="line2d_37">
      <g>
       <use xlink:href="#md7f8f4194e" x="803.23" y="611.662125" style="stroke: #000000; stroke-width: 0.8"/>
      </g>
     </g>
     <g id="text_21">
      <!-- 0.2 -->
      <g transform="translate(810.23 615.461344) scale(0.1 -0.1)">
       <use xlink:href="#DejaVuSans-30"/>
       <use xlink:href="#DejaVuSans-2e" transform="translate(63.623047 0)"/>
       <use xlink:href="#DejaVuSans-32" transform="translate(95.410156 0)"/>
      </g>
     </g>
    </g>
    <g id="ytick_9">
     <g id="line2d_38">
      <g>
       <use xlink:href="#md7f8f4194e" x="803.23" y="549.846125" style="stroke: #000000; stroke-width: 0.8"/>
      </g>
     </g>
     <g id="text_22">
      <!-- 0.4 -->
      <g transform="translate(810.23 553.645344) scale(0.1 -0.1)">
       <use xlink:href="#DejaVuSans-30"/>
       <use xlink:href="#DejaVuSans-2e" transform="translate(63.623047 0)"/>
       <use xlink:href="#DejaVuSans-34" transform="translate(95.410156 0)"/>
      </g>
     </g>
    </g>
    <g id="ytick_10">
     <g id="line2d_39">
      <g>
       <use xlink:href="#md7f8f4194e" x="803.23" y="488.030125" style="stroke: #000000; stroke-width: 0.8"/>
      </g>
     </g>
     <g id="text_23">
      <!-- 0.6 -->
      <g transform="translate(810.23 491.829344) scale(0.1 -0.1)">
       <defs>
        <path id="DejaVuSans-36" d="M 2113 2584 
Q 1688 2584 1439 2293 
Q 1191 2003 1191 1497 
Q 1191 994 1439 701 
Q 1688 409 2113 409 
Q 2538 409 2786 701 
Q 3034 994 3034 1497 
Q 3034 2003 2786 2293 
Q 2538 2584 2113 2584 
z
M 3366 4563 
L 3366 3988 
Q 3128 4100 2886 4159 
Q 2644 4219 2406 4219 
Q 1781 4219 1451 3797 
Q 1122 3375 1075 2522 
Q 1259 2794 1537 2939 
Q 1816 3084 2150 3084 
Q 2853 3084 3261 2657 
Q 3669 2231 3669 1497 
Q 3669 778 3244 343 
Q 2819 -91 2113 -91 
Q 1303 -91 875 529 
Q 447 1150 447 2328 
Q 447 3434 972 4092 
Q 1497 4750 2381 4750 
Q 2619 4750 2861 4703 
Q 3103 4656 3366 4563 
z
" transform="scale(0.015625)"/>
       </defs>
       <use xlink:href="#DejaVuSans-30"/>
       <use xlink:href="#DejaVuSans-2e" transform="translate(63.623047 0)"/>
       <use xlink:href="#DejaVuSans-36" transform="translate(95.410156 0)"/>
      </g>
     </g>
    </g>
    <g id="ytick_11">
     <g id="line2d_40">
      <g>
       <use xlink:href="#md7f8f4194e" x="803.23" y="426.214125" style="stroke: #000000; stroke-width: 0.8"/>
      </g>
     </g>
     <g id="text_24">
      <!-- 0.8 -->
      <g transform="translate(810.23 430.013344) scale(0.1 -0.1)">
       <defs>
        <path id="DejaVuSans-38" d="M 2034 2216 
Q 1584 2216 1326 1975 
Q 1069 1734 1069 1313 
Q 1069 891 1326 650 
Q 1584 409 2034 409 
Q 2484 409 2743 651 
Q 3003 894 3003 1313 
Q 3003 1734 2745 1975 
Q 2488 2216 2034 2216 
z
M 1403 2484 
Q 997 2584 770 2862 
Q 544 3141 544 3541 
Q 544 4100 942 4425 
Q 1341 4750 2034 4750 
Q 2731 4750 3128 4425 
Q 3525 4100 3525 3541 
Q 3525 3141 3298 2862 
Q 3072 2584 2669 2484 
Q 3125 2378 3379 2068 
Q 3634 1759 3634 1313 
Q 3634 634 3220 271 
Q 2806 -91 2034 -91 
Q 1263 -91 848 271 
Q 434 634 434 1313 
Q 434 1759 690 2068 
Q 947 2378 1403 2484 
z
M 1172 3481 
Q 1172 3119 1398 2916 
Q 1625 2713 2034 2713 
Q 2441 2713 2670 2916 
Q 2900 3119 2900 3481 
Q 2900 3844 2670 4047 
Q 2441 4250 2034 4250 
Q 1625 4250 1398 4047 
Q 1172 3844 1172 3481 
z
" transform="scale(0.015625)"/>
       </defs>
       <use xlink:href="#DejaVuSans-30"/>
       <use xlink:href="#DejaVuSans-2e" transform="translate(63.623047 0)"/>
       <use xlink:href="#DejaVuSans-38" transform="translate(95.410156 0)"/>
      </g>
     </g>
    </g>
    <g id="ytick_12">
     <g id="line2d_41">
      <g>
       <use xlink:href="#md7f8f4194e" x="803.23" y="364.398125" style="stroke: #000000; stroke-width: 0.8"/>
      </g>
     </g>
     <g id="text_25">
      <!-- 1.0 -->
      <g transform="translate(810.23 368.197344) scale(0.1 -0.1)">
       <use xlink:href="#DejaVuSans-31"/>
       <use xlink:href="#DejaVuSans-2e" transform="translate(63.623047 0)"/>
       <use xlink:href="#DejaVuSans-30" transform="translate(95.410156 0)"/>
      </g>
     </g>
    </g>
    <g id="text_26">
     <!-- Share (01) -->
     <g transform="translate(837.731562 547.717812) rotate(-90) scale(0.1 -0.1)">
      <defs>
       <path id="DejaVuSans-2013" d="M 313 1978 
L 2888 1978 
L 2888 1528 
L 313 1528 
L 313 1978 
z
" transform="scale(0.015625)"/>
      </defs>
      <use xlink:href="#DejaVuSans-53"/>
      <use xlink:href="#DejaVuSans-68" transform="translate(63.476562 0)"/>
      <use xlink:href="#DejaVuSans-61" transform="translate(126.855469 0)"/>
      <use xlink:href="#DejaVuSans-72" transform="translate(188.134766 0)"/>
      <use xlink:href="#DejaVuSans-65" transform="translate(226.998047 0)"/>
      <use xlink:href="#DejaVuSans-20" transform="translate(288.521484 0)"/>
      <use xlink:href="#DejaVuSans-28" transform="translate(320.308594 0)"/>
      <use xlink:href="#DejaVuSans-30" transform="translate(359.322266 0)"/>
      <use xlink:href="#DejaVuSans-2013" transform="translate(422.945312 0)"/>
      <use xlink:href="#DejaVuSans-31" transform="translate(472.945312 0)"/>
      <use xlink:href="#DejaVuSans-29" transform="translate(536.568359 0)"/>
     </g>
    </g>
   </g>
   <g id="line2d_42">
    <path d="M 43.383182 673.362408 
L 56.792371 673.478125 
L 68.903896 673.478125 
L 82.313085 673.478125 
L 95.289719 673.478125 
L 108.698908 673.478125 
L 121.675542 673.478125 
L 135.08473 673.478125 
L 148.493919 673.331224 
L 161.470553 673.352636 
L 174.879742 673.354196 
L 187.856376 673.478125 
L 201.265565 673.478125 
L 214.674754 673.478125 
L 226.786279 673.478125 
L 240.195468 673.478125 
L 253.172102 673.478125 
L 266.581291 673.147558 
L 279.557925 673.025095 
L 292.967114 673.095916 
L 306.376303 673.359613 
L 319.352937 672.318785 
L 332.762125 671.288287 
L 345.73876 672.09707 
L 359.147948 672.291637 
L 372.557137 673.099234 
L 384.668662 672.485363 
L 398.077851 671.728451 
L 411.054485 671.315517 
L 424.463674 672.401191 
L 437.440308 671.545277 
L 450.849497 671.607747 
L 464.258686 671.405958 
L 477.23532 669.542054 
L 490.644509 670.488234 
L 503.621143 663.336437 
L 517.030332 668.528749 
L 530.43952 669.905978 
L 542.9836 667.160452 
L 556.392789 670.144728 
L 569.369423 668.289732 
L 582.778612 667.828276 
L 595.755246 668.271349 
L 609.164435 670.607413 
L 622.573624 668.714906 
L 635.550258 668.107491 
L 648.959447 670.350611 
L 661.936081 661.462056 
L 675.34527 668.359292 
L 688.754458 663.444128 
L 700.865984 668.808851 
L 714.275172 667.779547 
L 727.251806 668.061734 
L 740.660995 667.138951 
L 753.637629 661.882794 
L 767.046818 659.09504 
" clip-path="url(#p4f99c1540b)" style="fill: none; stroke: #2ecc71; stroke-width: 1.5; stroke-linecap: square"/>
   </g>
   <g id="line2d_43">
    <path d="M 43.383182 673.362408 
L 56.792371 673.478125 
L 68.903896 673.478125 
L 82.313085 673.478125 
L 95.289719 673.478125 
L 108.698908 673.478125 
L 121.675542 673.478125 
L 135.08473 673.478125 
L 148.493919 673.331224 
L 161.470553 673.227147 
L 174.879742 673.354196 
L 187.856376 673.478125 
L 201.265565 673.478125 
L 214.674754 673.478125 
L 226.786279 673.478125 
L 240.195468 673.478125 
L 253.172102 673.478125 
L 266.581291 673.037369 
L 279.557925 673.025095 
L 292.967114 672.841109 
L 306.376303 673.359613 
L 319.352937 672.318785 
L 332.762125 671.079731 
L 345.73876 671.958965 
L 359.147948 672.291637 
L 372.557137 673.099234 
L 384.668662 672.485363 
L 398.077851 671.728451 
L 411.054485 671.229012 
L 424.463674 672.401191 
L 437.440308 671.545277 
L 450.849497 671.549297 
L 464.258686 671.405958 
L 477.23532 669.542054 
L 490.644509 670.488234 
L 503.621143 663.175458 
L 517.030332 668.528749 
L 530.43952 669.905978 
L 542.9836 667.063257 
L 556.392789 670.144728 
L 569.369423 668.289732 
L 582.778612 667.761807 
L 595.755246 668.271349 
L 609.164435 670.224651 
L 622.573624 668.714906 
L 635.550258 668.107491 
L 648.959447 670.214632 
L 661.936081 661.462056 
L 675.34527 668.359292 
L 688.754458 663.279636 
L 700.865984 668.808851 
L 714.275172 667.779547 
L 727.251806 668.061734 
L 740.660995 667.138951 
L 753.637629 661.62512 
L 767.046818 658.938702 
" clip-path="url(#p4f99c1540b)" style="fill: none; stroke: #f39c12; stroke-width: 1.5; stroke-linecap: square"/>
   </g>
   <g id="line2d_44">
    <path d="M 43.383182 673.362408 
L 56.792371 673.478125 
L 68.903896 673.478125 
L 82.313085 673.478125 
L 95.289719 673.478125 
L 108.698908 673.478125 
L 121.675542 673.478125 
L 135.08473 673.478125 
L 148.493919 673.331224 
L 161.470553 673.227147 
L 174.879742 673.354196 
L 187.856376 673.478125 
L 201.265565 673.478125 
L 214.674754 673.478125 
L 226.786279 673.478125 
L 240.195468 673.478125 
L 253.172102 673.478125 
L 266.581291 673.037369 
L 279.557925 673.025095 
L 292.967114 672.841109 
L 306.376303 673.359613 
L 319.352937 672.318785 
L 332.762125 671.079731 
L 345.73876 671.958965 
L 359.147948 672.291637 
L 372.557137 673.099234 
L 384.668662 672.485363 
L 398.077851 671.728451 
L 411.054485 671.229012 
L 424.463674 672.401191 
L 437.440308 671.545277 
L 450.849497 671.549297 
L 464.258686 671.405958 
L 477.23532 669.542054 
L 490.644509 670.488234 
L 503.621143 663.175458 
L 517.030332 668.528749 
L 530.43952 669.905978 
L 542.9836 667.063257 
L 556.392789 670.144728 
L 569.369423 668.289732 
L 582.778612 667.761807 
L 595.755246 668.271349 
L 609.164435 670.224651 
L 622.573624 668.714906 
L 635.550258 668.107491 
L 648.959447 670.214632 
L 661.936081 661.462056 
L 675.34527 668.359292 
L 688.754458 663.279636 
L 700.865984 668.808851 
L 714.275172 667.779547 
L 727.251806 668.061734 
L 740.660995 667.138951 
L 753.637629 661.62512 
L 767.046818 658.938702 
" clip-path="url(#p4f99c1540b)" style="fill: none; stroke: #f35c12; stroke-width: 1.5; stroke-linecap: square"/>
   </g>
   <g id="line2d_45">
    <path d="M 43.383182 650.219016 
L 56.792371 652.479351 
L 68.903896 658.69091 
L 82.313085 657.396272 
L 95.289719 655.894907 
L 108.698908 658.859476 
L 121.675542 664.709898 
L 135.08473 667.634175 
L 148.493919 664.810958 
L 161.470553 661.305669 
L 174.879742 664.059488 
L 187.856376 664.170538 
L 201.265565 667.666732 
L 214.674754 663.396109 
L 226.786279 669.960728 
L 240.195468 670.236934 
L 253.172102 669.321792 
L 266.581291 665.434332 
L 279.557925 658.528121 
L 292.967114 664.814712 
L 306.376303 669.922757 
L 319.352937 656.088027 
L 332.762125 664.405939 
L 345.73876 667.401485 
L 359.147948 668.901673 
L 372.557137 670.352278 
L 384.668662 668.117209 
L 398.077851 669.716325 
L 411.054485 664.308665 
L 424.463674 666.933681 
L 437.440308 666.273873 
L 450.849497 667.516294 
L 464.258686 669.551915 
L 477.23532 667.67242 
L 490.644509 669.273591 
L 503.621143 662.692521 
L 517.030332 665.371388 
L 530.43952 668.209209 
L 542.9836 665.410943 
L 556.392789 669.403973 
L 569.369423 668.042665 
L 582.778612 665.368929 
L 595.755246 664.800165 
L 609.164435 668.693605 
L 622.573624 666.950751 
L 635.550258 666.093503 
L 648.959447 668.582885 
L 661.936081 657.901739 
L 675.34527 665.190491 
L 688.754458 660.81226 
L 700.865984 665.955406 
L 714.275172 659.503042 
L 727.251806 663.336798 
L 740.660995 665.689997 
L 753.637629 659.177216 
L 767.046818 656.593633 
" clip-path="url(#p4f99c1540b)" style="fill: none; stroke: #c7c7c7; stroke-width: 1.5; stroke-linecap: square"/>
   </g>
   <g id="line2d_46">
    <path d="M 43.383182 364.398125 
L 56.792371 364.398125 
L 68.903896 364.398125 
L 82.313085 364.398125 
L 95.289719 364.398125 
L 108.698908 364.398125 
L 121.675542 364.398125 
L 135.08473 364.398125 
L 148.493919 364.398125 
L 161.470553 364.398125 
L 174.879742 364.398125 
L 187.856376 364.398125 
L 201.265565 364.398125 
L 214.674754 364.398125 
L 226.786279 364.398125 
L 240.195468 364.398125 
L 253.172102 364.398125 
L 266.581291 364.398125 
L 279.557925 364.398125 
L 292.967114 364.398125 
L 306.376303 364.398125 
L 319.352937 364.398125 
L 332.762125 364.398125 
L 345.73876 364.398125 
L 359.147948 364.398125 
L 372.557137 364.398125 
L 384.668662 364.398125 
L 398.077851 364.398125 
L 411.054485 364.398125 
L 424.463674 364.398125 
L 437.440308 364.398125 
L 450.849497 364.398125 
L 464.258686 364.398125 
L 477.23532 364.398125 
L 490.644509 364.398125 
L 503.621143 364.398125 
L 517.030332 364.398125 
L 530.43952 364.398125 
L 542.9836 364.398125 
L 556.392789 364.398125 
L 569.369423 364.398125 
L 582.778612 364.398125 
L 595.755246 364.398125 
L 609.164435 364.398125 
L 622.573624 364.398125 
L 635.550258 364.398125 
L 648.959447 364.398125 
L 661.936081 364.398125 
L 675.34527 364.398125 
L 688.754458 364.398125 
L 700.865984 364.398125 
L 714.275172 364.398125 
L 727.251806 364.398125 
L 740.660995 364.398125 
L 753.637629 364.398125 
L 767.046818 364.398125 
" clip-path="url(#p4f99c1540b)" style="fill: none; stroke: #9e9e9e; stroke-width: 1.5; stroke-linecap: square"/>
   </g>
   <g id="patch_14">
    <path d="M 7.2 673.478125 
L 7.2 364.398125 
" style="fill: none; stroke: #000000; stroke-width: 0.8; stroke-linejoin: miter; stroke-linecap: square"/>
   </g>
   <g id="patch_15">
    <path d="M 803.23 673.478125 
L 803.23 364.398125 
" style="fill: none; stroke: #000000; stroke-width: 0.8; stroke-linejoin: miter; stroke-linecap: square"/>
   </g>
   <g id="patch_16">
    <path d="M 7.2 673.478125 
L 803.23 673.478125 
" style="fill: none; stroke: #000000; stroke-width: 0.8; stroke-linejoin: miter; stroke-linecap: square"/>
   </g>
   <g id="patch_17">
    <path d="M 7.2 364.398125 
L 803.23 364.398125 
" style="fill: none; stroke: #000000; stroke-width: 0.8; stroke-linejoin: miter; stroke-linecap: square"/>
   </g>
   <g id="text_27">
    <!-- Sattelzugmaschinen by Powertype over Time (Fraction) -->
    <g transform="translate(239.062812 358.398125) scale(0.12 -0.12)">
     <defs>
      <path id="DejaVuSans-46" d="M 628 4666 
L 3309 4666 
L 3309 4134 
L 1259 4134 
L 1259 2759 
L 3109 2759 
L 3109 2228 
L 1259 2228 
L 1259 0 
L 628 0 
L 628 4666 
z
" transform="scale(0.015625)"/>
     </defs>
     <use xlink:href="#DejaVuSans-53"/>
     <use xlink:href="#DejaVuSans-61" transform="translate(63.476562 0)"/>
     <use xlink:href="#DejaVuSans-74" transform="translate(124.755859 0)"/>
     <use xlink:href="#DejaVuSans-74" transform="translate(163.964844 0)"/>
     <use xlink:href="#DejaVuSans-65" transform="translate(203.173828 0)"/>
     <use xlink:href="#DejaVuSans-6c" transform="translate(264.697266 0)"/>
     <use xlink:href="#DejaVuSans-7a" transform="translate(292.480469 0)"/>
     <use xlink:href="#DejaVuSans-75" transform="translate(344.970703 0)"/>
     <use xlink:href="#DejaVuSans-67" transform="translate(408.349609 0)"/>
     <use xlink:href="#DejaVuSans-6d" transform="translate(471.826172 0)"/>
     <use xlink:href="#DejaVuSans-61" transform="translate(569.238281 0)"/>
     <use xlink:href="#DejaVuSans-73" transform="translate(630.517578 0)"/>
     <use xlink:href="#DejaVuSans-63" transform="translate(682.617188 0)"/>
     <use xlink:href="#DejaVuSans-68" transform="translate(737.597656 0)"/>
     <use xlink:href="#DejaVuSans-69" transform="translate(800.976562 0)"/>
     <use xlink:href="#DejaVuSans-6e" transform="translate(828.759766 0)"/>
     <use xlink:href="#DejaVuSans-65" transform="translate(892.138672 0)"/>
     <use xlink:href="#DejaVuSans-6e" transform="translate(953.662109 0)"/>
     <use xlink:href="#DejaVuSans-20" transform="translate(1017.041016 0)"/>
     <use xlink:href="#DejaVuSans-62" transform="translate(1048.828125 0)"/>
     <use xlink:href="#DejaVuSans-79" transform="translate(1112.304688 0)"/>
     <use xlink:href="#DejaVuSans-20" transform="translate(1171.484375 0)"/>
     <use xlink:href="#DejaVuSans-50" transform="translate(1203.271484 0)"/>
     <use xlink:href="#DejaVuSans-6f" transform="translate(1259.949219 0)"/>
     <use xlink:href="#DejaVuSans-77" transform="translate(1321.130859 0)"/>
     <use xlink:href="#DejaVuSans-65" transform="translate(1402.917969 0)"/>
     <use xlink:href="#DejaVuSans-72" transform="translate(1464.441406 0)"/>
     <use xlink:href="#DejaVuSans-74" transform="translate(1505.554688 0)"/>
     <use xlink:href="#DejaVuSans-79" transform="translate(1544.763672 0)"/>
     <use xlink:href="#DejaVuSans-70" transform="translate(1603.943359 0)"/>
     <use xlink:href="#DejaVuSans-65" transform="translate(1667.419922 0)"/>
     <use xlink:href="#DejaVuSans-20" transform="translate(1728.943359 0)"/>
     <use xlink:href="#DejaVuSans-6f" transform="translate(1760.730469 0)"/>
     <use xlink:href="#DejaVuSans-76" transform="translate(1821.912109 0)"/>
     <use xlink:href="#DejaVuSans-65" transform="translate(1881.091797 0)"/>
     <use xlink:href="#DejaVuSans-72" transform="translate(1942.615234 0)"/>
     <use xlink:href="#DejaVuSans-20" transform="translate(1983.728516 0)"/>
     <use xlink:href="#DejaVuSans-54" transform="translate(2015.515625 0)"/>
     <use xlink:href="#DejaVuSans-69" transform="translate(2073.474609 0)"/>
     <use xlink:href="#DejaVuSans-6d" transform="translate(2101.257812 0)"/>
     <use xlink:href="#DejaVuSans-65" transform="translate(2198.669922 0)"/>
     <use xlink:href="#DejaVuSans-20" transform="translate(2260.193359 0)"/>
     <use xlink:href="#DejaVuSans-28" transform="translate(2291.980469 0)"/>
     <use xlink:href="#DejaVuSans-46" transform="translate(2330.994141 0)"/>
     <use xlink:href="#DejaVuSans-72" transform="translate(2381.263672 0)"/>
     <use xlink:href="#DejaVuSans-61" transform="translate(2422.376953 0)"/>
     <use xlink:href="#DejaVuSans-63" transform="translate(2483.65625 0)"/>
     <use xlink:href="#DejaVuSans-74" transform="translate(2538.636719 0)"/>
     <use xlink:href="#DejaVuSans-69" transform="translate(2577.845703 0)"/>
     <use xlink:href="#DejaVuSans-6f" transform="translate(2605.628906 0)"/>
     <use xlink:href="#DejaVuSans-6e" transform="translate(2666.810547 0)"/>
     <use xlink:href="#DejaVuSans-29" transform="translate(2730.189453 0)"/>
    </g>
   </g>
   <g id="legend_2">
    <g id="patch_18">
     <path d="M 375.018125 445.78875 
L 435.411875 445.78875 
Q 437.411875 445.78875 437.411875 443.78875 
L 437.411875 371.398125 
Q 437.411875 369.398125 435.411875 369.398125 
L 375.018125 369.398125 
Q 373.018125 369.398125 373.018125 371.398125 
L 373.018125 443.78875 
Q 373.018125 445.78875 375.018125 445.78875 
z
" style="fill: #ffffff; opacity: 0.8; stroke: #cccccc; stroke-linejoin: miter"/>
    </g>
    <g id="patch_19">
     <path d="M 377.018125 380.996562 
L 397.018125 380.996562 
L 397.018125 373.996562 
L 377.018125 373.996562 
z
" style="fill: #2ecc71; stroke: #2ecc71; stroke-linejoin: miter"/>
    </g>
    <g id="text_28">
     <!-- BEV -->
     <g transform="translate(405.018125 380.996562) scale(0.1 -0.1)">
      <use xlink:href="#DejaVuSans-42"/>
      <use xlink:href="#DejaVuSans-45" transform="translate(68.603516 0)"/>
      <use xlink:href="#DejaVuSans-56" transform="translate(131.787109 0)"/>
     </g>
    </g>
    <g id="patch_20">
     <path d="M 377.018125 395.674687 
L 397.018125 395.674687 
L 397.018125 388.674687 
L 377.018125 388.674687 
z
" style="fill: #f39c12; stroke: #f39c12; stroke-linejoin: miter"/>
    </g>
    <g id="text_29">
     <!-- PHEV -->
     <g transform="translate(405.018125 395.674687) scale(0.1 -0.1)">
      <use xlink:href="#DejaVuSans-50"/>
      <use xlink:href="#DejaVuSans-48" transform="translate(60.302734 0)"/>
      <use xlink:href="#DejaVuSans-45" transform="translate(135.498047 0)"/>
      <use xlink:href="#DejaVuSans-56" transform="translate(198.681641 0)"/>
     </g>
    </g>
    <g id="patch_21">
     <path d="M 377.018125 410.352812 
L 397.018125 410.352812 
L 397.018125 403.352812 
L 377.018125 403.352812 
z
" style="fill: #f35c12; stroke: #f35c12; stroke-linejoin: miter"/>
    </g>
    <g id="text_30">
     <!-- Gas -->
     <g transform="translate(405.018125 410.352812) scale(0.1 -0.1)">
      <use xlink:href="#DejaVuSans-47"/>
      <use xlink:href="#DejaVuSans-61" transform="translate(77.490234 0)"/>
      <use xlink:href="#DejaVuSans-73" transform="translate(138.769531 0)"/>
     </g>
    </g>
    <g id="patch_22">
     <path d="M 377.018125 425.030937 
L 397.018125 425.030937 
L 397.018125 418.030937 
L 377.018125 418.030937 
z
" style="fill: #c7c7c7; stroke: #c7c7c7; stroke-linejoin: miter"/>
    </g>
    <g id="text_31">
     <!-- Other -->
     <g transform="translate(405.018125 425.030937) scale(0.1 -0.1)">
      <use xlink:href="#DejaVuSans-4f"/>
      <use xlink:href="#DejaVuSans-74" transform="translate(78.710938 0)"/>
      <use xlink:href="#DejaVuSans-68" transform="translate(117.919922 0)"/>
      <use xlink:href="#DejaVuSans-65" transform="translate(181.298828 0)"/>
      <use xlink:href="#DejaVuSans-72" transform="translate(242.822266 0)"/>
     </g>
    </g>
    <g id="patch_23">
     <path d="M 377.018125 439.709062 
L 397.018125 439.709062 
L 397.018125 432.709062 
L 377.018125 432.709062 
z
" style="fill: #9e9e9e; stroke: #9e9e9e; stroke-linejoin: miter"/>
    </g>
    <g id="text_32">
     <!-- ICE -->
     <g transform="translate(405.018125 439.709062) scale(0.1 -0.1)">
      <use xlink:href="#DejaVuSans-49"/>
      <use xlink:href="#DejaVuSans-43" transform="translate(29.492188 0)"/>
      <use xlink:href="#DejaVuSans-45" transform="translate(99.316406 0)"/>
     </g>
    </g>
   </g>
  </g>
 </g>
 <defs>
  <clipPath id="p7be0e58fc2">
   <rect x="7.2" y="22.318125" width="796.03" height="309.08"/>
  </clipPath>
  <clipPath id="p4f99c1540b">
   <rect x="7.2" y="364.398125" width="796.03" height="309.08"/>
  </clipPath>
 </defs>
</svg>
